%TF.GenerationSoftware,KiCad,Pcbnew,8.0.8*%
%TF.CreationDate,2025-03-12T15:52:42-05:00*%
%TF.ProjectId,group1_battlebot,67726f75-7031-45f6-9261-74746c65626f,rev?*%
%TF.SameCoordinates,Original*%
%TF.FileFunction,Legend,Top*%
%TF.FilePolarity,Positive*%
%FSLAX46Y46*%
G04 Gerber Fmt 4.6, Leading zero omitted, Abs format (unit mm)*
G04 Created by KiCad (PCBNEW 8.0.8) date 2025-03-12 15:52:42*
%MOMM*%
%LPD*%
G01*
G04 APERTURE LIST*
%ADD10C,0.100000*%
%ADD11C,0.150000*%
%ADD12C,0.120000*%
G04 APERTURE END LIST*
D10*
X89014535Y-159814586D02*
X89205009Y-159815433D01*
X89205009Y-159815433D02*
X89300458Y-159768238D01*
X89300458Y-159768238D02*
X89348288Y-159720831D01*
X89348288Y-159720831D02*
X89444160Y-159578398D01*
X89444160Y-159578398D02*
X89492625Y-159388136D01*
X89492625Y-159388136D02*
X89494318Y-159007187D01*
X89494318Y-159007187D02*
X89447123Y-158911738D01*
X89447123Y-158911738D02*
X89399716Y-158863908D01*
X89399716Y-158863908D02*
X89304690Y-158815866D01*
X89304690Y-158815866D02*
X89114216Y-158815020D01*
X89114216Y-158815020D02*
X89018767Y-158862215D01*
X89018767Y-158862215D02*
X88970937Y-158909622D01*
X88970937Y-158909622D02*
X88922895Y-159004647D01*
X88922895Y-159004647D02*
X88921837Y-159242740D01*
X88921837Y-159242740D02*
X88969032Y-159338189D01*
X88969032Y-159338189D02*
X89016439Y-159386019D01*
X89016439Y-159386019D02*
X89111465Y-159434061D01*
X89111465Y-159434061D02*
X89301939Y-159434908D01*
X89301939Y-159434908D02*
X89397388Y-159387712D01*
X89397388Y-159387712D02*
X89445218Y-159340305D01*
X89445218Y-159340305D02*
X89493260Y-159245280D01*
X90443092Y-159820936D02*
X89871669Y-159818396D01*
X90157380Y-159819666D02*
X90161825Y-158819676D01*
X90161825Y-158819676D02*
X90065953Y-158962108D01*
X90065953Y-158962108D02*
X89970292Y-159056922D01*
X89970292Y-159056922D02*
X89874844Y-159104117D01*
X90872082Y-159727603D02*
X90919489Y-159775433D01*
X90919489Y-159775433D02*
X90871659Y-159822840D01*
X90871659Y-159822840D02*
X90824252Y-159775010D01*
X90824252Y-159775010D02*
X90872082Y-159727603D01*
X90872082Y-159727603D02*
X90871659Y-159822840D01*
X91779375Y-159160201D02*
X91776412Y-159826861D01*
X91542975Y-158778195D02*
X91301707Y-159491415D01*
X91301707Y-159491415D02*
X91920749Y-159494166D01*
X92731746Y-159164434D02*
X92728783Y-159831094D01*
X92495346Y-158782427D02*
X92254079Y-159495648D01*
X92254079Y-159495648D02*
X92873120Y-159498399D01*
X93447506Y-158834279D02*
X93542743Y-158834702D01*
X93542743Y-158834702D02*
X93637769Y-158882744D01*
X93637769Y-158882744D02*
X93685176Y-158930574D01*
X93685176Y-158930574D02*
X93732371Y-159026023D01*
X93732371Y-159026023D02*
X93779143Y-159216709D01*
X93779143Y-159216709D02*
X93778085Y-159454802D01*
X93778085Y-159454802D02*
X93729620Y-159645064D01*
X93729620Y-159645064D02*
X93681578Y-159740090D01*
X93681578Y-159740090D02*
X93633748Y-159787497D01*
X93633748Y-159787497D02*
X93538299Y-159834692D01*
X93538299Y-159834692D02*
X93443062Y-159834269D01*
X93443062Y-159834269D02*
X93348036Y-159786227D01*
X93348036Y-159786227D02*
X93300629Y-159738397D01*
X93300629Y-159738397D02*
X93253434Y-159642948D01*
X93253434Y-159642948D02*
X93206662Y-159452262D01*
X93206662Y-159452262D02*
X93207720Y-159214169D01*
X93207720Y-159214169D02*
X93256185Y-159023906D01*
X93256185Y-159023906D02*
X93304227Y-158928881D01*
X93304227Y-158928881D02*
X93352058Y-158881474D01*
X93352058Y-158881474D02*
X93447506Y-158834279D01*
X94252578Y-159837867D02*
X94443052Y-159838713D01*
X94443052Y-159838713D02*
X94538501Y-159791518D01*
X94538501Y-159791518D02*
X94586331Y-159744111D01*
X94586331Y-159744111D02*
X94682203Y-159601678D01*
X94682203Y-159601678D02*
X94730668Y-159411416D01*
X94730668Y-159411416D02*
X94732361Y-159030467D01*
X94732361Y-159030467D02*
X94685166Y-158935018D01*
X94685166Y-158935018D02*
X94637759Y-158887188D01*
X94637759Y-158887188D02*
X94542734Y-158839146D01*
X94542734Y-158839146D02*
X94352259Y-158838300D01*
X94352259Y-158838300D02*
X94256811Y-158885495D01*
X94256811Y-158885495D02*
X94208980Y-158932902D01*
X94208980Y-158932902D02*
X94160938Y-159027928D01*
X94160938Y-159027928D02*
X94159880Y-159266020D01*
X94159880Y-159266020D02*
X94207076Y-159361469D01*
X94207076Y-159361469D02*
X94254483Y-159409299D01*
X94254483Y-159409299D02*
X94349508Y-159457341D01*
X94349508Y-159457341D02*
X94539982Y-159458188D01*
X94539982Y-159458188D02*
X94635431Y-159410993D01*
X94635431Y-159410993D02*
X94683261Y-159363586D01*
X94683261Y-159363586D02*
X94731303Y-159268560D01*
X95919228Y-159845274D02*
X95922191Y-159178614D01*
X95921768Y-159273851D02*
X95969598Y-159226444D01*
X95969598Y-159226444D02*
X96065047Y-159179249D01*
X96065047Y-159179249D02*
X96207903Y-159179884D01*
X96207903Y-159179884D02*
X96302928Y-159227926D01*
X96302928Y-159227926D02*
X96350123Y-159323374D01*
X96350123Y-159323374D02*
X96347795Y-159847179D01*
X96350123Y-159323374D02*
X96398165Y-159228349D01*
X96398165Y-159228349D02*
X96493614Y-159181154D01*
X96493614Y-159181154D02*
X96636470Y-159181788D01*
X96636470Y-159181788D02*
X96731495Y-159229830D01*
X96731495Y-159229830D02*
X96778691Y-159325279D01*
X96778691Y-159325279D02*
X96776363Y-159849083D01*
X97252548Y-159851200D02*
X97255511Y-159184540D01*
X97255088Y-159279777D02*
X97302918Y-159232370D01*
X97302918Y-159232370D02*
X97398367Y-159185175D01*
X97398367Y-159185175D02*
X97541222Y-159185810D01*
X97541222Y-159185810D02*
X97636248Y-159233851D01*
X97636248Y-159233851D02*
X97683443Y-159329300D01*
X97683443Y-159329300D02*
X97681115Y-159853105D01*
X97683443Y-159329300D02*
X97731485Y-159234275D01*
X97731485Y-159234275D02*
X97826934Y-159187079D01*
X97826934Y-159187079D02*
X97969790Y-159187714D01*
X97969790Y-159187714D02*
X98064815Y-159235756D01*
X98064815Y-159235756D02*
X98112011Y-159331205D01*
X98112011Y-159331205D02*
X98109682Y-159855009D01*
X47952978Y-129328795D02*
X47812837Y-160860482D01*
X139392978Y-129735195D02*
X139252837Y-161266882D01*
X47815443Y-160274067D02*
X139255443Y-160680467D01*
X47815443Y-160274067D02*
X139255443Y-160680467D01*
X47815443Y-160274067D02*
X48944542Y-159692659D01*
X47815443Y-160274067D02*
X48939329Y-160865489D01*
X139255443Y-160680467D02*
X138126344Y-161261875D01*
X139255443Y-160680467D02*
X138131557Y-160089045D01*
X28280741Y-90054167D02*
X28233010Y-90149349D01*
X28233010Y-90149349D02*
X28185335Y-90196912D01*
X28185335Y-90196912D02*
X28090041Y-90244419D01*
X28090041Y-90244419D02*
X28042422Y-90244363D01*
X28042422Y-90244363D02*
X27947240Y-90196632D01*
X27947240Y-90196632D02*
X27899677Y-90148957D01*
X27899677Y-90148957D02*
X27852170Y-90053663D01*
X27852170Y-90053663D02*
X27852394Y-89863187D01*
X27852394Y-89863187D02*
X27900125Y-89768005D01*
X27900125Y-89768005D02*
X27947800Y-89720442D01*
X27947800Y-89720442D02*
X28043094Y-89672935D01*
X28043094Y-89672935D02*
X28090713Y-89672991D01*
X28090713Y-89672991D02*
X28185895Y-89720722D01*
X28185895Y-89720722D02*
X28233458Y-89768397D01*
X28233458Y-89768397D02*
X28280965Y-89863691D01*
X28280965Y-89863691D02*
X28280741Y-90054167D01*
X28280741Y-90054167D02*
X28328248Y-90149461D01*
X28328248Y-90149461D02*
X28375811Y-90197136D01*
X28375811Y-90197136D02*
X28470993Y-90244867D01*
X28470993Y-90244867D02*
X28661469Y-90245091D01*
X28661469Y-90245091D02*
X28756763Y-90197584D01*
X28756763Y-90197584D02*
X28804438Y-90150021D01*
X28804438Y-90150021D02*
X28852169Y-90054839D01*
X28852169Y-90054839D02*
X28852393Y-89864363D01*
X28852393Y-89864363D02*
X28804886Y-89769069D01*
X28804886Y-89769069D02*
X28757323Y-89721394D01*
X28757323Y-89721394D02*
X28662141Y-89673663D01*
X28662141Y-89673663D02*
X28471665Y-89673439D01*
X28471665Y-89673439D02*
X28376371Y-89720946D01*
X28376371Y-89720946D02*
X28328696Y-89768509D01*
X28328696Y-89768509D02*
X28280965Y-89863691D01*
X27853626Y-88815568D02*
X27853402Y-89006044D01*
X27853402Y-89006044D02*
X27900909Y-89101338D01*
X27900909Y-89101338D02*
X27948472Y-89149013D01*
X27948472Y-89149013D02*
X28091217Y-89244420D01*
X28091217Y-89244420D02*
X28281637Y-89292263D01*
X28281637Y-89292263D02*
X28662589Y-89292711D01*
X28662589Y-89292711D02*
X28757884Y-89245204D01*
X28757884Y-89245204D02*
X28805559Y-89197641D01*
X28805559Y-89197641D02*
X28853290Y-89102459D01*
X28853290Y-89102459D02*
X28853514Y-88911983D01*
X28853514Y-88911983D02*
X28806007Y-88816689D01*
X28806007Y-88816689D02*
X28758444Y-88769014D01*
X28758444Y-88769014D02*
X28663262Y-88721283D01*
X28663262Y-88721283D02*
X28425167Y-88721003D01*
X28425167Y-88721003D02*
X28329873Y-88768510D01*
X28329873Y-88768510D02*
X28282198Y-88816072D01*
X28282198Y-88816072D02*
X28234466Y-88911255D01*
X28234466Y-88911255D02*
X28234242Y-89101731D01*
X28234242Y-89101731D02*
X28281749Y-89197025D01*
X28281749Y-89197025D02*
X28329312Y-89244700D01*
X28329312Y-89244700D02*
X28424494Y-89292431D01*
X28759004Y-88292824D02*
X28806679Y-88245261D01*
X28806679Y-88245261D02*
X28854242Y-88292936D01*
X28854242Y-88292936D02*
X28806567Y-88340499D01*
X28806567Y-88340499D02*
X28759004Y-88292824D01*
X28759004Y-88292824D02*
X28854242Y-88292936D01*
X27854691Y-87910807D02*
X27855419Y-87291760D01*
X27855419Y-87291760D02*
X28235979Y-87625542D01*
X28235979Y-87625542D02*
X28236147Y-87482684D01*
X28236147Y-87482684D02*
X28283878Y-87387502D01*
X28283878Y-87387502D02*
X28331553Y-87339939D01*
X28331553Y-87339939D02*
X28426847Y-87292433D01*
X28426847Y-87292433D02*
X28664942Y-87292713D01*
X28664942Y-87292713D02*
X28760124Y-87340444D01*
X28760124Y-87340444D02*
X28807687Y-87388119D01*
X28807687Y-87388119D02*
X28855194Y-87483413D01*
X28855194Y-87483413D02*
X28854858Y-87769127D01*
X28854858Y-87769127D02*
X28807127Y-87864309D01*
X28807127Y-87864309D02*
X28759452Y-87911872D01*
X27856428Y-86434618D02*
X27856203Y-86625094D01*
X27856203Y-86625094D02*
X27903710Y-86720388D01*
X27903710Y-86720388D02*
X27951273Y-86768063D01*
X27951273Y-86768063D02*
X28094018Y-86863469D01*
X28094018Y-86863469D02*
X28284438Y-86911312D01*
X28284438Y-86911312D02*
X28665391Y-86911760D01*
X28665391Y-86911760D02*
X28760685Y-86864254D01*
X28760685Y-86864254D02*
X28808360Y-86816691D01*
X28808360Y-86816691D02*
X28856091Y-86721509D01*
X28856091Y-86721509D02*
X28856315Y-86531032D01*
X28856315Y-86531032D02*
X28808808Y-86435738D01*
X28808808Y-86435738D02*
X28761245Y-86388063D01*
X28761245Y-86388063D02*
X28666063Y-86340332D01*
X28666063Y-86340332D02*
X28427968Y-86340052D01*
X28427968Y-86340052D02*
X28332674Y-86387559D01*
X28332674Y-86387559D02*
X28284999Y-86435122D01*
X28284999Y-86435122D02*
X28237268Y-86530304D01*
X28237268Y-86530304D02*
X28237044Y-86720780D01*
X28237044Y-86720780D02*
X28284550Y-86816074D01*
X28284550Y-86816074D02*
X28332113Y-86863749D01*
X28332113Y-86863749D02*
X28427295Y-86911480D01*
X27857268Y-85720333D02*
X27857380Y-85625095D01*
X27857380Y-85625095D02*
X27905111Y-85529913D01*
X27905111Y-85529913D02*
X27952786Y-85482350D01*
X27952786Y-85482350D02*
X28048080Y-85434843D01*
X28048080Y-85434843D02*
X28238612Y-85387448D01*
X28238612Y-85387448D02*
X28476707Y-85387728D01*
X28476707Y-85387728D02*
X28667127Y-85435571D01*
X28667127Y-85435571D02*
X28762309Y-85483302D01*
X28762309Y-85483302D02*
X28809872Y-85530977D01*
X28809872Y-85530977D02*
X28857379Y-85626271D01*
X28857379Y-85626271D02*
X28857267Y-85721509D01*
X28857267Y-85721509D02*
X28809536Y-85816691D01*
X28809536Y-85816691D02*
X28761861Y-85864254D01*
X28761861Y-85864254D02*
X28666567Y-85911761D01*
X28666567Y-85911761D02*
X28476035Y-85959156D01*
X28476035Y-85959156D02*
X28237940Y-85958876D01*
X28237940Y-85958876D02*
X28047520Y-85911033D01*
X28047520Y-85911033D02*
X27952338Y-85863302D01*
X27952338Y-85863302D02*
X27904775Y-85815627D01*
X27904775Y-85815627D02*
X27857268Y-85720333D01*
X28858780Y-84435796D02*
X28858108Y-85007224D01*
X28858444Y-84721510D02*
X27858444Y-84720333D01*
X27858444Y-84720333D02*
X28001189Y-84815739D01*
X28001189Y-84815739D02*
X28096315Y-84911089D01*
X28096315Y-84911089D02*
X28143822Y-85006384D01*
X28860180Y-83245320D02*
X28193514Y-83244536D01*
X28288752Y-83244648D02*
X28241189Y-83196973D01*
X28241189Y-83196973D02*
X28193682Y-83101679D01*
X28193682Y-83101679D02*
X28193850Y-82958822D01*
X28193850Y-82958822D02*
X28241581Y-82863640D01*
X28241581Y-82863640D02*
X28336875Y-82816133D01*
X28336875Y-82816133D02*
X28860685Y-82816749D01*
X28336875Y-82816133D02*
X28241693Y-82768402D01*
X28241693Y-82768402D02*
X28194186Y-82673108D01*
X28194186Y-82673108D02*
X28194354Y-82530251D01*
X28194354Y-82530251D02*
X28242086Y-82435069D01*
X28242086Y-82435069D02*
X28337380Y-82387562D01*
X28337380Y-82387562D02*
X28861189Y-82388178D01*
X28861749Y-81911988D02*
X28195083Y-81911204D01*
X28290321Y-81911316D02*
X28242758Y-81863641D01*
X28242758Y-81863641D02*
X28195251Y-81768347D01*
X28195251Y-81768347D02*
X28195419Y-81625490D01*
X28195419Y-81625490D02*
X28243150Y-81530308D01*
X28243150Y-81530308D02*
X28338444Y-81482801D01*
X28338444Y-81482801D02*
X28862253Y-81483417D01*
X28338444Y-81482801D02*
X28243262Y-81435070D01*
X28243262Y-81435070D02*
X28195755Y-81339775D01*
X28195755Y-81339775D02*
X28195923Y-81196918D01*
X28195923Y-81196918D02*
X28243654Y-81101736D01*
X28243654Y-81101736D02*
X28338948Y-81054229D01*
X28338948Y-81054229D02*
X28862757Y-81054846D01*
X47556800Y-42468212D02*
X28964340Y-42446339D01*
X47455200Y-128828212D02*
X28862740Y-128806339D01*
X29550760Y-42447028D02*
X29449160Y-128807028D01*
X29550760Y-42447028D02*
X29449160Y-128807028D01*
X29550760Y-42447028D02*
X30135855Y-43574221D01*
X29550760Y-42447028D02*
X28963014Y-43572841D01*
X29449160Y-128807028D02*
X28864065Y-127679835D01*
X29449160Y-128807028D02*
X30036906Y-127681215D01*
X89270618Y-38695870D02*
X89461092Y-38696717D01*
X89461092Y-38696717D02*
X89556541Y-38649522D01*
X89556541Y-38649522D02*
X89604371Y-38602115D01*
X89604371Y-38602115D02*
X89700243Y-38459682D01*
X89700243Y-38459682D02*
X89748708Y-38269420D01*
X89748708Y-38269420D02*
X89750401Y-37888471D01*
X89750401Y-37888471D02*
X89703206Y-37793022D01*
X89703206Y-37793022D02*
X89655799Y-37745192D01*
X89655799Y-37745192D02*
X89560773Y-37697150D01*
X89560773Y-37697150D02*
X89370299Y-37696304D01*
X89370299Y-37696304D02*
X89274850Y-37743499D01*
X89274850Y-37743499D02*
X89227020Y-37790906D01*
X89227020Y-37790906D02*
X89178978Y-37885931D01*
X89178978Y-37885931D02*
X89177920Y-38124024D01*
X89177920Y-38124024D02*
X89225115Y-38219473D01*
X89225115Y-38219473D02*
X89272522Y-38267303D01*
X89272522Y-38267303D02*
X89367548Y-38315345D01*
X89367548Y-38315345D02*
X89558022Y-38316192D01*
X89558022Y-38316192D02*
X89653471Y-38268996D01*
X89653471Y-38268996D02*
X89701301Y-38221589D01*
X89701301Y-38221589D02*
X89749343Y-38126564D01*
X90699175Y-38702220D02*
X90127752Y-38699680D01*
X90413463Y-38700950D02*
X90417908Y-37700960D01*
X90417908Y-37700960D02*
X90322036Y-37843392D01*
X90322036Y-37843392D02*
X90226375Y-37938206D01*
X90226375Y-37938206D02*
X90130927Y-37985401D01*
X91128165Y-38608887D02*
X91175572Y-38656717D01*
X91175572Y-38656717D02*
X91127742Y-38704124D01*
X91127742Y-38704124D02*
X91080335Y-38656294D01*
X91080335Y-38656294D02*
X91128165Y-38608887D01*
X91128165Y-38608887D02*
X91127742Y-38704124D01*
X92035458Y-38041485D02*
X92032495Y-38708145D01*
X91799058Y-37659479D02*
X91557790Y-38372699D01*
X91557790Y-38372699D02*
X92176832Y-38375450D01*
X92987829Y-38045718D02*
X92984866Y-38712378D01*
X92751429Y-37663711D02*
X92510162Y-38376932D01*
X92510162Y-38376932D02*
X93129203Y-38379683D01*
X93703589Y-37715563D02*
X93798826Y-37715986D01*
X93798826Y-37715986D02*
X93893852Y-37764028D01*
X93893852Y-37764028D02*
X93941259Y-37811858D01*
X93941259Y-37811858D02*
X93988454Y-37907307D01*
X93988454Y-37907307D02*
X94035226Y-38097993D01*
X94035226Y-38097993D02*
X94034168Y-38336086D01*
X94034168Y-38336086D02*
X93985703Y-38526348D01*
X93985703Y-38526348D02*
X93937661Y-38621374D01*
X93937661Y-38621374D02*
X93889831Y-38668781D01*
X93889831Y-38668781D02*
X93794382Y-38715976D01*
X93794382Y-38715976D02*
X93699145Y-38715553D01*
X93699145Y-38715553D02*
X93604119Y-38667511D01*
X93604119Y-38667511D02*
X93556712Y-38619681D01*
X93556712Y-38619681D02*
X93509517Y-38524232D01*
X93509517Y-38524232D02*
X93462745Y-38333546D01*
X93462745Y-38333546D02*
X93463803Y-38095453D01*
X93463803Y-38095453D02*
X93512268Y-37905190D01*
X93512268Y-37905190D02*
X93560310Y-37810165D01*
X93560310Y-37810165D02*
X93608141Y-37762758D01*
X93608141Y-37762758D02*
X93703589Y-37715563D01*
X94508661Y-38719151D02*
X94699135Y-38719997D01*
X94699135Y-38719997D02*
X94794584Y-38672802D01*
X94794584Y-38672802D02*
X94842414Y-38625395D01*
X94842414Y-38625395D02*
X94938286Y-38482962D01*
X94938286Y-38482962D02*
X94986751Y-38292700D01*
X94986751Y-38292700D02*
X94988444Y-37911751D01*
X94988444Y-37911751D02*
X94941249Y-37816302D01*
X94941249Y-37816302D02*
X94893842Y-37768472D01*
X94893842Y-37768472D02*
X94798817Y-37720430D01*
X94798817Y-37720430D02*
X94608342Y-37719584D01*
X94608342Y-37719584D02*
X94512894Y-37766779D01*
X94512894Y-37766779D02*
X94465063Y-37814186D01*
X94465063Y-37814186D02*
X94417021Y-37909212D01*
X94417021Y-37909212D02*
X94415963Y-38147304D01*
X94415963Y-38147304D02*
X94463159Y-38242753D01*
X94463159Y-38242753D02*
X94510566Y-38290583D01*
X94510566Y-38290583D02*
X94605591Y-38338625D01*
X94605591Y-38338625D02*
X94796065Y-38339472D01*
X94796065Y-38339472D02*
X94891514Y-38292277D01*
X94891514Y-38292277D02*
X94939344Y-38244870D01*
X94939344Y-38244870D02*
X94987386Y-38149844D01*
X96175311Y-38726558D02*
X96178274Y-38059898D01*
X96177851Y-38155135D02*
X96225681Y-38107728D01*
X96225681Y-38107728D02*
X96321130Y-38060533D01*
X96321130Y-38060533D02*
X96463986Y-38061168D01*
X96463986Y-38061168D02*
X96559011Y-38109210D01*
X96559011Y-38109210D02*
X96606206Y-38204658D01*
X96606206Y-38204658D02*
X96603878Y-38728463D01*
X96606206Y-38204658D02*
X96654248Y-38109633D01*
X96654248Y-38109633D02*
X96749697Y-38062438D01*
X96749697Y-38062438D02*
X96892553Y-38063072D01*
X96892553Y-38063072D02*
X96987578Y-38111114D01*
X96987578Y-38111114D02*
X97034774Y-38206563D01*
X97034774Y-38206563D02*
X97032446Y-38730367D01*
X97508631Y-38732484D02*
X97511594Y-38065824D01*
X97511171Y-38161061D02*
X97559001Y-38113654D01*
X97559001Y-38113654D02*
X97654450Y-38066459D01*
X97654450Y-38066459D02*
X97797305Y-38067094D01*
X97797305Y-38067094D02*
X97892331Y-38115135D01*
X97892331Y-38115135D02*
X97939526Y-38210584D01*
X97939526Y-38210584D02*
X97937198Y-38734389D01*
X97939526Y-38210584D02*
X97987568Y-38115559D01*
X97987568Y-38115559D02*
X98083017Y-38068363D01*
X98083017Y-38068363D02*
X98225873Y-38068998D01*
X98225873Y-38068998D02*
X98320898Y-38117040D01*
X98320898Y-38117040D02*
X98368094Y-38212489D01*
X98368094Y-38212489D02*
X98365765Y-38736293D01*
X139499022Y-42375205D02*
X139514133Y-38975337D01*
X48059022Y-41968805D02*
X48074133Y-38568937D01*
X139511526Y-39561751D02*
X48071526Y-39155351D01*
X139511526Y-39561751D02*
X48071526Y-39155351D01*
X139511526Y-39561751D02*
X138382427Y-40143159D01*
X139511526Y-39561751D02*
X138387640Y-38970329D01*
X48071526Y-39155351D02*
X49200625Y-38573943D01*
X48071526Y-39155351D02*
X49195412Y-39746773D01*
X159959631Y-90507907D02*
X159911900Y-90603089D01*
X159911900Y-90603089D02*
X159864225Y-90650652D01*
X159864225Y-90650652D02*
X159768931Y-90698159D01*
X159768931Y-90698159D02*
X159721312Y-90698103D01*
X159721312Y-90698103D02*
X159626130Y-90650372D01*
X159626130Y-90650372D02*
X159578567Y-90602697D01*
X159578567Y-90602697D02*
X159531060Y-90507403D01*
X159531060Y-90507403D02*
X159531284Y-90316927D01*
X159531284Y-90316927D02*
X159579015Y-90221745D01*
X159579015Y-90221745D02*
X159626690Y-90174182D01*
X159626690Y-90174182D02*
X159721984Y-90126675D01*
X159721984Y-90126675D02*
X159769603Y-90126731D01*
X159769603Y-90126731D02*
X159864785Y-90174462D01*
X159864785Y-90174462D02*
X159912348Y-90222137D01*
X159912348Y-90222137D02*
X159959855Y-90317431D01*
X159959855Y-90317431D02*
X159959631Y-90507907D01*
X159959631Y-90507907D02*
X160007138Y-90603201D01*
X160007138Y-90603201D02*
X160054701Y-90650876D01*
X160054701Y-90650876D02*
X160149883Y-90698607D01*
X160149883Y-90698607D02*
X160340359Y-90698831D01*
X160340359Y-90698831D02*
X160435653Y-90651324D01*
X160435653Y-90651324D02*
X160483328Y-90603761D01*
X160483328Y-90603761D02*
X160531059Y-90508579D01*
X160531059Y-90508579D02*
X160531283Y-90318103D01*
X160531283Y-90318103D02*
X160483776Y-90222809D01*
X160483776Y-90222809D02*
X160436213Y-90175134D01*
X160436213Y-90175134D02*
X160341031Y-90127403D01*
X160341031Y-90127403D02*
X160150555Y-90127179D01*
X160150555Y-90127179D02*
X160055261Y-90174686D01*
X160055261Y-90174686D02*
X160007586Y-90222249D01*
X160007586Y-90222249D02*
X159959855Y-90317431D01*
X159532516Y-89269308D02*
X159532292Y-89459784D01*
X159532292Y-89459784D02*
X159579799Y-89555078D01*
X159579799Y-89555078D02*
X159627362Y-89602753D01*
X159627362Y-89602753D02*
X159770107Y-89698160D01*
X159770107Y-89698160D02*
X159960527Y-89746003D01*
X159960527Y-89746003D02*
X160341479Y-89746451D01*
X160341479Y-89746451D02*
X160436774Y-89698944D01*
X160436774Y-89698944D02*
X160484449Y-89651381D01*
X160484449Y-89651381D02*
X160532180Y-89556199D01*
X160532180Y-89556199D02*
X160532404Y-89365723D01*
X160532404Y-89365723D02*
X160484897Y-89270429D01*
X160484897Y-89270429D02*
X160437334Y-89222754D01*
X160437334Y-89222754D02*
X160342152Y-89175023D01*
X160342152Y-89175023D02*
X160104057Y-89174743D01*
X160104057Y-89174743D02*
X160008763Y-89222250D01*
X160008763Y-89222250D02*
X159961088Y-89269812D01*
X159961088Y-89269812D02*
X159913356Y-89364995D01*
X159913356Y-89364995D02*
X159913132Y-89555471D01*
X159913132Y-89555471D02*
X159960639Y-89650765D01*
X159960639Y-89650765D02*
X160008202Y-89698440D01*
X160008202Y-89698440D02*
X160103384Y-89746171D01*
X160437894Y-88746564D02*
X160485569Y-88699001D01*
X160485569Y-88699001D02*
X160533132Y-88746676D01*
X160533132Y-88746676D02*
X160485457Y-88794239D01*
X160485457Y-88794239D02*
X160437894Y-88746564D01*
X160437894Y-88746564D02*
X160533132Y-88746676D01*
X159533581Y-88364547D02*
X159534309Y-87745500D01*
X159534309Y-87745500D02*
X159914869Y-88079282D01*
X159914869Y-88079282D02*
X159915037Y-87936424D01*
X159915037Y-87936424D02*
X159962768Y-87841242D01*
X159962768Y-87841242D02*
X160010443Y-87793679D01*
X160010443Y-87793679D02*
X160105737Y-87746173D01*
X160105737Y-87746173D02*
X160343832Y-87746453D01*
X160343832Y-87746453D02*
X160439014Y-87794184D01*
X160439014Y-87794184D02*
X160486577Y-87841859D01*
X160486577Y-87841859D02*
X160534084Y-87937153D01*
X160534084Y-87937153D02*
X160533748Y-88222867D01*
X160533748Y-88222867D02*
X160486017Y-88318049D01*
X160486017Y-88318049D02*
X160438342Y-88365612D01*
X159535318Y-86888358D02*
X159535093Y-87078834D01*
X159535093Y-87078834D02*
X159582600Y-87174128D01*
X159582600Y-87174128D02*
X159630163Y-87221803D01*
X159630163Y-87221803D02*
X159772908Y-87317209D01*
X159772908Y-87317209D02*
X159963328Y-87365052D01*
X159963328Y-87365052D02*
X160344281Y-87365500D01*
X160344281Y-87365500D02*
X160439575Y-87317994D01*
X160439575Y-87317994D02*
X160487250Y-87270431D01*
X160487250Y-87270431D02*
X160534981Y-87175249D01*
X160534981Y-87175249D02*
X160535205Y-86984772D01*
X160535205Y-86984772D02*
X160487698Y-86889478D01*
X160487698Y-86889478D02*
X160440135Y-86841803D01*
X160440135Y-86841803D02*
X160344953Y-86794072D01*
X160344953Y-86794072D02*
X160106858Y-86793792D01*
X160106858Y-86793792D02*
X160011564Y-86841299D01*
X160011564Y-86841299D02*
X159963889Y-86888862D01*
X159963889Y-86888862D02*
X159916158Y-86984044D01*
X159916158Y-86984044D02*
X159915934Y-87174520D01*
X159915934Y-87174520D02*
X159963440Y-87269814D01*
X159963440Y-87269814D02*
X160011003Y-87317489D01*
X160011003Y-87317489D02*
X160106185Y-87365220D01*
X159536158Y-86174073D02*
X159536270Y-86078835D01*
X159536270Y-86078835D02*
X159584001Y-85983653D01*
X159584001Y-85983653D02*
X159631676Y-85936090D01*
X159631676Y-85936090D02*
X159726970Y-85888583D01*
X159726970Y-85888583D02*
X159917502Y-85841188D01*
X159917502Y-85841188D02*
X160155597Y-85841468D01*
X160155597Y-85841468D02*
X160346017Y-85889311D01*
X160346017Y-85889311D02*
X160441199Y-85937042D01*
X160441199Y-85937042D02*
X160488762Y-85984717D01*
X160488762Y-85984717D02*
X160536269Y-86080011D01*
X160536269Y-86080011D02*
X160536157Y-86175249D01*
X160536157Y-86175249D02*
X160488426Y-86270431D01*
X160488426Y-86270431D02*
X160440751Y-86317994D01*
X160440751Y-86317994D02*
X160345457Y-86365501D01*
X160345457Y-86365501D02*
X160154925Y-86412896D01*
X160154925Y-86412896D02*
X159916830Y-86412616D01*
X159916830Y-86412616D02*
X159726410Y-86364773D01*
X159726410Y-86364773D02*
X159631228Y-86317042D01*
X159631228Y-86317042D02*
X159583665Y-86269367D01*
X159583665Y-86269367D02*
X159536158Y-86174073D01*
X160537670Y-84889536D02*
X160536998Y-85460964D01*
X160537334Y-85175250D02*
X159537334Y-85174073D01*
X159537334Y-85174073D02*
X159680079Y-85269479D01*
X159680079Y-85269479D02*
X159775205Y-85364829D01*
X159775205Y-85364829D02*
X159822712Y-85460124D01*
X160539070Y-83699060D02*
X159872404Y-83698276D01*
X159967642Y-83698388D02*
X159920079Y-83650713D01*
X159920079Y-83650713D02*
X159872572Y-83555419D01*
X159872572Y-83555419D02*
X159872740Y-83412562D01*
X159872740Y-83412562D02*
X159920471Y-83317380D01*
X159920471Y-83317380D02*
X160015765Y-83269873D01*
X160015765Y-83269873D02*
X160539575Y-83270489D01*
X160015765Y-83269873D02*
X159920583Y-83222142D01*
X159920583Y-83222142D02*
X159873076Y-83126848D01*
X159873076Y-83126848D02*
X159873244Y-82983991D01*
X159873244Y-82983991D02*
X159920976Y-82888809D01*
X159920976Y-82888809D02*
X160016270Y-82841302D01*
X160016270Y-82841302D02*
X160540079Y-82841918D01*
X160540639Y-82365728D02*
X159873973Y-82364944D01*
X159969211Y-82365056D02*
X159921648Y-82317381D01*
X159921648Y-82317381D02*
X159874141Y-82222087D01*
X159874141Y-82222087D02*
X159874309Y-82079230D01*
X159874309Y-82079230D02*
X159922040Y-81984048D01*
X159922040Y-81984048D02*
X160017334Y-81936541D01*
X160017334Y-81936541D02*
X160541143Y-81937157D01*
X160017334Y-81936541D02*
X159922152Y-81888810D01*
X159922152Y-81888810D02*
X159874645Y-81793515D01*
X159874645Y-81793515D02*
X159874813Y-81650658D01*
X159874813Y-81650658D02*
X159922544Y-81555476D01*
X159922544Y-81555476D02*
X160017838Y-81507969D01*
X160017838Y-81507969D02*
X160541647Y-81508586D01*
X139996800Y-42875788D02*
X161816070Y-42901458D01*
X139895200Y-129235788D02*
X161714470Y-129261458D01*
X161229650Y-42900768D02*
X161128050Y-129260768D01*
X161229650Y-42900768D02*
X161128050Y-129260768D01*
X161229650Y-42900768D02*
X161814745Y-44027961D01*
X161229650Y-42900768D02*
X160641904Y-44026581D01*
X161128050Y-129260768D02*
X160542955Y-128133575D01*
X161128050Y-129260768D02*
X161715796Y-128134955D01*
D11*
X81036833Y-69991980D02*
X80989214Y-70039600D01*
X80989214Y-70039600D02*
X80846357Y-70087219D01*
X80846357Y-70087219D02*
X80751119Y-70087219D01*
X80751119Y-70087219D02*
X80608262Y-70039600D01*
X80608262Y-70039600D02*
X80513024Y-69944361D01*
X80513024Y-69944361D02*
X80465405Y-69849123D01*
X80465405Y-69849123D02*
X80417786Y-69658647D01*
X80417786Y-69658647D02*
X80417786Y-69515790D01*
X80417786Y-69515790D02*
X80465405Y-69325314D01*
X80465405Y-69325314D02*
X80513024Y-69230076D01*
X80513024Y-69230076D02*
X80608262Y-69134838D01*
X80608262Y-69134838D02*
X80751119Y-69087219D01*
X80751119Y-69087219D02*
X80846357Y-69087219D01*
X80846357Y-69087219D02*
X80989214Y-69134838D01*
X80989214Y-69134838D02*
X81036833Y-69182457D01*
X81893976Y-69087219D02*
X81703500Y-69087219D01*
X81703500Y-69087219D02*
X81608262Y-69134838D01*
X81608262Y-69134838D02*
X81560643Y-69182457D01*
X81560643Y-69182457D02*
X81465405Y-69325314D01*
X81465405Y-69325314D02*
X81417786Y-69515790D01*
X81417786Y-69515790D02*
X81417786Y-69896742D01*
X81417786Y-69896742D02*
X81465405Y-69991980D01*
X81465405Y-69991980D02*
X81513024Y-70039600D01*
X81513024Y-70039600D02*
X81608262Y-70087219D01*
X81608262Y-70087219D02*
X81798738Y-70087219D01*
X81798738Y-70087219D02*
X81893976Y-70039600D01*
X81893976Y-70039600D02*
X81941595Y-69991980D01*
X81941595Y-69991980D02*
X81989214Y-69896742D01*
X81989214Y-69896742D02*
X81989214Y-69658647D01*
X81989214Y-69658647D02*
X81941595Y-69563409D01*
X81941595Y-69563409D02*
X81893976Y-69515790D01*
X81893976Y-69515790D02*
X81798738Y-69468171D01*
X81798738Y-69468171D02*
X81608262Y-69468171D01*
X81608262Y-69468171D02*
X81513024Y-69515790D01*
X81513024Y-69515790D02*
X81465405Y-69563409D01*
X81465405Y-69563409D02*
X81417786Y-69658647D01*
X79655880Y-73447219D02*
X79084452Y-73447219D01*
X79370166Y-73447219D02*
X79370166Y-72447219D01*
X79370166Y-72447219D02*
X79274928Y-72590076D01*
X79274928Y-72590076D02*
X79179690Y-72685314D01*
X79179690Y-72685314D02*
X79084452Y-72732933D01*
X80274928Y-72447219D02*
X80370166Y-72447219D01*
X80370166Y-72447219D02*
X80465404Y-72494838D01*
X80465404Y-72494838D02*
X80513023Y-72542457D01*
X80513023Y-72542457D02*
X80560642Y-72637695D01*
X80560642Y-72637695D02*
X80608261Y-72828171D01*
X80608261Y-72828171D02*
X80608261Y-73066266D01*
X80608261Y-73066266D02*
X80560642Y-73256742D01*
X80560642Y-73256742D02*
X80513023Y-73351980D01*
X80513023Y-73351980D02*
X80465404Y-73399600D01*
X80465404Y-73399600D02*
X80370166Y-73447219D01*
X80370166Y-73447219D02*
X80274928Y-73447219D01*
X80274928Y-73447219D02*
X80179690Y-73399600D01*
X80179690Y-73399600D02*
X80132071Y-73351980D01*
X80132071Y-73351980D02*
X80084452Y-73256742D01*
X80084452Y-73256742D02*
X80036833Y-73066266D01*
X80036833Y-73066266D02*
X80036833Y-72828171D01*
X80036833Y-72828171D02*
X80084452Y-72637695D01*
X80084452Y-72637695D02*
X80132071Y-72542457D01*
X80132071Y-72542457D02*
X80179690Y-72494838D01*
X80179690Y-72494838D02*
X80274928Y-72447219D01*
X81227309Y-72447219D02*
X81322547Y-72447219D01*
X81322547Y-72447219D02*
X81417785Y-72494838D01*
X81417785Y-72494838D02*
X81465404Y-72542457D01*
X81465404Y-72542457D02*
X81513023Y-72637695D01*
X81513023Y-72637695D02*
X81560642Y-72828171D01*
X81560642Y-72828171D02*
X81560642Y-73066266D01*
X81560642Y-73066266D02*
X81513023Y-73256742D01*
X81513023Y-73256742D02*
X81465404Y-73351980D01*
X81465404Y-73351980D02*
X81417785Y-73399600D01*
X81417785Y-73399600D02*
X81322547Y-73447219D01*
X81322547Y-73447219D02*
X81227309Y-73447219D01*
X81227309Y-73447219D02*
X81132071Y-73399600D01*
X81132071Y-73399600D02*
X81084452Y-73351980D01*
X81084452Y-73351980D02*
X81036833Y-73256742D01*
X81036833Y-73256742D02*
X80989214Y-73066266D01*
X80989214Y-73066266D02*
X80989214Y-72828171D01*
X80989214Y-72828171D02*
X81036833Y-72637695D01*
X81036833Y-72637695D02*
X81084452Y-72542457D01*
X81084452Y-72542457D02*
X81132071Y-72494838D01*
X81132071Y-72494838D02*
X81227309Y-72447219D01*
X81989214Y-72780552D02*
X81989214Y-73447219D01*
X81989214Y-72875790D02*
X82036833Y-72828171D01*
X82036833Y-72828171D02*
X82132071Y-72780552D01*
X82132071Y-72780552D02*
X82274928Y-72780552D01*
X82274928Y-72780552D02*
X82370166Y-72828171D01*
X82370166Y-72828171D02*
X82417785Y-72923409D01*
X82417785Y-72923409D02*
X82417785Y-73447219D01*
X83227309Y-72923409D02*
X82893976Y-72923409D01*
X82893976Y-73447219D02*
X82893976Y-72447219D01*
X82893976Y-72447219D02*
X83370166Y-72447219D01*
X47294895Y-38723619D02*
X47294895Y-37723619D01*
X47294895Y-38199809D02*
X47866323Y-38199809D01*
X47866323Y-38723619D02*
X47866323Y-37723619D01*
X48866323Y-38723619D02*
X48294895Y-38723619D01*
X48580609Y-38723619D02*
X48580609Y-37723619D01*
X48580609Y-37723619D02*
X48485371Y-37866476D01*
X48485371Y-37866476D02*
X48390133Y-37961714D01*
X48390133Y-37961714D02*
X48294895Y-38009333D01*
X47193295Y-125083619D02*
X47193295Y-124083619D01*
X47193295Y-124559809D02*
X47764723Y-124559809D01*
X47764723Y-125083619D02*
X47764723Y-124083619D01*
X48145676Y-124083619D02*
X48764723Y-124083619D01*
X48764723Y-124083619D02*
X48431390Y-124464571D01*
X48431390Y-124464571D02*
X48574247Y-124464571D01*
X48574247Y-124464571D02*
X48669485Y-124512190D01*
X48669485Y-124512190D02*
X48717104Y-124559809D01*
X48717104Y-124559809D02*
X48764723Y-124655047D01*
X48764723Y-124655047D02*
X48764723Y-124893142D01*
X48764723Y-124893142D02*
X48717104Y-124988380D01*
X48717104Y-124988380D02*
X48669485Y-125036000D01*
X48669485Y-125036000D02*
X48574247Y-125083619D01*
X48574247Y-125083619D02*
X48288533Y-125083619D01*
X48288533Y-125083619D02*
X48193295Y-125036000D01*
X48193295Y-125036000D02*
X48145676Y-124988380D01*
X138633295Y-125490019D02*
X138633295Y-124490019D01*
X138633295Y-124966209D02*
X139204723Y-124966209D01*
X139204723Y-125490019D02*
X139204723Y-124490019D01*
X140109485Y-124823352D02*
X140109485Y-125490019D01*
X139871390Y-124442400D02*
X139633295Y-125156685D01*
X139633295Y-125156685D02*
X140252342Y-125156685D01*
X115894895Y-93656019D02*
X115894895Y-94465542D01*
X115894895Y-94465542D02*
X115942514Y-94560780D01*
X115942514Y-94560780D02*
X115990133Y-94608400D01*
X115990133Y-94608400D02*
X116085371Y-94656019D01*
X116085371Y-94656019D02*
X116275847Y-94656019D01*
X116275847Y-94656019D02*
X116371085Y-94608400D01*
X116371085Y-94608400D02*
X116418704Y-94560780D01*
X116418704Y-94560780D02*
X116466323Y-94465542D01*
X116466323Y-94465542D02*
X116466323Y-93656019D01*
X117371085Y-93656019D02*
X117180609Y-93656019D01*
X117180609Y-93656019D02*
X117085371Y-93703638D01*
X117085371Y-93703638D02*
X117037752Y-93751257D01*
X117037752Y-93751257D02*
X116942514Y-93894114D01*
X116942514Y-93894114D02*
X116894895Y-94084590D01*
X116894895Y-94084590D02*
X116894895Y-94465542D01*
X116894895Y-94465542D02*
X116942514Y-94560780D01*
X116942514Y-94560780D02*
X116990133Y-94608400D01*
X116990133Y-94608400D02*
X117085371Y-94656019D01*
X117085371Y-94656019D02*
X117275847Y-94656019D01*
X117275847Y-94656019D02*
X117371085Y-94608400D01*
X117371085Y-94608400D02*
X117418704Y-94560780D01*
X117418704Y-94560780D02*
X117466323Y-94465542D01*
X117466323Y-94465542D02*
X117466323Y-94227447D01*
X117466323Y-94227447D02*
X117418704Y-94132209D01*
X117418704Y-94132209D02*
X117371085Y-94084590D01*
X117371085Y-94084590D02*
X117275847Y-94036971D01*
X117275847Y-94036971D02*
X117085371Y-94036971D01*
X117085371Y-94036971D02*
X116990133Y-94084590D01*
X116990133Y-94084590D02*
X116942514Y-94132209D01*
X116942514Y-94132209D02*
X116894895Y-94227447D01*
X104488609Y-97532189D02*
X104488609Y-97198856D01*
X105012419Y-97055999D02*
X105012419Y-97532189D01*
X105012419Y-97532189D02*
X104012419Y-97532189D01*
X104012419Y-97532189D02*
X104012419Y-97055999D01*
X104964800Y-96675046D02*
X105012419Y-96532189D01*
X105012419Y-96532189D02*
X105012419Y-96294094D01*
X105012419Y-96294094D02*
X104964800Y-96198856D01*
X104964800Y-96198856D02*
X104917180Y-96151237D01*
X104917180Y-96151237D02*
X104821942Y-96103618D01*
X104821942Y-96103618D02*
X104726704Y-96103618D01*
X104726704Y-96103618D02*
X104631466Y-96151237D01*
X104631466Y-96151237D02*
X104583847Y-96198856D01*
X104583847Y-96198856D02*
X104536228Y-96294094D01*
X104536228Y-96294094D02*
X104488609Y-96484570D01*
X104488609Y-96484570D02*
X104440990Y-96579808D01*
X104440990Y-96579808D02*
X104393371Y-96627427D01*
X104393371Y-96627427D02*
X104298133Y-96675046D01*
X104298133Y-96675046D02*
X104202895Y-96675046D01*
X104202895Y-96675046D02*
X104107657Y-96627427D01*
X104107657Y-96627427D02*
X104060038Y-96579808D01*
X104060038Y-96579808D02*
X104012419Y-96484570D01*
X104012419Y-96484570D02*
X104012419Y-96246475D01*
X104012419Y-96246475D02*
X104060038Y-96103618D01*
X105012419Y-95675046D02*
X104012419Y-95675046D01*
X104012419Y-95675046D02*
X104012419Y-95294094D01*
X104012419Y-95294094D02*
X104060038Y-95198856D01*
X104060038Y-95198856D02*
X104107657Y-95151237D01*
X104107657Y-95151237D02*
X104202895Y-95103618D01*
X104202895Y-95103618D02*
X104345752Y-95103618D01*
X104345752Y-95103618D02*
X104440990Y-95151237D01*
X104440990Y-95151237D02*
X104488609Y-95198856D01*
X104488609Y-95198856D02*
X104536228Y-95294094D01*
X104536228Y-95294094D02*
X104536228Y-95675046D01*
X104012419Y-94770284D02*
X104012419Y-94151237D01*
X104012419Y-94151237D02*
X104393371Y-94484570D01*
X104393371Y-94484570D02*
X104393371Y-94341713D01*
X104393371Y-94341713D02*
X104440990Y-94246475D01*
X104440990Y-94246475D02*
X104488609Y-94198856D01*
X104488609Y-94198856D02*
X104583847Y-94151237D01*
X104583847Y-94151237D02*
X104821942Y-94151237D01*
X104821942Y-94151237D02*
X104917180Y-94198856D01*
X104917180Y-94198856D02*
X104964800Y-94246475D01*
X104964800Y-94246475D02*
X105012419Y-94341713D01*
X105012419Y-94341713D02*
X105012419Y-94627427D01*
X105012419Y-94627427D02*
X104964800Y-94722665D01*
X104964800Y-94722665D02*
X104917180Y-94770284D01*
X104107657Y-93770284D02*
X104060038Y-93722665D01*
X104060038Y-93722665D02*
X104012419Y-93627427D01*
X104012419Y-93627427D02*
X104012419Y-93389332D01*
X104012419Y-93389332D02*
X104060038Y-93294094D01*
X104060038Y-93294094D02*
X104107657Y-93246475D01*
X104107657Y-93246475D02*
X104202895Y-93198856D01*
X104202895Y-93198856D02*
X104298133Y-93198856D01*
X104298133Y-93198856D02*
X104440990Y-93246475D01*
X104440990Y-93246475D02*
X105012419Y-93817903D01*
X105012419Y-93817903D02*
X105012419Y-93198856D01*
X104631466Y-92770284D02*
X104631466Y-92008380D01*
X104012419Y-91627427D02*
X105012419Y-91389332D01*
X105012419Y-91389332D02*
X104298133Y-91198856D01*
X104298133Y-91198856D02*
X105012419Y-91008380D01*
X105012419Y-91008380D02*
X104012419Y-90770285D01*
X105012419Y-89817904D02*
X104536228Y-90151237D01*
X105012419Y-90389332D02*
X104012419Y-90389332D01*
X104012419Y-90389332D02*
X104012419Y-90008380D01*
X104012419Y-90008380D02*
X104060038Y-89913142D01*
X104060038Y-89913142D02*
X104107657Y-89865523D01*
X104107657Y-89865523D02*
X104202895Y-89817904D01*
X104202895Y-89817904D02*
X104345752Y-89817904D01*
X104345752Y-89817904D02*
X104440990Y-89865523D01*
X104440990Y-89865523D02*
X104488609Y-89913142D01*
X104488609Y-89913142D02*
X104536228Y-90008380D01*
X104536228Y-90008380D02*
X104536228Y-90389332D01*
X104012419Y-89198856D02*
X104012419Y-89008380D01*
X104012419Y-89008380D02*
X104060038Y-88913142D01*
X104060038Y-88913142D02*
X104155276Y-88817904D01*
X104155276Y-88817904D02*
X104345752Y-88770285D01*
X104345752Y-88770285D02*
X104679085Y-88770285D01*
X104679085Y-88770285D02*
X104869561Y-88817904D01*
X104869561Y-88817904D02*
X104964800Y-88913142D01*
X104964800Y-88913142D02*
X105012419Y-89008380D01*
X105012419Y-89008380D02*
X105012419Y-89198856D01*
X105012419Y-89198856D02*
X104964800Y-89294094D01*
X104964800Y-89294094D02*
X104869561Y-89389332D01*
X104869561Y-89389332D02*
X104679085Y-89436951D01*
X104679085Y-89436951D02*
X104345752Y-89436951D01*
X104345752Y-89436951D02*
X104155276Y-89389332D01*
X104155276Y-89389332D02*
X104060038Y-89294094D01*
X104060038Y-89294094D02*
X104012419Y-89198856D01*
X104012419Y-88151237D02*
X104012419Y-87960761D01*
X104012419Y-87960761D02*
X104060038Y-87865523D01*
X104060038Y-87865523D02*
X104155276Y-87770285D01*
X104155276Y-87770285D02*
X104345752Y-87722666D01*
X104345752Y-87722666D02*
X104679085Y-87722666D01*
X104679085Y-87722666D02*
X104869561Y-87770285D01*
X104869561Y-87770285D02*
X104964800Y-87865523D01*
X104964800Y-87865523D02*
X105012419Y-87960761D01*
X105012419Y-87960761D02*
X105012419Y-88151237D01*
X105012419Y-88151237D02*
X104964800Y-88246475D01*
X104964800Y-88246475D02*
X104869561Y-88341713D01*
X104869561Y-88341713D02*
X104679085Y-88389332D01*
X104679085Y-88389332D02*
X104345752Y-88389332D01*
X104345752Y-88389332D02*
X104155276Y-88341713D01*
X104155276Y-88341713D02*
X104060038Y-88246475D01*
X104060038Y-88246475D02*
X104012419Y-88151237D01*
X105012419Y-87294094D02*
X104012419Y-87294094D01*
X104012419Y-87294094D02*
X104726704Y-86960761D01*
X104726704Y-86960761D02*
X104012419Y-86627428D01*
X104012419Y-86627428D02*
X105012419Y-86627428D01*
X104631466Y-86151237D02*
X104631466Y-85389333D01*
X104012419Y-85008380D02*
X104012419Y-84389333D01*
X104012419Y-84389333D02*
X104393371Y-84722666D01*
X104393371Y-84722666D02*
X104393371Y-84579809D01*
X104393371Y-84579809D02*
X104440990Y-84484571D01*
X104440990Y-84484571D02*
X104488609Y-84436952D01*
X104488609Y-84436952D02*
X104583847Y-84389333D01*
X104583847Y-84389333D02*
X104821942Y-84389333D01*
X104821942Y-84389333D02*
X104917180Y-84436952D01*
X104917180Y-84436952D02*
X104964800Y-84484571D01*
X104964800Y-84484571D02*
X105012419Y-84579809D01*
X105012419Y-84579809D02*
X105012419Y-84865523D01*
X105012419Y-84865523D02*
X104964800Y-84960761D01*
X104964800Y-84960761D02*
X104917180Y-85008380D01*
X104107657Y-84008380D02*
X104060038Y-83960761D01*
X104060038Y-83960761D02*
X104012419Y-83865523D01*
X104012419Y-83865523D02*
X104012419Y-83627428D01*
X104012419Y-83627428D02*
X104060038Y-83532190D01*
X104060038Y-83532190D02*
X104107657Y-83484571D01*
X104107657Y-83484571D02*
X104202895Y-83436952D01*
X104202895Y-83436952D02*
X104298133Y-83436952D01*
X104298133Y-83436952D02*
X104440990Y-83484571D01*
X104440990Y-83484571D02*
X105012419Y-84055999D01*
X105012419Y-84055999D02*
X105012419Y-83436952D01*
X104488609Y-83008380D02*
X104488609Y-82675047D01*
X105012419Y-82532190D02*
X105012419Y-83008380D01*
X105012419Y-83008380D02*
X104012419Y-83008380D01*
X104012419Y-83008380D02*
X104012419Y-82532190D01*
X103501866Y-55334819D02*
X103501866Y-56049104D01*
X103501866Y-56049104D02*
X103454247Y-56191961D01*
X103454247Y-56191961D02*
X103359009Y-56287200D01*
X103359009Y-56287200D02*
X103216152Y-56334819D01*
X103216152Y-56334819D02*
X103120914Y-56334819D01*
X103882819Y-55334819D02*
X104549485Y-55334819D01*
X104549485Y-55334819D02*
X104120914Y-56334819D01*
X100859009Y-64534819D02*
X100859009Y-63534819D01*
X100859009Y-63534819D02*
X101239961Y-63534819D01*
X101239961Y-63534819D02*
X101335199Y-63582438D01*
X101335199Y-63582438D02*
X101382818Y-63630057D01*
X101382818Y-63630057D02*
X101430437Y-63725295D01*
X101430437Y-63725295D02*
X101430437Y-63868152D01*
X101430437Y-63868152D02*
X101382818Y-63963390D01*
X101382818Y-63963390D02*
X101335199Y-64011009D01*
X101335199Y-64011009D02*
X101239961Y-64058628D01*
X101239961Y-64058628D02*
X100859009Y-64058628D01*
X101859009Y-64534819D02*
X101859009Y-63868152D01*
X101859009Y-64058628D02*
X101906628Y-63963390D01*
X101906628Y-63963390D02*
X101954247Y-63915771D01*
X101954247Y-63915771D02*
X102049485Y-63868152D01*
X102049485Y-63868152D02*
X102144723Y-63868152D01*
X102620914Y-64534819D02*
X102525676Y-64487200D01*
X102525676Y-64487200D02*
X102478057Y-64439580D01*
X102478057Y-64439580D02*
X102430438Y-64344342D01*
X102430438Y-64344342D02*
X102430438Y-64058628D01*
X102430438Y-64058628D02*
X102478057Y-63963390D01*
X102478057Y-63963390D02*
X102525676Y-63915771D01*
X102525676Y-63915771D02*
X102620914Y-63868152D01*
X102620914Y-63868152D02*
X102763771Y-63868152D01*
X102763771Y-63868152D02*
X102859009Y-63915771D01*
X102859009Y-63915771D02*
X102906628Y-63963390D01*
X102906628Y-63963390D02*
X102954247Y-64058628D01*
X102954247Y-64058628D02*
X102954247Y-64344342D01*
X102954247Y-64344342D02*
X102906628Y-64439580D01*
X102906628Y-64439580D02*
X102859009Y-64487200D01*
X102859009Y-64487200D02*
X102763771Y-64534819D01*
X102763771Y-64534819D02*
X102620914Y-64534819D01*
X103811390Y-63868152D02*
X103811390Y-64677676D01*
X103811390Y-64677676D02*
X103763771Y-64772914D01*
X103763771Y-64772914D02*
X103716152Y-64820533D01*
X103716152Y-64820533D02*
X103620914Y-64868152D01*
X103620914Y-64868152D02*
X103478057Y-64868152D01*
X103478057Y-64868152D02*
X103382819Y-64820533D01*
X103811390Y-64487200D02*
X103716152Y-64534819D01*
X103716152Y-64534819D02*
X103525676Y-64534819D01*
X103525676Y-64534819D02*
X103430438Y-64487200D01*
X103430438Y-64487200D02*
X103382819Y-64439580D01*
X103382819Y-64439580D02*
X103335200Y-64344342D01*
X103335200Y-64344342D02*
X103335200Y-64058628D01*
X103335200Y-64058628D02*
X103382819Y-63963390D01*
X103382819Y-63963390D02*
X103430438Y-63915771D01*
X103430438Y-63915771D02*
X103525676Y-63868152D01*
X103525676Y-63868152D02*
X103716152Y-63868152D01*
X103716152Y-63868152D02*
X103811390Y-63915771D01*
X104049486Y-64630057D02*
X104811390Y-64630057D01*
X104906629Y-63534819D02*
X105239962Y-64534819D01*
X105239962Y-64534819D02*
X105573295Y-63534819D01*
X105906629Y-64534819D02*
X105906629Y-63868152D01*
X105906629Y-63534819D02*
X105859010Y-63582438D01*
X105859010Y-63582438D02*
X105906629Y-63630057D01*
X105906629Y-63630057D02*
X105954248Y-63582438D01*
X105954248Y-63582438D02*
X105906629Y-63534819D01*
X105906629Y-63534819D02*
X105906629Y-63630057D01*
X106382819Y-63868152D02*
X106382819Y-64534819D01*
X106382819Y-63963390D02*
X106430438Y-63915771D01*
X106430438Y-63915771D02*
X106525676Y-63868152D01*
X106525676Y-63868152D02*
X106668533Y-63868152D01*
X106668533Y-63868152D02*
X106763771Y-63915771D01*
X106763771Y-63915771D02*
X106811390Y-64011009D01*
X106811390Y-64011009D02*
X106811390Y-64534819D01*
X92035333Y-87078780D02*
X91987714Y-87126400D01*
X91987714Y-87126400D02*
X91844857Y-87174019D01*
X91844857Y-87174019D02*
X91749619Y-87174019D01*
X91749619Y-87174019D02*
X91606762Y-87126400D01*
X91606762Y-87126400D02*
X91511524Y-87031161D01*
X91511524Y-87031161D02*
X91463905Y-86935923D01*
X91463905Y-86935923D02*
X91416286Y-86745447D01*
X91416286Y-86745447D02*
X91416286Y-86602590D01*
X91416286Y-86602590D02*
X91463905Y-86412114D01*
X91463905Y-86412114D02*
X91511524Y-86316876D01*
X91511524Y-86316876D02*
X91606762Y-86221638D01*
X91606762Y-86221638D02*
X91749619Y-86174019D01*
X91749619Y-86174019D02*
X91844857Y-86174019D01*
X91844857Y-86174019D02*
X91987714Y-86221638D01*
X91987714Y-86221638D02*
X92035333Y-86269257D01*
X92892476Y-86507352D02*
X92892476Y-87174019D01*
X92654381Y-86126400D02*
X92416286Y-86840685D01*
X92416286Y-86840685D02*
X93035333Y-86840685D01*
X90321048Y-82909257D02*
X90368667Y-82861638D01*
X90368667Y-82861638D02*
X90463905Y-82814019D01*
X90463905Y-82814019D02*
X90702000Y-82814019D01*
X90702000Y-82814019D02*
X90797238Y-82861638D01*
X90797238Y-82861638D02*
X90844857Y-82909257D01*
X90844857Y-82909257D02*
X90892476Y-83004495D01*
X90892476Y-83004495D02*
X90892476Y-83099733D01*
X90892476Y-83099733D02*
X90844857Y-83242590D01*
X90844857Y-83242590D02*
X90273429Y-83814019D01*
X90273429Y-83814019D02*
X90892476Y-83814019D01*
X91321048Y-83718780D02*
X91368667Y-83766400D01*
X91368667Y-83766400D02*
X91321048Y-83814019D01*
X91321048Y-83814019D02*
X91273429Y-83766400D01*
X91273429Y-83766400D02*
X91321048Y-83718780D01*
X91321048Y-83718780D02*
X91321048Y-83814019D01*
X91749619Y-82909257D02*
X91797238Y-82861638D01*
X91797238Y-82861638D02*
X91892476Y-82814019D01*
X91892476Y-82814019D02*
X92130571Y-82814019D01*
X92130571Y-82814019D02*
X92225809Y-82861638D01*
X92225809Y-82861638D02*
X92273428Y-82909257D01*
X92273428Y-82909257D02*
X92321047Y-83004495D01*
X92321047Y-83004495D02*
X92321047Y-83099733D01*
X92321047Y-83099733D02*
X92273428Y-83242590D01*
X92273428Y-83242590D02*
X91702000Y-83814019D01*
X91702000Y-83814019D02*
X92321047Y-83814019D01*
X93178190Y-83147352D02*
X93178190Y-83814019D01*
X92749619Y-83147352D02*
X92749619Y-83671161D01*
X92749619Y-83671161D02*
X92797238Y-83766400D01*
X92797238Y-83766400D02*
X92892476Y-83814019D01*
X92892476Y-83814019D02*
X93035333Y-83814019D01*
X93035333Y-83814019D02*
X93130571Y-83766400D01*
X93130571Y-83766400D02*
X93178190Y-83718780D01*
X93987714Y-83290209D02*
X93654381Y-83290209D01*
X93654381Y-83814019D02*
X93654381Y-82814019D01*
X93654381Y-82814019D02*
X94130571Y-82814019D01*
X138734895Y-39130019D02*
X138734895Y-38130019D01*
X138734895Y-38606209D02*
X139306323Y-38606209D01*
X139306323Y-39130019D02*
X139306323Y-38130019D01*
X139734895Y-38225257D02*
X139782514Y-38177638D01*
X139782514Y-38177638D02*
X139877752Y-38130019D01*
X139877752Y-38130019D02*
X140115847Y-38130019D01*
X140115847Y-38130019D02*
X140211085Y-38177638D01*
X140211085Y-38177638D02*
X140258704Y-38225257D01*
X140258704Y-38225257D02*
X140306323Y-38320495D01*
X140306323Y-38320495D02*
X140306323Y-38415733D01*
X140306323Y-38415733D02*
X140258704Y-38558590D01*
X140258704Y-38558590D02*
X139687276Y-39130019D01*
X139687276Y-39130019D02*
X140306323Y-39130019D01*
X118396666Y-113574819D02*
X118396666Y-114289104D01*
X118396666Y-114289104D02*
X118349047Y-114431961D01*
X118349047Y-114431961D02*
X118253809Y-114527200D01*
X118253809Y-114527200D02*
X118110952Y-114574819D01*
X118110952Y-114574819D02*
X118015714Y-114574819D01*
X119301428Y-113574819D02*
X119110952Y-113574819D01*
X119110952Y-113574819D02*
X119015714Y-113622438D01*
X119015714Y-113622438D02*
X118968095Y-113670057D01*
X118968095Y-113670057D02*
X118872857Y-113812914D01*
X118872857Y-113812914D02*
X118825238Y-114003390D01*
X118825238Y-114003390D02*
X118825238Y-114384342D01*
X118825238Y-114384342D02*
X118872857Y-114479580D01*
X118872857Y-114479580D02*
X118920476Y-114527200D01*
X118920476Y-114527200D02*
X119015714Y-114574819D01*
X119015714Y-114574819D02*
X119206190Y-114574819D01*
X119206190Y-114574819D02*
X119301428Y-114527200D01*
X119301428Y-114527200D02*
X119349047Y-114479580D01*
X119349047Y-114479580D02*
X119396666Y-114384342D01*
X119396666Y-114384342D02*
X119396666Y-114146247D01*
X119396666Y-114146247D02*
X119349047Y-114051009D01*
X119349047Y-114051009D02*
X119301428Y-114003390D01*
X119301428Y-114003390D02*
X119206190Y-113955771D01*
X119206190Y-113955771D02*
X119015714Y-113955771D01*
X119015714Y-113955771D02*
X118920476Y-114003390D01*
X118920476Y-114003390D02*
X118872857Y-114051009D01*
X118872857Y-114051009D02*
X118825238Y-114146247D01*
X116491904Y-106279580D02*
X116444285Y-106327200D01*
X116444285Y-106327200D02*
X116301428Y-106374819D01*
X116301428Y-106374819D02*
X116206190Y-106374819D01*
X116206190Y-106374819D02*
X116063333Y-106327200D01*
X116063333Y-106327200D02*
X115968095Y-106231961D01*
X115968095Y-106231961D02*
X115920476Y-106136723D01*
X115920476Y-106136723D02*
X115872857Y-105946247D01*
X115872857Y-105946247D02*
X115872857Y-105803390D01*
X115872857Y-105803390D02*
X115920476Y-105612914D01*
X115920476Y-105612914D02*
X115968095Y-105517676D01*
X115968095Y-105517676D02*
X116063333Y-105422438D01*
X116063333Y-105422438D02*
X116206190Y-105374819D01*
X116206190Y-105374819D02*
X116301428Y-105374819D01*
X116301428Y-105374819D02*
X116444285Y-105422438D01*
X116444285Y-105422438D02*
X116491904Y-105470057D01*
X116920476Y-106374819D02*
X116920476Y-105374819D01*
X117349047Y-106374819D02*
X117349047Y-105851009D01*
X117349047Y-105851009D02*
X117301428Y-105755771D01*
X117301428Y-105755771D02*
X117206190Y-105708152D01*
X117206190Y-105708152D02*
X117063333Y-105708152D01*
X117063333Y-105708152D02*
X116968095Y-105755771D01*
X116968095Y-105755771D02*
X116920476Y-105803390D01*
X117825238Y-106374819D02*
X117825238Y-105708152D01*
X117825238Y-105374819D02*
X117777619Y-105422438D01*
X117777619Y-105422438D02*
X117825238Y-105470057D01*
X117825238Y-105470057D02*
X117872857Y-105422438D01*
X117872857Y-105422438D02*
X117825238Y-105374819D01*
X117825238Y-105374819D02*
X117825238Y-105470057D01*
X118301428Y-105708152D02*
X118301428Y-106708152D01*
X118301428Y-105755771D02*
X118396666Y-105708152D01*
X118396666Y-105708152D02*
X118587142Y-105708152D01*
X118587142Y-105708152D02*
X118682380Y-105755771D01*
X118682380Y-105755771D02*
X118729999Y-105803390D01*
X118729999Y-105803390D02*
X118777618Y-105898628D01*
X118777618Y-105898628D02*
X118777618Y-106184342D01*
X118777618Y-106184342D02*
X118729999Y-106279580D01*
X118729999Y-106279580D02*
X118682380Y-106327200D01*
X118682380Y-106327200D02*
X118587142Y-106374819D01*
X118587142Y-106374819D02*
X118396666Y-106374819D01*
X118396666Y-106374819D02*
X118301428Y-106327200D01*
X119777618Y-106279580D02*
X119729999Y-106327200D01*
X119729999Y-106327200D02*
X119587142Y-106374819D01*
X119587142Y-106374819D02*
X119491904Y-106374819D01*
X119491904Y-106374819D02*
X119349047Y-106327200D01*
X119349047Y-106327200D02*
X119253809Y-106231961D01*
X119253809Y-106231961D02*
X119206190Y-106136723D01*
X119206190Y-106136723D02*
X119158571Y-105946247D01*
X119158571Y-105946247D02*
X119158571Y-105803390D01*
X119158571Y-105803390D02*
X119206190Y-105612914D01*
X119206190Y-105612914D02*
X119253809Y-105517676D01*
X119253809Y-105517676D02*
X119349047Y-105422438D01*
X119349047Y-105422438D02*
X119491904Y-105374819D01*
X119491904Y-105374819D02*
X119587142Y-105374819D01*
X119587142Y-105374819D02*
X119729999Y-105422438D01*
X119729999Y-105422438D02*
X119777618Y-105470057D01*
X120349047Y-106374819D02*
X120253809Y-106327200D01*
X120253809Y-106327200D02*
X120206190Y-106279580D01*
X120206190Y-106279580D02*
X120158571Y-106184342D01*
X120158571Y-106184342D02*
X120158571Y-105898628D01*
X120158571Y-105898628D02*
X120206190Y-105803390D01*
X120206190Y-105803390D02*
X120253809Y-105755771D01*
X120253809Y-105755771D02*
X120349047Y-105708152D01*
X120349047Y-105708152D02*
X120491904Y-105708152D01*
X120491904Y-105708152D02*
X120587142Y-105755771D01*
X120587142Y-105755771D02*
X120634761Y-105803390D01*
X120634761Y-105803390D02*
X120682380Y-105898628D01*
X120682380Y-105898628D02*
X120682380Y-106184342D01*
X120682380Y-106184342D02*
X120634761Y-106279580D01*
X120634761Y-106279580D02*
X120587142Y-106327200D01*
X120587142Y-106327200D02*
X120491904Y-106374819D01*
X120491904Y-106374819D02*
X120349047Y-106374819D01*
X121110952Y-105708152D02*
X121110952Y-106374819D01*
X121110952Y-105803390D02*
X121158571Y-105755771D01*
X121158571Y-105755771D02*
X121253809Y-105708152D01*
X121253809Y-105708152D02*
X121396666Y-105708152D01*
X121396666Y-105708152D02*
X121491904Y-105755771D01*
X121491904Y-105755771D02*
X121539523Y-105851009D01*
X121539523Y-105851009D02*
X121539523Y-106374819D01*
X82084295Y-86477419D02*
X82084295Y-87286942D01*
X82084295Y-87286942D02*
X82131914Y-87382180D01*
X82131914Y-87382180D02*
X82179533Y-87429800D01*
X82179533Y-87429800D02*
X82274771Y-87477419D01*
X82274771Y-87477419D02*
X82465247Y-87477419D01*
X82465247Y-87477419D02*
X82560485Y-87429800D01*
X82560485Y-87429800D02*
X82608104Y-87382180D01*
X82608104Y-87382180D02*
X82655723Y-87286942D01*
X82655723Y-87286942D02*
X82655723Y-86477419D01*
X83036676Y-86477419D02*
X83655723Y-86477419D01*
X83655723Y-86477419D02*
X83322390Y-86858371D01*
X83322390Y-86858371D02*
X83465247Y-86858371D01*
X83465247Y-86858371D02*
X83560485Y-86905990D01*
X83560485Y-86905990D02*
X83608104Y-86953609D01*
X83608104Y-86953609D02*
X83655723Y-87048847D01*
X83655723Y-87048847D02*
X83655723Y-87286942D01*
X83655723Y-87286942D02*
X83608104Y-87382180D01*
X83608104Y-87382180D02*
X83560485Y-87429800D01*
X83560485Y-87429800D02*
X83465247Y-87477419D01*
X83465247Y-87477419D02*
X83179533Y-87477419D01*
X83179533Y-87477419D02*
X83084295Y-87429800D01*
X83084295Y-87429800D02*
X83036676Y-87382180D01*
X78441438Y-94137419D02*
X78441438Y-93137419D01*
X78441438Y-93137419D02*
X78679533Y-93137419D01*
X78679533Y-93137419D02*
X78822390Y-93185038D01*
X78822390Y-93185038D02*
X78917628Y-93280276D01*
X78917628Y-93280276D02*
X78965247Y-93375514D01*
X78965247Y-93375514D02*
X79012866Y-93565990D01*
X79012866Y-93565990D02*
X79012866Y-93708847D01*
X79012866Y-93708847D02*
X78965247Y-93899323D01*
X78965247Y-93899323D02*
X78917628Y-93994561D01*
X78917628Y-93994561D02*
X78822390Y-94089800D01*
X78822390Y-94089800D02*
X78679533Y-94137419D01*
X78679533Y-94137419D02*
X78441438Y-94137419D01*
X80012866Y-94137419D02*
X79679533Y-93661228D01*
X79441438Y-94137419D02*
X79441438Y-93137419D01*
X79441438Y-93137419D02*
X79822390Y-93137419D01*
X79822390Y-93137419D02*
X79917628Y-93185038D01*
X79917628Y-93185038D02*
X79965247Y-93232657D01*
X79965247Y-93232657D02*
X80012866Y-93327895D01*
X80012866Y-93327895D02*
X80012866Y-93470752D01*
X80012866Y-93470752D02*
X79965247Y-93565990D01*
X79965247Y-93565990D02*
X79917628Y-93613609D01*
X79917628Y-93613609D02*
X79822390Y-93661228D01*
X79822390Y-93661228D02*
X79441438Y-93661228D01*
X80298581Y-93137419D02*
X80631914Y-94137419D01*
X80631914Y-94137419D02*
X80965247Y-93137419D01*
X81441438Y-93565990D02*
X81346200Y-93518371D01*
X81346200Y-93518371D02*
X81298581Y-93470752D01*
X81298581Y-93470752D02*
X81250962Y-93375514D01*
X81250962Y-93375514D02*
X81250962Y-93327895D01*
X81250962Y-93327895D02*
X81298581Y-93232657D01*
X81298581Y-93232657D02*
X81346200Y-93185038D01*
X81346200Y-93185038D02*
X81441438Y-93137419D01*
X81441438Y-93137419D02*
X81631914Y-93137419D01*
X81631914Y-93137419D02*
X81727152Y-93185038D01*
X81727152Y-93185038D02*
X81774771Y-93232657D01*
X81774771Y-93232657D02*
X81822390Y-93327895D01*
X81822390Y-93327895D02*
X81822390Y-93375514D01*
X81822390Y-93375514D02*
X81774771Y-93470752D01*
X81774771Y-93470752D02*
X81727152Y-93518371D01*
X81727152Y-93518371D02*
X81631914Y-93565990D01*
X81631914Y-93565990D02*
X81441438Y-93565990D01*
X81441438Y-93565990D02*
X81346200Y-93613609D01*
X81346200Y-93613609D02*
X81298581Y-93661228D01*
X81298581Y-93661228D02*
X81250962Y-93756466D01*
X81250962Y-93756466D02*
X81250962Y-93946942D01*
X81250962Y-93946942D02*
X81298581Y-94042180D01*
X81298581Y-94042180D02*
X81346200Y-94089800D01*
X81346200Y-94089800D02*
X81441438Y-94137419D01*
X81441438Y-94137419D02*
X81631914Y-94137419D01*
X81631914Y-94137419D02*
X81727152Y-94089800D01*
X81727152Y-94089800D02*
X81774771Y-94042180D01*
X81774771Y-94042180D02*
X81822390Y-93946942D01*
X81822390Y-93946942D02*
X81822390Y-93756466D01*
X81822390Y-93756466D02*
X81774771Y-93661228D01*
X81774771Y-93661228D02*
X81727152Y-93613609D01*
X81727152Y-93613609D02*
X81631914Y-93565990D01*
X82393819Y-93565990D02*
X82298581Y-93518371D01*
X82298581Y-93518371D02*
X82250962Y-93470752D01*
X82250962Y-93470752D02*
X82203343Y-93375514D01*
X82203343Y-93375514D02*
X82203343Y-93327895D01*
X82203343Y-93327895D02*
X82250962Y-93232657D01*
X82250962Y-93232657D02*
X82298581Y-93185038D01*
X82298581Y-93185038D02*
X82393819Y-93137419D01*
X82393819Y-93137419D02*
X82584295Y-93137419D01*
X82584295Y-93137419D02*
X82679533Y-93185038D01*
X82679533Y-93185038D02*
X82727152Y-93232657D01*
X82727152Y-93232657D02*
X82774771Y-93327895D01*
X82774771Y-93327895D02*
X82774771Y-93375514D01*
X82774771Y-93375514D02*
X82727152Y-93470752D01*
X82727152Y-93470752D02*
X82679533Y-93518371D01*
X82679533Y-93518371D02*
X82584295Y-93565990D01*
X82584295Y-93565990D02*
X82393819Y-93565990D01*
X82393819Y-93565990D02*
X82298581Y-93613609D01*
X82298581Y-93613609D02*
X82250962Y-93661228D01*
X82250962Y-93661228D02*
X82203343Y-93756466D01*
X82203343Y-93756466D02*
X82203343Y-93946942D01*
X82203343Y-93946942D02*
X82250962Y-94042180D01*
X82250962Y-94042180D02*
X82298581Y-94089800D01*
X82298581Y-94089800D02*
X82393819Y-94137419D01*
X82393819Y-94137419D02*
X82584295Y-94137419D01*
X82584295Y-94137419D02*
X82679533Y-94089800D01*
X82679533Y-94089800D02*
X82727152Y-94042180D01*
X82727152Y-94042180D02*
X82774771Y-93946942D01*
X82774771Y-93946942D02*
X82774771Y-93756466D01*
X82774771Y-93756466D02*
X82727152Y-93661228D01*
X82727152Y-93661228D02*
X82679533Y-93613609D01*
X82679533Y-93613609D02*
X82584295Y-93565990D01*
X83108105Y-93137419D02*
X83727152Y-93137419D01*
X83727152Y-93137419D02*
X83393819Y-93518371D01*
X83393819Y-93518371D02*
X83536676Y-93518371D01*
X83536676Y-93518371D02*
X83631914Y-93565990D01*
X83631914Y-93565990D02*
X83679533Y-93613609D01*
X83679533Y-93613609D02*
X83727152Y-93708847D01*
X83727152Y-93708847D02*
X83727152Y-93946942D01*
X83727152Y-93946942D02*
X83679533Y-94042180D01*
X83679533Y-94042180D02*
X83631914Y-94089800D01*
X83631914Y-94089800D02*
X83536676Y-94137419D01*
X83536676Y-94137419D02*
X83250962Y-94137419D01*
X83250962Y-94137419D02*
X83155724Y-94089800D01*
X83155724Y-94089800D02*
X83108105Y-94042180D01*
X84060486Y-93137419D02*
X84679533Y-93137419D01*
X84679533Y-93137419D02*
X84346200Y-93518371D01*
X84346200Y-93518371D02*
X84489057Y-93518371D01*
X84489057Y-93518371D02*
X84584295Y-93565990D01*
X84584295Y-93565990D02*
X84631914Y-93613609D01*
X84631914Y-93613609D02*
X84679533Y-93708847D01*
X84679533Y-93708847D02*
X84679533Y-93946942D01*
X84679533Y-93946942D02*
X84631914Y-94042180D01*
X84631914Y-94042180D02*
X84584295Y-94089800D01*
X84584295Y-94089800D02*
X84489057Y-94137419D01*
X84489057Y-94137419D02*
X84203343Y-94137419D01*
X84203343Y-94137419D02*
X84108105Y-94089800D01*
X84108105Y-94089800D02*
X84060486Y-94042180D01*
X85679533Y-94137419D02*
X85346200Y-93661228D01*
X85108105Y-94137419D02*
X85108105Y-93137419D01*
X85108105Y-93137419D02*
X85489057Y-93137419D01*
X85489057Y-93137419D02*
X85584295Y-93185038D01*
X85584295Y-93185038D02*
X85631914Y-93232657D01*
X85631914Y-93232657D02*
X85679533Y-93327895D01*
X85679533Y-93327895D02*
X85679533Y-93470752D01*
X85679533Y-93470752D02*
X85631914Y-93565990D01*
X85631914Y-93565990D02*
X85584295Y-93613609D01*
X85584295Y-93613609D02*
X85489057Y-93661228D01*
X85489057Y-93661228D02*
X85108105Y-93661228D01*
X85965248Y-93137419D02*
X86536676Y-93137419D01*
X86250962Y-94137419D02*
X86250962Y-93137419D01*
X87060486Y-93661228D02*
X87060486Y-94137419D01*
X86727153Y-93137419D02*
X87060486Y-93661228D01*
X87060486Y-93661228D02*
X87393819Y-93137419D01*
X93164333Y-103078419D02*
X92688143Y-103078419D01*
X92688143Y-103078419D02*
X92688143Y-102078419D01*
X93402429Y-102078419D02*
X94021476Y-102078419D01*
X94021476Y-102078419D02*
X93688143Y-102459371D01*
X93688143Y-102459371D02*
X93831000Y-102459371D01*
X93831000Y-102459371D02*
X93926238Y-102506990D01*
X93926238Y-102506990D02*
X93973857Y-102554609D01*
X93973857Y-102554609D02*
X94021476Y-102649847D01*
X94021476Y-102649847D02*
X94021476Y-102887942D01*
X94021476Y-102887942D02*
X93973857Y-102983180D01*
X93973857Y-102983180D02*
X93926238Y-103030800D01*
X93926238Y-103030800D02*
X93831000Y-103078419D01*
X93831000Y-103078419D02*
X93545286Y-103078419D01*
X93545286Y-103078419D02*
X93450048Y-103030800D01*
X93450048Y-103030800D02*
X93402429Y-102983180D01*
X91950047Y-100218419D02*
X91378619Y-100218419D01*
X91664333Y-100218419D02*
X91664333Y-99218419D01*
X91664333Y-99218419D02*
X91569095Y-99361276D01*
X91569095Y-99361276D02*
X91473857Y-99456514D01*
X91473857Y-99456514D02*
X91378619Y-99504133D01*
X92569095Y-99218419D02*
X92664333Y-99218419D01*
X92664333Y-99218419D02*
X92759571Y-99266038D01*
X92759571Y-99266038D02*
X92807190Y-99313657D01*
X92807190Y-99313657D02*
X92854809Y-99408895D01*
X92854809Y-99408895D02*
X92902428Y-99599371D01*
X92902428Y-99599371D02*
X92902428Y-99837466D01*
X92902428Y-99837466D02*
X92854809Y-100027942D01*
X92854809Y-100027942D02*
X92807190Y-100123180D01*
X92807190Y-100123180D02*
X92759571Y-100170800D01*
X92759571Y-100170800D02*
X92664333Y-100218419D01*
X92664333Y-100218419D02*
X92569095Y-100218419D01*
X92569095Y-100218419D02*
X92473857Y-100170800D01*
X92473857Y-100170800D02*
X92426238Y-100123180D01*
X92426238Y-100123180D02*
X92378619Y-100027942D01*
X92378619Y-100027942D02*
X92331000Y-99837466D01*
X92331000Y-99837466D02*
X92331000Y-99599371D01*
X92331000Y-99599371D02*
X92378619Y-99408895D01*
X92378619Y-99408895D02*
X92426238Y-99313657D01*
X92426238Y-99313657D02*
X92473857Y-99266038D01*
X92473857Y-99266038D02*
X92569095Y-99218419D01*
X93331000Y-100218419D02*
X93331000Y-99551752D01*
X93331000Y-99646990D02*
X93378619Y-99599371D01*
X93378619Y-99599371D02*
X93473857Y-99551752D01*
X93473857Y-99551752D02*
X93616714Y-99551752D01*
X93616714Y-99551752D02*
X93711952Y-99599371D01*
X93711952Y-99599371D02*
X93759571Y-99694609D01*
X93759571Y-99694609D02*
X93759571Y-100218419D01*
X93759571Y-99694609D02*
X93807190Y-99599371D01*
X93807190Y-99599371D02*
X93902428Y-99551752D01*
X93902428Y-99551752D02*
X94045285Y-99551752D01*
X94045285Y-99551752D02*
X94140524Y-99599371D01*
X94140524Y-99599371D02*
X94188143Y-99694609D01*
X94188143Y-99694609D02*
X94188143Y-100218419D01*
X94664333Y-100218419D02*
X94664333Y-99218419D01*
X94664333Y-99694609D02*
X95235761Y-99694609D01*
X95235761Y-100218419D02*
X95235761Y-99218419D01*
X100833333Y-113804819D02*
X100500000Y-113328628D01*
X100261905Y-113804819D02*
X100261905Y-112804819D01*
X100261905Y-112804819D02*
X100642857Y-112804819D01*
X100642857Y-112804819D02*
X100738095Y-112852438D01*
X100738095Y-112852438D02*
X100785714Y-112900057D01*
X100785714Y-112900057D02*
X100833333Y-112995295D01*
X100833333Y-112995295D02*
X100833333Y-113138152D01*
X100833333Y-113138152D02*
X100785714Y-113233390D01*
X100785714Y-113233390D02*
X100738095Y-113281009D01*
X100738095Y-113281009D02*
X100642857Y-113328628D01*
X100642857Y-113328628D02*
X100261905Y-113328628D01*
X101738095Y-112804819D02*
X101261905Y-112804819D01*
X101261905Y-112804819D02*
X101214286Y-113281009D01*
X101214286Y-113281009D02*
X101261905Y-113233390D01*
X101261905Y-113233390D02*
X101357143Y-113185771D01*
X101357143Y-113185771D02*
X101595238Y-113185771D01*
X101595238Y-113185771D02*
X101690476Y-113233390D01*
X101690476Y-113233390D02*
X101738095Y-113281009D01*
X101738095Y-113281009D02*
X101785714Y-113376247D01*
X101785714Y-113376247D02*
X101785714Y-113614342D01*
X101785714Y-113614342D02*
X101738095Y-113709580D01*
X101738095Y-113709580D02*
X101690476Y-113757200D01*
X101690476Y-113757200D02*
X101595238Y-113804819D01*
X101595238Y-113804819D02*
X101357143Y-113804819D01*
X101357143Y-113804819D02*
X101261905Y-113757200D01*
X101261905Y-113757200D02*
X101214286Y-113709580D01*
X100880952Y-117104819D02*
X100309524Y-117104819D01*
X100595238Y-117104819D02*
X100595238Y-116104819D01*
X100595238Y-116104819D02*
X100500000Y-116247676D01*
X100500000Y-116247676D02*
X100404762Y-116342914D01*
X100404762Y-116342914D02*
X100309524Y-116390533D01*
X101309524Y-117104819D02*
X101309524Y-116104819D01*
X101404762Y-116723866D02*
X101690476Y-117104819D01*
X101690476Y-116438152D02*
X101309524Y-116819104D01*
X51157767Y-71110000D02*
X51300624Y-71157619D01*
X51300624Y-71157619D02*
X51538719Y-71157619D01*
X51538719Y-71157619D02*
X51633957Y-71110000D01*
X51633957Y-71110000D02*
X51681576Y-71062380D01*
X51681576Y-71062380D02*
X51729195Y-70967142D01*
X51729195Y-70967142D02*
X51729195Y-70871904D01*
X51729195Y-70871904D02*
X51681576Y-70776666D01*
X51681576Y-70776666D02*
X51633957Y-70729047D01*
X51633957Y-70729047D02*
X51538719Y-70681428D01*
X51538719Y-70681428D02*
X51348243Y-70633809D01*
X51348243Y-70633809D02*
X51253005Y-70586190D01*
X51253005Y-70586190D02*
X51205386Y-70538571D01*
X51205386Y-70538571D02*
X51157767Y-70443333D01*
X51157767Y-70443333D02*
X51157767Y-70348095D01*
X51157767Y-70348095D02*
X51205386Y-70252857D01*
X51205386Y-70252857D02*
X51253005Y-70205238D01*
X51253005Y-70205238D02*
X51348243Y-70157619D01*
X51348243Y-70157619D02*
X51586338Y-70157619D01*
X51586338Y-70157619D02*
X51729195Y-70205238D01*
X52062529Y-70157619D02*
X52300624Y-71157619D01*
X52300624Y-71157619D02*
X52491100Y-70443333D01*
X52491100Y-70443333D02*
X52681576Y-71157619D01*
X52681576Y-71157619D02*
X52919672Y-70157619D01*
X53824433Y-71157619D02*
X53253005Y-71157619D01*
X53538719Y-71157619D02*
X53538719Y-70157619D01*
X53538719Y-70157619D02*
X53443481Y-70300476D01*
X53443481Y-70300476D02*
X53348243Y-70395714D01*
X53348243Y-70395714D02*
X53253005Y-70443333D01*
X49395862Y-80790000D02*
X49538719Y-80837619D01*
X49538719Y-80837619D02*
X49776814Y-80837619D01*
X49776814Y-80837619D02*
X49872052Y-80790000D01*
X49872052Y-80790000D02*
X49919671Y-80742380D01*
X49919671Y-80742380D02*
X49967290Y-80647142D01*
X49967290Y-80647142D02*
X49967290Y-80551904D01*
X49967290Y-80551904D02*
X49919671Y-80456666D01*
X49919671Y-80456666D02*
X49872052Y-80409047D01*
X49872052Y-80409047D02*
X49776814Y-80361428D01*
X49776814Y-80361428D02*
X49586338Y-80313809D01*
X49586338Y-80313809D02*
X49491100Y-80266190D01*
X49491100Y-80266190D02*
X49443481Y-80218571D01*
X49443481Y-80218571D02*
X49395862Y-80123333D01*
X49395862Y-80123333D02*
X49395862Y-80028095D01*
X49395862Y-80028095D02*
X49443481Y-79932857D01*
X49443481Y-79932857D02*
X49491100Y-79885238D01*
X49491100Y-79885238D02*
X49586338Y-79837619D01*
X49586338Y-79837619D02*
X49824433Y-79837619D01*
X49824433Y-79837619D02*
X49967290Y-79885238D01*
X50300624Y-79837619D02*
X50538719Y-80837619D01*
X50538719Y-80837619D02*
X50729195Y-80123333D01*
X50729195Y-80123333D02*
X50919671Y-80837619D01*
X50919671Y-80837619D02*
X51157767Y-79837619D01*
X51300624Y-80932857D02*
X52062528Y-80932857D01*
X52253005Y-80790000D02*
X52395862Y-80837619D01*
X52395862Y-80837619D02*
X52633957Y-80837619D01*
X52633957Y-80837619D02*
X52729195Y-80790000D01*
X52729195Y-80790000D02*
X52776814Y-80742380D01*
X52776814Y-80742380D02*
X52824433Y-80647142D01*
X52824433Y-80647142D02*
X52824433Y-80551904D01*
X52824433Y-80551904D02*
X52776814Y-80456666D01*
X52776814Y-80456666D02*
X52729195Y-80409047D01*
X52729195Y-80409047D02*
X52633957Y-80361428D01*
X52633957Y-80361428D02*
X52443481Y-80313809D01*
X52443481Y-80313809D02*
X52348243Y-80266190D01*
X52348243Y-80266190D02*
X52300624Y-80218571D01*
X52300624Y-80218571D02*
X52253005Y-80123333D01*
X52253005Y-80123333D02*
X52253005Y-80028095D01*
X52253005Y-80028095D02*
X52300624Y-79932857D01*
X52300624Y-79932857D02*
X52348243Y-79885238D01*
X52348243Y-79885238D02*
X52443481Y-79837619D01*
X52443481Y-79837619D02*
X52681576Y-79837619D01*
X52681576Y-79837619D02*
X52824433Y-79885238D01*
X53253005Y-80837619D02*
X53253005Y-79837619D01*
X53253005Y-79837619D02*
X53633957Y-79837619D01*
X53633957Y-79837619D02*
X53729195Y-79885238D01*
X53729195Y-79885238D02*
X53776814Y-79932857D01*
X53776814Y-79932857D02*
X53824433Y-80028095D01*
X53824433Y-80028095D02*
X53824433Y-80170952D01*
X53824433Y-80170952D02*
X53776814Y-80266190D01*
X53776814Y-80266190D02*
X53729195Y-80313809D01*
X53729195Y-80313809D02*
X53633957Y-80361428D01*
X53633957Y-80361428D02*
X53253005Y-80361428D01*
X54253005Y-80837619D02*
X54253005Y-79837619D01*
X54253005Y-79837619D02*
X54491100Y-79837619D01*
X54491100Y-79837619D02*
X54633957Y-79885238D01*
X54633957Y-79885238D02*
X54729195Y-79980476D01*
X54729195Y-79980476D02*
X54776814Y-80075714D01*
X54776814Y-80075714D02*
X54824433Y-80266190D01*
X54824433Y-80266190D02*
X54824433Y-80409047D01*
X54824433Y-80409047D02*
X54776814Y-80599523D01*
X54776814Y-80599523D02*
X54729195Y-80694761D01*
X54729195Y-80694761D02*
X54633957Y-80790000D01*
X54633957Y-80790000D02*
X54491100Y-80837619D01*
X54491100Y-80837619D02*
X54253005Y-80837619D01*
X55110148Y-79837619D02*
X55681576Y-79837619D01*
X55395862Y-80837619D02*
X55395862Y-79837619D01*
X46625386Y-76557619D02*
X46625386Y-75557619D01*
X46625386Y-75557619D02*
X47196814Y-76557619D01*
X47196814Y-76557619D02*
X47196814Y-75557619D01*
X48244433Y-76462380D02*
X48196814Y-76510000D01*
X48196814Y-76510000D02*
X48053957Y-76557619D01*
X48053957Y-76557619D02*
X47958719Y-76557619D01*
X47958719Y-76557619D02*
X47815862Y-76510000D01*
X47815862Y-76510000D02*
X47720624Y-76414761D01*
X47720624Y-76414761D02*
X47673005Y-76319523D01*
X47673005Y-76319523D02*
X47625386Y-76129047D01*
X47625386Y-76129047D02*
X47625386Y-75986190D01*
X47625386Y-75986190D02*
X47673005Y-75795714D01*
X47673005Y-75795714D02*
X47720624Y-75700476D01*
X47720624Y-75700476D02*
X47815862Y-75605238D01*
X47815862Y-75605238D02*
X47958719Y-75557619D01*
X47958719Y-75557619D02*
X48053957Y-75557619D01*
X48053957Y-75557619D02*
X48196814Y-75605238D01*
X48196814Y-75605238D02*
X48244433Y-75652857D01*
X51681576Y-76557619D02*
X51681576Y-75557619D01*
X51681576Y-75557619D02*
X52253004Y-76557619D01*
X52253004Y-76557619D02*
X52253004Y-75557619D01*
X52919671Y-75557619D02*
X53110147Y-75557619D01*
X53110147Y-75557619D02*
X53205385Y-75605238D01*
X53205385Y-75605238D02*
X53300623Y-75700476D01*
X53300623Y-75700476D02*
X53348242Y-75890952D01*
X53348242Y-75890952D02*
X53348242Y-76224285D01*
X53348242Y-76224285D02*
X53300623Y-76414761D01*
X53300623Y-76414761D02*
X53205385Y-76510000D01*
X53205385Y-76510000D02*
X53110147Y-76557619D01*
X53110147Y-76557619D02*
X52919671Y-76557619D01*
X52919671Y-76557619D02*
X52824433Y-76510000D01*
X52824433Y-76510000D02*
X52729195Y-76414761D01*
X52729195Y-76414761D02*
X52681576Y-76224285D01*
X52681576Y-76224285D02*
X52681576Y-75890952D01*
X52681576Y-75890952D02*
X52729195Y-75700476D01*
X52729195Y-75700476D02*
X52824433Y-75605238D01*
X52824433Y-75605238D02*
X52919671Y-75557619D01*
X57880623Y-76462380D02*
X57833004Y-76510000D01*
X57833004Y-76510000D02*
X57690147Y-76557619D01*
X57690147Y-76557619D02*
X57594909Y-76557619D01*
X57594909Y-76557619D02*
X57452052Y-76510000D01*
X57452052Y-76510000D02*
X57356814Y-76414761D01*
X57356814Y-76414761D02*
X57309195Y-76319523D01*
X57309195Y-76319523D02*
X57261576Y-76129047D01*
X57261576Y-76129047D02*
X57261576Y-75986190D01*
X57261576Y-75986190D02*
X57309195Y-75795714D01*
X57309195Y-75795714D02*
X57356814Y-75700476D01*
X57356814Y-75700476D02*
X57452052Y-75605238D01*
X57452052Y-75605238D02*
X57594909Y-75557619D01*
X57594909Y-75557619D02*
X57690147Y-75557619D01*
X57690147Y-75557619D02*
X57833004Y-75605238D01*
X57833004Y-75605238D02*
X57880623Y-75652857D01*
X93396666Y-105334819D02*
X93396666Y-106049104D01*
X93396666Y-106049104D02*
X93349047Y-106191961D01*
X93349047Y-106191961D02*
X93253809Y-106287200D01*
X93253809Y-106287200D02*
X93110952Y-106334819D01*
X93110952Y-106334819D02*
X93015714Y-106334819D01*
X94349047Y-105334819D02*
X93872857Y-105334819D01*
X93872857Y-105334819D02*
X93825238Y-105811009D01*
X93825238Y-105811009D02*
X93872857Y-105763390D01*
X93872857Y-105763390D02*
X93968095Y-105715771D01*
X93968095Y-105715771D02*
X94206190Y-105715771D01*
X94206190Y-105715771D02*
X94301428Y-105763390D01*
X94301428Y-105763390D02*
X94349047Y-105811009D01*
X94349047Y-105811009D02*
X94396666Y-105906247D01*
X94396666Y-105906247D02*
X94396666Y-106144342D01*
X94396666Y-106144342D02*
X94349047Y-106239580D01*
X94349047Y-106239580D02*
X94301428Y-106287200D01*
X94301428Y-106287200D02*
X94206190Y-106334819D01*
X94206190Y-106334819D02*
X93968095Y-106334819D01*
X93968095Y-106334819D02*
X93872857Y-106287200D01*
X93872857Y-106287200D02*
X93825238Y-106239580D01*
X89134760Y-114534819D02*
X88658570Y-114534819D01*
X88658570Y-114534819D02*
X88658570Y-113534819D01*
X89468094Y-114011009D02*
X89801427Y-114011009D01*
X89944284Y-114534819D02*
X89468094Y-114534819D01*
X89468094Y-114534819D02*
X89468094Y-113534819D01*
X89468094Y-113534819D02*
X89944284Y-113534819D01*
X90372856Y-114534819D02*
X90372856Y-113534819D01*
X90372856Y-113534819D02*
X90610951Y-113534819D01*
X90610951Y-113534819D02*
X90753808Y-113582438D01*
X90753808Y-113582438D02*
X90849046Y-113677676D01*
X90849046Y-113677676D02*
X90896665Y-113772914D01*
X90896665Y-113772914D02*
X90944284Y-113963390D01*
X90944284Y-113963390D02*
X90944284Y-114106247D01*
X90944284Y-114106247D02*
X90896665Y-114296723D01*
X90896665Y-114296723D02*
X90849046Y-114391961D01*
X90849046Y-114391961D02*
X90753808Y-114487200D01*
X90753808Y-114487200D02*
X90610951Y-114534819D01*
X90610951Y-114534819D02*
X90372856Y-114534819D01*
X91134761Y-114630057D02*
X91896665Y-114630057D01*
X92468094Y-114011009D02*
X92610951Y-114058628D01*
X92610951Y-114058628D02*
X92658570Y-114106247D01*
X92658570Y-114106247D02*
X92706189Y-114201485D01*
X92706189Y-114201485D02*
X92706189Y-114344342D01*
X92706189Y-114344342D02*
X92658570Y-114439580D01*
X92658570Y-114439580D02*
X92610951Y-114487200D01*
X92610951Y-114487200D02*
X92515713Y-114534819D01*
X92515713Y-114534819D02*
X92134761Y-114534819D01*
X92134761Y-114534819D02*
X92134761Y-113534819D01*
X92134761Y-113534819D02*
X92468094Y-113534819D01*
X92468094Y-113534819D02*
X92563332Y-113582438D01*
X92563332Y-113582438D02*
X92610951Y-113630057D01*
X92610951Y-113630057D02*
X92658570Y-113725295D01*
X92658570Y-113725295D02*
X92658570Y-113820533D01*
X92658570Y-113820533D02*
X92610951Y-113915771D01*
X92610951Y-113915771D02*
X92563332Y-113963390D01*
X92563332Y-113963390D02*
X92468094Y-114011009D01*
X92468094Y-114011009D02*
X92134761Y-114011009D01*
X93277618Y-114534819D02*
X93182380Y-114487200D01*
X93182380Y-114487200D02*
X93134761Y-114391961D01*
X93134761Y-114391961D02*
X93134761Y-113534819D01*
X94087142Y-113868152D02*
X94087142Y-114534819D01*
X93658571Y-113868152D02*
X93658571Y-114391961D01*
X93658571Y-114391961D02*
X93706190Y-114487200D01*
X93706190Y-114487200D02*
X93801428Y-114534819D01*
X93801428Y-114534819D02*
X93944285Y-114534819D01*
X93944285Y-114534819D02*
X94039523Y-114487200D01*
X94039523Y-114487200D02*
X94087142Y-114439580D01*
X94944285Y-114487200D02*
X94849047Y-114534819D01*
X94849047Y-114534819D02*
X94658571Y-114534819D01*
X94658571Y-114534819D02*
X94563333Y-114487200D01*
X94563333Y-114487200D02*
X94515714Y-114391961D01*
X94515714Y-114391961D02*
X94515714Y-114011009D01*
X94515714Y-114011009D02*
X94563333Y-113915771D01*
X94563333Y-113915771D02*
X94658571Y-113868152D01*
X94658571Y-113868152D02*
X94849047Y-113868152D01*
X94849047Y-113868152D02*
X94944285Y-113915771D01*
X94944285Y-113915771D02*
X94991904Y-114011009D01*
X94991904Y-114011009D02*
X94991904Y-114106247D01*
X94991904Y-114106247D02*
X94515714Y-114201485D01*
X95277619Y-113868152D02*
X95658571Y-113868152D01*
X95420476Y-113534819D02*
X95420476Y-114391961D01*
X95420476Y-114391961D02*
X95468095Y-114487200D01*
X95468095Y-114487200D02*
X95563333Y-114534819D01*
X95563333Y-114534819D02*
X95658571Y-114534819D01*
X96134762Y-114534819D02*
X96039524Y-114487200D01*
X96039524Y-114487200D02*
X95991905Y-114439580D01*
X95991905Y-114439580D02*
X95944286Y-114344342D01*
X95944286Y-114344342D02*
X95944286Y-114058628D01*
X95944286Y-114058628D02*
X95991905Y-113963390D01*
X95991905Y-113963390D02*
X96039524Y-113915771D01*
X96039524Y-113915771D02*
X96134762Y-113868152D01*
X96134762Y-113868152D02*
X96277619Y-113868152D01*
X96277619Y-113868152D02*
X96372857Y-113915771D01*
X96372857Y-113915771D02*
X96420476Y-113963390D01*
X96420476Y-113963390D02*
X96468095Y-114058628D01*
X96468095Y-114058628D02*
X96468095Y-114344342D01*
X96468095Y-114344342D02*
X96420476Y-114439580D01*
X96420476Y-114439580D02*
X96372857Y-114487200D01*
X96372857Y-114487200D02*
X96277619Y-114534819D01*
X96277619Y-114534819D02*
X96134762Y-114534819D01*
X97039524Y-114534819D02*
X96944286Y-114487200D01*
X96944286Y-114487200D02*
X96896667Y-114439580D01*
X96896667Y-114439580D02*
X96849048Y-114344342D01*
X96849048Y-114344342D02*
X96849048Y-114058628D01*
X96849048Y-114058628D02*
X96896667Y-113963390D01*
X96896667Y-113963390D02*
X96944286Y-113915771D01*
X96944286Y-113915771D02*
X97039524Y-113868152D01*
X97039524Y-113868152D02*
X97182381Y-113868152D01*
X97182381Y-113868152D02*
X97277619Y-113915771D01*
X97277619Y-113915771D02*
X97325238Y-113963390D01*
X97325238Y-113963390D02*
X97372857Y-114058628D01*
X97372857Y-114058628D02*
X97372857Y-114344342D01*
X97372857Y-114344342D02*
X97325238Y-114439580D01*
X97325238Y-114439580D02*
X97277619Y-114487200D01*
X97277619Y-114487200D02*
X97182381Y-114534819D01*
X97182381Y-114534819D02*
X97039524Y-114534819D01*
X97658572Y-113868152D02*
X98039524Y-113868152D01*
X97801429Y-113534819D02*
X97801429Y-114391961D01*
X97801429Y-114391961D02*
X97849048Y-114487200D01*
X97849048Y-114487200D02*
X97944286Y-114534819D01*
X97944286Y-114534819D02*
X98039524Y-114534819D01*
X98372858Y-114534819D02*
X98372858Y-113534819D01*
X98801429Y-114534819D02*
X98801429Y-114011009D01*
X98801429Y-114011009D02*
X98753810Y-113915771D01*
X98753810Y-113915771D02*
X98658572Y-113868152D01*
X98658572Y-113868152D02*
X98515715Y-113868152D01*
X98515715Y-113868152D02*
X98420477Y-113915771D01*
X98420477Y-113915771D02*
X98372858Y-113963390D01*
X88352333Y-80514619D02*
X88019000Y-80038428D01*
X87780905Y-80514619D02*
X87780905Y-79514619D01*
X87780905Y-79514619D02*
X88161857Y-79514619D01*
X88161857Y-79514619D02*
X88257095Y-79562238D01*
X88257095Y-79562238D02*
X88304714Y-79609857D01*
X88304714Y-79609857D02*
X88352333Y-79705095D01*
X88352333Y-79705095D02*
X88352333Y-79847952D01*
X88352333Y-79847952D02*
X88304714Y-79943190D01*
X88304714Y-79943190D02*
X88257095Y-79990809D01*
X88257095Y-79990809D02*
X88161857Y-80038428D01*
X88161857Y-80038428D02*
X87780905Y-80038428D01*
X88685667Y-79514619D02*
X89352333Y-79514619D01*
X89352333Y-79514619D02*
X88923762Y-80514619D01*
X88399952Y-77214619D02*
X87828524Y-77214619D01*
X88114238Y-77214619D02*
X88114238Y-76214619D01*
X88114238Y-76214619D02*
X88019000Y-76357476D01*
X88019000Y-76357476D02*
X87923762Y-76452714D01*
X87923762Y-76452714D02*
X87828524Y-76500333D01*
X88828524Y-77214619D02*
X88828524Y-76214619D01*
X88923762Y-76833666D02*
X89209476Y-77214619D01*
X89209476Y-76547952D02*
X88828524Y-76928904D01*
X79843333Y-99973019D02*
X79510000Y-99496828D01*
X79271905Y-99973019D02*
X79271905Y-98973019D01*
X79271905Y-98973019D02*
X79652857Y-98973019D01*
X79652857Y-98973019D02*
X79748095Y-99020638D01*
X79748095Y-99020638D02*
X79795714Y-99068257D01*
X79795714Y-99068257D02*
X79843333Y-99163495D01*
X79843333Y-99163495D02*
X79843333Y-99306352D01*
X79843333Y-99306352D02*
X79795714Y-99401590D01*
X79795714Y-99401590D02*
X79748095Y-99449209D01*
X79748095Y-99449209D02*
X79652857Y-99496828D01*
X79652857Y-99496828D02*
X79271905Y-99496828D01*
X80176667Y-98973019D02*
X80795714Y-98973019D01*
X80795714Y-98973019D02*
X80462381Y-99353971D01*
X80462381Y-99353971D02*
X80605238Y-99353971D01*
X80605238Y-99353971D02*
X80700476Y-99401590D01*
X80700476Y-99401590D02*
X80748095Y-99449209D01*
X80748095Y-99449209D02*
X80795714Y-99544447D01*
X80795714Y-99544447D02*
X80795714Y-99782542D01*
X80795714Y-99782542D02*
X80748095Y-99877780D01*
X80748095Y-99877780D02*
X80700476Y-99925400D01*
X80700476Y-99925400D02*
X80605238Y-99973019D01*
X80605238Y-99973019D02*
X80319524Y-99973019D01*
X80319524Y-99973019D02*
X80224286Y-99925400D01*
X80224286Y-99925400D02*
X80176667Y-99877780D01*
X79890952Y-103273019D02*
X79319524Y-103273019D01*
X79605238Y-103273019D02*
X79605238Y-102273019D01*
X79605238Y-102273019D02*
X79510000Y-102415876D01*
X79510000Y-102415876D02*
X79414762Y-102511114D01*
X79414762Y-102511114D02*
X79319524Y-102558733D01*
X80319524Y-103273019D02*
X80319524Y-102273019D01*
X80414762Y-102892066D02*
X80700476Y-103273019D01*
X80700476Y-102606352D02*
X80319524Y-102987304D01*
X48453956Y-81423980D02*
X48406337Y-81471600D01*
X48406337Y-81471600D02*
X48263480Y-81519219D01*
X48263480Y-81519219D02*
X48168242Y-81519219D01*
X48168242Y-81519219D02*
X48025385Y-81471600D01*
X48025385Y-81471600D02*
X47930147Y-81376361D01*
X47930147Y-81376361D02*
X47882528Y-81281123D01*
X47882528Y-81281123D02*
X47834909Y-81090647D01*
X47834909Y-81090647D02*
X47834909Y-80947790D01*
X47834909Y-80947790D02*
X47882528Y-80757314D01*
X47882528Y-80757314D02*
X47930147Y-80662076D01*
X47930147Y-80662076D02*
X48025385Y-80566838D01*
X48025385Y-80566838D02*
X48168242Y-80519219D01*
X48168242Y-80519219D02*
X48263480Y-80519219D01*
X48263480Y-80519219D02*
X48406337Y-80566838D01*
X48406337Y-80566838D02*
X48453956Y-80614457D01*
X49406337Y-81519219D02*
X48834909Y-81519219D01*
X49120623Y-81519219D02*
X49120623Y-80519219D01*
X49120623Y-80519219D02*
X49025385Y-80662076D01*
X49025385Y-80662076D02*
X48930147Y-80757314D01*
X48930147Y-80757314D02*
X48834909Y-80804933D01*
X46977765Y-93019219D02*
X46787289Y-93019219D01*
X46787289Y-93019219D02*
X46692051Y-93066838D01*
X46692051Y-93066838D02*
X46644432Y-93114457D01*
X46644432Y-93114457D02*
X46549194Y-93257314D01*
X46549194Y-93257314D02*
X46501575Y-93447790D01*
X46501575Y-93447790D02*
X46501575Y-93828742D01*
X46501575Y-93828742D02*
X46549194Y-93923980D01*
X46549194Y-93923980D02*
X46596813Y-93971600D01*
X46596813Y-93971600D02*
X46692051Y-94019219D01*
X46692051Y-94019219D02*
X46882527Y-94019219D01*
X46882527Y-94019219D02*
X46977765Y-93971600D01*
X46977765Y-93971600D02*
X47025384Y-93923980D01*
X47025384Y-93923980D02*
X47073003Y-93828742D01*
X47073003Y-93828742D02*
X47073003Y-93590647D01*
X47073003Y-93590647D02*
X47025384Y-93495409D01*
X47025384Y-93495409D02*
X46977765Y-93447790D01*
X46977765Y-93447790D02*
X46882527Y-93400171D01*
X46882527Y-93400171D02*
X46692051Y-93400171D01*
X46692051Y-93400171D02*
X46596813Y-93447790D01*
X46596813Y-93447790D02*
X46549194Y-93495409D01*
X46549194Y-93495409D02*
X46501575Y-93590647D01*
X47644432Y-93447790D02*
X47549194Y-93400171D01*
X47549194Y-93400171D02*
X47501575Y-93352552D01*
X47501575Y-93352552D02*
X47453956Y-93257314D01*
X47453956Y-93257314D02*
X47453956Y-93209695D01*
X47453956Y-93209695D02*
X47501575Y-93114457D01*
X47501575Y-93114457D02*
X47549194Y-93066838D01*
X47549194Y-93066838D02*
X47644432Y-93019219D01*
X47644432Y-93019219D02*
X47834908Y-93019219D01*
X47834908Y-93019219D02*
X47930146Y-93066838D01*
X47930146Y-93066838D02*
X47977765Y-93114457D01*
X47977765Y-93114457D02*
X48025384Y-93209695D01*
X48025384Y-93209695D02*
X48025384Y-93257314D01*
X48025384Y-93257314D02*
X47977765Y-93352552D01*
X47977765Y-93352552D02*
X47930146Y-93400171D01*
X47930146Y-93400171D02*
X47834908Y-93447790D01*
X47834908Y-93447790D02*
X47644432Y-93447790D01*
X47644432Y-93447790D02*
X47549194Y-93495409D01*
X47549194Y-93495409D02*
X47501575Y-93543028D01*
X47501575Y-93543028D02*
X47453956Y-93638266D01*
X47453956Y-93638266D02*
X47453956Y-93828742D01*
X47453956Y-93828742D02*
X47501575Y-93923980D01*
X47501575Y-93923980D02*
X47549194Y-93971600D01*
X47549194Y-93971600D02*
X47644432Y-94019219D01*
X47644432Y-94019219D02*
X47834908Y-94019219D01*
X47834908Y-94019219D02*
X47930146Y-93971600D01*
X47930146Y-93971600D02*
X47977765Y-93923980D01*
X47977765Y-93923980D02*
X48025384Y-93828742D01*
X48025384Y-93828742D02*
X48025384Y-93638266D01*
X48025384Y-93638266D02*
X47977765Y-93543028D01*
X47977765Y-93543028D02*
X47930146Y-93495409D01*
X47930146Y-93495409D02*
X47834908Y-93447790D01*
X48644432Y-93019219D02*
X48739670Y-93019219D01*
X48739670Y-93019219D02*
X48834908Y-93066838D01*
X48834908Y-93066838D02*
X48882527Y-93114457D01*
X48882527Y-93114457D02*
X48930146Y-93209695D01*
X48930146Y-93209695D02*
X48977765Y-93400171D01*
X48977765Y-93400171D02*
X48977765Y-93638266D01*
X48977765Y-93638266D02*
X48930146Y-93828742D01*
X48930146Y-93828742D02*
X48882527Y-93923980D01*
X48882527Y-93923980D02*
X48834908Y-93971600D01*
X48834908Y-93971600D02*
X48739670Y-94019219D01*
X48739670Y-94019219D02*
X48644432Y-94019219D01*
X48644432Y-94019219D02*
X48549194Y-93971600D01*
X48549194Y-93971600D02*
X48501575Y-93923980D01*
X48501575Y-93923980D02*
X48453956Y-93828742D01*
X48453956Y-93828742D02*
X48406337Y-93638266D01*
X48406337Y-93638266D02*
X48406337Y-93400171D01*
X48406337Y-93400171D02*
X48453956Y-93209695D01*
X48453956Y-93209695D02*
X48501575Y-93114457D01*
X48501575Y-93114457D02*
X48549194Y-93066838D01*
X48549194Y-93066838D02*
X48644432Y-93019219D01*
X49834908Y-93352552D02*
X49834908Y-94019219D01*
X49406337Y-93352552D02*
X49406337Y-93876361D01*
X49406337Y-93876361D02*
X49453956Y-93971600D01*
X49453956Y-93971600D02*
X49549194Y-94019219D01*
X49549194Y-94019219D02*
X49692051Y-94019219D01*
X49692051Y-94019219D02*
X49787289Y-93971600D01*
X49787289Y-93971600D02*
X49834908Y-93923980D01*
X50644432Y-93495409D02*
X50311099Y-93495409D01*
X50311099Y-94019219D02*
X50311099Y-93019219D01*
X50311099Y-93019219D02*
X50787289Y-93019219D01*
X102896666Y-100334819D02*
X102896666Y-101049104D01*
X102896666Y-101049104D02*
X102849047Y-101191961D01*
X102849047Y-101191961D02*
X102753809Y-101287200D01*
X102753809Y-101287200D02*
X102610952Y-101334819D01*
X102610952Y-101334819D02*
X102515714Y-101334819D01*
X103420476Y-101334819D02*
X103610952Y-101334819D01*
X103610952Y-101334819D02*
X103706190Y-101287200D01*
X103706190Y-101287200D02*
X103753809Y-101239580D01*
X103753809Y-101239580D02*
X103849047Y-101096723D01*
X103849047Y-101096723D02*
X103896666Y-100906247D01*
X103896666Y-100906247D02*
X103896666Y-100525295D01*
X103896666Y-100525295D02*
X103849047Y-100430057D01*
X103849047Y-100430057D02*
X103801428Y-100382438D01*
X103801428Y-100382438D02*
X103706190Y-100334819D01*
X103706190Y-100334819D02*
X103515714Y-100334819D01*
X103515714Y-100334819D02*
X103420476Y-100382438D01*
X103420476Y-100382438D02*
X103372857Y-100430057D01*
X103372857Y-100430057D02*
X103325238Y-100525295D01*
X103325238Y-100525295D02*
X103325238Y-100763390D01*
X103325238Y-100763390D02*
X103372857Y-100858628D01*
X103372857Y-100858628D02*
X103420476Y-100906247D01*
X103420476Y-100906247D02*
X103515714Y-100953866D01*
X103515714Y-100953866D02*
X103706190Y-100953866D01*
X103706190Y-100953866D02*
X103801428Y-100906247D01*
X103801428Y-100906247D02*
X103849047Y-100858628D01*
X103849047Y-100858628D02*
X103896666Y-100763390D01*
X100113633Y-90318780D02*
X100066014Y-90366400D01*
X100066014Y-90366400D02*
X99923157Y-90414019D01*
X99923157Y-90414019D02*
X99827919Y-90414019D01*
X99827919Y-90414019D02*
X99685062Y-90366400D01*
X99685062Y-90366400D02*
X99589824Y-90271161D01*
X99589824Y-90271161D02*
X99542205Y-90175923D01*
X99542205Y-90175923D02*
X99494586Y-89985447D01*
X99494586Y-89985447D02*
X99494586Y-89842590D01*
X99494586Y-89842590D02*
X99542205Y-89652114D01*
X99542205Y-89652114D02*
X99589824Y-89556876D01*
X99589824Y-89556876D02*
X99685062Y-89461638D01*
X99685062Y-89461638D02*
X99827919Y-89414019D01*
X99827919Y-89414019D02*
X99923157Y-89414019D01*
X99923157Y-89414019D02*
X100066014Y-89461638D01*
X100066014Y-89461638D02*
X100113633Y-89509257D01*
X101018395Y-89414019D02*
X100542205Y-89414019D01*
X100542205Y-89414019D02*
X100494586Y-89890209D01*
X100494586Y-89890209D02*
X100542205Y-89842590D01*
X100542205Y-89842590D02*
X100637443Y-89794971D01*
X100637443Y-89794971D02*
X100875538Y-89794971D01*
X100875538Y-89794971D02*
X100970776Y-89842590D01*
X100970776Y-89842590D02*
X101018395Y-89890209D01*
X101018395Y-89890209D02*
X101066014Y-89985447D01*
X101066014Y-89985447D02*
X101066014Y-90223542D01*
X101066014Y-90223542D02*
X101018395Y-90318780D01*
X101018395Y-90318780D02*
X100970776Y-90366400D01*
X100970776Y-90366400D02*
X100875538Y-90414019D01*
X100875538Y-90414019D02*
X100637443Y-90414019D01*
X100637443Y-90414019D02*
X100542205Y-90366400D01*
X100542205Y-90366400D02*
X100494586Y-90318780D01*
X98161252Y-92274019D02*
X98256490Y-92274019D01*
X98256490Y-92274019D02*
X98351728Y-92321638D01*
X98351728Y-92321638D02*
X98399347Y-92369257D01*
X98399347Y-92369257D02*
X98446966Y-92464495D01*
X98446966Y-92464495D02*
X98494585Y-92654971D01*
X98494585Y-92654971D02*
X98494585Y-92893066D01*
X98494585Y-92893066D02*
X98446966Y-93083542D01*
X98446966Y-93083542D02*
X98399347Y-93178780D01*
X98399347Y-93178780D02*
X98351728Y-93226400D01*
X98351728Y-93226400D02*
X98256490Y-93274019D01*
X98256490Y-93274019D02*
X98161252Y-93274019D01*
X98161252Y-93274019D02*
X98066014Y-93226400D01*
X98066014Y-93226400D02*
X98018395Y-93178780D01*
X98018395Y-93178780D02*
X97970776Y-93083542D01*
X97970776Y-93083542D02*
X97923157Y-92893066D01*
X97923157Y-92893066D02*
X97923157Y-92654971D01*
X97923157Y-92654971D02*
X97970776Y-92464495D01*
X97970776Y-92464495D02*
X98018395Y-92369257D01*
X98018395Y-92369257D02*
X98066014Y-92321638D01*
X98066014Y-92321638D02*
X98161252Y-92274019D01*
X98923157Y-93178780D02*
X98970776Y-93226400D01*
X98970776Y-93226400D02*
X98923157Y-93274019D01*
X98923157Y-93274019D02*
X98875538Y-93226400D01*
X98875538Y-93226400D02*
X98923157Y-93178780D01*
X98923157Y-93178780D02*
X98923157Y-93274019D01*
X99589823Y-92274019D02*
X99685061Y-92274019D01*
X99685061Y-92274019D02*
X99780299Y-92321638D01*
X99780299Y-92321638D02*
X99827918Y-92369257D01*
X99827918Y-92369257D02*
X99875537Y-92464495D01*
X99875537Y-92464495D02*
X99923156Y-92654971D01*
X99923156Y-92654971D02*
X99923156Y-92893066D01*
X99923156Y-92893066D02*
X99875537Y-93083542D01*
X99875537Y-93083542D02*
X99827918Y-93178780D01*
X99827918Y-93178780D02*
X99780299Y-93226400D01*
X99780299Y-93226400D02*
X99685061Y-93274019D01*
X99685061Y-93274019D02*
X99589823Y-93274019D01*
X99589823Y-93274019D02*
X99494585Y-93226400D01*
X99494585Y-93226400D02*
X99446966Y-93178780D01*
X99446966Y-93178780D02*
X99399347Y-93083542D01*
X99399347Y-93083542D02*
X99351728Y-92893066D01*
X99351728Y-92893066D02*
X99351728Y-92654971D01*
X99351728Y-92654971D02*
X99399347Y-92464495D01*
X99399347Y-92464495D02*
X99446966Y-92369257D01*
X99446966Y-92369257D02*
X99494585Y-92321638D01*
X99494585Y-92321638D02*
X99589823Y-92274019D01*
X100875537Y-93274019D02*
X100304109Y-93274019D01*
X100589823Y-93274019D02*
X100589823Y-92274019D01*
X100589823Y-92274019D02*
X100494585Y-92416876D01*
X100494585Y-92416876D02*
X100399347Y-92512114D01*
X100399347Y-92512114D02*
X100304109Y-92559733D01*
X101732680Y-92607352D02*
X101732680Y-93274019D01*
X101304109Y-92607352D02*
X101304109Y-93131161D01*
X101304109Y-93131161D02*
X101351728Y-93226400D01*
X101351728Y-93226400D02*
X101446966Y-93274019D01*
X101446966Y-93274019D02*
X101589823Y-93274019D01*
X101589823Y-93274019D02*
X101685061Y-93226400D01*
X101685061Y-93226400D02*
X101732680Y-93178780D01*
X102542204Y-92750209D02*
X102208871Y-92750209D01*
X102208871Y-93274019D02*
X102208871Y-92274019D01*
X102208871Y-92274019D02*
X102685061Y-92274019D01*
X85086566Y-101699219D02*
X85086566Y-102413504D01*
X85086566Y-102413504D02*
X85038947Y-102556361D01*
X85038947Y-102556361D02*
X84943709Y-102651600D01*
X84943709Y-102651600D02*
X84800852Y-102699219D01*
X84800852Y-102699219D02*
X84705614Y-102699219D01*
X85467519Y-101699219D02*
X86086566Y-101699219D01*
X86086566Y-101699219D02*
X85753233Y-102080171D01*
X85753233Y-102080171D02*
X85896090Y-102080171D01*
X85896090Y-102080171D02*
X85991328Y-102127790D01*
X85991328Y-102127790D02*
X86038947Y-102175409D01*
X86038947Y-102175409D02*
X86086566Y-102270647D01*
X86086566Y-102270647D02*
X86086566Y-102508742D01*
X86086566Y-102508742D02*
X86038947Y-102603980D01*
X86038947Y-102603980D02*
X85991328Y-102651600D01*
X85991328Y-102651600D02*
X85896090Y-102699219D01*
X85896090Y-102699219D02*
X85610376Y-102699219D01*
X85610376Y-102699219D02*
X85515138Y-102651600D01*
X85515138Y-102651600D02*
X85467519Y-102603980D01*
X83086566Y-110899219D02*
X83086566Y-109899219D01*
X83086566Y-109899219D02*
X83419899Y-110613504D01*
X83419899Y-110613504D02*
X83753232Y-109899219D01*
X83753232Y-109899219D02*
X83753232Y-110899219D01*
X84372280Y-110899219D02*
X84277042Y-110851600D01*
X84277042Y-110851600D02*
X84229423Y-110803980D01*
X84229423Y-110803980D02*
X84181804Y-110708742D01*
X84181804Y-110708742D02*
X84181804Y-110423028D01*
X84181804Y-110423028D02*
X84229423Y-110327790D01*
X84229423Y-110327790D02*
X84277042Y-110280171D01*
X84277042Y-110280171D02*
X84372280Y-110232552D01*
X84372280Y-110232552D02*
X84515137Y-110232552D01*
X84515137Y-110232552D02*
X84610375Y-110280171D01*
X84610375Y-110280171D02*
X84657994Y-110327790D01*
X84657994Y-110327790D02*
X84705613Y-110423028D01*
X84705613Y-110423028D02*
X84705613Y-110708742D01*
X84705613Y-110708742D02*
X84657994Y-110803980D01*
X84657994Y-110803980D02*
X84610375Y-110851600D01*
X84610375Y-110851600D02*
X84515137Y-110899219D01*
X84515137Y-110899219D02*
X84372280Y-110899219D01*
X84991328Y-110232552D02*
X85372280Y-110232552D01*
X85134185Y-109899219D02*
X85134185Y-110756361D01*
X85134185Y-110756361D02*
X85181804Y-110851600D01*
X85181804Y-110851600D02*
X85277042Y-110899219D01*
X85277042Y-110899219D02*
X85372280Y-110899219D01*
X85848471Y-110899219D02*
X85753233Y-110851600D01*
X85753233Y-110851600D02*
X85705614Y-110803980D01*
X85705614Y-110803980D02*
X85657995Y-110708742D01*
X85657995Y-110708742D02*
X85657995Y-110423028D01*
X85657995Y-110423028D02*
X85705614Y-110327790D01*
X85705614Y-110327790D02*
X85753233Y-110280171D01*
X85753233Y-110280171D02*
X85848471Y-110232552D01*
X85848471Y-110232552D02*
X85991328Y-110232552D01*
X85991328Y-110232552D02*
X86086566Y-110280171D01*
X86086566Y-110280171D02*
X86134185Y-110327790D01*
X86134185Y-110327790D02*
X86181804Y-110423028D01*
X86181804Y-110423028D02*
X86181804Y-110708742D01*
X86181804Y-110708742D02*
X86134185Y-110803980D01*
X86134185Y-110803980D02*
X86086566Y-110851600D01*
X86086566Y-110851600D02*
X85991328Y-110899219D01*
X85991328Y-110899219D02*
X85848471Y-110899219D01*
X86610376Y-110899219D02*
X86610376Y-110232552D01*
X86610376Y-110423028D02*
X86657995Y-110327790D01*
X86657995Y-110327790D02*
X86705614Y-110280171D01*
X86705614Y-110280171D02*
X86800852Y-110232552D01*
X86800852Y-110232552D02*
X86896090Y-110232552D01*
X87800852Y-110899219D02*
X87467519Y-110423028D01*
X87229424Y-110899219D02*
X87229424Y-109899219D01*
X87229424Y-109899219D02*
X87610376Y-109899219D01*
X87610376Y-109899219D02*
X87705614Y-109946838D01*
X87705614Y-109946838D02*
X87753233Y-109994457D01*
X87753233Y-109994457D02*
X87800852Y-110089695D01*
X87800852Y-110089695D02*
X87800852Y-110232552D01*
X87800852Y-110232552D02*
X87753233Y-110327790D01*
X87753233Y-110327790D02*
X87705614Y-110375409D01*
X87705614Y-110375409D02*
X87610376Y-110423028D01*
X87610376Y-110423028D02*
X87229424Y-110423028D01*
X79386133Y-75919219D02*
X79052800Y-75443028D01*
X78814705Y-75919219D02*
X78814705Y-74919219D01*
X78814705Y-74919219D02*
X79195657Y-74919219D01*
X79195657Y-74919219D02*
X79290895Y-74966838D01*
X79290895Y-74966838D02*
X79338514Y-75014457D01*
X79338514Y-75014457D02*
X79386133Y-75109695D01*
X79386133Y-75109695D02*
X79386133Y-75252552D01*
X79386133Y-75252552D02*
X79338514Y-75347790D01*
X79338514Y-75347790D02*
X79290895Y-75395409D01*
X79290895Y-75395409D02*
X79195657Y-75443028D01*
X79195657Y-75443028D02*
X78814705Y-75443028D01*
X79767086Y-75014457D02*
X79814705Y-74966838D01*
X79814705Y-74966838D02*
X79909943Y-74919219D01*
X79909943Y-74919219D02*
X80148038Y-74919219D01*
X80148038Y-74919219D02*
X80243276Y-74966838D01*
X80243276Y-74966838D02*
X80290895Y-75014457D01*
X80290895Y-75014457D02*
X80338514Y-75109695D01*
X80338514Y-75109695D02*
X80338514Y-75204933D01*
X80338514Y-75204933D02*
X80290895Y-75347790D01*
X80290895Y-75347790D02*
X79719467Y-75919219D01*
X79719467Y-75919219D02*
X80338514Y-75919219D01*
X79433752Y-79219219D02*
X78862324Y-79219219D01*
X79148038Y-79219219D02*
X79148038Y-78219219D01*
X79148038Y-78219219D02*
X79052800Y-78362076D01*
X79052800Y-78362076D02*
X78957562Y-78457314D01*
X78957562Y-78457314D02*
X78862324Y-78504933D01*
X79862324Y-79219219D02*
X79862324Y-78219219D01*
X79957562Y-78838266D02*
X80243276Y-79219219D01*
X80243276Y-78552552D02*
X79862324Y-78933504D01*
X121397733Y-65657619D02*
X121064400Y-65181428D01*
X120826305Y-65657619D02*
X120826305Y-64657619D01*
X120826305Y-64657619D02*
X121207257Y-64657619D01*
X121207257Y-64657619D02*
X121302495Y-64705238D01*
X121302495Y-64705238D02*
X121350114Y-64752857D01*
X121350114Y-64752857D02*
X121397733Y-64848095D01*
X121397733Y-64848095D02*
X121397733Y-64990952D01*
X121397733Y-64990952D02*
X121350114Y-65086190D01*
X121350114Y-65086190D02*
X121302495Y-65133809D01*
X121302495Y-65133809D02*
X121207257Y-65181428D01*
X121207257Y-65181428D02*
X120826305Y-65181428D01*
X122254876Y-64657619D02*
X122064400Y-64657619D01*
X122064400Y-64657619D02*
X121969162Y-64705238D01*
X121969162Y-64705238D02*
X121921543Y-64752857D01*
X121921543Y-64752857D02*
X121826305Y-64895714D01*
X121826305Y-64895714D02*
X121778686Y-65086190D01*
X121778686Y-65086190D02*
X121778686Y-65467142D01*
X121778686Y-65467142D02*
X121826305Y-65562380D01*
X121826305Y-65562380D02*
X121873924Y-65610000D01*
X121873924Y-65610000D02*
X121969162Y-65657619D01*
X121969162Y-65657619D02*
X122159638Y-65657619D01*
X122159638Y-65657619D02*
X122254876Y-65610000D01*
X122254876Y-65610000D02*
X122302495Y-65562380D01*
X122302495Y-65562380D02*
X122350114Y-65467142D01*
X122350114Y-65467142D02*
X122350114Y-65229047D01*
X122350114Y-65229047D02*
X122302495Y-65133809D01*
X122302495Y-65133809D02*
X122254876Y-65086190D01*
X122254876Y-65086190D02*
X122159638Y-65038571D01*
X122159638Y-65038571D02*
X121969162Y-65038571D01*
X121969162Y-65038571D02*
X121873924Y-65086190D01*
X121873924Y-65086190D02*
X121826305Y-65133809D01*
X121826305Y-65133809D02*
X121778686Y-65229047D01*
X120969161Y-68957619D02*
X120397733Y-68957619D01*
X120683447Y-68957619D02*
X120683447Y-67957619D01*
X120683447Y-67957619D02*
X120588209Y-68100476D01*
X120588209Y-68100476D02*
X120492971Y-68195714D01*
X120492971Y-68195714D02*
X120397733Y-68243333D01*
X121588209Y-67957619D02*
X121683447Y-67957619D01*
X121683447Y-67957619D02*
X121778685Y-68005238D01*
X121778685Y-68005238D02*
X121826304Y-68052857D01*
X121826304Y-68052857D02*
X121873923Y-68148095D01*
X121873923Y-68148095D02*
X121921542Y-68338571D01*
X121921542Y-68338571D02*
X121921542Y-68576666D01*
X121921542Y-68576666D02*
X121873923Y-68767142D01*
X121873923Y-68767142D02*
X121826304Y-68862380D01*
X121826304Y-68862380D02*
X121778685Y-68910000D01*
X121778685Y-68910000D02*
X121683447Y-68957619D01*
X121683447Y-68957619D02*
X121588209Y-68957619D01*
X121588209Y-68957619D02*
X121492971Y-68910000D01*
X121492971Y-68910000D02*
X121445352Y-68862380D01*
X121445352Y-68862380D02*
X121397733Y-68767142D01*
X121397733Y-68767142D02*
X121350114Y-68576666D01*
X121350114Y-68576666D02*
X121350114Y-68338571D01*
X121350114Y-68338571D02*
X121397733Y-68148095D01*
X121397733Y-68148095D02*
X121445352Y-68052857D01*
X121445352Y-68052857D02*
X121492971Y-68005238D01*
X121492971Y-68005238D02*
X121588209Y-67957619D01*
X122350114Y-68957619D02*
X122350114Y-67957619D01*
X122445352Y-68576666D02*
X122731066Y-68957619D01*
X122731066Y-68290952D02*
X122350114Y-68671904D01*
X65376733Y-77663219D02*
X64900543Y-77663219D01*
X64900543Y-77663219D02*
X64900543Y-76663219D01*
X66233876Y-77663219D02*
X65662448Y-77663219D01*
X65948162Y-77663219D02*
X65948162Y-76663219D01*
X65948162Y-76663219D02*
X65852924Y-76806076D01*
X65852924Y-76806076D02*
X65757686Y-76901314D01*
X65757686Y-76901314D02*
X65662448Y-76948933D01*
X63757686Y-79523219D02*
X64376733Y-79523219D01*
X64376733Y-79523219D02*
X64043400Y-79904171D01*
X64043400Y-79904171D02*
X64186257Y-79904171D01*
X64186257Y-79904171D02*
X64281495Y-79951790D01*
X64281495Y-79951790D02*
X64329114Y-79999409D01*
X64329114Y-79999409D02*
X64376733Y-80094647D01*
X64376733Y-80094647D02*
X64376733Y-80332742D01*
X64376733Y-80332742D02*
X64329114Y-80427980D01*
X64329114Y-80427980D02*
X64281495Y-80475600D01*
X64281495Y-80475600D02*
X64186257Y-80523219D01*
X64186257Y-80523219D02*
X63900543Y-80523219D01*
X63900543Y-80523219D02*
X63805305Y-80475600D01*
X63805305Y-80475600D02*
X63757686Y-80427980D01*
X64710067Y-79523219D02*
X65329114Y-79523219D01*
X65329114Y-79523219D02*
X64995781Y-79904171D01*
X64995781Y-79904171D02*
X65138638Y-79904171D01*
X65138638Y-79904171D02*
X65233876Y-79951790D01*
X65233876Y-79951790D02*
X65281495Y-79999409D01*
X65281495Y-79999409D02*
X65329114Y-80094647D01*
X65329114Y-80094647D02*
X65329114Y-80332742D01*
X65329114Y-80332742D02*
X65281495Y-80427980D01*
X65281495Y-80427980D02*
X65233876Y-80475600D01*
X65233876Y-80475600D02*
X65138638Y-80523219D01*
X65138638Y-80523219D02*
X64852924Y-80523219D01*
X64852924Y-80523219D02*
X64757686Y-80475600D01*
X64757686Y-80475600D02*
X64710067Y-80427980D01*
X66186257Y-79856552D02*
X66186257Y-80523219D01*
X65757686Y-79856552D02*
X65757686Y-80380361D01*
X65757686Y-80380361D02*
X65805305Y-80475600D01*
X65805305Y-80475600D02*
X65900543Y-80523219D01*
X65900543Y-80523219D02*
X66043400Y-80523219D01*
X66043400Y-80523219D02*
X66138638Y-80475600D01*
X66138638Y-80475600D02*
X66186257Y-80427980D01*
X66662448Y-80523219D02*
X66662448Y-79523219D01*
X66662448Y-79999409D02*
X67233876Y-79999409D01*
X67233876Y-80523219D02*
X67233876Y-79523219D01*
X121931133Y-72161780D02*
X121883514Y-72209400D01*
X121883514Y-72209400D02*
X121740657Y-72257019D01*
X121740657Y-72257019D02*
X121645419Y-72257019D01*
X121645419Y-72257019D02*
X121502562Y-72209400D01*
X121502562Y-72209400D02*
X121407324Y-72114161D01*
X121407324Y-72114161D02*
X121359705Y-72018923D01*
X121359705Y-72018923D02*
X121312086Y-71828447D01*
X121312086Y-71828447D02*
X121312086Y-71685590D01*
X121312086Y-71685590D02*
X121359705Y-71495114D01*
X121359705Y-71495114D02*
X121407324Y-71399876D01*
X121407324Y-71399876D02*
X121502562Y-71304638D01*
X121502562Y-71304638D02*
X121645419Y-71257019D01*
X121645419Y-71257019D02*
X121740657Y-71257019D01*
X121740657Y-71257019D02*
X121883514Y-71304638D01*
X121883514Y-71304638D02*
X121931133Y-71352257D01*
X122407324Y-72257019D02*
X122597800Y-72257019D01*
X122597800Y-72257019D02*
X122693038Y-72209400D01*
X122693038Y-72209400D02*
X122740657Y-72161780D01*
X122740657Y-72161780D02*
X122835895Y-72018923D01*
X122835895Y-72018923D02*
X122883514Y-71828447D01*
X122883514Y-71828447D02*
X122883514Y-71447495D01*
X122883514Y-71447495D02*
X122835895Y-71352257D01*
X122835895Y-71352257D02*
X122788276Y-71304638D01*
X122788276Y-71304638D02*
X122693038Y-71257019D01*
X122693038Y-71257019D02*
X122502562Y-71257019D01*
X122502562Y-71257019D02*
X122407324Y-71304638D01*
X122407324Y-71304638D02*
X122359705Y-71352257D01*
X122359705Y-71352257D02*
X122312086Y-71447495D01*
X122312086Y-71447495D02*
X122312086Y-71685590D01*
X122312086Y-71685590D02*
X122359705Y-71780828D01*
X122359705Y-71780828D02*
X122407324Y-71828447D01*
X122407324Y-71828447D02*
X122502562Y-71876066D01*
X122502562Y-71876066D02*
X122693038Y-71876066D01*
X122693038Y-71876066D02*
X122788276Y-71828447D01*
X122788276Y-71828447D02*
X122835895Y-71780828D01*
X122835895Y-71780828D02*
X122883514Y-71685590D01*
X120550180Y-75617019D02*
X119978752Y-75617019D01*
X120264466Y-75617019D02*
X120264466Y-74617019D01*
X120264466Y-74617019D02*
X120169228Y-74759876D01*
X120169228Y-74759876D02*
X120073990Y-74855114D01*
X120073990Y-74855114D02*
X119978752Y-74902733D01*
X121169228Y-74617019D02*
X121264466Y-74617019D01*
X121264466Y-74617019D02*
X121359704Y-74664638D01*
X121359704Y-74664638D02*
X121407323Y-74712257D01*
X121407323Y-74712257D02*
X121454942Y-74807495D01*
X121454942Y-74807495D02*
X121502561Y-74997971D01*
X121502561Y-74997971D02*
X121502561Y-75236066D01*
X121502561Y-75236066D02*
X121454942Y-75426542D01*
X121454942Y-75426542D02*
X121407323Y-75521780D01*
X121407323Y-75521780D02*
X121359704Y-75569400D01*
X121359704Y-75569400D02*
X121264466Y-75617019D01*
X121264466Y-75617019D02*
X121169228Y-75617019D01*
X121169228Y-75617019D02*
X121073990Y-75569400D01*
X121073990Y-75569400D02*
X121026371Y-75521780D01*
X121026371Y-75521780D02*
X120978752Y-75426542D01*
X120978752Y-75426542D02*
X120931133Y-75236066D01*
X120931133Y-75236066D02*
X120931133Y-74997971D01*
X120931133Y-74997971D02*
X120978752Y-74807495D01*
X120978752Y-74807495D02*
X121026371Y-74712257D01*
X121026371Y-74712257D02*
X121073990Y-74664638D01*
X121073990Y-74664638D02*
X121169228Y-74617019D01*
X122121609Y-74617019D02*
X122216847Y-74617019D01*
X122216847Y-74617019D02*
X122312085Y-74664638D01*
X122312085Y-74664638D02*
X122359704Y-74712257D01*
X122359704Y-74712257D02*
X122407323Y-74807495D01*
X122407323Y-74807495D02*
X122454942Y-74997971D01*
X122454942Y-74997971D02*
X122454942Y-75236066D01*
X122454942Y-75236066D02*
X122407323Y-75426542D01*
X122407323Y-75426542D02*
X122359704Y-75521780D01*
X122359704Y-75521780D02*
X122312085Y-75569400D01*
X122312085Y-75569400D02*
X122216847Y-75617019D01*
X122216847Y-75617019D02*
X122121609Y-75617019D01*
X122121609Y-75617019D02*
X122026371Y-75569400D01*
X122026371Y-75569400D02*
X121978752Y-75521780D01*
X121978752Y-75521780D02*
X121931133Y-75426542D01*
X121931133Y-75426542D02*
X121883514Y-75236066D01*
X121883514Y-75236066D02*
X121883514Y-74997971D01*
X121883514Y-74997971D02*
X121931133Y-74807495D01*
X121931133Y-74807495D02*
X121978752Y-74712257D01*
X121978752Y-74712257D02*
X122026371Y-74664638D01*
X122026371Y-74664638D02*
X122121609Y-74617019D01*
X122883514Y-74950352D02*
X122883514Y-75617019D01*
X122883514Y-75045590D02*
X122931133Y-74997971D01*
X122931133Y-74997971D02*
X123026371Y-74950352D01*
X123026371Y-74950352D02*
X123169228Y-74950352D01*
X123169228Y-74950352D02*
X123264466Y-74997971D01*
X123264466Y-74997971D02*
X123312085Y-75093209D01*
X123312085Y-75093209D02*
X123312085Y-75617019D01*
X124121609Y-75093209D02*
X123788276Y-75093209D01*
X123788276Y-75617019D02*
X123788276Y-74617019D01*
X123788276Y-74617019D02*
X124264466Y-74617019D01*
X57832666Y-52332419D02*
X57832666Y-53046704D01*
X57832666Y-53046704D02*
X57785047Y-53189561D01*
X57785047Y-53189561D02*
X57689809Y-53284800D01*
X57689809Y-53284800D02*
X57546952Y-53332419D01*
X57546952Y-53332419D02*
X57451714Y-53332419D01*
X58832666Y-53332419D02*
X58261238Y-53332419D01*
X58546952Y-53332419D02*
X58546952Y-52332419D01*
X58546952Y-52332419D02*
X58451714Y-52475276D01*
X58451714Y-52475276D02*
X58356476Y-52570514D01*
X58356476Y-52570514D02*
X58261238Y-52618133D01*
X57142191Y-60532419D02*
X57475524Y-61532419D01*
X57475524Y-61532419D02*
X57808857Y-60532419D01*
X58142191Y-61532419D02*
X58142191Y-60865752D01*
X58142191Y-60532419D02*
X58094572Y-60580038D01*
X58094572Y-60580038D02*
X58142191Y-60627657D01*
X58142191Y-60627657D02*
X58189810Y-60580038D01*
X58189810Y-60580038D02*
X58142191Y-60532419D01*
X58142191Y-60532419D02*
X58142191Y-60627657D01*
X58618381Y-60865752D02*
X58618381Y-61532419D01*
X58618381Y-60960990D02*
X58666000Y-60913371D01*
X58666000Y-60913371D02*
X58761238Y-60865752D01*
X58761238Y-60865752D02*
X58904095Y-60865752D01*
X58904095Y-60865752D02*
X58999333Y-60913371D01*
X58999333Y-60913371D02*
X59046952Y-61008609D01*
X59046952Y-61008609D02*
X59046952Y-61532419D01*
X95946933Y-78994380D02*
X95899314Y-79042000D01*
X95899314Y-79042000D02*
X95756457Y-79089619D01*
X95756457Y-79089619D02*
X95661219Y-79089619D01*
X95661219Y-79089619D02*
X95518362Y-79042000D01*
X95518362Y-79042000D02*
X95423124Y-78946761D01*
X95423124Y-78946761D02*
X95375505Y-78851523D01*
X95375505Y-78851523D02*
X95327886Y-78661047D01*
X95327886Y-78661047D02*
X95327886Y-78518190D01*
X95327886Y-78518190D02*
X95375505Y-78327714D01*
X95375505Y-78327714D02*
X95423124Y-78232476D01*
X95423124Y-78232476D02*
X95518362Y-78137238D01*
X95518362Y-78137238D02*
X95661219Y-78089619D01*
X95661219Y-78089619D02*
X95756457Y-78089619D01*
X95756457Y-78089619D02*
X95899314Y-78137238D01*
X95899314Y-78137238D02*
X95946933Y-78184857D01*
X96280267Y-78089619D02*
X96899314Y-78089619D01*
X96899314Y-78089619D02*
X96565981Y-78470571D01*
X96565981Y-78470571D02*
X96708838Y-78470571D01*
X96708838Y-78470571D02*
X96804076Y-78518190D01*
X96804076Y-78518190D02*
X96851695Y-78565809D01*
X96851695Y-78565809D02*
X96899314Y-78661047D01*
X96899314Y-78661047D02*
X96899314Y-78899142D01*
X96899314Y-78899142D02*
X96851695Y-78994380D01*
X96851695Y-78994380D02*
X96804076Y-79042000D01*
X96804076Y-79042000D02*
X96708838Y-79089619D01*
X96708838Y-79089619D02*
X96423124Y-79089619D01*
X96423124Y-79089619D02*
X96327886Y-79042000D01*
X96327886Y-79042000D02*
X96280267Y-78994380D01*
X95042171Y-82449619D02*
X94470743Y-82449619D01*
X94756457Y-82449619D02*
X94756457Y-81449619D01*
X94756457Y-81449619D02*
X94661219Y-81592476D01*
X94661219Y-81592476D02*
X94565981Y-81687714D01*
X94565981Y-81687714D02*
X94470743Y-81735333D01*
X95661219Y-81449619D02*
X95756457Y-81449619D01*
X95756457Y-81449619D02*
X95851695Y-81497238D01*
X95851695Y-81497238D02*
X95899314Y-81544857D01*
X95899314Y-81544857D02*
X95946933Y-81640095D01*
X95946933Y-81640095D02*
X95994552Y-81830571D01*
X95994552Y-81830571D02*
X95994552Y-82068666D01*
X95994552Y-82068666D02*
X95946933Y-82259142D01*
X95946933Y-82259142D02*
X95899314Y-82354380D01*
X95899314Y-82354380D02*
X95851695Y-82402000D01*
X95851695Y-82402000D02*
X95756457Y-82449619D01*
X95756457Y-82449619D02*
X95661219Y-82449619D01*
X95661219Y-82449619D02*
X95565981Y-82402000D01*
X95565981Y-82402000D02*
X95518362Y-82354380D01*
X95518362Y-82354380D02*
X95470743Y-82259142D01*
X95470743Y-82259142D02*
X95423124Y-82068666D01*
X95423124Y-82068666D02*
X95423124Y-81830571D01*
X95423124Y-81830571D02*
X95470743Y-81640095D01*
X95470743Y-81640095D02*
X95518362Y-81544857D01*
X95518362Y-81544857D02*
X95565981Y-81497238D01*
X95565981Y-81497238D02*
X95661219Y-81449619D01*
X96851695Y-81782952D02*
X96851695Y-82449619D01*
X96423124Y-81782952D02*
X96423124Y-82306761D01*
X96423124Y-82306761D02*
X96470743Y-82402000D01*
X96470743Y-82402000D02*
X96565981Y-82449619D01*
X96565981Y-82449619D02*
X96708838Y-82449619D01*
X96708838Y-82449619D02*
X96804076Y-82402000D01*
X96804076Y-82402000D02*
X96851695Y-82354380D01*
X97661219Y-81925809D02*
X97327886Y-81925809D01*
X97327886Y-82449619D02*
X97327886Y-81449619D01*
X97327886Y-81449619D02*
X97804076Y-81449619D01*
X67840233Y-99679619D02*
X67364043Y-99679619D01*
X67364043Y-99679619D02*
X67364043Y-98679619D01*
X68125948Y-98774857D02*
X68173567Y-98727238D01*
X68173567Y-98727238D02*
X68268805Y-98679619D01*
X68268805Y-98679619D02*
X68506900Y-98679619D01*
X68506900Y-98679619D02*
X68602138Y-98727238D01*
X68602138Y-98727238D02*
X68649757Y-98774857D01*
X68649757Y-98774857D02*
X68697376Y-98870095D01*
X68697376Y-98870095D02*
X68697376Y-98965333D01*
X68697376Y-98965333D02*
X68649757Y-99108190D01*
X68649757Y-99108190D02*
X68078329Y-99679619D01*
X68078329Y-99679619D02*
X68697376Y-99679619D01*
X66625947Y-102539619D02*
X66054519Y-102539619D01*
X66340233Y-102539619D02*
X66340233Y-101539619D01*
X66340233Y-101539619D02*
X66244995Y-101682476D01*
X66244995Y-101682476D02*
X66149757Y-101777714D01*
X66149757Y-101777714D02*
X66054519Y-101825333D01*
X67244995Y-101539619D02*
X67340233Y-101539619D01*
X67340233Y-101539619D02*
X67435471Y-101587238D01*
X67435471Y-101587238D02*
X67483090Y-101634857D01*
X67483090Y-101634857D02*
X67530709Y-101730095D01*
X67530709Y-101730095D02*
X67578328Y-101920571D01*
X67578328Y-101920571D02*
X67578328Y-102158666D01*
X67578328Y-102158666D02*
X67530709Y-102349142D01*
X67530709Y-102349142D02*
X67483090Y-102444380D01*
X67483090Y-102444380D02*
X67435471Y-102492000D01*
X67435471Y-102492000D02*
X67340233Y-102539619D01*
X67340233Y-102539619D02*
X67244995Y-102539619D01*
X67244995Y-102539619D02*
X67149757Y-102492000D01*
X67149757Y-102492000D02*
X67102138Y-102444380D01*
X67102138Y-102444380D02*
X67054519Y-102349142D01*
X67054519Y-102349142D02*
X67006900Y-102158666D01*
X67006900Y-102158666D02*
X67006900Y-101920571D01*
X67006900Y-101920571D02*
X67054519Y-101730095D01*
X67054519Y-101730095D02*
X67102138Y-101634857D01*
X67102138Y-101634857D02*
X67149757Y-101587238D01*
X67149757Y-101587238D02*
X67244995Y-101539619D01*
X68006900Y-102539619D02*
X68006900Y-101872952D01*
X68006900Y-101968190D02*
X68054519Y-101920571D01*
X68054519Y-101920571D02*
X68149757Y-101872952D01*
X68149757Y-101872952D02*
X68292614Y-101872952D01*
X68292614Y-101872952D02*
X68387852Y-101920571D01*
X68387852Y-101920571D02*
X68435471Y-102015809D01*
X68435471Y-102015809D02*
X68435471Y-102539619D01*
X68435471Y-102015809D02*
X68483090Y-101920571D01*
X68483090Y-101920571D02*
X68578328Y-101872952D01*
X68578328Y-101872952D02*
X68721185Y-101872952D01*
X68721185Y-101872952D02*
X68816424Y-101920571D01*
X68816424Y-101920571D02*
X68864043Y-102015809D01*
X68864043Y-102015809D02*
X68864043Y-102539619D01*
X69340233Y-102539619D02*
X69340233Y-101539619D01*
X69340233Y-102015809D02*
X69911661Y-102015809D01*
X69911661Y-102539619D02*
X69911661Y-101539619D01*
X102147033Y-66791580D02*
X102099414Y-66839200D01*
X102099414Y-66839200D02*
X101956557Y-66886819D01*
X101956557Y-66886819D02*
X101861319Y-66886819D01*
X101861319Y-66886819D02*
X101718462Y-66839200D01*
X101718462Y-66839200D02*
X101623224Y-66743961D01*
X101623224Y-66743961D02*
X101575605Y-66648723D01*
X101575605Y-66648723D02*
X101527986Y-66458247D01*
X101527986Y-66458247D02*
X101527986Y-66315390D01*
X101527986Y-66315390D02*
X101575605Y-66124914D01*
X101575605Y-66124914D02*
X101623224Y-66029676D01*
X101623224Y-66029676D02*
X101718462Y-65934438D01*
X101718462Y-65934438D02*
X101861319Y-65886819D01*
X101861319Y-65886819D02*
X101956557Y-65886819D01*
X101956557Y-65886819D02*
X102099414Y-65934438D01*
X102099414Y-65934438D02*
X102147033Y-65982057D01*
X102718462Y-66315390D02*
X102623224Y-66267771D01*
X102623224Y-66267771D02*
X102575605Y-66220152D01*
X102575605Y-66220152D02*
X102527986Y-66124914D01*
X102527986Y-66124914D02*
X102527986Y-66077295D01*
X102527986Y-66077295D02*
X102575605Y-65982057D01*
X102575605Y-65982057D02*
X102623224Y-65934438D01*
X102623224Y-65934438D02*
X102718462Y-65886819D01*
X102718462Y-65886819D02*
X102908938Y-65886819D01*
X102908938Y-65886819D02*
X103004176Y-65934438D01*
X103004176Y-65934438D02*
X103051795Y-65982057D01*
X103051795Y-65982057D02*
X103099414Y-66077295D01*
X103099414Y-66077295D02*
X103099414Y-66124914D01*
X103099414Y-66124914D02*
X103051795Y-66220152D01*
X103051795Y-66220152D02*
X103004176Y-66267771D01*
X103004176Y-66267771D02*
X102908938Y-66315390D01*
X102908938Y-66315390D02*
X102718462Y-66315390D01*
X102718462Y-66315390D02*
X102623224Y-66363009D01*
X102623224Y-66363009D02*
X102575605Y-66410628D01*
X102575605Y-66410628D02*
X102527986Y-66505866D01*
X102527986Y-66505866D02*
X102527986Y-66696342D01*
X102527986Y-66696342D02*
X102575605Y-66791580D01*
X102575605Y-66791580D02*
X102623224Y-66839200D01*
X102623224Y-66839200D02*
X102718462Y-66886819D01*
X102718462Y-66886819D02*
X102908938Y-66886819D01*
X102908938Y-66886819D02*
X103004176Y-66839200D01*
X103004176Y-66839200D02*
X103051795Y-66791580D01*
X103051795Y-66791580D02*
X103099414Y-66696342D01*
X103099414Y-66696342D02*
X103099414Y-66505866D01*
X103099414Y-66505866D02*
X103051795Y-66410628D01*
X103051795Y-66410628D02*
X103004176Y-66363009D01*
X103004176Y-66363009D02*
X102908938Y-66315390D01*
X101718461Y-70246819D02*
X101147033Y-70246819D01*
X101432747Y-70246819D02*
X101432747Y-69246819D01*
X101432747Y-69246819D02*
X101337509Y-69389676D01*
X101337509Y-69389676D02*
X101242271Y-69484914D01*
X101242271Y-69484914D02*
X101147033Y-69532533D01*
X102575604Y-69580152D02*
X102575604Y-70246819D01*
X102147033Y-69580152D02*
X102147033Y-70103961D01*
X102147033Y-70103961D02*
X102194652Y-70199200D01*
X102194652Y-70199200D02*
X102289890Y-70246819D01*
X102289890Y-70246819D02*
X102432747Y-70246819D01*
X102432747Y-70246819D02*
X102527985Y-70199200D01*
X102527985Y-70199200D02*
X102575604Y-70151580D01*
X103385128Y-69723009D02*
X103051795Y-69723009D01*
X103051795Y-70246819D02*
X103051795Y-69246819D01*
X103051795Y-69246819D02*
X103527985Y-69246819D01*
X70570574Y-51381180D02*
X70522955Y-51428800D01*
X70522955Y-51428800D02*
X70380098Y-51476419D01*
X70380098Y-51476419D02*
X70284860Y-51476419D01*
X70284860Y-51476419D02*
X70142003Y-51428800D01*
X70142003Y-51428800D02*
X70046765Y-51333561D01*
X70046765Y-51333561D02*
X69999146Y-51238323D01*
X69999146Y-51238323D02*
X69951527Y-51047847D01*
X69951527Y-51047847D02*
X69951527Y-50904990D01*
X69951527Y-50904990D02*
X69999146Y-50714514D01*
X69999146Y-50714514D02*
X70046765Y-50619276D01*
X70046765Y-50619276D02*
X70142003Y-50524038D01*
X70142003Y-50524038D02*
X70284860Y-50476419D01*
X70284860Y-50476419D02*
X70380098Y-50476419D01*
X70380098Y-50476419D02*
X70522955Y-50524038D01*
X70522955Y-50524038D02*
X70570574Y-50571657D01*
X70951527Y-50571657D02*
X70999146Y-50524038D01*
X70999146Y-50524038D02*
X71094384Y-50476419D01*
X71094384Y-50476419D02*
X71332479Y-50476419D01*
X71332479Y-50476419D02*
X71427717Y-50524038D01*
X71427717Y-50524038D02*
X71475336Y-50571657D01*
X71475336Y-50571657D02*
X71522955Y-50666895D01*
X71522955Y-50666895D02*
X71522955Y-50762133D01*
X71522955Y-50762133D02*
X71475336Y-50904990D01*
X71475336Y-50904990D02*
X70903908Y-51476419D01*
X70903908Y-51476419D02*
X71522955Y-51476419D01*
X68618193Y-65571657D02*
X68665812Y-65524038D01*
X68665812Y-65524038D02*
X68761050Y-65476419D01*
X68761050Y-65476419D02*
X68999145Y-65476419D01*
X68999145Y-65476419D02*
X69094383Y-65524038D01*
X69094383Y-65524038D02*
X69142002Y-65571657D01*
X69142002Y-65571657D02*
X69189621Y-65666895D01*
X69189621Y-65666895D02*
X69189621Y-65762133D01*
X69189621Y-65762133D02*
X69142002Y-65904990D01*
X69142002Y-65904990D02*
X68570574Y-66476419D01*
X68570574Y-66476419D02*
X69189621Y-66476419D01*
X69570574Y-65571657D02*
X69618193Y-65524038D01*
X69618193Y-65524038D02*
X69713431Y-65476419D01*
X69713431Y-65476419D02*
X69951526Y-65476419D01*
X69951526Y-65476419D02*
X70046764Y-65524038D01*
X70046764Y-65524038D02*
X70094383Y-65571657D01*
X70094383Y-65571657D02*
X70142002Y-65666895D01*
X70142002Y-65666895D02*
X70142002Y-65762133D01*
X70142002Y-65762133D02*
X70094383Y-65904990D01*
X70094383Y-65904990D02*
X69522955Y-66476419D01*
X69522955Y-66476419D02*
X70142002Y-66476419D01*
X70761050Y-65476419D02*
X70856288Y-65476419D01*
X70856288Y-65476419D02*
X70951526Y-65524038D01*
X70951526Y-65524038D02*
X70999145Y-65571657D01*
X70999145Y-65571657D02*
X71046764Y-65666895D01*
X71046764Y-65666895D02*
X71094383Y-65857371D01*
X71094383Y-65857371D02*
X71094383Y-66095466D01*
X71094383Y-66095466D02*
X71046764Y-66285942D01*
X71046764Y-66285942D02*
X70999145Y-66381180D01*
X70999145Y-66381180D02*
X70951526Y-66428800D01*
X70951526Y-66428800D02*
X70856288Y-66476419D01*
X70856288Y-66476419D02*
X70761050Y-66476419D01*
X70761050Y-66476419D02*
X70665812Y-66428800D01*
X70665812Y-66428800D02*
X70618193Y-66381180D01*
X70618193Y-66381180D02*
X70570574Y-66285942D01*
X70570574Y-66285942D02*
X70522955Y-66095466D01*
X70522955Y-66095466D02*
X70522955Y-65857371D01*
X70522955Y-65857371D02*
X70570574Y-65666895D01*
X70570574Y-65666895D02*
X70618193Y-65571657D01*
X70618193Y-65571657D02*
X70665812Y-65524038D01*
X70665812Y-65524038D02*
X70761050Y-65476419D01*
X71951526Y-65809752D02*
X71951526Y-66476419D01*
X71522955Y-65809752D02*
X71522955Y-66333561D01*
X71522955Y-66333561D02*
X71570574Y-66428800D01*
X71570574Y-66428800D02*
X71665812Y-66476419D01*
X71665812Y-66476419D02*
X71808669Y-66476419D01*
X71808669Y-66476419D02*
X71903907Y-66428800D01*
X71903907Y-66428800D02*
X71951526Y-66381180D01*
X72761050Y-65952609D02*
X72427717Y-65952609D01*
X72427717Y-66476419D02*
X72427717Y-65476419D01*
X72427717Y-65476419D02*
X72903907Y-65476419D01*
X81164133Y-53567219D02*
X80830800Y-53091028D01*
X80592705Y-53567219D02*
X80592705Y-52567219D01*
X80592705Y-52567219D02*
X80973657Y-52567219D01*
X80973657Y-52567219D02*
X81068895Y-52614838D01*
X81068895Y-52614838D02*
X81116514Y-52662457D01*
X81116514Y-52662457D02*
X81164133Y-52757695D01*
X81164133Y-52757695D02*
X81164133Y-52900552D01*
X81164133Y-52900552D02*
X81116514Y-52995790D01*
X81116514Y-52995790D02*
X81068895Y-53043409D01*
X81068895Y-53043409D02*
X80973657Y-53091028D01*
X80973657Y-53091028D02*
X80592705Y-53091028D01*
X82021276Y-52900552D02*
X82021276Y-53567219D01*
X81783181Y-52519600D02*
X81545086Y-53233885D01*
X81545086Y-53233885D02*
X82164133Y-53233885D01*
X81211752Y-56867219D02*
X80640324Y-56867219D01*
X80926038Y-56867219D02*
X80926038Y-55867219D01*
X80926038Y-55867219D02*
X80830800Y-56010076D01*
X80830800Y-56010076D02*
X80735562Y-56105314D01*
X80735562Y-56105314D02*
X80640324Y-56152933D01*
X81640324Y-56867219D02*
X81640324Y-55867219D01*
X81735562Y-56486266D02*
X82021276Y-56867219D01*
X82021276Y-56200552D02*
X81640324Y-56581504D01*
X115936666Y-51316419D02*
X115936666Y-52030704D01*
X115936666Y-52030704D02*
X115889047Y-52173561D01*
X115889047Y-52173561D02*
X115793809Y-52268800D01*
X115793809Y-52268800D02*
X115650952Y-52316419D01*
X115650952Y-52316419D02*
X115555714Y-52316419D01*
X116555714Y-51744990D02*
X116460476Y-51697371D01*
X116460476Y-51697371D02*
X116412857Y-51649752D01*
X116412857Y-51649752D02*
X116365238Y-51554514D01*
X116365238Y-51554514D02*
X116365238Y-51506895D01*
X116365238Y-51506895D02*
X116412857Y-51411657D01*
X116412857Y-51411657D02*
X116460476Y-51364038D01*
X116460476Y-51364038D02*
X116555714Y-51316419D01*
X116555714Y-51316419D02*
X116746190Y-51316419D01*
X116746190Y-51316419D02*
X116841428Y-51364038D01*
X116841428Y-51364038D02*
X116889047Y-51411657D01*
X116889047Y-51411657D02*
X116936666Y-51506895D01*
X116936666Y-51506895D02*
X116936666Y-51554514D01*
X116936666Y-51554514D02*
X116889047Y-51649752D01*
X116889047Y-51649752D02*
X116841428Y-51697371D01*
X116841428Y-51697371D02*
X116746190Y-51744990D01*
X116746190Y-51744990D02*
X116555714Y-51744990D01*
X116555714Y-51744990D02*
X116460476Y-51792609D01*
X116460476Y-51792609D02*
X116412857Y-51840228D01*
X116412857Y-51840228D02*
X116365238Y-51935466D01*
X116365238Y-51935466D02*
X116365238Y-52125942D01*
X116365238Y-52125942D02*
X116412857Y-52221180D01*
X116412857Y-52221180D02*
X116460476Y-52268800D01*
X116460476Y-52268800D02*
X116555714Y-52316419D01*
X116555714Y-52316419D02*
X116746190Y-52316419D01*
X116746190Y-52316419D02*
X116841428Y-52268800D01*
X116841428Y-52268800D02*
X116889047Y-52221180D01*
X116889047Y-52221180D02*
X116936666Y-52125942D01*
X116936666Y-52125942D02*
X116936666Y-51935466D01*
X116936666Y-51935466D02*
X116889047Y-51840228D01*
X116889047Y-51840228D02*
X116841428Y-51792609D01*
X116841428Y-51792609D02*
X116746190Y-51744990D01*
X112603333Y-60516419D02*
X112603333Y-59516419D01*
X112603333Y-59516419D02*
X112984285Y-59516419D01*
X112984285Y-59516419D02*
X113079523Y-59564038D01*
X113079523Y-59564038D02*
X113127142Y-59611657D01*
X113127142Y-59611657D02*
X113174761Y-59706895D01*
X113174761Y-59706895D02*
X113174761Y-59849752D01*
X113174761Y-59849752D02*
X113127142Y-59944990D01*
X113127142Y-59944990D02*
X113079523Y-59992609D01*
X113079523Y-59992609D02*
X112984285Y-60040228D01*
X112984285Y-60040228D02*
X112603333Y-60040228D01*
X113603333Y-59849752D02*
X113603333Y-60516419D01*
X113603333Y-59944990D02*
X113650952Y-59897371D01*
X113650952Y-59897371D02*
X113746190Y-59849752D01*
X113746190Y-59849752D02*
X113889047Y-59849752D01*
X113889047Y-59849752D02*
X113984285Y-59897371D01*
X113984285Y-59897371D02*
X114031904Y-59992609D01*
X114031904Y-59992609D02*
X114031904Y-60516419D01*
X114889047Y-60468800D02*
X114793809Y-60516419D01*
X114793809Y-60516419D02*
X114603333Y-60516419D01*
X114603333Y-60516419D02*
X114508095Y-60468800D01*
X114508095Y-60468800D02*
X114460476Y-60373561D01*
X114460476Y-60373561D02*
X114460476Y-59992609D01*
X114460476Y-59992609D02*
X114508095Y-59897371D01*
X114508095Y-59897371D02*
X114603333Y-59849752D01*
X114603333Y-59849752D02*
X114793809Y-59849752D01*
X114793809Y-59849752D02*
X114889047Y-59897371D01*
X114889047Y-59897371D02*
X114936666Y-59992609D01*
X114936666Y-59992609D02*
X114936666Y-60087847D01*
X114936666Y-60087847D02*
X114460476Y-60183085D01*
X115793809Y-59849752D02*
X115793809Y-60516419D01*
X115365238Y-59849752D02*
X115365238Y-60373561D01*
X115365238Y-60373561D02*
X115412857Y-60468800D01*
X115412857Y-60468800D02*
X115508095Y-60516419D01*
X115508095Y-60516419D02*
X115650952Y-60516419D01*
X115650952Y-60516419D02*
X115746190Y-60468800D01*
X115746190Y-60468800D02*
X115793809Y-60421180D01*
X116270000Y-60516419D02*
X116270000Y-59849752D01*
X116270000Y-59944990D02*
X116317619Y-59897371D01*
X116317619Y-59897371D02*
X116412857Y-59849752D01*
X116412857Y-59849752D02*
X116555714Y-59849752D01*
X116555714Y-59849752D02*
X116650952Y-59897371D01*
X116650952Y-59897371D02*
X116698571Y-59992609D01*
X116698571Y-59992609D02*
X116698571Y-60516419D01*
X116698571Y-59992609D02*
X116746190Y-59897371D01*
X116746190Y-59897371D02*
X116841428Y-59849752D01*
X116841428Y-59849752D02*
X116984285Y-59849752D01*
X116984285Y-59849752D02*
X117079524Y-59897371D01*
X117079524Y-59897371D02*
X117127143Y-59992609D01*
X117127143Y-59992609D02*
X117127143Y-60516419D01*
X118031904Y-60516419D02*
X118031904Y-59992609D01*
X118031904Y-59992609D02*
X117984285Y-59897371D01*
X117984285Y-59897371D02*
X117889047Y-59849752D01*
X117889047Y-59849752D02*
X117698571Y-59849752D01*
X117698571Y-59849752D02*
X117603333Y-59897371D01*
X118031904Y-60468800D02*
X117936666Y-60516419D01*
X117936666Y-60516419D02*
X117698571Y-60516419D01*
X117698571Y-60516419D02*
X117603333Y-60468800D01*
X117603333Y-60468800D02*
X117555714Y-60373561D01*
X117555714Y-60373561D02*
X117555714Y-60278323D01*
X117555714Y-60278323D02*
X117603333Y-60183085D01*
X117603333Y-60183085D02*
X117698571Y-60135466D01*
X117698571Y-60135466D02*
X117936666Y-60135466D01*
X117936666Y-60135466D02*
X118031904Y-60087847D01*
X118365238Y-59849752D02*
X118746190Y-59849752D01*
X118508095Y-59516419D02*
X118508095Y-60373561D01*
X118508095Y-60373561D02*
X118555714Y-60468800D01*
X118555714Y-60468800D02*
X118650952Y-60516419D01*
X118650952Y-60516419D02*
X118746190Y-60516419D01*
X119079524Y-60516419D02*
X119079524Y-59849752D01*
X119079524Y-59516419D02*
X119031905Y-59564038D01*
X119031905Y-59564038D02*
X119079524Y-59611657D01*
X119079524Y-59611657D02*
X119127143Y-59564038D01*
X119127143Y-59564038D02*
X119079524Y-59516419D01*
X119079524Y-59516419D02*
X119079524Y-59611657D01*
X119984285Y-60468800D02*
X119889047Y-60516419D01*
X119889047Y-60516419D02*
X119698571Y-60516419D01*
X119698571Y-60516419D02*
X119603333Y-60468800D01*
X119603333Y-60468800D02*
X119555714Y-60421180D01*
X119555714Y-60421180D02*
X119508095Y-60325942D01*
X119508095Y-60325942D02*
X119508095Y-60040228D01*
X119508095Y-60040228D02*
X119555714Y-59944990D01*
X119555714Y-59944990D02*
X119603333Y-59897371D01*
X119603333Y-59897371D02*
X119698571Y-59849752D01*
X119698571Y-59849752D02*
X119889047Y-59849752D01*
X119889047Y-59849752D02*
X119984285Y-59897371D01*
X51261595Y-99067619D02*
X51261595Y-99877142D01*
X51261595Y-99877142D02*
X51309214Y-99972380D01*
X51309214Y-99972380D02*
X51356833Y-100020000D01*
X51356833Y-100020000D02*
X51452071Y-100067619D01*
X51452071Y-100067619D02*
X51642547Y-100067619D01*
X51642547Y-100067619D02*
X51737785Y-100020000D01*
X51737785Y-100020000D02*
X51785404Y-99972380D01*
X51785404Y-99972380D02*
X51833023Y-99877142D01*
X51833023Y-99877142D02*
X51833023Y-99067619D01*
X52737785Y-99400952D02*
X52737785Y-100067619D01*
X52499690Y-99020000D02*
X52261595Y-99734285D01*
X52261595Y-99734285D02*
X52880642Y-99734285D01*
X47571119Y-113367619D02*
X47094929Y-113367619D01*
X47094929Y-113367619D02*
X47094929Y-112367619D01*
X47904453Y-113367619D02*
X47904453Y-112367619D01*
X47904453Y-112367619D02*
X48237786Y-113081904D01*
X48237786Y-113081904D02*
X48571119Y-112367619D01*
X48571119Y-112367619D02*
X48571119Y-113367619D01*
X48999691Y-112462857D02*
X49047310Y-112415238D01*
X49047310Y-112415238D02*
X49142548Y-112367619D01*
X49142548Y-112367619D02*
X49380643Y-112367619D01*
X49380643Y-112367619D02*
X49475881Y-112415238D01*
X49475881Y-112415238D02*
X49523500Y-112462857D01*
X49523500Y-112462857D02*
X49571119Y-112558095D01*
X49571119Y-112558095D02*
X49571119Y-112653333D01*
X49571119Y-112653333D02*
X49523500Y-112796190D01*
X49523500Y-112796190D02*
X48952072Y-113367619D01*
X48952072Y-113367619D02*
X49571119Y-113367619D01*
X50475881Y-112367619D02*
X49999691Y-112367619D01*
X49999691Y-112367619D02*
X49952072Y-112843809D01*
X49952072Y-112843809D02*
X49999691Y-112796190D01*
X49999691Y-112796190D02*
X50094929Y-112748571D01*
X50094929Y-112748571D02*
X50333024Y-112748571D01*
X50333024Y-112748571D02*
X50428262Y-112796190D01*
X50428262Y-112796190D02*
X50475881Y-112843809D01*
X50475881Y-112843809D02*
X50523500Y-112939047D01*
X50523500Y-112939047D02*
X50523500Y-113177142D01*
X50523500Y-113177142D02*
X50475881Y-113272380D01*
X50475881Y-113272380D02*
X50428262Y-113320000D01*
X50428262Y-113320000D02*
X50333024Y-113367619D01*
X50333024Y-113367619D02*
X50094929Y-113367619D01*
X50094929Y-113367619D02*
X49999691Y-113320000D01*
X49999691Y-113320000D02*
X49952072Y-113272380D01*
X50999691Y-113367619D02*
X51190167Y-113367619D01*
X51190167Y-113367619D02*
X51285405Y-113320000D01*
X51285405Y-113320000D02*
X51333024Y-113272380D01*
X51333024Y-113272380D02*
X51428262Y-113129523D01*
X51428262Y-113129523D02*
X51475881Y-112939047D01*
X51475881Y-112939047D02*
X51475881Y-112558095D01*
X51475881Y-112558095D02*
X51428262Y-112462857D01*
X51428262Y-112462857D02*
X51380643Y-112415238D01*
X51380643Y-112415238D02*
X51285405Y-112367619D01*
X51285405Y-112367619D02*
X51094929Y-112367619D01*
X51094929Y-112367619D02*
X50999691Y-112415238D01*
X50999691Y-112415238D02*
X50952072Y-112462857D01*
X50952072Y-112462857D02*
X50904453Y-112558095D01*
X50904453Y-112558095D02*
X50904453Y-112796190D01*
X50904453Y-112796190D02*
X50952072Y-112891428D01*
X50952072Y-112891428D02*
X50999691Y-112939047D01*
X50999691Y-112939047D02*
X51094929Y-112986666D01*
X51094929Y-112986666D02*
X51285405Y-112986666D01*
X51285405Y-112986666D02*
X51380643Y-112939047D01*
X51380643Y-112939047D02*
X51428262Y-112891428D01*
X51428262Y-112891428D02*
X51475881Y-112796190D01*
X52333024Y-112367619D02*
X52142548Y-112367619D01*
X52142548Y-112367619D02*
X52047310Y-112415238D01*
X52047310Y-112415238D02*
X51999691Y-112462857D01*
X51999691Y-112462857D02*
X51904453Y-112605714D01*
X51904453Y-112605714D02*
X51856834Y-112796190D01*
X51856834Y-112796190D02*
X51856834Y-113177142D01*
X51856834Y-113177142D02*
X51904453Y-113272380D01*
X51904453Y-113272380D02*
X51952072Y-113320000D01*
X51952072Y-113320000D02*
X52047310Y-113367619D01*
X52047310Y-113367619D02*
X52237786Y-113367619D01*
X52237786Y-113367619D02*
X52333024Y-113320000D01*
X52333024Y-113320000D02*
X52380643Y-113272380D01*
X52380643Y-113272380D02*
X52428262Y-113177142D01*
X52428262Y-113177142D02*
X52428262Y-112939047D01*
X52428262Y-112939047D02*
X52380643Y-112843809D01*
X52380643Y-112843809D02*
X52333024Y-112796190D01*
X52333024Y-112796190D02*
X52237786Y-112748571D01*
X52237786Y-112748571D02*
X52047310Y-112748571D01*
X52047310Y-112748571D02*
X51952072Y-112796190D01*
X51952072Y-112796190D02*
X51904453Y-112843809D01*
X51904453Y-112843809D02*
X51856834Y-112939047D01*
X52809215Y-113320000D02*
X52952072Y-113367619D01*
X52952072Y-113367619D02*
X53190167Y-113367619D01*
X53190167Y-113367619D02*
X53285405Y-113320000D01*
X53285405Y-113320000D02*
X53333024Y-113272380D01*
X53333024Y-113272380D02*
X53380643Y-113177142D01*
X53380643Y-113177142D02*
X53380643Y-113081904D01*
X53380643Y-113081904D02*
X53333024Y-112986666D01*
X53333024Y-112986666D02*
X53285405Y-112939047D01*
X53285405Y-112939047D02*
X53190167Y-112891428D01*
X53190167Y-112891428D02*
X52999691Y-112843809D01*
X52999691Y-112843809D02*
X52904453Y-112796190D01*
X52904453Y-112796190D02*
X52856834Y-112748571D01*
X52856834Y-112748571D02*
X52809215Y-112653333D01*
X52809215Y-112653333D02*
X52809215Y-112558095D01*
X52809215Y-112558095D02*
X52856834Y-112462857D01*
X52856834Y-112462857D02*
X52904453Y-112415238D01*
X52904453Y-112415238D02*
X52999691Y-112367619D01*
X52999691Y-112367619D02*
X53237786Y-112367619D01*
X53237786Y-112367619D02*
X53380643Y-112415238D01*
X53809215Y-112986666D02*
X54571120Y-112986666D01*
X54952072Y-112367619D02*
X55571119Y-112367619D01*
X55571119Y-112367619D02*
X55237786Y-112748571D01*
X55237786Y-112748571D02*
X55380643Y-112748571D01*
X55380643Y-112748571D02*
X55475881Y-112796190D01*
X55475881Y-112796190D02*
X55523500Y-112843809D01*
X55523500Y-112843809D02*
X55571119Y-112939047D01*
X55571119Y-112939047D02*
X55571119Y-113177142D01*
X55571119Y-113177142D02*
X55523500Y-113272380D01*
X55523500Y-113272380D02*
X55475881Y-113320000D01*
X55475881Y-113320000D02*
X55380643Y-113367619D01*
X55380643Y-113367619D02*
X55094929Y-113367619D01*
X55094929Y-113367619D02*
X54999691Y-113320000D01*
X54999691Y-113320000D02*
X54952072Y-113272380D01*
X55999691Y-113272380D02*
X56047310Y-113320000D01*
X56047310Y-113320000D02*
X55999691Y-113367619D01*
X55999691Y-113367619D02*
X55952072Y-113320000D01*
X55952072Y-113320000D02*
X55999691Y-113272380D01*
X55999691Y-113272380D02*
X55999691Y-113367619D01*
X56380643Y-112367619D02*
X56999690Y-112367619D01*
X56999690Y-112367619D02*
X56666357Y-112748571D01*
X56666357Y-112748571D02*
X56809214Y-112748571D01*
X56809214Y-112748571D02*
X56904452Y-112796190D01*
X56904452Y-112796190D02*
X56952071Y-112843809D01*
X56952071Y-112843809D02*
X56999690Y-112939047D01*
X56999690Y-112939047D02*
X56999690Y-113177142D01*
X56999690Y-113177142D02*
X56952071Y-113272380D01*
X56952071Y-113272380D02*
X56904452Y-113320000D01*
X56904452Y-113320000D02*
X56809214Y-113367619D01*
X56809214Y-113367619D02*
X56523500Y-113367619D01*
X56523500Y-113367619D02*
X56428262Y-113320000D01*
X56428262Y-113320000D02*
X56380643Y-113272380D01*
X94345333Y-72023980D02*
X94297714Y-72071600D01*
X94297714Y-72071600D02*
X94154857Y-72119219D01*
X94154857Y-72119219D02*
X94059619Y-72119219D01*
X94059619Y-72119219D02*
X93916762Y-72071600D01*
X93916762Y-72071600D02*
X93821524Y-71976361D01*
X93821524Y-71976361D02*
X93773905Y-71881123D01*
X93773905Y-71881123D02*
X93726286Y-71690647D01*
X93726286Y-71690647D02*
X93726286Y-71547790D01*
X93726286Y-71547790D02*
X93773905Y-71357314D01*
X93773905Y-71357314D02*
X93821524Y-71262076D01*
X93821524Y-71262076D02*
X93916762Y-71166838D01*
X93916762Y-71166838D02*
X94059619Y-71119219D01*
X94059619Y-71119219D02*
X94154857Y-71119219D01*
X94154857Y-71119219D02*
X94297714Y-71166838D01*
X94297714Y-71166838D02*
X94345333Y-71214457D01*
X94678667Y-71119219D02*
X95345333Y-71119219D01*
X95345333Y-71119219D02*
X94916762Y-72119219D01*
X92964380Y-75479219D02*
X92392952Y-75479219D01*
X92678666Y-75479219D02*
X92678666Y-74479219D01*
X92678666Y-74479219D02*
X92583428Y-74622076D01*
X92583428Y-74622076D02*
X92488190Y-74717314D01*
X92488190Y-74717314D02*
X92392952Y-74764933D01*
X93583428Y-74479219D02*
X93678666Y-74479219D01*
X93678666Y-74479219D02*
X93773904Y-74526838D01*
X93773904Y-74526838D02*
X93821523Y-74574457D01*
X93821523Y-74574457D02*
X93869142Y-74669695D01*
X93869142Y-74669695D02*
X93916761Y-74860171D01*
X93916761Y-74860171D02*
X93916761Y-75098266D01*
X93916761Y-75098266D02*
X93869142Y-75288742D01*
X93869142Y-75288742D02*
X93821523Y-75383980D01*
X93821523Y-75383980D02*
X93773904Y-75431600D01*
X93773904Y-75431600D02*
X93678666Y-75479219D01*
X93678666Y-75479219D02*
X93583428Y-75479219D01*
X93583428Y-75479219D02*
X93488190Y-75431600D01*
X93488190Y-75431600D02*
X93440571Y-75383980D01*
X93440571Y-75383980D02*
X93392952Y-75288742D01*
X93392952Y-75288742D02*
X93345333Y-75098266D01*
X93345333Y-75098266D02*
X93345333Y-74860171D01*
X93345333Y-74860171D02*
X93392952Y-74669695D01*
X93392952Y-74669695D02*
X93440571Y-74574457D01*
X93440571Y-74574457D02*
X93488190Y-74526838D01*
X93488190Y-74526838D02*
X93583428Y-74479219D01*
X94535809Y-74479219D02*
X94631047Y-74479219D01*
X94631047Y-74479219D02*
X94726285Y-74526838D01*
X94726285Y-74526838D02*
X94773904Y-74574457D01*
X94773904Y-74574457D02*
X94821523Y-74669695D01*
X94821523Y-74669695D02*
X94869142Y-74860171D01*
X94869142Y-74860171D02*
X94869142Y-75098266D01*
X94869142Y-75098266D02*
X94821523Y-75288742D01*
X94821523Y-75288742D02*
X94773904Y-75383980D01*
X94773904Y-75383980D02*
X94726285Y-75431600D01*
X94726285Y-75431600D02*
X94631047Y-75479219D01*
X94631047Y-75479219D02*
X94535809Y-75479219D01*
X94535809Y-75479219D02*
X94440571Y-75431600D01*
X94440571Y-75431600D02*
X94392952Y-75383980D01*
X94392952Y-75383980D02*
X94345333Y-75288742D01*
X94345333Y-75288742D02*
X94297714Y-75098266D01*
X94297714Y-75098266D02*
X94297714Y-74860171D01*
X94297714Y-74860171D02*
X94345333Y-74669695D01*
X94345333Y-74669695D02*
X94392952Y-74574457D01*
X94392952Y-74574457D02*
X94440571Y-74526838D01*
X94440571Y-74526838D02*
X94535809Y-74479219D01*
X95297714Y-74812552D02*
X95297714Y-75812552D01*
X95297714Y-74860171D02*
X95392952Y-74812552D01*
X95392952Y-74812552D02*
X95583428Y-74812552D01*
X95583428Y-74812552D02*
X95678666Y-74860171D01*
X95678666Y-74860171D02*
X95726285Y-74907790D01*
X95726285Y-74907790D02*
X95773904Y-75003028D01*
X95773904Y-75003028D02*
X95773904Y-75288742D01*
X95773904Y-75288742D02*
X95726285Y-75383980D01*
X95726285Y-75383980D02*
X95678666Y-75431600D01*
X95678666Y-75431600D02*
X95583428Y-75479219D01*
X95583428Y-75479219D02*
X95392952Y-75479219D01*
X95392952Y-75479219D02*
X95297714Y-75431600D01*
X96535809Y-74955409D02*
X96202476Y-74955409D01*
X96202476Y-75479219D02*
X96202476Y-74479219D01*
X96202476Y-74479219D02*
X96678666Y-74479219D01*
X60907705Y-87057219D02*
X60907705Y-86057219D01*
X60907705Y-86057219D02*
X61145800Y-86057219D01*
X61145800Y-86057219D02*
X61288657Y-86104838D01*
X61288657Y-86104838D02*
X61383895Y-86200076D01*
X61383895Y-86200076D02*
X61431514Y-86295314D01*
X61431514Y-86295314D02*
X61479133Y-86485790D01*
X61479133Y-86485790D02*
X61479133Y-86628647D01*
X61479133Y-86628647D02*
X61431514Y-86819123D01*
X61431514Y-86819123D02*
X61383895Y-86914361D01*
X61383895Y-86914361D02*
X61288657Y-87009600D01*
X61288657Y-87009600D02*
X61145800Y-87057219D01*
X61145800Y-87057219D02*
X60907705Y-87057219D01*
X62431514Y-87057219D02*
X61860086Y-87057219D01*
X62145800Y-87057219D02*
X62145800Y-86057219D01*
X62145800Y-86057219D02*
X62050562Y-86200076D01*
X62050562Y-86200076D02*
X61955324Y-86295314D01*
X61955324Y-86295314D02*
X61860086Y-86342933D01*
X59574371Y-95830719D02*
X59002943Y-95830719D01*
X59288657Y-95830719D02*
X59288657Y-94830719D01*
X59288657Y-94830719D02*
X59193419Y-94973576D01*
X59193419Y-94973576D02*
X59098181Y-95068814D01*
X59098181Y-95068814D02*
X59002943Y-95116433D01*
X60002943Y-95164052D02*
X60002943Y-95830719D01*
X60002943Y-95259290D02*
X60050562Y-95211671D01*
X60050562Y-95211671D02*
X60145800Y-95164052D01*
X60145800Y-95164052D02*
X60288657Y-95164052D01*
X60288657Y-95164052D02*
X60383895Y-95211671D01*
X60383895Y-95211671D02*
X60431514Y-95306909D01*
X60431514Y-95306909D02*
X60431514Y-95830719D01*
X61383895Y-94830719D02*
X60907705Y-94830719D01*
X60907705Y-94830719D02*
X60860086Y-95306909D01*
X60860086Y-95306909D02*
X60907705Y-95259290D01*
X60907705Y-95259290D02*
X61002943Y-95211671D01*
X61002943Y-95211671D02*
X61241038Y-95211671D01*
X61241038Y-95211671D02*
X61336276Y-95259290D01*
X61336276Y-95259290D02*
X61383895Y-95306909D01*
X61383895Y-95306909D02*
X61431514Y-95402147D01*
X61431514Y-95402147D02*
X61431514Y-95640242D01*
X61431514Y-95640242D02*
X61383895Y-95735480D01*
X61383895Y-95735480D02*
X61336276Y-95783100D01*
X61336276Y-95783100D02*
X61241038Y-95830719D01*
X61241038Y-95830719D02*
X61002943Y-95830719D01*
X61002943Y-95830719D02*
X60907705Y-95783100D01*
X60907705Y-95783100D02*
X60860086Y-95735480D01*
X62002943Y-95259290D02*
X61907705Y-95211671D01*
X61907705Y-95211671D02*
X61860086Y-95164052D01*
X61860086Y-95164052D02*
X61812467Y-95068814D01*
X61812467Y-95068814D02*
X61812467Y-95021195D01*
X61812467Y-95021195D02*
X61860086Y-94925957D01*
X61860086Y-94925957D02*
X61907705Y-94878338D01*
X61907705Y-94878338D02*
X62002943Y-94830719D01*
X62002943Y-94830719D02*
X62193419Y-94830719D01*
X62193419Y-94830719D02*
X62288657Y-94878338D01*
X62288657Y-94878338D02*
X62336276Y-94925957D01*
X62336276Y-94925957D02*
X62383895Y-95021195D01*
X62383895Y-95021195D02*
X62383895Y-95068814D01*
X62383895Y-95068814D02*
X62336276Y-95164052D01*
X62336276Y-95164052D02*
X62288657Y-95211671D01*
X62288657Y-95211671D02*
X62193419Y-95259290D01*
X62193419Y-95259290D02*
X62002943Y-95259290D01*
X62002943Y-95259290D02*
X61907705Y-95306909D01*
X61907705Y-95306909D02*
X61860086Y-95354528D01*
X61860086Y-95354528D02*
X61812467Y-95449766D01*
X61812467Y-95449766D02*
X61812467Y-95640242D01*
X61812467Y-95640242D02*
X61860086Y-95735480D01*
X61860086Y-95735480D02*
X61907705Y-95783100D01*
X61907705Y-95783100D02*
X62002943Y-95830719D01*
X62002943Y-95830719D02*
X62193419Y-95830719D01*
X62193419Y-95830719D02*
X62288657Y-95783100D01*
X62288657Y-95783100D02*
X62336276Y-95735480D01*
X62336276Y-95735480D02*
X62383895Y-95640242D01*
X62383895Y-95640242D02*
X62383895Y-95449766D01*
X62383895Y-95449766D02*
X62336276Y-95354528D01*
X62336276Y-95354528D02*
X62288657Y-95306909D01*
X62288657Y-95306909D02*
X62193419Y-95259290D01*
X62764848Y-94925957D02*
X62812467Y-94878338D01*
X62812467Y-94878338D02*
X62907705Y-94830719D01*
X62907705Y-94830719D02*
X63145800Y-94830719D01*
X63145800Y-94830719D02*
X63241038Y-94878338D01*
X63241038Y-94878338D02*
X63288657Y-94925957D01*
X63288657Y-94925957D02*
X63336276Y-95021195D01*
X63336276Y-95021195D02*
X63336276Y-95116433D01*
X63336276Y-95116433D02*
X63288657Y-95259290D01*
X63288657Y-95259290D02*
X62717229Y-95830719D01*
X62717229Y-95830719D02*
X63336276Y-95830719D01*
X64193419Y-95164052D02*
X64193419Y-95830719D01*
X63955324Y-94783100D02*
X63717229Y-95497385D01*
X63717229Y-95497385D02*
X64336276Y-95497385D01*
X63312705Y-93091504D02*
X63788895Y-93091504D01*
X63217467Y-93377219D02*
X63550800Y-92377219D01*
X63550800Y-92377219D02*
X63884133Y-93377219D01*
X88109466Y-50859219D02*
X88109466Y-51573504D01*
X88109466Y-51573504D02*
X88061847Y-51716361D01*
X88061847Y-51716361D02*
X87966609Y-51811600D01*
X87966609Y-51811600D02*
X87823752Y-51859219D01*
X87823752Y-51859219D02*
X87728514Y-51859219D01*
X89014228Y-51192552D02*
X89014228Y-51859219D01*
X88776133Y-50811600D02*
X88538038Y-51525885D01*
X88538038Y-51525885D02*
X89157085Y-51525885D01*
X85204704Y-60059219D02*
X84728514Y-60059219D01*
X84728514Y-60059219D02*
X84728514Y-59059219D01*
X85538038Y-59535409D02*
X85871371Y-59535409D01*
X86014228Y-60059219D02*
X85538038Y-60059219D01*
X85538038Y-60059219D02*
X85538038Y-59059219D01*
X85538038Y-59059219D02*
X86014228Y-59059219D01*
X86442800Y-60059219D02*
X86442800Y-59059219D01*
X86442800Y-59059219D02*
X86680895Y-59059219D01*
X86680895Y-59059219D02*
X86823752Y-59106838D01*
X86823752Y-59106838D02*
X86918990Y-59202076D01*
X86918990Y-59202076D02*
X86966609Y-59297314D01*
X86966609Y-59297314D02*
X87014228Y-59487790D01*
X87014228Y-59487790D02*
X87014228Y-59630647D01*
X87014228Y-59630647D02*
X86966609Y-59821123D01*
X86966609Y-59821123D02*
X86918990Y-59916361D01*
X86918990Y-59916361D02*
X86823752Y-60011600D01*
X86823752Y-60011600D02*
X86680895Y-60059219D01*
X86680895Y-60059219D02*
X86442800Y-60059219D01*
X87204705Y-60154457D02*
X87966609Y-60154457D01*
X88204705Y-60059219D02*
X88204705Y-59059219D01*
X88204705Y-59059219D02*
X88585657Y-59059219D01*
X88585657Y-59059219D02*
X88680895Y-59106838D01*
X88680895Y-59106838D02*
X88728514Y-59154457D01*
X88728514Y-59154457D02*
X88776133Y-59249695D01*
X88776133Y-59249695D02*
X88776133Y-59392552D01*
X88776133Y-59392552D02*
X88728514Y-59487790D01*
X88728514Y-59487790D02*
X88680895Y-59535409D01*
X88680895Y-59535409D02*
X88585657Y-59583028D01*
X88585657Y-59583028D02*
X88204705Y-59583028D01*
X89347562Y-60059219D02*
X89252324Y-60011600D01*
X89252324Y-60011600D02*
X89204705Y-59963980D01*
X89204705Y-59963980D02*
X89157086Y-59868742D01*
X89157086Y-59868742D02*
X89157086Y-59583028D01*
X89157086Y-59583028D02*
X89204705Y-59487790D01*
X89204705Y-59487790D02*
X89252324Y-59440171D01*
X89252324Y-59440171D02*
X89347562Y-59392552D01*
X89347562Y-59392552D02*
X89490419Y-59392552D01*
X89490419Y-59392552D02*
X89585657Y-59440171D01*
X89585657Y-59440171D02*
X89633276Y-59487790D01*
X89633276Y-59487790D02*
X89680895Y-59583028D01*
X89680895Y-59583028D02*
X89680895Y-59868742D01*
X89680895Y-59868742D02*
X89633276Y-59963980D01*
X89633276Y-59963980D02*
X89585657Y-60011600D01*
X89585657Y-60011600D02*
X89490419Y-60059219D01*
X89490419Y-60059219D02*
X89347562Y-60059219D01*
X90014229Y-59392552D02*
X90204705Y-60059219D01*
X90204705Y-60059219D02*
X90395181Y-59583028D01*
X90395181Y-59583028D02*
X90585657Y-60059219D01*
X90585657Y-60059219D02*
X90776133Y-59392552D01*
X91538038Y-60011600D02*
X91442800Y-60059219D01*
X91442800Y-60059219D02*
X91252324Y-60059219D01*
X91252324Y-60059219D02*
X91157086Y-60011600D01*
X91157086Y-60011600D02*
X91109467Y-59916361D01*
X91109467Y-59916361D02*
X91109467Y-59535409D01*
X91109467Y-59535409D02*
X91157086Y-59440171D01*
X91157086Y-59440171D02*
X91252324Y-59392552D01*
X91252324Y-59392552D02*
X91442800Y-59392552D01*
X91442800Y-59392552D02*
X91538038Y-59440171D01*
X91538038Y-59440171D02*
X91585657Y-59535409D01*
X91585657Y-59535409D02*
X91585657Y-59630647D01*
X91585657Y-59630647D02*
X91109467Y-59725885D01*
X92014229Y-60059219D02*
X92014229Y-59392552D01*
X92014229Y-59583028D02*
X92061848Y-59487790D01*
X92061848Y-59487790D02*
X92109467Y-59440171D01*
X92109467Y-59440171D02*
X92204705Y-59392552D01*
X92204705Y-59392552D02*
X92299943Y-59392552D01*
X73859766Y-101750019D02*
X73859766Y-102464304D01*
X73859766Y-102464304D02*
X73812147Y-102607161D01*
X73812147Y-102607161D02*
X73716909Y-102702400D01*
X73716909Y-102702400D02*
X73574052Y-102750019D01*
X73574052Y-102750019D02*
X73478814Y-102750019D01*
X74288338Y-101845257D02*
X74335957Y-101797638D01*
X74335957Y-101797638D02*
X74431195Y-101750019D01*
X74431195Y-101750019D02*
X74669290Y-101750019D01*
X74669290Y-101750019D02*
X74764528Y-101797638D01*
X74764528Y-101797638D02*
X74812147Y-101845257D01*
X74812147Y-101845257D02*
X74859766Y-101940495D01*
X74859766Y-101940495D02*
X74859766Y-102035733D01*
X74859766Y-102035733D02*
X74812147Y-102178590D01*
X74812147Y-102178590D02*
X74240719Y-102750019D01*
X74240719Y-102750019D02*
X74859766Y-102750019D01*
X71955004Y-110950019D02*
X71955004Y-109950019D01*
X71955004Y-109950019D02*
X72288337Y-110664304D01*
X72288337Y-110664304D02*
X72621670Y-109950019D01*
X72621670Y-109950019D02*
X72621670Y-110950019D01*
X73240718Y-110950019D02*
X73145480Y-110902400D01*
X73145480Y-110902400D02*
X73097861Y-110854780D01*
X73097861Y-110854780D02*
X73050242Y-110759542D01*
X73050242Y-110759542D02*
X73050242Y-110473828D01*
X73050242Y-110473828D02*
X73097861Y-110378590D01*
X73097861Y-110378590D02*
X73145480Y-110330971D01*
X73145480Y-110330971D02*
X73240718Y-110283352D01*
X73240718Y-110283352D02*
X73383575Y-110283352D01*
X73383575Y-110283352D02*
X73478813Y-110330971D01*
X73478813Y-110330971D02*
X73526432Y-110378590D01*
X73526432Y-110378590D02*
X73574051Y-110473828D01*
X73574051Y-110473828D02*
X73574051Y-110759542D01*
X73574051Y-110759542D02*
X73526432Y-110854780D01*
X73526432Y-110854780D02*
X73478813Y-110902400D01*
X73478813Y-110902400D02*
X73383575Y-110950019D01*
X73383575Y-110950019D02*
X73240718Y-110950019D01*
X73859766Y-110283352D02*
X74240718Y-110283352D01*
X74002623Y-109950019D02*
X74002623Y-110807161D01*
X74002623Y-110807161D02*
X74050242Y-110902400D01*
X74050242Y-110902400D02*
X74145480Y-110950019D01*
X74145480Y-110950019D02*
X74240718Y-110950019D01*
X74716909Y-110950019D02*
X74621671Y-110902400D01*
X74621671Y-110902400D02*
X74574052Y-110854780D01*
X74574052Y-110854780D02*
X74526433Y-110759542D01*
X74526433Y-110759542D02*
X74526433Y-110473828D01*
X74526433Y-110473828D02*
X74574052Y-110378590D01*
X74574052Y-110378590D02*
X74621671Y-110330971D01*
X74621671Y-110330971D02*
X74716909Y-110283352D01*
X74716909Y-110283352D02*
X74859766Y-110283352D01*
X74859766Y-110283352D02*
X74955004Y-110330971D01*
X74955004Y-110330971D02*
X75002623Y-110378590D01*
X75002623Y-110378590D02*
X75050242Y-110473828D01*
X75050242Y-110473828D02*
X75050242Y-110759542D01*
X75050242Y-110759542D02*
X75002623Y-110854780D01*
X75002623Y-110854780D02*
X74955004Y-110902400D01*
X74955004Y-110902400D02*
X74859766Y-110950019D01*
X74859766Y-110950019D02*
X74716909Y-110950019D01*
X75478814Y-110950019D02*
X75478814Y-110283352D01*
X75478814Y-110473828D02*
X75526433Y-110378590D01*
X75526433Y-110378590D02*
X75574052Y-110330971D01*
X75574052Y-110330971D02*
X75669290Y-110283352D01*
X75669290Y-110283352D02*
X75764528Y-110283352D01*
X76574052Y-110950019D02*
X76097862Y-110950019D01*
X76097862Y-110950019D02*
X76097862Y-109950019D01*
D12*
%TO.C,C6*%
X80942248Y-70577400D02*
X81464752Y-70577400D01*
X80942248Y-72047400D02*
X81464752Y-72047400D01*
%TO.C,U6*%
X106177600Y-80936000D02*
X106177600Y-81936000D01*
X106177600Y-99176000D02*
X106177600Y-98176000D01*
X106957600Y-80936000D02*
X106177600Y-80936000D01*
X106957600Y-99176000D02*
X106177600Y-99176000D01*
X131917600Y-80936000D02*
X125757600Y-80936000D01*
X131917600Y-80936000D02*
X131917600Y-99176000D01*
X131917600Y-99176000D02*
X125502600Y-99176000D01*
X125532600Y-80931000D02*
X125032600Y-80931000D01*
X125032600Y-80431000D01*
X125532600Y-80931000D01*
G36*
X125532600Y-80931000D02*
G01*
X125032600Y-80931000D01*
X125032600Y-80431000D01*
X125532600Y-80931000D01*
G37*
%TO.C,J7*%
X100895200Y-58000000D02*
X100895200Y-62000000D01*
X101185200Y-56970000D02*
X101185200Y-62990000D01*
X101185200Y-62990000D02*
X106485200Y-62990000D01*
X101765200Y-56970000D02*
X101765200Y-57570000D01*
X101765200Y-57570000D02*
X103365200Y-57570000D01*
X102565200Y-61990000D02*
X102815200Y-61460000D01*
X102565200Y-61990000D02*
X105105200Y-61990000D01*
X102565200Y-62990000D02*
X102565200Y-61990000D01*
X102815200Y-61460000D02*
X104855200Y-61460000D01*
X102815200Y-62990000D02*
X102815200Y-61990000D01*
X103365200Y-57570000D02*
X103365200Y-56970000D01*
X104305200Y-56970000D02*
X104305200Y-57570000D01*
X104305200Y-57570000D02*
X105905200Y-57570000D01*
X104855200Y-61460000D02*
X105105200Y-61990000D01*
X104855200Y-62990000D02*
X104855200Y-61990000D01*
X105105200Y-61990000D02*
X105105200Y-62990000D01*
X105905200Y-57570000D02*
X105905200Y-56970000D01*
X106485200Y-56970000D02*
X101185200Y-56970000D01*
X106485200Y-62990000D02*
X106485200Y-56970000D01*
%TO.C,C4*%
X92463252Y-84304200D02*
X91940748Y-84304200D01*
X92463252Y-85774200D02*
X91940748Y-85774200D01*
%TO.C,J6*%
X116080000Y-107010000D02*
X116080000Y-113030000D01*
X116080000Y-113030000D02*
X121380000Y-113030000D01*
X116660000Y-112430000D02*
X116660000Y-113030000D01*
X117460000Y-108010000D02*
X117460000Y-107010000D01*
X117710000Y-107010000D02*
X117710000Y-108010000D01*
X117710000Y-108540000D02*
X117460000Y-108010000D01*
X118260000Y-112430000D02*
X116660000Y-112430000D01*
X118260000Y-113030000D02*
X118260000Y-112430000D01*
X119200000Y-112430000D02*
X119200000Y-113030000D01*
X119750000Y-107010000D02*
X119750000Y-108010000D01*
X119750000Y-108540000D02*
X117710000Y-108540000D01*
X120000000Y-107010000D02*
X120000000Y-108010000D01*
X120000000Y-108010000D02*
X117460000Y-108010000D01*
X120000000Y-108010000D02*
X119750000Y-108540000D01*
X120800000Y-112430000D02*
X119200000Y-112430000D01*
X120800000Y-113030000D02*
X120800000Y-112430000D01*
X121380000Y-107010000D02*
X116080000Y-107010000D01*
X121380000Y-113030000D02*
X121380000Y-107010000D01*
X121670000Y-112000000D02*
X121670000Y-108000000D01*
%TO.C,U3*%
X80736200Y-88942600D02*
X80736200Y-88482600D01*
X80736200Y-92462600D02*
X80736200Y-91762600D01*
X81436200Y-88242600D02*
X81036200Y-88242600D01*
X81436200Y-92462600D02*
X80736200Y-92462600D01*
X84256200Y-88242600D02*
X84956200Y-88242600D01*
X84256200Y-92462600D02*
X84956200Y-92462600D01*
X84956200Y-88242600D02*
X84956200Y-88942600D01*
X84956200Y-92462600D02*
X84956200Y-91762600D01*
X80736200Y-88242600D02*
X80496200Y-87912600D01*
X80976200Y-87912600D01*
X80736200Y-88242600D01*
G36*
X80736200Y-88242600D02*
G01*
X80496200Y-87912600D01*
X80976200Y-87912600D01*
X80736200Y-88242600D01*
G37*
%TO.C,L3*%
X93502267Y-100683600D02*
X93159733Y-100683600D01*
X93502267Y-101703600D02*
X93159733Y-101703600D01*
%TO.C,R5*%
X100772936Y-114265000D02*
X101227064Y-114265000D01*
X100772936Y-115735000D02*
X101227064Y-115735000D01*
%TO.C,SW1*%
X45633100Y-68602800D02*
X45633100Y-77207800D01*
X48681100Y-77207800D02*
X51221100Y-77207800D01*
X56301100Y-77207800D02*
X53761100Y-77207800D01*
X59349100Y-68602800D02*
X45633100Y-68602800D01*
X59349100Y-77207800D02*
X59349100Y-68602800D01*
X53971100Y-68202800D02*
X55171100Y-68202800D01*
X55171100Y-69002800D01*
X53971100Y-69002800D01*
X53971100Y-68202800D01*
%TO.C,J5*%
X90790000Y-108000000D02*
X90790000Y-112000000D01*
X91080000Y-106970000D02*
X91080000Y-112990000D01*
X91080000Y-112990000D02*
X96380000Y-112990000D01*
X91660000Y-106970000D02*
X91660000Y-107570000D01*
X91660000Y-107570000D02*
X93260000Y-107570000D01*
X92460000Y-111990000D02*
X92710000Y-111460000D01*
X92460000Y-111990000D02*
X95000000Y-111990000D01*
X92460000Y-112990000D02*
X92460000Y-111990000D01*
X92710000Y-111460000D02*
X94750000Y-111460000D01*
X92710000Y-112990000D02*
X92710000Y-111990000D01*
X93260000Y-107570000D02*
X93260000Y-106970000D01*
X94200000Y-106970000D02*
X94200000Y-107570000D01*
X94200000Y-107570000D02*
X95800000Y-107570000D01*
X94750000Y-111460000D02*
X95000000Y-111990000D01*
X94750000Y-112990000D02*
X94750000Y-111990000D01*
X95000000Y-111990000D02*
X95000000Y-112990000D01*
X95800000Y-107570000D02*
X95800000Y-106970000D01*
X96380000Y-106970000D02*
X91080000Y-106970000D01*
X96380000Y-112990000D02*
X96380000Y-106970000D01*
%TO.C,R7*%
X88746064Y-77674800D02*
X88291936Y-77674800D01*
X88746064Y-79144800D02*
X88291936Y-79144800D01*
%TO.C,R3*%
X79782936Y-100433200D02*
X80237064Y-100433200D01*
X79782936Y-101903200D02*
X80237064Y-101903200D01*
%TO.C,C1*%
X43140977Y-84439400D02*
X44140977Y-84439400D01*
X43640977Y-83939400D02*
X43640977Y-84939400D01*
X48620623Y-82234400D02*
X48620623Y-92394400D01*
X48660623Y-82234400D02*
X48660623Y-92394400D01*
X48700623Y-82234400D02*
X48700623Y-92394400D01*
X48740623Y-82235400D02*
X48740623Y-92393400D01*
X48780623Y-82236400D02*
X48780623Y-92392400D01*
X48820623Y-82237400D02*
X48820623Y-92391400D01*
X48860623Y-82239400D02*
X48860623Y-92389400D01*
X48900623Y-82241400D02*
X48900623Y-92387400D01*
X48940623Y-82244400D02*
X48940623Y-92384400D01*
X48980623Y-82246400D02*
X48980623Y-92382400D01*
X49020623Y-82249400D02*
X49020623Y-92379400D01*
X49060623Y-82252400D02*
X49060623Y-92376400D01*
X49100623Y-82256400D02*
X49100623Y-92372400D01*
X49140623Y-82260400D02*
X49140623Y-92368400D01*
X49180623Y-82264400D02*
X49180623Y-92364400D01*
X49220623Y-82269400D02*
X49220623Y-92359400D01*
X49260623Y-82274400D02*
X49260623Y-92354400D01*
X49300623Y-82279400D02*
X49300623Y-92349400D01*
X49341623Y-82284400D02*
X49341623Y-92344400D01*
X49381623Y-82290400D02*
X49381623Y-92338400D01*
X49421623Y-82296400D02*
X49421623Y-92332400D01*
X49461623Y-82303400D02*
X49461623Y-92325400D01*
X49501623Y-82310400D02*
X49501623Y-92318400D01*
X49541623Y-82317400D02*
X49541623Y-92311400D01*
X49581623Y-82324400D02*
X49581623Y-92304400D01*
X49621623Y-82332400D02*
X49621623Y-92296400D01*
X49661623Y-82340400D02*
X49661623Y-92288400D01*
X49701623Y-82349400D02*
X49701623Y-92279400D01*
X49741623Y-82358400D02*
X49741623Y-92270400D01*
X49781623Y-82367400D02*
X49781623Y-92261400D01*
X49821623Y-82376400D02*
X49821623Y-92252400D01*
X49861623Y-82386400D02*
X49861623Y-92242400D01*
X49901623Y-82396400D02*
X49901623Y-86073400D01*
X49901623Y-88555400D02*
X49901623Y-92232400D01*
X49941623Y-82407400D02*
X49941623Y-86073400D01*
X49941623Y-88555400D02*
X49941623Y-92221400D01*
X49981623Y-82417400D02*
X49981623Y-86073400D01*
X49981623Y-88555400D02*
X49981623Y-92211400D01*
X50021623Y-82429400D02*
X50021623Y-86073400D01*
X50021623Y-88555400D02*
X50021623Y-92199400D01*
X50061623Y-82440400D02*
X50061623Y-86073400D01*
X50061623Y-88555400D02*
X50061623Y-92188400D01*
X50101623Y-82452400D02*
X50101623Y-86073400D01*
X50101623Y-88555400D02*
X50101623Y-92176400D01*
X50141623Y-82464400D02*
X50141623Y-86073400D01*
X50141623Y-88555400D02*
X50141623Y-92164400D01*
X50181623Y-82477400D02*
X50181623Y-86073400D01*
X50181623Y-88555400D02*
X50181623Y-92151400D01*
X50221623Y-82490400D02*
X50221623Y-86073400D01*
X50221623Y-88555400D02*
X50221623Y-92138400D01*
X50261623Y-82503400D02*
X50261623Y-86073400D01*
X50261623Y-88555400D02*
X50261623Y-92125400D01*
X50301623Y-82517400D02*
X50301623Y-86073400D01*
X50301623Y-88555400D02*
X50301623Y-92111400D01*
X50341623Y-82531400D02*
X50341623Y-86073400D01*
X50341623Y-88555400D02*
X50341623Y-92097400D01*
X50381623Y-82546400D02*
X50381623Y-86073400D01*
X50381623Y-88555400D02*
X50381623Y-92082400D01*
X50421623Y-82560400D02*
X50421623Y-86073400D01*
X50421623Y-88555400D02*
X50421623Y-92068400D01*
X50461623Y-82576400D02*
X50461623Y-86073400D01*
X50461623Y-88555400D02*
X50461623Y-92052400D01*
X50501623Y-82591400D02*
X50501623Y-86073400D01*
X50501623Y-88555400D02*
X50501623Y-92037400D01*
X50541623Y-82607400D02*
X50541623Y-86073400D01*
X50541623Y-88555400D02*
X50541623Y-92021400D01*
X50581623Y-82624400D02*
X50581623Y-86073400D01*
X50581623Y-88555400D02*
X50581623Y-92004400D01*
X50621623Y-82640400D02*
X50621623Y-86073400D01*
X50621623Y-88555400D02*
X50621623Y-91988400D01*
X50661623Y-82657400D02*
X50661623Y-86073400D01*
X50661623Y-88555400D02*
X50661623Y-91971400D01*
X50701623Y-82675400D02*
X50701623Y-86073400D01*
X50701623Y-88555400D02*
X50701623Y-91953400D01*
X50741623Y-82693400D02*
X50741623Y-86073400D01*
X50741623Y-88555400D02*
X50741623Y-91935400D01*
X50781623Y-82711400D02*
X50781623Y-86073400D01*
X50781623Y-88555400D02*
X50781623Y-91917400D01*
X50821623Y-82730400D02*
X50821623Y-86073400D01*
X50821623Y-88555400D02*
X50821623Y-91898400D01*
X50861623Y-82750400D02*
X50861623Y-86073400D01*
X50861623Y-88555400D02*
X50861623Y-91878400D01*
X50901623Y-82769400D02*
X50901623Y-86073400D01*
X50901623Y-88555400D02*
X50901623Y-91859400D01*
X50941623Y-82789400D02*
X50941623Y-86073400D01*
X50941623Y-88555400D02*
X50941623Y-91839400D01*
X50981623Y-82810400D02*
X50981623Y-86073400D01*
X50981623Y-88555400D02*
X50981623Y-91818400D01*
X51021623Y-82831400D02*
X51021623Y-86073400D01*
X51021623Y-88555400D02*
X51021623Y-91797400D01*
X51061623Y-82852400D02*
X51061623Y-86073400D01*
X51061623Y-88555400D02*
X51061623Y-91776400D01*
X51101623Y-82874400D02*
X51101623Y-86073400D01*
X51101623Y-88555400D02*
X51101623Y-91754400D01*
X51141623Y-82897400D02*
X51141623Y-86073400D01*
X51141623Y-88555400D02*
X51141623Y-91731400D01*
X51181623Y-82919400D02*
X51181623Y-86073400D01*
X51181623Y-88555400D02*
X51181623Y-91709400D01*
X51221623Y-82943400D02*
X51221623Y-86073400D01*
X51221623Y-88555400D02*
X51221623Y-91685400D01*
X51261623Y-82967400D02*
X51261623Y-86073400D01*
X51261623Y-88555400D02*
X51261623Y-91661400D01*
X51301623Y-82991400D02*
X51301623Y-86073400D01*
X51301623Y-88555400D02*
X51301623Y-91637400D01*
X51341623Y-83016400D02*
X51341623Y-86073400D01*
X51341623Y-88555400D02*
X51341623Y-91612400D01*
X51381623Y-83041400D02*
X51381623Y-86073400D01*
X51381623Y-88555400D02*
X51381623Y-91587400D01*
X51421623Y-83067400D02*
X51421623Y-86073400D01*
X51421623Y-88555400D02*
X51421623Y-91561400D01*
X51461623Y-83093400D02*
X51461623Y-86073400D01*
X51461623Y-88555400D02*
X51461623Y-91535400D01*
X51501623Y-83120400D02*
X51501623Y-86073400D01*
X51501623Y-88555400D02*
X51501623Y-91508400D01*
X51541623Y-83148400D02*
X51541623Y-86073400D01*
X51541623Y-88555400D02*
X51541623Y-91480400D01*
X51581623Y-83176400D02*
X51581623Y-86073400D01*
X51581623Y-88555400D02*
X51581623Y-91452400D01*
X51621623Y-83204400D02*
X51621623Y-86073400D01*
X51621623Y-88555400D02*
X51621623Y-91424400D01*
X51661623Y-83234400D02*
X51661623Y-86073400D01*
X51661623Y-88555400D02*
X51661623Y-91394400D01*
X51701623Y-83264400D02*
X51701623Y-86073400D01*
X51701623Y-88555400D02*
X51701623Y-91364400D01*
X51741623Y-83294400D02*
X51741623Y-86073400D01*
X51741623Y-88555400D02*
X51741623Y-91334400D01*
X51781623Y-83325400D02*
X51781623Y-86073400D01*
X51781623Y-88555400D02*
X51781623Y-91303400D01*
X51821623Y-83357400D02*
X51821623Y-86073400D01*
X51821623Y-88555400D02*
X51821623Y-91271400D01*
X51861623Y-83389400D02*
X51861623Y-86073400D01*
X51861623Y-88555400D02*
X51861623Y-91239400D01*
X51901623Y-83422400D02*
X51901623Y-86073400D01*
X51901623Y-88555400D02*
X51901623Y-91206400D01*
X51941623Y-83456400D02*
X51941623Y-86073400D01*
X51941623Y-88555400D02*
X51941623Y-91172400D01*
X51981623Y-83490400D02*
X51981623Y-86073400D01*
X51981623Y-88555400D02*
X51981623Y-91138400D01*
X52021623Y-83525400D02*
X52021623Y-86073400D01*
X52021623Y-88555400D02*
X52021623Y-91103400D01*
X52061623Y-83561400D02*
X52061623Y-86073400D01*
X52061623Y-88555400D02*
X52061623Y-91067400D01*
X52101623Y-83598400D02*
X52101623Y-86073400D01*
X52101623Y-88555400D02*
X52101623Y-91030400D01*
X52141623Y-83635400D02*
X52141623Y-86073400D01*
X52141623Y-88555400D02*
X52141623Y-90993400D01*
X52181623Y-83674400D02*
X52181623Y-86073400D01*
X52181623Y-88555400D02*
X52181623Y-90954400D01*
X52221623Y-83713400D02*
X52221623Y-86073400D01*
X52221623Y-88555400D02*
X52221623Y-90915400D01*
X52261623Y-83753400D02*
X52261623Y-86073400D01*
X52261623Y-88555400D02*
X52261623Y-90875400D01*
X52301623Y-83794400D02*
X52301623Y-86073400D01*
X52301623Y-88555400D02*
X52301623Y-90834400D01*
X52341623Y-83836400D02*
X52341623Y-86073400D01*
X52341623Y-88555400D02*
X52341623Y-90792400D01*
X52381623Y-83878400D02*
X52381623Y-90750400D01*
X52421623Y-83922400D02*
X52421623Y-90706400D01*
X52461623Y-83967400D02*
X52461623Y-90661400D01*
X52501623Y-84013400D02*
X52501623Y-90615400D01*
X52541623Y-84060400D02*
X52541623Y-90568400D01*
X52581623Y-84108400D02*
X52581623Y-90520400D01*
X52621623Y-84158400D02*
X52621623Y-90470400D01*
X52661623Y-84208400D02*
X52661623Y-90420400D01*
X52701623Y-84260400D02*
X52701623Y-90368400D01*
X52741623Y-84314400D02*
X52741623Y-90314400D01*
X52781623Y-84369400D02*
X52781623Y-90259400D01*
X52821623Y-84425400D02*
X52821623Y-90203400D01*
X52861623Y-84484400D02*
X52861623Y-90144400D01*
X52901623Y-84544400D02*
X52901623Y-90084400D01*
X52941623Y-84605400D02*
X52941623Y-90023400D01*
X52981623Y-84669400D02*
X52981623Y-89959400D01*
X53021623Y-84735400D02*
X53021623Y-89893400D01*
X53061623Y-84804400D02*
X53061623Y-89824400D01*
X53101623Y-84875400D02*
X53101623Y-89753400D01*
X53141623Y-84949400D02*
X53141623Y-89679400D01*
X53181623Y-85025400D02*
X53181623Y-89603400D01*
X53221623Y-85105400D02*
X53221623Y-89523400D01*
X53261623Y-85189400D02*
X53261623Y-89439400D01*
X53301623Y-85277400D02*
X53301623Y-89351400D01*
X53341623Y-85370400D02*
X53341623Y-89258400D01*
X53381623Y-85468400D02*
X53381623Y-89160400D01*
X53421623Y-85572400D02*
X53421623Y-89056400D01*
X53461623Y-85684400D02*
X53461623Y-88944400D01*
X53501623Y-85804400D02*
X53501623Y-88824400D01*
X53541623Y-85936400D02*
X53541623Y-88692400D01*
X53581623Y-86084400D02*
X53581623Y-88544400D01*
X53621623Y-86252400D02*
X53621623Y-88376400D01*
X53661623Y-86452400D02*
X53661623Y-88176400D01*
X53701623Y-86715400D02*
X53701623Y-87913400D01*
X53740623Y-87314400D02*
G75*
G02*
X43500623Y-87314400I-5120000J0D01*
G01*
X43500623Y-87314400D02*
G75*
G02*
X53740623Y-87314400I5120000J0D01*
G01*
%TO.C,J9*%
X100290000Y-103000000D02*
X100290000Y-107000000D01*
X100580000Y-101970000D02*
X100580000Y-107990000D01*
X100580000Y-107990000D02*
X105880000Y-107990000D01*
X101160000Y-101970000D02*
X101160000Y-102570000D01*
X101160000Y-102570000D02*
X102760000Y-102570000D01*
X101960000Y-106990000D02*
X102210000Y-106460000D01*
X101960000Y-106990000D02*
X104500000Y-106990000D01*
X101960000Y-107990000D02*
X101960000Y-106990000D01*
X102210000Y-106460000D02*
X104250000Y-106460000D01*
X102210000Y-107990000D02*
X102210000Y-106990000D01*
X102760000Y-102570000D02*
X102760000Y-101970000D01*
X103700000Y-101970000D02*
X103700000Y-102570000D01*
X103700000Y-102570000D02*
X105300000Y-102570000D01*
X104250000Y-106460000D02*
X104500000Y-106990000D01*
X104250000Y-107990000D02*
X104250000Y-106990000D01*
X104500000Y-106990000D02*
X104500000Y-107990000D01*
X105300000Y-102570000D02*
X105300000Y-101970000D01*
X105880000Y-101970000D02*
X100580000Y-101970000D01*
X105880000Y-107990000D02*
X105880000Y-101970000D01*
%TO.C,C5*%
X100134033Y-90879200D02*
X100426567Y-90879200D01*
X100134033Y-91899200D02*
X100426567Y-91899200D01*
%TO.C,J3*%
X82479900Y-104364400D02*
X82479900Y-108364400D01*
X82769900Y-103334400D02*
X82769900Y-109354400D01*
X82769900Y-109354400D02*
X88069900Y-109354400D01*
X83349900Y-103334400D02*
X83349900Y-103934400D01*
X83349900Y-103934400D02*
X84949900Y-103934400D01*
X84149900Y-108354400D02*
X84399900Y-107824400D01*
X84149900Y-108354400D02*
X86689900Y-108354400D01*
X84149900Y-109354400D02*
X84149900Y-108354400D01*
X84399900Y-107824400D02*
X86439900Y-107824400D01*
X84399900Y-109354400D02*
X84399900Y-108354400D01*
X84949900Y-103934400D02*
X84949900Y-103334400D01*
X85889900Y-103334400D02*
X85889900Y-103934400D01*
X85889900Y-103934400D02*
X87489900Y-103934400D01*
X86439900Y-107824400D02*
X86689900Y-108354400D01*
X86439900Y-109354400D02*
X86439900Y-108354400D01*
X86689900Y-108354400D02*
X86689900Y-109354400D01*
X87489900Y-103934400D02*
X87489900Y-103334400D01*
X88069900Y-103334400D02*
X82769900Y-103334400D01*
X88069900Y-109354400D02*
X88069900Y-103334400D01*
%TO.C,R2*%
X79325736Y-76379400D02*
X79779864Y-76379400D01*
X79325736Y-77849400D02*
X79779864Y-77849400D01*
%TO.C,R6*%
X121337336Y-66117800D02*
X121791464Y-66117800D01*
X121337336Y-67587800D02*
X121791464Y-67587800D01*
%TO.C,L1*%
X65372133Y-78128400D02*
X65714667Y-78128400D01*
X65372133Y-79148400D02*
X65714667Y-79148400D01*
%TO.C,C9*%
X121836548Y-72747200D02*
X122359052Y-72747200D01*
X121836548Y-74217200D02*
X122359052Y-74217200D01*
%TO.C,J1*%
X55226000Y-54997600D02*
X55226000Y-58997600D01*
X55516000Y-53967600D02*
X55516000Y-59987600D01*
X55516000Y-59987600D02*
X60816000Y-59987600D01*
X56096000Y-53967600D02*
X56096000Y-54567600D01*
X56096000Y-54567600D02*
X57696000Y-54567600D01*
X56896000Y-58987600D02*
X57146000Y-58457600D01*
X56896000Y-58987600D02*
X59436000Y-58987600D01*
X56896000Y-59987600D02*
X56896000Y-58987600D01*
X57146000Y-58457600D02*
X59186000Y-58457600D01*
X57146000Y-59987600D02*
X57146000Y-58987600D01*
X57696000Y-54567600D02*
X57696000Y-53967600D01*
X58636000Y-53967600D02*
X58636000Y-54567600D01*
X58636000Y-54567600D02*
X60236000Y-54567600D01*
X59186000Y-58457600D02*
X59436000Y-58987600D01*
X59186000Y-59987600D02*
X59186000Y-58987600D01*
X59436000Y-58987600D02*
X59436000Y-59987600D01*
X60236000Y-54567600D02*
X60236000Y-53967600D01*
X60816000Y-53967600D02*
X55516000Y-53967600D01*
X60816000Y-59987600D02*
X60816000Y-53967600D01*
%TO.C,C3*%
X95852348Y-79579800D02*
X96374852Y-79579800D01*
X95852348Y-81049800D02*
X96374852Y-81049800D01*
%TO.C,L2*%
X67835633Y-100144800D02*
X68178167Y-100144800D01*
X67835633Y-101164800D02*
X68178167Y-101164800D01*
%TO.C,C8*%
X102052448Y-67377000D02*
X102574952Y-67377000D01*
X102052448Y-68847000D02*
X102574952Y-68847000D01*
%TO.C,C2*%
X63920159Y-54946600D02*
X65170159Y-54946600D01*
X64545159Y-54321600D02*
X64545159Y-55571600D01*
X70737241Y-52191600D02*
X70737241Y-64851600D01*
X70777241Y-52191600D02*
X70777241Y-64851600D01*
X70817241Y-52191600D02*
X70817241Y-64851600D01*
X70857241Y-52192600D02*
X70857241Y-64850600D01*
X70897241Y-52193600D02*
X70897241Y-64849600D01*
X70937241Y-52194600D02*
X70937241Y-64848600D01*
X70977241Y-52195600D02*
X70977241Y-64847600D01*
X71017241Y-52197600D02*
X71017241Y-64845600D01*
X71057241Y-52199600D02*
X71057241Y-64843600D01*
X71097241Y-52201600D02*
X71097241Y-64841600D01*
X71137241Y-52203600D02*
X71137241Y-64839600D01*
X71177241Y-52206600D02*
X71177241Y-64836600D01*
X71217241Y-52209600D02*
X71217241Y-64833600D01*
X71257241Y-52212600D02*
X71257241Y-64830600D01*
X71297241Y-52215600D02*
X71297241Y-64827600D01*
X71337241Y-52219600D02*
X71337241Y-64823600D01*
X71377241Y-52223600D02*
X71377241Y-64819600D01*
X71417241Y-52227600D02*
X71417241Y-64815600D01*
X71458241Y-52231600D02*
X71458241Y-64811600D01*
X71498241Y-52236600D02*
X71498241Y-64806600D01*
X71538241Y-52241600D02*
X71538241Y-64801600D01*
X71578241Y-52246600D02*
X71578241Y-64796600D01*
X71618241Y-52252600D02*
X71618241Y-64790600D01*
X71658241Y-52257600D02*
X71658241Y-64785600D01*
X71698241Y-52263600D02*
X71698241Y-64779600D01*
X71738241Y-52269600D02*
X71738241Y-64773600D01*
X71778241Y-52276600D02*
X71778241Y-64766600D01*
X71818241Y-52283600D02*
X71818241Y-57081600D01*
X71818241Y-59961600D02*
X71818241Y-64759600D01*
X71858241Y-52290600D02*
X71858241Y-57081600D01*
X71858241Y-59961600D02*
X71858241Y-64752600D01*
X71898241Y-52297600D02*
X71898241Y-57081600D01*
X71898241Y-59961600D02*
X71898241Y-64745600D01*
X71938241Y-52305600D02*
X71938241Y-57081600D01*
X71938241Y-59961600D02*
X71938241Y-64737600D01*
X71978241Y-52312600D02*
X71978241Y-57081600D01*
X71978241Y-59961600D02*
X71978241Y-64730600D01*
X72018241Y-52320600D02*
X72018241Y-57081600D01*
X72018241Y-59961600D02*
X72018241Y-64722600D01*
X72058241Y-52329600D02*
X72058241Y-57081600D01*
X72058241Y-59961600D02*
X72058241Y-64713600D01*
X72098241Y-52337600D02*
X72098241Y-57081600D01*
X72098241Y-59961600D02*
X72098241Y-64705600D01*
X72138241Y-52346600D02*
X72138241Y-57081600D01*
X72138241Y-59961600D02*
X72138241Y-64696600D01*
X72178241Y-52355600D02*
X72178241Y-57081600D01*
X72178241Y-59961600D02*
X72178241Y-64687600D01*
X72218241Y-52365600D02*
X72218241Y-57081600D01*
X72218241Y-59961600D02*
X72218241Y-64677600D01*
X72258241Y-52375600D02*
X72258241Y-57081600D01*
X72258241Y-59961600D02*
X72258241Y-64667600D01*
X72298241Y-52384600D02*
X72298241Y-57081600D01*
X72298241Y-59961600D02*
X72298241Y-64658600D01*
X72338241Y-52395600D02*
X72338241Y-57081600D01*
X72338241Y-59961600D02*
X72338241Y-64647600D01*
X72378241Y-52405600D02*
X72378241Y-57081600D01*
X72378241Y-59961600D02*
X72378241Y-64637600D01*
X72418241Y-52416600D02*
X72418241Y-57081600D01*
X72418241Y-59961600D02*
X72418241Y-64626600D01*
X72458241Y-52427600D02*
X72458241Y-57081600D01*
X72458241Y-59961600D02*
X72458241Y-64615600D01*
X72498241Y-52438600D02*
X72498241Y-57081600D01*
X72498241Y-59961600D02*
X72498241Y-64604600D01*
X72538241Y-52450600D02*
X72538241Y-57081600D01*
X72538241Y-59961600D02*
X72538241Y-64592600D01*
X72578241Y-52462600D02*
X72578241Y-57081600D01*
X72578241Y-59961600D02*
X72578241Y-64580600D01*
X72618241Y-52474600D02*
X72618241Y-57081600D01*
X72618241Y-59961600D02*
X72618241Y-64568600D01*
X72658241Y-52487600D02*
X72658241Y-57081600D01*
X72658241Y-59961600D02*
X72658241Y-64555600D01*
X72698241Y-52500600D02*
X72698241Y-57081600D01*
X72698241Y-59961600D02*
X72698241Y-64542600D01*
X72738241Y-52513600D02*
X72738241Y-57081600D01*
X72738241Y-59961600D02*
X72738241Y-64529600D01*
X72778241Y-52526600D02*
X72778241Y-57081600D01*
X72778241Y-59961600D02*
X72778241Y-64516600D01*
X72818241Y-52540600D02*
X72818241Y-57081600D01*
X72818241Y-59961600D02*
X72818241Y-64502600D01*
X72858241Y-52554600D02*
X72858241Y-57081600D01*
X72858241Y-59961600D02*
X72858241Y-64488600D01*
X72898241Y-52568600D02*
X72898241Y-57081600D01*
X72898241Y-59961600D02*
X72898241Y-64474600D01*
X72938241Y-52582600D02*
X72938241Y-57081600D01*
X72938241Y-59961600D02*
X72938241Y-64460600D01*
X72978241Y-52597600D02*
X72978241Y-57081600D01*
X72978241Y-59961600D02*
X72978241Y-64445600D01*
X73018241Y-52613600D02*
X73018241Y-57081600D01*
X73018241Y-59961600D02*
X73018241Y-64429600D01*
X73058241Y-52628600D02*
X73058241Y-57081600D01*
X73058241Y-59961600D02*
X73058241Y-64414600D01*
X73098241Y-52644600D02*
X73098241Y-57081600D01*
X73098241Y-59961600D02*
X73098241Y-64398600D01*
X73138241Y-52660600D02*
X73138241Y-57081600D01*
X73138241Y-59961600D02*
X73138241Y-64382600D01*
X73178241Y-52676600D02*
X73178241Y-57081600D01*
X73178241Y-59961600D02*
X73178241Y-64366600D01*
X73218241Y-52693600D02*
X73218241Y-57081600D01*
X73218241Y-59961600D02*
X73218241Y-64349600D01*
X73258241Y-52710600D02*
X73258241Y-57081600D01*
X73258241Y-59961600D02*
X73258241Y-64332600D01*
X73298241Y-52728600D02*
X73298241Y-57081600D01*
X73298241Y-59961600D02*
X73298241Y-64314600D01*
X73338241Y-52745600D02*
X73338241Y-57081600D01*
X73338241Y-59961600D02*
X73338241Y-64297600D01*
X73378241Y-52763600D02*
X73378241Y-57081600D01*
X73378241Y-59961600D02*
X73378241Y-64279600D01*
X73418241Y-52782600D02*
X73418241Y-57081600D01*
X73418241Y-59961600D02*
X73418241Y-64260600D01*
X73458241Y-52800600D02*
X73458241Y-57081600D01*
X73458241Y-59961600D02*
X73458241Y-64242600D01*
X73498241Y-52819600D02*
X73498241Y-57081600D01*
X73498241Y-59961600D02*
X73498241Y-64223600D01*
X73538241Y-52839600D02*
X73538241Y-57081600D01*
X73538241Y-59961600D02*
X73538241Y-64203600D01*
X73578241Y-52859600D02*
X73578241Y-57081600D01*
X73578241Y-59961600D02*
X73578241Y-64183600D01*
X73618241Y-52879600D02*
X73618241Y-57081600D01*
X73618241Y-59961600D02*
X73618241Y-64163600D01*
X73658241Y-52899600D02*
X73658241Y-57081600D01*
X73658241Y-59961600D02*
X73658241Y-64143600D01*
X73698241Y-52920600D02*
X73698241Y-57081600D01*
X73698241Y-59961600D02*
X73698241Y-64122600D01*
X73738241Y-52941600D02*
X73738241Y-57081600D01*
X73738241Y-59961600D02*
X73738241Y-64101600D01*
X73778241Y-52963600D02*
X73778241Y-57081600D01*
X73778241Y-59961600D02*
X73778241Y-64079600D01*
X73818241Y-52985600D02*
X73818241Y-57081600D01*
X73818241Y-59961600D02*
X73818241Y-64057600D01*
X73858241Y-53007600D02*
X73858241Y-57081600D01*
X73858241Y-59961600D02*
X73858241Y-64035600D01*
X73898241Y-53030600D02*
X73898241Y-57081600D01*
X73898241Y-59961600D02*
X73898241Y-64012600D01*
X73938241Y-53053600D02*
X73938241Y-57081600D01*
X73938241Y-59961600D02*
X73938241Y-63989600D01*
X73978241Y-53076600D02*
X73978241Y-57081600D01*
X73978241Y-59961600D02*
X73978241Y-63966600D01*
X74018241Y-53100600D02*
X74018241Y-57081600D01*
X74018241Y-59961600D02*
X74018241Y-63942600D01*
X74058241Y-53124600D02*
X74058241Y-57081600D01*
X74058241Y-59961600D02*
X74058241Y-63918600D01*
X74098241Y-53149600D02*
X74098241Y-57081600D01*
X74098241Y-59961600D02*
X74098241Y-63893600D01*
X74138241Y-53174600D02*
X74138241Y-57081600D01*
X74138241Y-59961600D02*
X74138241Y-63868600D01*
X74178241Y-53199600D02*
X74178241Y-57081600D01*
X74178241Y-59961600D02*
X74178241Y-63843600D01*
X74218241Y-53225600D02*
X74218241Y-57081600D01*
X74218241Y-59961600D02*
X74218241Y-63817600D01*
X74258241Y-53251600D02*
X74258241Y-57081600D01*
X74258241Y-59961600D02*
X74258241Y-63791600D01*
X74298241Y-53278600D02*
X74298241Y-57081600D01*
X74298241Y-59961600D02*
X74298241Y-63764600D01*
X74338241Y-53305600D02*
X74338241Y-57081600D01*
X74338241Y-59961600D02*
X74338241Y-63737600D01*
X74378241Y-53333600D02*
X74378241Y-57081600D01*
X74378241Y-59961600D02*
X74378241Y-63709600D01*
X74418241Y-53361600D02*
X74418241Y-57081600D01*
X74418241Y-59961600D02*
X74418241Y-63681600D01*
X74458241Y-53390600D02*
X74458241Y-57081600D01*
X74458241Y-59961600D02*
X74458241Y-63652600D01*
X74498241Y-53419600D02*
X74498241Y-57081600D01*
X74498241Y-59961600D02*
X74498241Y-63623600D01*
X74538241Y-53448600D02*
X74538241Y-57081600D01*
X74538241Y-59961600D02*
X74538241Y-63594600D01*
X74578241Y-53478600D02*
X74578241Y-57081600D01*
X74578241Y-59961600D02*
X74578241Y-63564600D01*
X74618241Y-53509600D02*
X74618241Y-57081600D01*
X74618241Y-59961600D02*
X74618241Y-63533600D01*
X74658241Y-53539600D02*
X74658241Y-57081600D01*
X74658241Y-59961600D02*
X74658241Y-63503600D01*
X74698241Y-53571600D02*
X74698241Y-63471600D01*
X74738241Y-53603600D02*
X74738241Y-63439600D01*
X74778241Y-53636600D02*
X74778241Y-63406600D01*
X74818241Y-53669600D02*
X74818241Y-63373600D01*
X74858241Y-53702600D02*
X74858241Y-63340600D01*
X74898241Y-53736600D02*
X74898241Y-63306600D01*
X74938241Y-53771600D02*
X74938241Y-63271600D01*
X74978241Y-53807600D02*
X74978241Y-63235600D01*
X75018241Y-53843600D02*
X75018241Y-63199600D01*
X75058241Y-53879600D02*
X75058241Y-63163600D01*
X75098241Y-53916600D02*
X75098241Y-63126600D01*
X75138241Y-53954600D02*
X75138241Y-63088600D01*
X75178241Y-53993600D02*
X75178241Y-63049600D01*
X75218241Y-54032600D02*
X75218241Y-63010600D01*
X75258241Y-54072600D02*
X75258241Y-62970600D01*
X75298241Y-54113600D02*
X75298241Y-62929600D01*
X75338241Y-54154600D02*
X75338241Y-62888600D01*
X75378241Y-54196600D02*
X75378241Y-62846600D01*
X75418241Y-54239600D02*
X75418241Y-62803600D01*
X75458241Y-54283600D02*
X75458241Y-62759600D01*
X75498241Y-54327600D02*
X75498241Y-62715600D01*
X75538241Y-54373600D02*
X75538241Y-62669600D01*
X75578241Y-54419600D02*
X75578241Y-62623600D01*
X75618241Y-54466600D02*
X75618241Y-62576600D01*
X75658241Y-54514600D02*
X75658241Y-62528600D01*
X75698241Y-54564600D02*
X75698241Y-62478600D01*
X75738241Y-54614600D02*
X75738241Y-62428600D01*
X75778241Y-54665600D02*
X75778241Y-62377600D01*
X75818241Y-54717600D02*
X75818241Y-62325600D01*
X75858241Y-54771600D02*
X75858241Y-62271600D01*
X75898241Y-54825600D02*
X75898241Y-62217600D01*
X75938241Y-54881600D02*
X75938241Y-62161600D01*
X75978241Y-54938600D02*
X75978241Y-62104600D01*
X76018241Y-54997600D02*
X76018241Y-62045600D01*
X76058241Y-55057600D02*
X76058241Y-61985600D01*
X76098241Y-55119600D02*
X76098241Y-61923600D01*
X76138241Y-55182600D02*
X76138241Y-61860600D01*
X76178241Y-55246600D02*
X76178241Y-61796600D01*
X76218241Y-55313600D02*
X76218241Y-61729600D01*
X76258241Y-55381600D02*
X76258241Y-61661600D01*
X76298241Y-55452600D02*
X76298241Y-61590600D01*
X76338241Y-55525600D02*
X76338241Y-61517600D01*
X76378241Y-55600600D02*
X76378241Y-61442600D01*
X76418241Y-55677600D02*
X76418241Y-61365600D01*
X76458241Y-55757600D02*
X76458241Y-61285600D01*
X76498241Y-55840600D02*
X76498241Y-61202600D01*
X76538241Y-55927600D02*
X76538241Y-61115600D01*
X76578241Y-56017600D02*
X76578241Y-61025600D01*
X76618241Y-56111600D02*
X76618241Y-60931600D01*
X76658241Y-56209600D02*
X76658241Y-60833600D01*
X76698241Y-56312600D02*
X76698241Y-60730600D01*
X76738241Y-56421600D02*
X76738241Y-60621600D01*
X76778241Y-56537600D02*
X76778241Y-60505600D01*
X76818241Y-56660600D02*
X76818241Y-60382600D01*
X76858241Y-56793600D02*
X76858241Y-60249600D01*
X76898241Y-56938600D02*
X76898241Y-60104600D01*
X76938241Y-57099600D02*
X76938241Y-59943600D01*
X76978241Y-57280600D02*
X76978241Y-59762600D01*
X77018241Y-57493600D02*
X77018241Y-59549600D01*
X77058241Y-57764600D02*
X77058241Y-59278600D01*
X77098241Y-58204600D02*
X77098241Y-58838600D01*
X77107241Y-58521600D02*
G75*
G02*
X64367241Y-58521600I-6370000J0D01*
G01*
X64367241Y-58521600D02*
G75*
G02*
X77107241Y-58521600I6370000J0D01*
G01*
%TO.C,R4*%
X81103736Y-54027400D02*
X81557864Y-54027400D01*
X81103736Y-55497400D02*
X81557864Y-55497400D01*
%TO.C,J8*%
X113330000Y-53981600D02*
X113330000Y-57981600D01*
X113620000Y-52951600D02*
X113620000Y-58971600D01*
X113620000Y-58971600D02*
X118920000Y-58971600D01*
X114200000Y-52951600D02*
X114200000Y-53551600D01*
X114200000Y-53551600D02*
X115800000Y-53551600D01*
X115000000Y-57971600D02*
X115250000Y-57441600D01*
X115000000Y-57971600D02*
X117540000Y-57971600D01*
X115000000Y-58971600D02*
X115000000Y-57971600D01*
X115250000Y-57441600D02*
X117290000Y-57441600D01*
X115250000Y-58971600D02*
X115250000Y-57971600D01*
X115800000Y-53551600D02*
X115800000Y-52951600D01*
X116740000Y-52951600D02*
X116740000Y-53551600D01*
X116740000Y-53551600D02*
X118340000Y-53551600D01*
X117290000Y-57441600D02*
X117540000Y-57971600D01*
X117290000Y-58971600D02*
X117290000Y-57971600D01*
X117540000Y-57971600D02*
X117540000Y-58971600D01*
X118340000Y-53551600D02*
X118340000Y-52951600D01*
X118920000Y-52951600D02*
X113620000Y-52951600D01*
X118920000Y-58971600D02*
X118920000Y-52951600D01*
%TO.C,U4*%
X47198500Y-101062800D02*
X47198500Y-102012800D01*
X47198500Y-111462800D02*
X47198500Y-110512800D01*
X48563500Y-101062800D02*
X47198500Y-101062800D01*
X48563500Y-111462800D02*
X47198500Y-111462800D01*
X44373500Y-102052800D02*
X44033500Y-101582800D01*
X44713500Y-101582800D01*
X44373500Y-102052800D01*
G36*
X44373500Y-102052800D02*
G01*
X44033500Y-101582800D01*
X44713500Y-101582800D01*
X44373500Y-102052800D01*
G37*
%TO.C,C7*%
X94250748Y-72609400D02*
X94773252Y-72609400D01*
X94250748Y-74079400D02*
X94773252Y-74079400D01*
%TO.C,D1*%
X61837436Y-91997786D02*
G75*
G02*
X61895516Y-88722400I-2096636J1675386D01*
G01*
%TO.C,J4*%
X85502800Y-53524400D02*
X85502800Y-57524400D01*
X85792800Y-52494400D02*
X85792800Y-58514400D01*
X85792800Y-58514400D02*
X91092800Y-58514400D01*
X86372800Y-52494400D02*
X86372800Y-53094400D01*
X86372800Y-53094400D02*
X87972800Y-53094400D01*
X87172800Y-57514400D02*
X87422800Y-56984400D01*
X87172800Y-57514400D02*
X89712800Y-57514400D01*
X87172800Y-58514400D02*
X87172800Y-57514400D01*
X87422800Y-56984400D02*
X89462800Y-56984400D01*
X87422800Y-58514400D02*
X87422800Y-57514400D01*
X87972800Y-53094400D02*
X87972800Y-52494400D01*
X88912800Y-52494400D02*
X88912800Y-53094400D01*
X88912800Y-53094400D02*
X90512800Y-53094400D01*
X89462800Y-56984400D02*
X89712800Y-57514400D01*
X89462800Y-58514400D02*
X89462800Y-57514400D01*
X89712800Y-57514400D02*
X89712800Y-58514400D01*
X90512800Y-53094400D02*
X90512800Y-52494400D01*
X91092800Y-52494400D02*
X85792800Y-52494400D01*
X91092800Y-58514400D02*
X91092800Y-52494400D01*
%TO.C,J2*%
X71253100Y-104415200D02*
X71253100Y-108415200D01*
X71543100Y-103385200D02*
X71543100Y-109405200D01*
X71543100Y-109405200D02*
X76843100Y-109405200D01*
X72123100Y-103385200D02*
X72123100Y-103985200D01*
X72123100Y-103985200D02*
X73723100Y-103985200D01*
X72923100Y-108405200D02*
X73173100Y-107875200D01*
X72923100Y-108405200D02*
X75463100Y-108405200D01*
X72923100Y-109405200D02*
X72923100Y-108405200D01*
X73173100Y-107875200D02*
X75213100Y-107875200D01*
X73173100Y-109405200D02*
X73173100Y-108405200D01*
X73723100Y-103985200D02*
X73723100Y-103385200D01*
X74663100Y-103385200D02*
X74663100Y-103985200D01*
X74663100Y-103985200D02*
X76263100Y-103985200D01*
X75213100Y-107875200D02*
X75463100Y-108405200D01*
X75213100Y-109405200D02*
X75213100Y-108405200D01*
X75463100Y-108405200D02*
X75463100Y-109405200D01*
X76263100Y-103985200D02*
X76263100Y-103385200D01*
X76843100Y-103385200D02*
X71543100Y-103385200D01*
X76843100Y-109405200D02*
X76843100Y-103385200D01*
%TD*%
M02*
