%TF.GenerationSoftware,KiCad,Pcbnew,8.0.8*%
%TF.CreationDate,2025-03-12T15:52:42-05:00*%
%TF.ProjectId,group1_battlebot,67726f75-7031-45f6-9261-74746c65626f,rev?*%
%TF.SameCoordinates,Original*%
%TF.FileFunction,Paste,Top*%
%TF.FilePolarity,Positive*%
%FSLAX46Y46*%
G04 Gerber Fmt 4.6, Leading zero omitted, Abs format (unit mm)*
G04 Created by KiCad (PCBNEW 8.0.8) date 2025-03-12 15:52:42*
%MOMM*%
%LPD*%
G01*
G04 APERTURE LIST*
G04 Aperture macros list*
%AMRoundRect*
0 Rectangle with rounded corners*
0 $1 Rounding radius*
0 $2 $3 $4 $5 $6 $7 $8 $9 X,Y pos of 4 corners*
0 Add a 4 corners polygon primitive as box body*
4,1,4,$2,$3,$4,$5,$6,$7,$8,$9,$2,$3,0*
0 Add four circle primitives for the rounded corners*
1,1,$1+$1,$2,$3*
1,1,$1+$1,$4,$5*
1,1,$1+$1,$6,$7*
1,1,$1+$1,$8,$9*
0 Add four rect primitives between the rounded corners*
20,1,$1+$1,$2,$3,$4,$5,0*
20,1,$1+$1,$4,$5,$6,$7,0*
20,1,$1+$1,$6,$7,$8,$9,0*
20,1,$1+$1,$8,$9,$2,$3,0*%
G04 Aperture macros list end*
%ADD10RoundRect,0.250000X-0.337500X-0.475000X0.337500X-0.475000X0.337500X0.475000X-0.337500X0.475000X0*%
%ADD11R,0.900000X1.500000*%
%ADD12R,1.500000X0.900000*%
%ADD13R,0.900000X0.900000*%
%ADD14RoundRect,0.250000X0.337500X0.475000X-0.337500X0.475000X-0.337500X-0.475000X0.337500X-0.475000X0*%
%ADD15RoundRect,0.220000X-0.220000X-0.220000X0.220000X-0.220000X0.220000X0.220000X-0.220000X0.220000X0*%
%ADD16RoundRect,0.087500X-0.425000X-0.087500X0.425000X-0.087500X0.425000X0.087500X-0.425000X0.087500X0*%
%ADD17RoundRect,0.087500X-0.087500X-0.425000X0.087500X-0.425000X0.087500X0.425000X-0.087500X0.425000X0*%
%ADD18RoundRect,0.237500X0.287500X0.237500X-0.287500X0.237500X-0.287500X-0.237500X0.287500X-0.237500X0*%
%ADD19RoundRect,0.250000X-0.350000X-0.450000X0.350000X-0.450000X0.350000X0.450000X-0.350000X0.450000X0*%
%ADD20RoundRect,0.250000X0.350000X0.450000X-0.350000X0.450000X-0.350000X-0.450000X0.350000X-0.450000X0*%
%ADD21RoundRect,0.237500X-0.300000X-0.237500X0.300000X-0.237500X0.300000X0.237500X-0.300000X0.237500X0*%
%ADD22RoundRect,0.237500X-0.287500X-0.237500X0.287500X-0.237500X0.287500X0.237500X-0.287500X0.237500X0*%
%ADD23RoundRect,0.250000X-2.050000X-0.300000X2.050000X-0.300000X2.050000X0.300000X-2.050000X0.300000X0*%
%ADD24RoundRect,0.250000X-2.025000X-2.375000X2.025000X-2.375000X2.025000X2.375000X-2.025000X2.375000X0*%
G04 APERTURE END LIST*
D10*
%TO.C,C6*%
X80166000Y-71312400D03*
X82241000Y-71312400D03*
%TD*%
D11*
%TO.C,U6*%
X124307600Y-81306000D03*
X123037600Y-81306000D03*
X121767600Y-81306000D03*
X120497600Y-81306000D03*
X119227600Y-81306000D03*
X117957600Y-81306000D03*
X116687600Y-81306000D03*
X115417600Y-81306000D03*
X114147600Y-81306000D03*
X112877600Y-81306000D03*
X111607600Y-81306000D03*
X110337600Y-81306000D03*
X109067600Y-81306000D03*
X107797600Y-81306000D03*
D12*
X106547600Y-84346000D03*
X106547600Y-85616000D03*
X106547600Y-86886000D03*
X106547600Y-88156000D03*
X106547600Y-89426000D03*
X106547600Y-90696000D03*
X106547600Y-91966000D03*
X106547600Y-93236000D03*
X106547600Y-94506000D03*
X106547600Y-95776000D03*
D11*
X107797600Y-98806000D03*
X109067600Y-98806000D03*
X110337600Y-98806000D03*
X111607600Y-98806000D03*
X112877600Y-98806000D03*
X114147600Y-98806000D03*
X115417600Y-98806000D03*
X116687600Y-98806000D03*
X117957600Y-98806000D03*
X119227600Y-98806000D03*
X120497600Y-98806000D03*
X121767600Y-98806000D03*
X123037600Y-98806000D03*
X124307600Y-98806000D03*
D13*
X117987600Y-87156000D03*
X116587600Y-87156000D03*
X115187600Y-87156000D03*
X117987600Y-88556000D03*
X116587600Y-88556000D03*
X115187600Y-88556000D03*
X117987600Y-89956000D03*
X116587600Y-89956000D03*
X115187600Y-89956000D03*
%TD*%
D14*
%TO.C,C4*%
X93239500Y-85039200D03*
X91164500Y-85039200D03*
%TD*%
D15*
%TO.C,U3*%
X82321200Y-89827600D03*
X82321200Y-90877600D03*
X83371200Y-89827600D03*
X83371200Y-90877600D03*
D16*
X80983700Y-89377600D03*
X80983700Y-90027600D03*
X80983700Y-90677600D03*
X80983700Y-91327600D03*
D17*
X81871200Y-92215100D03*
X82521200Y-92215100D03*
X83171200Y-92215100D03*
X83821200Y-92215100D03*
D16*
X84708700Y-91327600D03*
X84708700Y-90677600D03*
X84708700Y-90027600D03*
X84708700Y-89377600D03*
D17*
X83821200Y-88490100D03*
X83171200Y-88490100D03*
X82521200Y-88490100D03*
X81871200Y-88490100D03*
%TD*%
D18*
%TO.C,L3*%
X94206000Y-101193600D03*
X92456000Y-101193600D03*
%TD*%
D19*
%TO.C,R5*%
X100000000Y-115000000D03*
X102000000Y-115000000D03*
%TD*%
D20*
%TO.C,R7*%
X89519000Y-78409800D03*
X87519000Y-78409800D03*
%TD*%
D19*
%TO.C,R3*%
X79010000Y-101168200D03*
X81010000Y-101168200D03*
%TD*%
D21*
%TO.C,C5*%
X99417800Y-91389200D03*
X101142800Y-91389200D03*
%TD*%
D19*
%TO.C,R2*%
X78552800Y-77114400D03*
X80552800Y-77114400D03*
%TD*%
%TO.C,R6*%
X120564400Y-66852800D03*
X122564400Y-66852800D03*
%TD*%
D22*
%TO.C,L1*%
X64668400Y-78638400D03*
X66418400Y-78638400D03*
%TD*%
D10*
%TO.C,C9*%
X121060300Y-73482200D03*
X123135300Y-73482200D03*
%TD*%
%TO.C,C3*%
X95076100Y-80314800D03*
X97151100Y-80314800D03*
%TD*%
D22*
%TO.C,L2*%
X67131900Y-100654800D03*
X68881900Y-100654800D03*
%TD*%
D10*
%TO.C,C8*%
X101276200Y-68112000D03*
X103351200Y-68112000D03*
%TD*%
D19*
%TO.C,R4*%
X80330800Y-54762400D03*
X82330800Y-54762400D03*
%TD*%
D23*
%TO.C,U4*%
X44373500Y-102862800D03*
X44373500Y-104562800D03*
X44373500Y-106262800D03*
D24*
X51098500Y-103487800D03*
X51098500Y-109037800D03*
X55948500Y-103487800D03*
X55948500Y-109037800D03*
D23*
X44373500Y-107962800D03*
X44373500Y-109662800D03*
%TD*%
D10*
%TO.C,C7*%
X93474500Y-73344400D03*
X95549500Y-73344400D03*
%TD*%
M02*
