M48
; DRILL file {KiCad 8.0.8} date 2025-03-12T15:52:34-0500
; FORMAT={-:-/ absolute / inch / decimal}
; #@! TF.CreationDate,2025-03-12T15:52:34-05:00
; #@! TF.GenerationSoftware,Kicad,Pcbnew,8.0.8
; #@! TF.FileFunction,Plated,1,2,PTH
FMAT,2
INCH
; #@! TA.AperFunction,Plated,PTH,ViaDrill
T1C0.0118
; #@! TA.AperFunction,Plated,PTH,ComponentDrill
T2C0.0119
; #@! TA.AperFunction,Plated,PTH,ComponentDrill
T3C0.0394
; #@! TA.AperFunction,Plated,PTH,ComponentDrill
T4C0.0433
; #@! TA.AperFunction,Plated,PTH,ComponentDrill
T5C0.0469
; #@! TA.AperFunction,Plated,PTH,ComponentDrill
T6C0.0472
; #@! TA.AperFunction,Plated,PTH,ComponentDrill
T7C0.0630
%
G90
G05
T1
X2.5591Y-4.3307
X3.296Y-3.144
X3.3465Y-3.937
X3.436Y-3.85
X3.586Y-3.566
X3.937Y-3.937
X4.1339Y-2.7559
X4.5276Y-4.1339
T2
X3.2302Y-3.5257
X3.2302Y-3.5572
X3.2302Y-3.5887
X3.2617Y-3.5257
X3.2617Y-3.5572
X3.2617Y-3.5887
X3.2932Y-3.5257
X3.2932Y-3.5572
X3.2932Y-3.5887
X4.5349Y-3.4589
X4.5349Y-3.514
X4.5625Y-3.4313
X4.5625Y-3.4855
X4.5625Y-3.5416
X4.5901Y-3.4589
X4.5901Y-3.514
X4.6176Y-3.4313
X4.6176Y-3.4855
X4.6176Y-3.5416
X4.6452Y-3.4589
X4.6452Y-3.514
T3
X1.8158Y-3.4376
X2.0126Y-3.4376
T4
X1.8666Y-3.0592
X2.0666Y-3.0592
X2.2666Y-3.0592
T5
X2.24Y-2.244
X2.34Y-2.244
X2.871Y-4.1896
X2.971Y-4.1896
X3.313Y-4.1876
X3.413Y-4.1876
X3.432Y-2.186
X3.532Y-2.186
X3.6402Y-4.3307
X3.7402Y-4.3307
X4.0142Y-4.1339
X4.038Y-2.3622
X4.1142Y-4.1339
X4.138Y-2.3622
X4.5276Y-2.204
X4.6244Y-4.3307
X4.6276Y-2.204
X4.7244Y-4.3307
T6
X2.6865Y-2.304
X2.8834Y-2.304
T7
X2.352Y-3.556
X2.502Y-3.556
M30
