%TF.GenerationSoftware,KiCad,Pcbnew,8.0.8*%
%TF.CreationDate,2025-03-31T15:18:46-05:00*%
%TF.ProjectId,group1_battlebot,67726f75-7031-45f6-9261-74746c65626f,rev?*%
%TF.SameCoordinates,Original*%
%TF.FileFunction,Soldermask,Top*%
%TF.FilePolarity,Negative*%
%FSLAX46Y46*%
G04 Gerber Fmt 4.6, Leading zero omitted, Abs format (unit mm)*
G04 Created by KiCad (PCBNEW 8.0.8) date 2025-03-31 15:18:46*
%MOMM*%
%LPD*%
G01*
G04 APERTURE LIST*
G04 Aperture macros list*
%AMRoundRect*
0 Rectangle with rounded corners*
0 $1 Rounding radius*
0 $2 $3 $4 $5 $6 $7 $8 $9 X,Y pos of 4 corners*
0 Add a 4 corners polygon primitive as box body*
4,1,4,$2,$3,$4,$5,$6,$7,$8,$9,$2,$3,0*
0 Add four circle primitives for the rounded corners*
1,1,$1+$1,$2,$3*
1,1,$1+$1,$4,$5*
1,1,$1+$1,$6,$7*
1,1,$1+$1,$8,$9*
0 Add four rect primitives between the rounded corners*
20,1,$1+$1,$2,$3,$4,$5,0*
20,1,$1+$1,$4,$5,$6,$7,0*
20,1,$1+$1,$6,$7,$8,$9,0*
20,1,$1+$1,$8,$9,$2,$3,0*%
G04 Aperture macros list end*
%ADD10RoundRect,0.250000X-0.620000X-0.845000X0.620000X-0.845000X0.620000X0.845000X-0.620000X0.845000X0*%
%ADD11O,1.740000X2.190000*%
%ADD12R,2.000000X2.000000*%
%ADD13C,2.000000*%
%ADD14R,2.400000X2.400000*%
%ADD15C,2.400000*%
%ADD16RoundRect,0.250000X-0.350000X-0.450000X0.350000X-0.450000X0.350000X0.450000X-0.350000X0.450000X0*%
%ADD17RoundRect,0.237500X0.287500X0.237500X-0.287500X0.237500X-0.287500X-0.237500X0.287500X-0.237500X0*%
%ADD18RoundRect,0.250000X-0.337500X-0.475000X0.337500X-0.475000X0.337500X0.475000X-0.337500X0.475000X0*%
%ADD19RoundRect,0.250000X-2.050000X-0.300000X2.050000X-0.300000X2.050000X0.300000X-2.050000X0.300000X0*%
%ADD20RoundRect,0.250002X-4.449998X-5.149998X4.449998X-5.149998X4.449998X5.149998X-4.449998X5.149998X0*%
%ADD21RoundRect,0.250000X0.845000X-0.620000X0.845000X0.620000X-0.845000X0.620000X-0.845000X-0.620000X0*%
%ADD22O,2.190000X1.740000*%
%ADD23R,0.900000X1.500000*%
%ADD24R,1.500000X0.900000*%
%ADD25C,0.600000*%
%ADD26R,3.800000X3.800000*%
%ADD27C,3.200000*%
%ADD28RoundRect,0.237500X-0.287500X-0.237500X0.287500X-0.237500X0.287500X0.237500X-0.287500X0.237500X0*%
%ADD29RoundRect,0.237500X0.300000X0.237500X-0.300000X0.237500X-0.300000X-0.237500X0.300000X-0.237500X0*%
%ADD30R,1.905000X2.000000*%
%ADD31O,1.905000X2.000000*%
%ADD32RoundRect,0.250000X0.620000X0.845000X-0.620000X0.845000X-0.620000X-0.845000X0.620000X-0.845000X0*%
%ADD33R,3.200000X3.200000*%
%ADD34O,3.200000X3.200000*%
%ADD35RoundRect,0.087500X0.425000X0.087500X-0.425000X0.087500X-0.425000X-0.087500X0.425000X-0.087500X0*%
%ADD36RoundRect,0.087500X0.087500X0.425000X-0.087500X0.425000X-0.087500X-0.425000X0.087500X-0.425000X0*%
%ADD37R,2.100000X2.100000*%
G04 APERTURE END LIST*
D10*
%TO.C,J7*%
X90424000Y-49809400D03*
D11*
X92964000Y-49809400D03*
%TD*%
D12*
%TO.C,C1*%
X40228123Y-83261200D03*
D13*
X45228123Y-83261200D03*
%TD*%
D14*
%TO.C,C2*%
X59144041Y-54254400D03*
D15*
X64144041Y-54254400D03*
%TD*%
D16*
%TO.C,R3*%
X73091800Y-80873600D03*
X75091800Y-80873600D03*
%TD*%
D17*
%TO.C,L3*%
X74549000Y-95148400D03*
X72799000Y-95148400D03*
%TD*%
D10*
%TO.C,J9*%
X80949800Y-83662200D03*
D11*
X83489800Y-83662200D03*
%TD*%
D18*
%TO.C,C3*%
X67466300Y-67106800D03*
X69541300Y-67106800D03*
%TD*%
%TO.C,C8*%
X81999000Y-58064400D03*
X84074000Y-58064400D03*
%TD*%
D16*
%TO.C,R7*%
X62109600Y-68986400D03*
X64109600Y-68986400D03*
%TD*%
D19*
%TO.C,U4*%
X40326000Y-96320400D03*
X40326000Y-98020400D03*
X40326000Y-99720400D03*
D20*
X49476000Y-99720400D03*
D19*
X40326000Y-101420400D03*
X40326000Y-103120400D03*
%TD*%
D18*
%TO.C,C4*%
X62669600Y-91490800D03*
X64744600Y-91490800D03*
%TD*%
D21*
%TO.C,J5*%
X79395000Y-103530400D03*
D22*
X79395000Y-100990400D03*
%TD*%
D18*
%TO.C,C6*%
X74607600Y-66243200D03*
X76682600Y-66243200D03*
%TD*%
D10*
%TO.C,J10*%
X80949800Y-93218000D03*
D11*
X83489800Y-93218000D03*
X86029800Y-93218000D03*
%TD*%
D10*
%TO.C,J8*%
X111658400Y-50190400D03*
D11*
X114198400Y-50190400D03*
%TD*%
D12*
%TO.C,SW1*%
X52832000Y-72923400D03*
D13*
X47752000Y-72923400D03*
X42672000Y-72923400D03*
%TD*%
D10*
%TO.C,J1*%
X50393600Y-52882800D03*
D11*
X52933600Y-52882800D03*
%TD*%
D23*
%TO.C,U6*%
X105156000Y-70523400D03*
X103886000Y-70523400D03*
X102616000Y-70523400D03*
X101346000Y-70523400D03*
X100076000Y-70523400D03*
X98806000Y-70523400D03*
X97536000Y-70523400D03*
X96266000Y-70523400D03*
X94996000Y-70523400D03*
X93726000Y-70523400D03*
X92456000Y-70523400D03*
X91186000Y-70523400D03*
X89916000Y-70523400D03*
X88646000Y-70523400D03*
D24*
X87396000Y-73563400D03*
X87396000Y-74833400D03*
X87396000Y-76103400D03*
X87396000Y-77373400D03*
X87396000Y-78643400D03*
X87396000Y-79913400D03*
X87396000Y-81183400D03*
X87396000Y-82453400D03*
X87396000Y-83723400D03*
X87396000Y-84993400D03*
D23*
X88646000Y-88023400D03*
X89916000Y-88023400D03*
X91186000Y-88023400D03*
X92456000Y-88023400D03*
X93726000Y-88023400D03*
X94996000Y-88023400D03*
X96266000Y-88023400D03*
X97536000Y-88023400D03*
X98806000Y-88023400D03*
X100076000Y-88023400D03*
X101346000Y-88023400D03*
X102616000Y-88023400D03*
X103886000Y-88023400D03*
X105156000Y-88023400D03*
D25*
X98136000Y-76373400D03*
X96736000Y-76373400D03*
X98836000Y-77073400D03*
X97436000Y-77073400D03*
X96036000Y-77073400D03*
X98136000Y-77748400D03*
X96736000Y-77748400D03*
D26*
X97436000Y-77773400D03*
D25*
X98836000Y-78473400D03*
X97436000Y-78473400D03*
X96036000Y-78473400D03*
X98136000Y-79173400D03*
X96736000Y-79173400D03*
%TD*%
D27*
%TO.C,H4*%
X123825000Y-108991400D03*
%TD*%
D28*
%TO.C,L2*%
X63045400Y-97383600D03*
X64795400Y-97383600D03*
%TD*%
D10*
%TO.C,J2*%
X58902600Y-102534400D03*
D11*
X61442600Y-102534400D03*
%TD*%
D16*
%TO.C,R6*%
X101108000Y-60350400D03*
X103108000Y-60350400D03*
%TD*%
%TO.C,R5*%
X86487000Y-102641400D03*
X88487000Y-102641400D03*
%TD*%
D27*
%TO.C,H1*%
X34671000Y-45110400D03*
%TD*%
D29*
%TO.C,C5*%
X67410500Y-73660000D03*
X65685500Y-73660000D03*
%TD*%
D27*
%TO.C,H3*%
X34671000Y-108991400D03*
%TD*%
D30*
%TO.C,Q1*%
X99364800Y-50901600D03*
D31*
X101904800Y-50901600D03*
X104444800Y-50901600D03*
%TD*%
D27*
%TO.C,H2*%
X123825000Y-45364400D03*
%TD*%
D28*
%TO.C,L1*%
X59170600Y-73964800D03*
X60920600Y-73964800D03*
%TD*%
D32*
%TO.C,J6*%
X98806000Y-98938400D03*
D11*
X96266000Y-98938400D03*
%TD*%
D18*
%TO.C,C9*%
X102213500Y-63652400D03*
X104288500Y-63652400D03*
%TD*%
D21*
%TO.C,J3*%
X69469000Y-103784400D03*
D22*
X69469000Y-101244400D03*
%TD*%
D33*
%TO.C,D1*%
X50800000Y-86664800D03*
D34*
X54610000Y-86664800D03*
%TD*%
D16*
%TO.C,R4*%
X71644000Y-51841400D03*
X73644000Y-51841400D03*
%TD*%
D10*
%TO.C,J4*%
X79756000Y-50190400D03*
D11*
X82296000Y-50190400D03*
%TD*%
D16*
%TO.C,R2*%
X67062600Y-94538800D03*
X69062600Y-94538800D03*
%TD*%
D35*
%TO.C,U3*%
X68829500Y-86560200D03*
X68829500Y-85910200D03*
X68829500Y-85260200D03*
X68829500Y-84610200D03*
D36*
X67942000Y-83722700D03*
X67292000Y-83722700D03*
X66642000Y-83722700D03*
X65992000Y-83722700D03*
D35*
X65104500Y-84610200D03*
X65104500Y-85260200D03*
X65104500Y-85910200D03*
X65104500Y-86560200D03*
D36*
X65992000Y-87447700D03*
X66642000Y-87447700D03*
X67292000Y-87447700D03*
X67942000Y-87447700D03*
D37*
X66967000Y-85585200D03*
%TD*%
D18*
%TO.C,C7*%
X60252700Y-63398400D03*
X62327700Y-63398400D03*
%TD*%
M02*
