%TF.GenerationSoftware,KiCad,Pcbnew,8.0.8*%
%TF.CreationDate,2025-03-31T15:18:45-05:00*%
%TF.ProjectId,group1_battlebot,67726f75-7031-45f6-9261-74746c65626f,rev?*%
%TF.SameCoordinates,Original*%
%TF.FileFunction,Copper,L1,Top*%
%TF.FilePolarity,Positive*%
%FSLAX46Y46*%
G04 Gerber Fmt 4.6, Leading zero omitted, Abs format (unit mm)*
G04 Created by KiCad (PCBNEW 8.0.8) date 2025-03-31 15:18:45*
%MOMM*%
%LPD*%
G01*
G04 APERTURE LIST*
G04 Aperture macros list*
%AMRoundRect*
0 Rectangle with rounded corners*
0 $1 Rounding radius*
0 $2 $3 $4 $5 $6 $7 $8 $9 X,Y pos of 4 corners*
0 Add a 4 corners polygon primitive as box body*
4,1,4,$2,$3,$4,$5,$6,$7,$8,$9,$2,$3,0*
0 Add four circle primitives for the rounded corners*
1,1,$1+$1,$2,$3*
1,1,$1+$1,$4,$5*
1,1,$1+$1,$6,$7*
1,1,$1+$1,$8,$9*
0 Add four rect primitives between the rounded corners*
20,1,$1+$1,$2,$3,$4,$5,0*
20,1,$1+$1,$4,$5,$6,$7,0*
20,1,$1+$1,$6,$7,$8,$9,0*
20,1,$1+$1,$8,$9,$2,$3,0*%
G04 Aperture macros list end*
%ADD10C,0.300000*%
%TA.AperFunction,NonConductor*%
%ADD11C,0.300000*%
%TD*%
%TA.AperFunction,NonConductor*%
%ADD12C,0.200000*%
%TD*%
%TA.AperFunction,ComponentPad*%
%ADD13RoundRect,0.250000X-0.620000X-0.845000X0.620000X-0.845000X0.620000X0.845000X-0.620000X0.845000X0*%
%TD*%
%TA.AperFunction,ComponentPad*%
%ADD14O,1.740000X2.190000*%
%TD*%
%TA.AperFunction,ComponentPad*%
%ADD15R,2.000000X2.000000*%
%TD*%
%TA.AperFunction,ComponentPad*%
%ADD16C,2.000000*%
%TD*%
%TA.AperFunction,ComponentPad*%
%ADD17R,2.400000X2.400000*%
%TD*%
%TA.AperFunction,ComponentPad*%
%ADD18C,2.400000*%
%TD*%
%TA.AperFunction,SMDPad,CuDef*%
%ADD19RoundRect,0.250000X-0.350000X-0.450000X0.350000X-0.450000X0.350000X0.450000X-0.350000X0.450000X0*%
%TD*%
%TA.AperFunction,SMDPad,CuDef*%
%ADD20RoundRect,0.237500X0.287500X0.237500X-0.287500X0.237500X-0.287500X-0.237500X0.287500X-0.237500X0*%
%TD*%
%TA.AperFunction,SMDPad,CuDef*%
%ADD21RoundRect,0.250000X-0.337500X-0.475000X0.337500X-0.475000X0.337500X0.475000X-0.337500X0.475000X0*%
%TD*%
%TA.AperFunction,SMDPad,CuDef*%
%ADD22RoundRect,0.250000X-2.050000X-0.300000X2.050000X-0.300000X2.050000X0.300000X-2.050000X0.300000X0*%
%TD*%
%TA.AperFunction,SMDPad,CuDef*%
%ADD23RoundRect,0.250000X-2.025000X-2.375000X2.025000X-2.375000X2.025000X2.375000X-2.025000X2.375000X0*%
%TD*%
%TA.AperFunction,SMDPad,CuDef*%
%ADD24RoundRect,0.250002X-4.449998X-5.149998X4.449998X-5.149998X4.449998X5.149998X-4.449998X5.149998X0*%
%TD*%
%TA.AperFunction,ComponentPad*%
%ADD25RoundRect,0.250000X0.845000X-0.620000X0.845000X0.620000X-0.845000X0.620000X-0.845000X-0.620000X0*%
%TD*%
%TA.AperFunction,ComponentPad*%
%ADD26O,2.190000X1.740000*%
%TD*%
%TA.AperFunction,SMDPad,CuDef*%
%ADD27R,0.900000X1.500000*%
%TD*%
%TA.AperFunction,SMDPad,CuDef*%
%ADD28R,1.500000X0.900000*%
%TD*%
%TA.AperFunction,SMDPad,CuDef*%
%ADD29R,0.900000X0.900000*%
%TD*%
%TA.AperFunction,HeatsinkPad*%
%ADD30C,0.600000*%
%TD*%
%TA.AperFunction,HeatsinkPad*%
%ADD31R,3.800000X3.800000*%
%TD*%
%TA.AperFunction,SMDPad,CuDef*%
%ADD32RoundRect,0.237500X-0.287500X-0.237500X0.287500X-0.237500X0.287500X0.237500X-0.287500X0.237500X0*%
%TD*%
%TA.AperFunction,SMDPad,CuDef*%
%ADD33RoundRect,0.237500X0.300000X0.237500X-0.300000X0.237500X-0.300000X-0.237500X0.300000X-0.237500X0*%
%TD*%
%TA.AperFunction,ComponentPad*%
%ADD34R,1.905000X2.000000*%
%TD*%
%TA.AperFunction,ComponentPad*%
%ADD35O,1.905000X2.000000*%
%TD*%
%TA.AperFunction,ComponentPad*%
%ADD36RoundRect,0.250000X0.620000X0.845000X-0.620000X0.845000X-0.620000X-0.845000X0.620000X-0.845000X0*%
%TD*%
%TA.AperFunction,ComponentPad*%
%ADD37R,3.200000X3.200000*%
%TD*%
%TA.AperFunction,ComponentPad*%
%ADD38O,3.200000X3.200000*%
%TD*%
%TA.AperFunction,SMDPad,CuDef*%
%ADD39RoundRect,0.087500X0.425000X0.087500X-0.425000X0.087500X-0.425000X-0.087500X0.425000X-0.087500X0*%
%TD*%
%TA.AperFunction,SMDPad,CuDef*%
%ADD40RoundRect,0.087500X0.087500X0.425000X-0.087500X0.425000X-0.087500X-0.425000X0.087500X-0.425000X0*%
%TD*%
%TA.AperFunction,HeatsinkPad*%
%ADD41C,0.500000*%
%TD*%
%TA.AperFunction,HeatsinkPad*%
%ADD42R,2.100000X2.100000*%
%TD*%
%TA.AperFunction,ViaPad*%
%ADD43C,0.600000*%
%TD*%
%TA.AperFunction,Conductor*%
%ADD44C,0.508000*%
%TD*%
%TA.AperFunction,Conductor*%
%ADD45C,0.254000*%
%TD*%
%TA.AperFunction,Conductor*%
%ADD46C,0.200000*%
%TD*%
G04 APERTURE END LIST*
D10*
D11*
X132506328Y-84241398D02*
X132506328Y-83241398D01*
X132506328Y-83241398D02*
X134006328Y-83884255D01*
X132506328Y-82812827D02*
X132506328Y-81884255D01*
X132506328Y-81884255D02*
X133077757Y-82384255D01*
X133077757Y-82384255D02*
X133077757Y-82169970D01*
X133077757Y-82169970D02*
X133149185Y-82027113D01*
X133149185Y-82027113D02*
X133220614Y-81955684D01*
X133220614Y-81955684D02*
X133363471Y-81884255D01*
X133363471Y-81884255D02*
X133720614Y-81884255D01*
X133720614Y-81884255D02*
X133863471Y-81955684D01*
X133863471Y-81955684D02*
X133934900Y-82027113D01*
X133934900Y-82027113D02*
X134006328Y-82169970D01*
X134006328Y-82169970D02*
X134006328Y-82598541D01*
X134006328Y-82598541D02*
X133934900Y-82741398D01*
X133934900Y-82741398D02*
X133863471Y-82812827D01*
X133863471Y-81241399D02*
X133934900Y-81169970D01*
X133934900Y-81169970D02*
X134006328Y-81241399D01*
X134006328Y-81241399D02*
X133934900Y-81312827D01*
X133934900Y-81312827D02*
X133863471Y-81241399D01*
X133863471Y-81241399D02*
X134006328Y-81241399D01*
X133006328Y-79884256D02*
X134006328Y-79884256D01*
X132434900Y-80241398D02*
X133506328Y-80598541D01*
X133506328Y-80598541D02*
X133506328Y-79669970D01*
X132506328Y-78812827D02*
X132506328Y-78669970D01*
X132506328Y-78669970D02*
X132577757Y-78527113D01*
X132577757Y-78527113D02*
X132649185Y-78455685D01*
X132649185Y-78455685D02*
X132792042Y-78384256D01*
X132792042Y-78384256D02*
X133077757Y-78312827D01*
X133077757Y-78312827D02*
X133434900Y-78312827D01*
X133434900Y-78312827D02*
X133720614Y-78384256D01*
X133720614Y-78384256D02*
X133863471Y-78455685D01*
X133863471Y-78455685D02*
X133934900Y-78527113D01*
X133934900Y-78527113D02*
X134006328Y-78669970D01*
X134006328Y-78669970D02*
X134006328Y-78812827D01*
X134006328Y-78812827D02*
X133934900Y-78955685D01*
X133934900Y-78955685D02*
X133863471Y-79027113D01*
X133863471Y-79027113D02*
X133720614Y-79098542D01*
X133720614Y-79098542D02*
X133434900Y-79169970D01*
X133434900Y-79169970D02*
X133077757Y-79169970D01*
X133077757Y-79169970D02*
X132792042Y-79098542D01*
X132792042Y-79098542D02*
X132649185Y-79027113D01*
X132649185Y-79027113D02*
X132577757Y-78955685D01*
X132577757Y-78955685D02*
X132506328Y-78812827D01*
X132506328Y-77027114D02*
X132506328Y-77312828D01*
X132506328Y-77312828D02*
X132577757Y-77455685D01*
X132577757Y-77455685D02*
X132649185Y-77527114D01*
X132649185Y-77527114D02*
X132863471Y-77669971D01*
X132863471Y-77669971D02*
X133149185Y-77741399D01*
X133149185Y-77741399D02*
X133720614Y-77741399D01*
X133720614Y-77741399D02*
X133863471Y-77669971D01*
X133863471Y-77669971D02*
X133934900Y-77598542D01*
X133934900Y-77598542D02*
X134006328Y-77455685D01*
X134006328Y-77455685D02*
X134006328Y-77169971D01*
X134006328Y-77169971D02*
X133934900Y-77027114D01*
X133934900Y-77027114D02*
X133863471Y-76955685D01*
X133863471Y-76955685D02*
X133720614Y-76884256D01*
X133720614Y-76884256D02*
X133363471Y-76884256D01*
X133363471Y-76884256D02*
X133220614Y-76955685D01*
X133220614Y-76955685D02*
X133149185Y-77027114D01*
X133149185Y-77027114D02*
X133077757Y-77169971D01*
X133077757Y-77169971D02*
X133077757Y-77455685D01*
X133077757Y-77455685D02*
X133149185Y-77598542D01*
X133149185Y-77598542D02*
X133220614Y-77669971D01*
X133220614Y-77669971D02*
X133363471Y-77741399D01*
X132506328Y-75955685D02*
X132506328Y-75812828D01*
X132506328Y-75812828D02*
X132577757Y-75669971D01*
X132577757Y-75669971D02*
X132649185Y-75598543D01*
X132649185Y-75598543D02*
X132792042Y-75527114D01*
X132792042Y-75527114D02*
X133077757Y-75455685D01*
X133077757Y-75455685D02*
X133434900Y-75455685D01*
X133434900Y-75455685D02*
X133720614Y-75527114D01*
X133720614Y-75527114D02*
X133863471Y-75598543D01*
X133863471Y-75598543D02*
X133934900Y-75669971D01*
X133934900Y-75669971D02*
X134006328Y-75812828D01*
X134006328Y-75812828D02*
X134006328Y-75955685D01*
X134006328Y-75955685D02*
X133934900Y-76098543D01*
X133934900Y-76098543D02*
X133863471Y-76169971D01*
X133863471Y-76169971D02*
X133720614Y-76241400D01*
X133720614Y-76241400D02*
X133434900Y-76312828D01*
X133434900Y-76312828D02*
X133077757Y-76312828D01*
X133077757Y-76312828D02*
X132792042Y-76241400D01*
X132792042Y-76241400D02*
X132649185Y-76169971D01*
X132649185Y-76169971D02*
X132577757Y-76098543D01*
X132577757Y-76098543D02*
X132506328Y-75955685D01*
X134006328Y-73669972D02*
X133006328Y-73669972D01*
X133149185Y-73669972D02*
X133077757Y-73598543D01*
X133077757Y-73598543D02*
X133006328Y-73455686D01*
X133006328Y-73455686D02*
X133006328Y-73241400D01*
X133006328Y-73241400D02*
X133077757Y-73098543D01*
X133077757Y-73098543D02*
X133220614Y-73027115D01*
X133220614Y-73027115D02*
X134006328Y-73027115D01*
X133220614Y-73027115D02*
X133077757Y-72955686D01*
X133077757Y-72955686D02*
X133006328Y-72812829D01*
X133006328Y-72812829D02*
X133006328Y-72598543D01*
X133006328Y-72598543D02*
X133077757Y-72455686D01*
X133077757Y-72455686D02*
X133220614Y-72384257D01*
X133220614Y-72384257D02*
X134006328Y-72384257D01*
X134006328Y-71669972D02*
X133006328Y-71669972D01*
X133149185Y-71669972D02*
X133077757Y-71598543D01*
X133077757Y-71598543D02*
X133006328Y-71455686D01*
X133006328Y-71455686D02*
X133006328Y-71241400D01*
X133006328Y-71241400D02*
X133077757Y-71098543D01*
X133077757Y-71098543D02*
X133220614Y-71027115D01*
X133220614Y-71027115D02*
X134006328Y-71027115D01*
X133220614Y-71027115D02*
X133077757Y-70955686D01*
X133077757Y-70955686D02*
X133006328Y-70812829D01*
X133006328Y-70812829D02*
X133006328Y-70598543D01*
X133006328Y-70598543D02*
X133077757Y-70455686D01*
X133077757Y-70455686D02*
X133220614Y-70384257D01*
X133220614Y-70384257D02*
X134006328Y-70384257D01*
D12*
X129786000Y-113944400D02*
X135714420Y-113944400D01*
X129786000Y-40538400D02*
X135714420Y-40538400D01*
X135128000Y-113944400D02*
X135128000Y-40538400D01*
X135128000Y-113944400D02*
X135128000Y-40538400D01*
X135128000Y-113944400D02*
X134541579Y-112817896D01*
X135128000Y-113944400D02*
X135714421Y-112817896D01*
X135128000Y-40538400D02*
X135714421Y-41664904D01*
X135128000Y-40538400D02*
X134541579Y-41664904D01*
D13*
%TO.P,J7,1,Pin_1*%
%TO.N,/3v3 output*%
X90424000Y-49809400D03*
D14*
%TO.P,J7,2,Pin_2*%
%TO.N,GND*%
X92964000Y-49809400D03*
%TD*%
D15*
%TO.P,C1,1*%
%TO.N,/12v_out*%
X40228123Y-83261200D03*
D16*
%TO.P,C1,2*%
%TO.N,GND*%
X45228123Y-83261200D03*
%TD*%
D17*
%TO.P,C2,1*%
%TO.N,/3v3 output*%
X59144041Y-54254400D03*
D18*
%TO.P,C2,2*%
%TO.N,GND*%
X64144041Y-54254400D03*
%TD*%
D19*
%TO.P,R3,1*%
%TO.N,GND*%
X73091800Y-80873600D03*
%TO.P,R3,2*%
%TO.N,Net-(U3-BISEN)*%
X75091800Y-80873600D03*
%TD*%
D20*
%TO.P,L3,1,1*%
%TO.N,Net-(J3-Pin_1)*%
X74549000Y-95148400D03*
%TO.P,L3,2,2*%
%TO.N,Net-(J3-Pin_2)*%
X72799000Y-95148400D03*
%TD*%
D13*
%TO.P,J9,1,Pin_1*%
%TO.N,Net-(J9-Pin_1)*%
X80949800Y-83662200D03*
D14*
%TO.P,J9,2,Pin_2*%
%TO.N,Net-(J9-Pin_2)*%
X83489800Y-83662200D03*
%TD*%
D21*
%TO.P,C3,1*%
%TO.N,GND*%
X67466300Y-67106800D03*
%TO.P,C3,2*%
%TO.N,/12v_out*%
X69541300Y-67106800D03*
%TD*%
%TO.P,C8,1*%
%TO.N,/3v3 output*%
X81999000Y-58064400D03*
%TO.P,C8,2*%
%TO.N,GND*%
X84074000Y-58064400D03*
%TD*%
D19*
%TO.P,R7,1*%
%TO.N,/3v3 output*%
X62109600Y-68986400D03*
%TO.P,R7,2*%
%TO.N,/nSleep*%
X64109600Y-68986400D03*
%TD*%
D22*
%TO.P,U4,1,VIN*%
%TO.N,/12v_out*%
X40326000Y-96320400D03*
%TO.P,U4,2,OUT*%
%TO.N,Net-(D1-K)*%
X40326000Y-98020400D03*
%TO.P,U4,3,GND*%
%TO.N,GND*%
X40326000Y-99720400D03*
D23*
X47051000Y-96945400D03*
X47051000Y-102495400D03*
D24*
X49476000Y-99720400D03*
D23*
X51901000Y-96945400D03*
X51901000Y-102495400D03*
D22*
%TO.P,U4,4,FB*%
%TO.N,/3v3 output*%
X40326000Y-101420400D03*
%TO.P,U4,5,~{ON}/OFF*%
%TO.N,GND*%
X40326000Y-103120400D03*
%TD*%
D21*
%TO.P,C4,1*%
%TO.N,GND*%
X62669600Y-91490800D03*
%TO.P,C4,2*%
%TO.N,Net-(U3-VINT)*%
X64744600Y-91490800D03*
%TD*%
D25*
%TO.P,J5,1,Pin_1*%
%TO.N,Net-(J5-Pin_1)*%
X79395000Y-103530400D03*
D26*
%TO.P,J5,2,Pin_2*%
%TO.N,GND*%
X79395000Y-100990400D03*
%TD*%
D21*
%TO.P,C6,1*%
%TO.N,GND*%
X74607600Y-66243200D03*
%TO.P,C6,2*%
%TO.N,/nSleep*%
X76682600Y-66243200D03*
%TD*%
D13*
%TO.P,J10,1,Pin_1*%
%TO.N,Net-(J10-Pin_1)*%
X80949800Y-93218000D03*
D14*
%TO.P,J10,2,Pin_2*%
%TO.N,Net-(J10-Pin_2)*%
X83489800Y-93218000D03*
%TO.P,J10,3,Pin_3*%
%TO.N,Net-(J10-Pin_3)*%
X86029800Y-93218000D03*
%TD*%
D13*
%TO.P,J8,1,Pin_1*%
%TO.N,Net-(J8-Pin_1)*%
X111658400Y-50190400D03*
D14*
%TO.P,J8,2,Pin_2*%
%TO.N,N/C*%
X114198400Y-50190400D03*
%TD*%
D15*
%TO.P,SW1,1,A*%
%TO.N,unconnected-(SW1-A-Pad1)*%
X52832000Y-72923400D03*
D16*
%TO.P,SW1,2,B*%
%TO.N,Net-(J1-Pin_2)*%
X47752000Y-72923400D03*
%TO.P,SW1,3,C*%
%TO.N,/12v_out*%
X42672000Y-72923400D03*
%TD*%
D13*
%TO.P,J1,1,Pin_1*%
%TO.N,GND*%
X50393600Y-52882800D03*
D14*
%TO.P,J1,2,Pin_2*%
%TO.N,Net-(J1-Pin_2)*%
X52933600Y-52882800D03*
%TD*%
D27*
%TO.P,U6,1,GND*%
%TO.N,GND*%
X105156000Y-70523400D03*
%TO.P,U6,2,VDD*%
%TO.N,/3v3 output*%
X103886000Y-70523400D03*
%TO.P,U6,3,EN*%
%TO.N,Net-(U6-EN)*%
X102616000Y-70523400D03*
%TO.P,U6,4,SENSOR_VP*%
%TO.N,unconnected-(U6-SENSOR_VP-Pad4)*%
X101346000Y-70523400D03*
%TO.P,U6,5,SENSOR_VN*%
%TO.N,unconnected-(U6-SENSOR_VN-Pad5)*%
X100076000Y-70523400D03*
%TO.P,U6,6,IO34*%
%TO.N,unconnected-(U6-IO34-Pad6)*%
X98806000Y-70523400D03*
%TO.P,U6,7,IO35*%
%TO.N,unconnected-(U6-IO35-Pad7)*%
X97536000Y-70523400D03*
%TO.P,U6,8,IO32*%
%TO.N,unconnected-(U6-IO32-Pad8)*%
X96266000Y-70523400D03*
%TO.P,U6,9,IO33*%
%TO.N,unconnected-(U6-IO33-Pad9)*%
X94996000Y-70523400D03*
%TO.P,U6,10,IO25*%
%TO.N,unconnected-(U6-IO25-Pad10)*%
X93726000Y-70523400D03*
%TO.P,U6,11,IO26*%
%TO.N,unconnected-(U6-IO26-Pad11)*%
X92456000Y-70523400D03*
%TO.P,U6,12,IO27*%
%TO.N,unconnected-(U6-IO27-Pad12)*%
X91186000Y-70523400D03*
%TO.P,U6,13,IO14*%
%TO.N,/HBridgeA2*%
X89916000Y-70523400D03*
%TO.P,U6,14,IO12*%
%TO.N,Net-(J10-Pin_2)*%
X88646000Y-70523400D03*
D28*
%TO.P,U6,15,GND*%
%TO.N,GND*%
X87396000Y-73563400D03*
%TO.P,U6,16,IO13*%
%TO.N,/HBridgeA1*%
X87396000Y-74833400D03*
%TO.P,U6,17,NC*%
%TO.N,unconnected-(U6-NC-Pad17)*%
X87396000Y-76103400D03*
%TO.P,U6,18,NC*%
%TO.N,unconnected-(U6-NC-Pad18)*%
X87396000Y-77373400D03*
%TO.P,U6,19,NC*%
%TO.N,unconnected-(U6-NC-Pad19)*%
X87396000Y-78643400D03*
%TO.P,U6,20,NC*%
%TO.N,unconnected-(U6-NC-Pad20)*%
X87396000Y-79913400D03*
%TO.P,U6,21,NC*%
%TO.N,unconnected-(U6-NC-Pad21)*%
X87396000Y-81183400D03*
%TO.P,U6,22,NC*%
%TO.N,unconnected-(U6-NC-Pad22)*%
X87396000Y-82453400D03*
%TO.P,U6,23,IO15*%
%TO.N,Net-(J10-Pin_3)*%
X87396000Y-83723400D03*
%TO.P,U6,24,IO2*%
%TO.N,Net-(J9-Pin_2)*%
X87396000Y-84993400D03*
D27*
%TO.P,U6,25,IO0*%
%TO.N,Net-(J9-Pin_1)*%
X88646000Y-88023400D03*
%TO.P,U6,26,IO4*%
%TO.N,unconnected-(U6-IO4-Pad26)*%
X89916000Y-88023400D03*
%TO.P,U6,27,IO16*%
%TO.N,/Bluetooth*%
X91186000Y-88023400D03*
%TO.P,U6,28,IO17*%
%TO.N,Net-(Q1-G)*%
X92456000Y-88023400D03*
%TO.P,U6,29,IO5*%
%TO.N,Net-(J10-Pin_1)*%
X93726000Y-88023400D03*
%TO.P,U6,30,IO18*%
%TO.N,/HBridgeB1*%
X94996000Y-88023400D03*
%TO.P,U6,31,IO19*%
%TO.N,/HBridgeB2*%
X96266000Y-88023400D03*
%TO.P,U6,32,NC*%
%TO.N,unconnected-(U6-NC-Pad32)*%
X97536000Y-88023400D03*
%TO.P,U6,33,IO21*%
%TO.N,unconnected-(U6-IO21-Pad33)*%
X98806000Y-88023400D03*
%TO.P,U6,34,RXD0/IO3*%
%TO.N,Net-(J6-Pin_2)*%
X100076000Y-88023400D03*
%TO.P,U6,35,TXD0/IO1*%
%TO.N,Net-(J6-Pin_1)*%
X101346000Y-88023400D03*
%TO.P,U6,36,IO22*%
%TO.N,unconnected-(U6-IO22-Pad36)*%
X102616000Y-88023400D03*
%TO.P,U6,37,IO23*%
%TO.N,unconnected-(U6-IO23-Pad37)*%
X103886000Y-88023400D03*
%TO.P,U6,38,GND*%
%TO.N,GND*%
X105156000Y-88023400D03*
D29*
%TO.P,U6,39,GND*%
X98836000Y-76373400D03*
D30*
X98136000Y-76373400D03*
D29*
X97436000Y-76373400D03*
D30*
X96736000Y-76373400D03*
D29*
X96036000Y-76373400D03*
D30*
X98836000Y-77073400D03*
X97436000Y-77073400D03*
X96036000Y-77073400D03*
X98136000Y-77748400D03*
X96736000Y-77748400D03*
D29*
X98836000Y-77773400D03*
X97436000Y-77773400D03*
D31*
X97436000Y-77773400D03*
D29*
X96036000Y-77773400D03*
D30*
X98836000Y-78473400D03*
X97436000Y-78473400D03*
X96036000Y-78473400D03*
D29*
X98836000Y-79173400D03*
D30*
X98136000Y-79173400D03*
D29*
X97436000Y-79173400D03*
D30*
X96736000Y-79173400D03*
D29*
X96036000Y-79173400D03*
%TD*%
D32*
%TO.P,L2,1,1*%
%TO.N,Net-(J2-Pin_1)*%
X63045400Y-97383600D03*
%TO.P,L2,2,2*%
%TO.N,Net-(J2-Pin_2)*%
X64795400Y-97383600D03*
%TD*%
D13*
%TO.P,J2,1,Pin_1*%
%TO.N,Net-(J2-Pin_1)*%
X58902600Y-102534400D03*
D14*
%TO.P,J2,2,Pin_2*%
%TO.N,Net-(J2-Pin_2)*%
X61442600Y-102534400D03*
%TD*%
D19*
%TO.P,R6,1*%
%TO.N,/3v3 output*%
X101108000Y-60350400D03*
%TO.P,R6,2*%
%TO.N,Net-(U6-EN)*%
X103108000Y-60350400D03*
%TD*%
%TO.P,R5,1*%
%TO.N,/Bluetooth*%
X86487000Y-102641400D03*
%TO.P,R5,2*%
%TO.N,Net-(J5-Pin_1)*%
X88487000Y-102641400D03*
%TD*%
D33*
%TO.P,C5,1*%
%TO.N,/12v_out*%
X67410500Y-73660000D03*
%TO.P,C5,2*%
%TO.N,Net-(U3-VCP)*%
X65685500Y-73660000D03*
%TD*%
D34*
%TO.P,Q1,1,G*%
%TO.N,Net-(Q1-G)*%
X99364800Y-50901600D03*
D35*
%TO.P,Q1,2,D*%
%TO.N,/12v_out*%
X101904800Y-50901600D03*
%TO.P,Q1,3,S*%
%TO.N,Net-(J8-Pin_1)*%
X104444800Y-50901600D03*
%TD*%
D32*
%TO.P,L1,1,1*%
%TO.N,Net-(D1-K)*%
X59170600Y-73964800D03*
%TO.P,L1,2,2*%
%TO.N,/3v3 output*%
X60920600Y-73964800D03*
%TD*%
D36*
%TO.P,J6,1,Pin_1*%
%TO.N,Net-(J6-Pin_1)*%
X98806000Y-98938400D03*
D14*
%TO.P,J6,2,Pin_2*%
%TO.N,Net-(J6-Pin_2)*%
X96266000Y-98938400D03*
%TD*%
D21*
%TO.P,C9,1*%
%TO.N,GND*%
X102213500Y-63652400D03*
%TO.P,C9,2*%
%TO.N,Net-(U6-EN)*%
X104288500Y-63652400D03*
%TD*%
D25*
%TO.P,J3,1,Pin_1*%
%TO.N,Net-(J3-Pin_1)*%
X69469000Y-103784400D03*
D26*
%TO.P,J3,2,Pin_2*%
%TO.N,Net-(J3-Pin_2)*%
X69469000Y-101244400D03*
%TD*%
D37*
%TO.P,D1,1,K*%
%TO.N,Net-(D1-K)*%
X50800000Y-86664800D03*
D38*
%TO.P,D1,2,A*%
%TO.N,GND*%
X54610000Y-86664800D03*
%TD*%
D19*
%TO.P,R4,1*%
%TO.N,/3v3 output*%
X71644000Y-51841400D03*
%TO.P,R4,2*%
%TO.N,Net-(J4-Pin_1)*%
X73644000Y-51841400D03*
%TD*%
D13*
%TO.P,J4,1,Pin_1*%
%TO.N,Net-(J4-Pin_1)*%
X79756000Y-50190400D03*
D14*
%TO.P,J4,2,Pin_2*%
%TO.N,GND*%
X82296000Y-50190400D03*
%TD*%
D19*
%TO.P,R2,1*%
%TO.N,GND*%
X67062600Y-94538800D03*
%TO.P,R2,2*%
%TO.N,Net-(U3-AISEN)*%
X69062600Y-94538800D03*
%TD*%
D39*
%TO.P,U3,1,AISEN*%
%TO.N,Net-(U3-AISEN)*%
X68829500Y-86560200D03*
%TO.P,U3,2,AOUT2*%
%TO.N,Net-(J2-Pin_2)*%
X68829500Y-85910200D03*
%TO.P,U3,3,BOUT2*%
%TO.N,Net-(J3-Pin_2)*%
X68829500Y-85260200D03*
%TO.P,U3,4,BISEN*%
%TO.N,Net-(U3-BISEN)*%
X68829500Y-84610200D03*
D40*
%TO.P,U3,5,BOUT1*%
%TO.N,Net-(J3-Pin_1)*%
X67942000Y-83722700D03*
%TO.P,U3,6,~{FAULT}*%
%TO.N,unconnected-(U3-~{FAULT}-Pad6)*%
X67292000Y-83722700D03*
%TO.P,U3,7,BIN1*%
%TO.N,/HBridgeB1*%
X66642000Y-83722700D03*
%TO.P,U3,8,BIN2*%
%TO.N,/HBridgeB2*%
X65992000Y-83722700D03*
D39*
%TO.P,U3,9,VCP*%
%TO.N,Net-(U3-VCP)*%
X65104500Y-84610200D03*
%TO.P,U3,10,VM*%
%TO.N,/12v_out*%
X65104500Y-85260200D03*
%TO.P,U3,11,GND*%
%TO.N,GND*%
X65104500Y-85910200D03*
%TO.P,U3,12,VINT*%
%TO.N,Net-(U3-VINT)*%
X65104500Y-86560200D03*
D40*
%TO.P,U3,13,AIN2*%
%TO.N,/HBridgeA2*%
X65992000Y-87447700D03*
%TO.P,U3,14,AIN1*%
%TO.N,/HBridgeA1*%
X66642000Y-87447700D03*
%TO.P,U3,15,~{SLEEP}*%
%TO.N,/nSleep*%
X67292000Y-87447700D03*
%TO.P,U3,16,AOUT1*%
%TO.N,Net-(J2-Pin_1)*%
X67942000Y-87447700D03*
D41*
%TO.P,U3,17,GND*%
%TO.N,GND*%
X67767000Y-86385200D03*
X67767000Y-85585200D03*
X67767000Y-84785200D03*
X66967000Y-86385200D03*
X66967000Y-85585200D03*
D42*
X66967000Y-85585200D03*
D41*
X66967000Y-84785200D03*
X66167000Y-86385200D03*
X66167000Y-85585200D03*
X66167000Y-84785200D03*
%TD*%
D21*
%TO.P,C7,1*%
%TO.N,GND*%
X60252700Y-63398400D03*
%TO.P,C7,2*%
%TO.N,/3v3 output*%
X62327700Y-63398400D03*
%TD*%
D43*
%TO.N,/12v_out*%
X101447600Y-54914800D03*
X81381600Y-66192400D03*
X60452000Y-85725000D03*
X57454800Y-77978000D03*
%TO.N,GND*%
X67995800Y-63550800D03*
X90170000Y-55778400D03*
X58724800Y-66954400D03*
X100406200Y-85267800D03*
X69875400Y-82448400D03*
X70688200Y-87985600D03*
X62839600Y-87020400D03*
X91592400Y-84963000D03*
%TO.N,/nSleep*%
X76784200Y-68376800D03*
X59639200Y-91592400D03*
%TO.N,/Bluetooth*%
X89230200Y-99161600D03*
X94056200Y-92252800D03*
%TO.N,/HBridgeA1*%
X66642000Y-89019400D03*
X82793400Y-78486000D03*
%TO.N,/HBridgeA2*%
X84734400Y-67233800D03*
X66827400Y-90982800D03*
%TD*%
D44*
%TO.N,/12v_out*%
X62763400Y-85260200D02*
X65104500Y-85260200D01*
X101904800Y-54457600D02*
X101447600Y-54914800D01*
X60916800Y-85260200D02*
X62763400Y-85260200D01*
X78443200Y-69130800D02*
X81381600Y-66192400D01*
X42672000Y-72923400D02*
X40228123Y-75367277D01*
X47929800Y-77978000D02*
X57454800Y-77978000D01*
X40228123Y-83261200D02*
X40228123Y-96222523D01*
X40228123Y-75367277D02*
X40228123Y-83261200D01*
X60452000Y-85725000D02*
X60916800Y-85260200D01*
X62763400Y-85260200D02*
X62763400Y-73927766D01*
X42672000Y-72923400D02*
X42875200Y-72923400D01*
X62763400Y-73927766D02*
X69541300Y-67149866D01*
X71565300Y-69130800D02*
X78443200Y-69130800D01*
X69541300Y-67149866D02*
X67410500Y-69280666D01*
X67410500Y-69280666D02*
X67410500Y-73660000D01*
X69541300Y-67106800D02*
X71565300Y-69130800D01*
X69541300Y-67106800D02*
X69541300Y-67149866D01*
X40228123Y-96222523D02*
X40326000Y-96320400D01*
X42875200Y-72923400D02*
X47929800Y-77978000D01*
X101904800Y-50901600D02*
X101904800Y-54457600D01*
D45*
%TO.N,GND*%
X87884000Y-58064400D02*
X90170000Y-55778400D01*
X63949800Y-85910200D02*
X62839600Y-87020400D01*
X84074000Y-58064400D02*
X87884000Y-58064400D01*
X65104500Y-85910200D02*
X63949800Y-85910200D01*
%TO.N,/3v3 output*%
X51296888Y-93993400D02*
X44780072Y-93993400D01*
X60920600Y-73964800D02*
X60920600Y-84369688D01*
D46*
X103016000Y-66522144D02*
X105176000Y-64362144D01*
D45*
X44449000Y-94324472D02*
X44449000Y-103243400D01*
X62109600Y-64019000D02*
X62109600Y-68986400D01*
D46*
X90424000Y-49809400D02*
X86487000Y-49809400D01*
D45*
X42626000Y-101420400D02*
X40326000Y-101420400D01*
D46*
X100965000Y-60350400D02*
X101108000Y-60350400D01*
D45*
X62153800Y-63572300D02*
X62327700Y-63398400D01*
D46*
X103886000Y-70523400D02*
X103886000Y-69983400D01*
X101108000Y-60350400D02*
X90567000Y-49809400D01*
X71644000Y-51841400D02*
X71644000Y-52541400D01*
D45*
X44780072Y-93993400D02*
X44449000Y-94324472D01*
X60920600Y-84369688D02*
X60630944Y-84659344D01*
X60630944Y-84659344D02*
X51296888Y-93993400D01*
X62327700Y-63398400D02*
X62327700Y-60278100D01*
X62327700Y-63800900D02*
X62109600Y-64019000D01*
D46*
X69053200Y-49250600D02*
X71644000Y-51841400D01*
D45*
X62327700Y-63398400D02*
X62327700Y-63800900D01*
D46*
X71644000Y-51841400D02*
X77867000Y-58064400D01*
X101108000Y-60350400D02*
X102108000Y-59350400D01*
D45*
X62327700Y-60278100D02*
X59144041Y-57094441D01*
D46*
X103886000Y-69983400D02*
X103016000Y-69113400D01*
X103692744Y-59350400D02*
X105176000Y-60833656D01*
X103016000Y-69113400D02*
X103016000Y-66522144D01*
X86487000Y-49809400D02*
X81999000Y-54297400D01*
D45*
X60920600Y-70175400D02*
X62109600Y-68986400D01*
D46*
X59144041Y-54254400D02*
X64147841Y-49250600D01*
D45*
X60920600Y-73964800D02*
X60920600Y-70175400D01*
D46*
X64147841Y-49250600D02*
X69053200Y-49250600D01*
X77867000Y-58064400D02*
X81999000Y-58064400D01*
X81999000Y-54297400D02*
X81999000Y-58064400D01*
X102108000Y-59350400D02*
X103692744Y-59350400D01*
X105176000Y-60833656D02*
X105176000Y-64362144D01*
D45*
X59144041Y-57094441D02*
X59144041Y-54254400D01*
D46*
X81999000Y-58064400D02*
X81999000Y-58789400D01*
X90567000Y-49809400D02*
X90424000Y-49809400D01*
D45*
X44449000Y-103243400D02*
X42626000Y-101420400D01*
%TO.N,Net-(U3-VINT)*%
X64744600Y-91490800D02*
X64744600Y-86920100D01*
X64744600Y-86920100D02*
X65104500Y-86560200D01*
%TO.N,Net-(U3-VCP)*%
X65685500Y-73660000D02*
X63652400Y-75693100D01*
X63652400Y-75693100D02*
X63652400Y-83158100D01*
X63652400Y-83158100D02*
X65104500Y-84610200D01*
%TO.N,/nSleep*%
X65100200Y-63017400D02*
X67564000Y-60553600D01*
X65100200Y-67030600D02*
X65100200Y-63017400D01*
D46*
X67427400Y-90734271D02*
X67242000Y-90548871D01*
X60562600Y-92515800D02*
X66142929Y-92515800D01*
D45*
X64109600Y-68021200D02*
X65100200Y-67030600D01*
X76784200Y-66141600D02*
X76682600Y-66243200D01*
X67564000Y-60553600D02*
X76784200Y-60553600D01*
D46*
X67242000Y-87497700D02*
X67292000Y-87447700D01*
X66142929Y-92515800D02*
X67427400Y-91231329D01*
X76784200Y-68376800D02*
X76682600Y-68275200D01*
X76682600Y-68275200D02*
X76682600Y-66243200D01*
X67242000Y-90548871D02*
X67242000Y-87497700D01*
X67427400Y-91231329D02*
X67427400Y-90734271D01*
D45*
X64109600Y-68986400D02*
X64109600Y-68021200D01*
D46*
X59639200Y-91592400D02*
X60562600Y-92515800D01*
D45*
X76784200Y-60553600D02*
X76784200Y-66141600D01*
D46*
%TO.N,Net-(U6-EN)*%
X102616000Y-65324900D02*
X104288500Y-63652400D01*
X102616000Y-70523400D02*
X102616000Y-65324900D01*
X104288500Y-63652400D02*
X104288500Y-61530900D01*
X104288500Y-61530900D02*
X103108000Y-60350400D01*
D45*
%TO.N,Net-(D1-K)*%
X50800000Y-86664800D02*
X59170600Y-78294200D01*
X42953000Y-94511800D02*
X42953000Y-97693400D01*
X42626000Y-98020400D02*
X40326000Y-98020400D01*
X42953000Y-97693400D02*
X42626000Y-98020400D01*
X59170600Y-78294200D02*
X59170600Y-73964800D01*
X50800000Y-86664800D02*
X42953000Y-94511800D01*
D44*
%TO.N,Net-(J1-Pin_2)*%
X52933600Y-52882800D02*
X52933600Y-67741800D01*
X52933600Y-67741800D02*
X47752000Y-72923400D01*
D46*
%TO.N,Net-(J2-Pin_1)*%
X67827400Y-91397015D02*
X66158815Y-93065600D01*
X60680600Y-93065600D02*
X57835800Y-95910400D01*
X63045400Y-98391600D02*
X58902600Y-102534400D01*
X63045400Y-97383600D02*
X63045400Y-98391600D01*
X66158815Y-93065600D02*
X60680600Y-93065600D01*
X67942000Y-87447700D02*
X67942000Y-88044513D01*
X67642000Y-90383185D02*
X67827400Y-90568585D01*
X57835800Y-95910400D02*
X59309000Y-97383600D01*
X59309000Y-97383600D02*
X63045400Y-97383600D01*
X67942000Y-88044513D02*
X67642000Y-88344513D01*
X67642000Y-88344513D02*
X67642000Y-90383185D01*
X67827400Y-90568585D02*
X67827400Y-91397015D01*
%TO.N,Net-(J2-Pin_2)*%
X64795400Y-99181600D02*
X61442600Y-102534400D01*
X75711000Y-85760632D02*
X68979068Y-85760632D01*
X68707000Y-97383600D02*
X72967315Y-93123285D01*
X75711000Y-91632530D02*
X75711000Y-85760632D01*
X68979068Y-85760632D02*
X68829500Y-85910200D01*
X72967315Y-93123285D02*
X74220245Y-93123285D01*
X64795400Y-97383600D02*
X68707000Y-97383600D01*
X74220245Y-93123285D02*
X75711000Y-91632530D01*
X64795400Y-97383600D02*
X64795400Y-99181600D01*
%TO.N,Net-(J3-Pin_1)*%
X67042000Y-82409768D02*
X67042000Y-77255886D01*
X76581000Y-80670400D02*
X76581000Y-82290453D01*
X67042000Y-77255886D02*
X68364686Y-75933200D01*
X67942000Y-83722700D02*
X67942000Y-83309768D01*
X76581000Y-82290453D02*
X76565000Y-82306453D01*
X76565000Y-82306453D02*
X76565000Y-93132400D01*
X76565000Y-93132400D02*
X74549000Y-95148400D01*
D45*
X69469000Y-103784400D02*
X74549000Y-98704400D01*
D46*
X67942000Y-83309768D02*
X67042000Y-82409768D01*
X71843800Y-75933200D02*
X76581000Y-80670400D01*
X68364686Y-75933200D02*
X71843800Y-75933200D01*
D45*
X74549000Y-98704400D02*
X74549000Y-95148400D01*
%TO.N,Net-(J3-Pin_2)*%
X72799000Y-95148400D02*
X72799000Y-97914400D01*
X72799000Y-95148400D02*
X76138000Y-91809400D01*
X75814437Y-85260200D02*
X68829500Y-85260200D01*
X72799000Y-97914400D02*
X69469000Y-101244400D01*
X76138000Y-85583763D02*
X75814437Y-85260200D01*
X76138000Y-91809400D02*
X76138000Y-85583763D01*
%TO.N,Net-(J4-Pin_1)*%
X78105000Y-51841400D02*
X79756000Y-50190400D01*
X73644000Y-51841400D02*
X78105000Y-51841400D01*
X73644000Y-51841400D02*
X73644000Y-52226400D01*
%TO.N,Net-(J5-Pin_1)*%
X79395000Y-103530400D02*
X79533000Y-103668400D01*
X79533000Y-103668400D02*
X87460000Y-103668400D01*
X87460000Y-103668400D02*
X88487000Y-102641400D01*
D46*
%TO.N,Net-(J6-Pin_2)*%
X100076000Y-95128400D02*
X100076000Y-88023400D01*
X96266000Y-98938400D02*
X100076000Y-95128400D01*
%TO.N,Net-(J6-Pin_1)*%
X98806000Y-98938400D02*
X101346000Y-96398400D01*
X101346000Y-96398400D02*
X101346000Y-88023400D01*
%TO.N,Net-(J8-Pin_1)*%
X104444800Y-50901600D02*
X110947200Y-50901600D01*
X110947200Y-50901600D02*
X111658400Y-50190400D01*
D45*
%TO.N,Net-(J10-Pin_2)*%
X78536800Y-79928600D02*
X78536800Y-88265000D01*
X78536800Y-88265000D02*
X83489800Y-93218000D01*
X87942000Y-70523400D02*
X78536800Y-79928600D01*
X88646000Y-70523400D02*
X87942000Y-70523400D01*
D46*
%TO.N,Net-(U3-AISEN)*%
X75311000Y-86160632D02*
X69642000Y-86160632D01*
D45*
X69341999Y-86560200D02*
X68829500Y-86560200D01*
D46*
X75311000Y-90213914D02*
X75311000Y-86160632D01*
X69642000Y-86160632D02*
X69242432Y-86560200D01*
X69062600Y-94538800D02*
X70986114Y-94538800D01*
X70986114Y-94538800D02*
X75311000Y-90213914D01*
X69242432Y-86560200D02*
X68829500Y-86560200D01*
%TO.N,Net-(U3-BISEN)*%
X75091800Y-80873600D02*
X76181000Y-81962800D01*
X76181000Y-81962800D02*
X76181000Y-82124767D01*
X76181000Y-82124767D02*
X76165000Y-82140767D01*
X76165000Y-84610200D02*
X68829500Y-84610200D01*
X76165000Y-82140767D02*
X76165000Y-84610200D01*
%TO.N,/Bluetooth*%
X91186000Y-88023400D02*
X91186000Y-89382600D01*
X86487000Y-101904800D02*
X86487000Y-102641400D01*
X91186000Y-89382600D02*
X94056200Y-92252800D01*
X89230200Y-99161600D02*
X86487000Y-101904800D01*
%TO.N,/HBridgeB1*%
X95866000Y-84372400D02*
X95866000Y-86623400D01*
X66642000Y-83722700D02*
X66642000Y-77090200D01*
X77709800Y-81233514D02*
X77709800Y-92793430D01*
X91148284Y-96266000D02*
X95615684Y-100733400D01*
X105460800Y-81838800D02*
X98399600Y-81838800D01*
X77709800Y-92793430D02*
X81182370Y-96266000D01*
X99826430Y-100733400D02*
X106349800Y-94210030D01*
X66642000Y-77090200D02*
X68199000Y-75533200D01*
X95516000Y-86973400D02*
X95516000Y-87503400D01*
X95516000Y-87503400D02*
X94996000Y-88023400D01*
X106349800Y-94210030D02*
X106349800Y-82727800D01*
X95866000Y-86623400D02*
X95516000Y-86973400D01*
X95615684Y-100733400D02*
X99826430Y-100733400D01*
X81182370Y-96266000D02*
X91148284Y-96266000D01*
X68199000Y-75533200D02*
X72009486Y-75533200D01*
X106349800Y-82727800D02*
X105460800Y-81838800D01*
X72009486Y-75533200D02*
X77709800Y-81233514D01*
X98399600Y-81838800D02*
X95866000Y-84372400D01*
%TO.N,/HBridgeB2*%
X105906000Y-82849686D02*
X105295114Y-82238800D01*
X98565286Y-82238800D02*
X96266000Y-84538086D01*
X90514970Y-95067000D02*
X95781370Y-100333400D01*
X64079400Y-75869970D02*
X64816170Y-75133200D01*
X80549056Y-95067000D02*
X90514970Y-95067000D01*
X105295114Y-82238800D02*
X98565286Y-82238800D01*
X64079400Y-81810100D02*
X64079400Y-75869970D01*
X95781370Y-100333400D02*
X99660744Y-100333400D01*
X99660744Y-100333400D02*
X105906000Y-94088144D01*
X64816170Y-75133200D02*
X73837800Y-75133200D01*
X96266000Y-84538086D02*
X96266000Y-88023400D01*
X78109800Y-92627744D02*
X80549056Y-95067000D01*
X73837800Y-75133200D02*
X78109800Y-79405200D01*
X105906000Y-94088144D02*
X105906000Y-82849686D01*
X65992000Y-83722700D02*
X64079400Y-81810100D01*
X78109800Y-79405200D02*
X78109800Y-92627744D01*
%TO.N,/HBridgeA1*%
X66642000Y-89019400D02*
X66675000Y-89052400D01*
X66642000Y-87447700D02*
X66642000Y-89019400D01*
X87396000Y-74833400D02*
X86446000Y-74833400D01*
X86446000Y-74833400D02*
X82793400Y-78486000D01*
D45*
%TO.N,/HBridgeA2*%
X65963800Y-90982800D02*
X65198600Y-90217600D01*
X84734400Y-67233800D02*
X87630400Y-67233800D01*
X87630400Y-67233800D02*
X89916000Y-69519400D01*
X65992000Y-87960199D02*
X65992000Y-87447700D01*
X65198600Y-90217600D02*
X65198600Y-88753599D01*
X89789400Y-69392800D02*
X89916000Y-69519400D01*
D46*
X89916000Y-69573400D02*
X89916000Y-70523400D01*
D45*
X65198600Y-88753599D02*
X65992000Y-87960199D01*
X66827400Y-90982800D02*
X65963800Y-90982800D01*
X89916000Y-69519400D02*
X89916000Y-70523400D01*
%TO.N,Net-(J10-Pin_1)*%
X82371800Y-94640000D02*
X99649000Y-94640000D01*
X99649000Y-94640000D02*
X99649000Y-92664000D01*
X96085400Y-89100400D02*
X94219000Y-89100400D01*
X94219000Y-89100400D02*
X94219000Y-88516400D01*
X99649000Y-92664000D02*
X96085400Y-89100400D01*
X80949800Y-93218000D02*
X82371800Y-94640000D01*
X94219000Y-88516400D02*
X93726000Y-88023400D01*
%TO.N,Net-(J9-Pin_2)*%
X84821000Y-84993400D02*
X87396000Y-84993400D01*
X83489800Y-83662200D02*
X84821000Y-84993400D01*
%TO.N,Net-(J10-Pin_3)*%
X86812000Y-83723400D02*
X87396000Y-83723400D01*
X86392000Y-83723400D02*
X87396000Y-83723400D01*
X85140400Y-82051800D02*
X86812000Y-83723400D01*
X80228800Y-82051800D02*
X85140400Y-82051800D01*
X79752800Y-86941000D02*
X79752800Y-82527800D01*
X86029800Y-93218000D02*
X79752800Y-86941000D01*
X79752800Y-82527800D02*
X80228800Y-82051800D01*
D46*
%TO.N,Net-(Q1-G)*%
X105906000Y-81718314D02*
X105906000Y-60997970D01*
X105906000Y-60997970D02*
X99364800Y-54456770D01*
X99364800Y-54456770D02*
X99364800Y-50901600D01*
X95116000Y-86807715D02*
X95466000Y-86457715D01*
X92456000Y-88023400D02*
X92456000Y-87493400D01*
X92456000Y-87493400D02*
X92976000Y-86973400D01*
X95466000Y-86457715D02*
X95466000Y-84206714D01*
X105626486Y-81438800D02*
X105906000Y-81718314D01*
X98233914Y-81438800D02*
X105626486Y-81438800D01*
X95116000Y-86973400D02*
X95116000Y-86807715D01*
X95466000Y-84206714D02*
X98233914Y-81438800D01*
X92976000Y-86973400D02*
X95116000Y-86973400D01*
D45*
%TO.N,Net-(J9-Pin_1)*%
X80949800Y-83662200D02*
X85311000Y-88023400D01*
X85311000Y-88023400D02*
X88646000Y-88023400D01*
%TD*%
%TA.AperFunction,Conductor*%
%TO.N,GND*%
G36*
X105058742Y-82866985D02*
G01*
X105079384Y-82883619D01*
X105261181Y-83065416D01*
X105294666Y-83126739D01*
X105297500Y-83153097D01*
X105297500Y-93784732D01*
X105277815Y-93851771D01*
X105261181Y-93872413D01*
X100396180Y-98737414D01*
X100334857Y-98770899D01*
X100265165Y-98765915D01*
X100209232Y-98724043D01*
X100184815Y-98658579D01*
X100184499Y-98649733D01*
X100184499Y-98471811D01*
X100204184Y-98404772D01*
X100220818Y-98384130D01*
X101005144Y-97599804D01*
X101832921Y-96772028D01*
X101913031Y-96633273D01*
X101913032Y-96633272D01*
X101954500Y-96478511D01*
X101954500Y-89402436D01*
X101974185Y-89335397D01*
X102026989Y-89289642D01*
X102091757Y-89279147D01*
X102117362Y-89281900D01*
X103114638Y-89281900D01*
X103114654Y-89281899D01*
X103161277Y-89276885D01*
X103175201Y-89275389D01*
X103207666Y-89263280D01*
X103277357Y-89258295D01*
X103294334Y-89263280D01*
X103326799Y-89275389D01*
X103333760Y-89276137D01*
X103387345Y-89281899D01*
X103387362Y-89281900D01*
X104384638Y-89281900D01*
X104384654Y-89281899D01*
X104422560Y-89277823D01*
X104445201Y-89275389D01*
X104489828Y-89258743D01*
X104559514Y-89253758D01*
X104576495Y-89258744D01*
X104598623Y-89266998D01*
X104658155Y-89273399D01*
X104658172Y-89273400D01*
X104906000Y-89273400D01*
X104906000Y-86773400D01*
X104658155Y-86773400D01*
X104598627Y-86779801D01*
X104598617Y-86779803D01*
X104576491Y-86788056D01*
X104506800Y-86793039D01*
X104489828Y-86788055D01*
X104445202Y-86771411D01*
X104384654Y-86764900D01*
X104384638Y-86764900D01*
X103387362Y-86764900D01*
X103387345Y-86764900D01*
X103326802Y-86771410D01*
X103326795Y-86771412D01*
X103294331Y-86783520D01*
X103224639Y-86788503D01*
X103207669Y-86783520D01*
X103175204Y-86771412D01*
X103175202Y-86771411D01*
X103175201Y-86771411D01*
X103175200Y-86771410D01*
X103175197Y-86771410D01*
X103114654Y-86764900D01*
X103114638Y-86764900D01*
X102117362Y-86764900D01*
X102117345Y-86764900D01*
X102056802Y-86771410D01*
X102056795Y-86771412D01*
X102024331Y-86783520D01*
X101954639Y-86788503D01*
X101937669Y-86783520D01*
X101905204Y-86771412D01*
X101905202Y-86771411D01*
X101905201Y-86771411D01*
X101905200Y-86771410D01*
X101905197Y-86771410D01*
X101844654Y-86764900D01*
X101844638Y-86764900D01*
X100847362Y-86764900D01*
X100847345Y-86764900D01*
X100786802Y-86771410D01*
X100786795Y-86771412D01*
X100754331Y-86783520D01*
X100684639Y-86788503D01*
X100667669Y-86783520D01*
X100635204Y-86771412D01*
X100635202Y-86771411D01*
X100635201Y-86771411D01*
X100635200Y-86771410D01*
X100635197Y-86771410D01*
X100574654Y-86764900D01*
X100574638Y-86764900D01*
X99577362Y-86764900D01*
X99577345Y-86764900D01*
X99516802Y-86771410D01*
X99516795Y-86771412D01*
X99484331Y-86783520D01*
X99414639Y-86788503D01*
X99397669Y-86783520D01*
X99365204Y-86771412D01*
X99365202Y-86771411D01*
X99365201Y-86771411D01*
X99365200Y-86771410D01*
X99365197Y-86771410D01*
X99304654Y-86764900D01*
X99304638Y-86764900D01*
X98307362Y-86764900D01*
X98307345Y-86764900D01*
X98246802Y-86771410D01*
X98246795Y-86771412D01*
X98214331Y-86783520D01*
X98144639Y-86788503D01*
X98127669Y-86783520D01*
X98095204Y-86771412D01*
X98095202Y-86771411D01*
X98095201Y-86771411D01*
X98095200Y-86771410D01*
X98095197Y-86771410D01*
X98034654Y-86764900D01*
X98034638Y-86764900D01*
X97037362Y-86764900D01*
X97011755Y-86767653D01*
X96942995Y-86755247D01*
X96891858Y-86707636D01*
X96874500Y-86644363D01*
X96874500Y-84841497D01*
X96894185Y-84774458D01*
X96910819Y-84753816D01*
X98781016Y-82883619D01*
X98842339Y-82850134D01*
X98868697Y-82847300D01*
X104991703Y-82847300D01*
X105058742Y-82866985D01*
G37*
%TD.AperFunction*%
%TA.AperFunction,Conductor*%
G36*
X74645539Y-86788817D02*
G01*
X74691294Y-86841621D01*
X74702500Y-86893132D01*
X74702500Y-89910503D01*
X74682815Y-89977542D01*
X74666181Y-89998184D01*
X70770384Y-93893981D01*
X70709061Y-93927466D01*
X70682703Y-93930300D01*
X70248679Y-93930300D01*
X70181640Y-93910615D01*
X70135885Y-93857811D01*
X70130973Y-93845303D01*
X70104717Y-93766066D01*
X70104553Y-93765800D01*
X70011630Y-93615148D01*
X69886252Y-93489770D01*
X69747916Y-93404443D01*
X69735340Y-93396686D01*
X69735335Y-93396684D01*
X69567027Y-93340913D01*
X69463146Y-93330300D01*
X68662062Y-93330300D01*
X68662046Y-93330301D01*
X68558172Y-93340913D01*
X68389864Y-93396684D01*
X68389859Y-93396686D01*
X68238949Y-93489769D01*
X68144270Y-93584448D01*
X68082946Y-93617932D01*
X68013255Y-93612948D01*
X67968908Y-93584447D01*
X67880945Y-93496484D01*
X67731724Y-93404443D01*
X67731719Y-93404441D01*
X67565297Y-93349294D01*
X67565290Y-93349293D01*
X67462586Y-93338800D01*
X67312600Y-93338800D01*
X67312600Y-95738799D01*
X67462572Y-95738799D01*
X67462586Y-95738798D01*
X67565297Y-95728305D01*
X67731719Y-95673158D01*
X67731724Y-95673156D01*
X67880942Y-95581117D01*
X67968907Y-95493152D01*
X68030230Y-95459667D01*
X68099922Y-95464651D01*
X68144270Y-95493152D01*
X68238948Y-95587830D01*
X68389862Y-95680915D01*
X68558174Y-95736687D01*
X68662055Y-95747300D01*
X69183389Y-95747299D01*
X69250427Y-95766983D01*
X69296182Y-95819787D01*
X69306126Y-95888946D01*
X69277101Y-95952502D01*
X69271069Y-95958980D01*
X68491270Y-96738781D01*
X68429947Y-96772266D01*
X68403589Y-96775100D01*
X65799766Y-96775100D01*
X65732727Y-96755415D01*
X65694227Y-96716196D01*
X65672058Y-96680254D01*
X65548746Y-96556942D01*
X65548742Y-96556939D01*
X65400328Y-96465395D01*
X65400322Y-96465392D01*
X65400320Y-96465391D01*
X65400317Y-96465390D01*
X65234782Y-96410538D01*
X65132614Y-96400100D01*
X64458194Y-96400100D01*
X64458178Y-96400101D01*
X64356017Y-96410538D01*
X64190482Y-96465390D01*
X64190471Y-96465395D01*
X64042057Y-96556939D01*
X64042053Y-96556942D01*
X64008081Y-96590915D01*
X63946758Y-96624400D01*
X63877066Y-96619416D01*
X63832719Y-96590915D01*
X63798746Y-96556942D01*
X63798742Y-96556939D01*
X63650328Y-96465395D01*
X63650322Y-96465392D01*
X63650320Y-96465391D01*
X63650317Y-96465390D01*
X63484782Y-96410538D01*
X63382614Y-96400100D01*
X62708194Y-96400100D01*
X62708178Y-96400101D01*
X62606017Y-96410538D01*
X62440482Y-96465390D01*
X62440471Y-96465395D01*
X62292057Y-96556939D01*
X62292053Y-96556942D01*
X62168741Y-96680254D01*
X62146573Y-96716196D01*
X62094625Y-96762921D01*
X62041034Y-96775100D01*
X59612411Y-96775100D01*
X59545372Y-96755415D01*
X59524730Y-96738781D01*
X58784030Y-95998081D01*
X58750545Y-95936758D01*
X58755529Y-95867066D01*
X58784030Y-95822719D01*
X59567963Y-95038786D01*
X65962601Y-95038786D01*
X65973094Y-95141497D01*
X66028241Y-95307919D01*
X66028243Y-95307924D01*
X66120284Y-95457145D01*
X66244254Y-95581115D01*
X66393475Y-95673156D01*
X66393480Y-95673158D01*
X66559902Y-95728305D01*
X66559909Y-95728306D01*
X66662619Y-95738799D01*
X66812599Y-95738799D01*
X66812600Y-95738798D01*
X66812600Y-94788800D01*
X65962601Y-94788800D01*
X65962601Y-95038786D01*
X59567963Y-95038786D01*
X60896330Y-93710419D01*
X60957653Y-93676934D01*
X60984011Y-93674100D01*
X65888194Y-93674100D01*
X65955233Y-93693785D01*
X66000988Y-93746589D01*
X66010932Y-93815747D01*
X66005900Y-93837104D01*
X65973094Y-93936102D01*
X65973093Y-93936109D01*
X65962600Y-94038813D01*
X65962600Y-94288800D01*
X66812600Y-94288800D01*
X66812600Y-93323725D01*
X66832285Y-93256686D01*
X66848914Y-93236049D01*
X68314322Y-91770642D01*
X68394432Y-91631887D01*
X68415725Y-91552420D01*
X68435900Y-91477126D01*
X68435900Y-90488474D01*
X68412989Y-90402969D01*
X68394432Y-90333712D01*
X68314321Y-90194957D01*
X68286819Y-90167455D01*
X68253334Y-90106132D01*
X68250500Y-90079774D01*
X68250500Y-88647923D01*
X68270185Y-88580884D01*
X68286815Y-88560246D01*
X68298181Y-88548879D01*
X68298187Y-88548875D01*
X68315628Y-88531434D01*
X68428921Y-88418141D01*
X68483030Y-88324422D01*
X68509032Y-88279386D01*
X68524298Y-88222405D01*
X68545701Y-88179011D01*
X68550105Y-88173272D01*
X68610160Y-88028287D01*
X68625500Y-87911766D01*
X68625500Y-87367700D01*
X68645185Y-87300661D01*
X68697989Y-87254906D01*
X68749500Y-87243700D01*
X69293567Y-87243700D01*
X69332406Y-87238586D01*
X69410087Y-87228360D01*
X69555072Y-87168305D01*
X69566198Y-87159766D01*
X69594230Y-87143582D01*
X69643021Y-87123373D01*
X69747107Y-87053825D01*
X69835624Y-86965308D01*
X69905172Y-86861222D01*
X69911609Y-86845680D01*
X69955450Y-86791277D01*
X70021744Y-86769211D01*
X70026171Y-86769132D01*
X74578500Y-86769132D01*
X74645539Y-86788817D01*
G37*
%TD.AperFunction*%
%TA.AperFunction,Conductor*%
G36*
X43266064Y-74392602D02*
G01*
X47443729Y-78570268D01*
X47443732Y-78570271D01*
X47542853Y-78636501D01*
X47542852Y-78636501D01*
X47568619Y-78653717D01*
X47568620Y-78653717D01*
X47568621Y-78653718D01*
X47707387Y-78711197D01*
X47707391Y-78711197D01*
X47707392Y-78711198D01*
X47854697Y-78740500D01*
X47854700Y-78740500D01*
X57164899Y-78740500D01*
X57205852Y-78747458D01*
X57239163Y-78759113D01*
X57273753Y-78771217D01*
X57273760Y-78771217D01*
X57273761Y-78771218D01*
X57454796Y-78791616D01*
X57454800Y-78791616D01*
X57454801Y-78791616D01*
X57462894Y-78790704D01*
X57531716Y-78802758D01*
X57583096Y-78850106D01*
X57600721Y-78917716D01*
X57578996Y-78984122D01*
X57564460Y-79001605D01*
X52046086Y-84519981D01*
X51984763Y-84553466D01*
X51958405Y-84556300D01*
X49151345Y-84556300D01*
X49090797Y-84562811D01*
X49090795Y-84562811D01*
X48953795Y-84613911D01*
X48836739Y-84701539D01*
X48749111Y-84818595D01*
X48698011Y-84955595D01*
X48698011Y-84955597D01*
X48691500Y-85016145D01*
X48691500Y-87823205D01*
X48671815Y-87890244D01*
X48655181Y-87910886D01*
X42547892Y-94018175D01*
X42503632Y-94062434D01*
X42459373Y-94106693D01*
X42389830Y-94210771D01*
X42389823Y-94210784D01*
X42341923Y-94326426D01*
X42341920Y-94326438D01*
X42317500Y-94449204D01*
X42317500Y-95137900D01*
X42297815Y-95204939D01*
X42245011Y-95250694D01*
X42193500Y-95261900D01*
X41114623Y-95261900D01*
X41047584Y-95242215D01*
X41001829Y-95189411D01*
X40990623Y-95137900D01*
X40990623Y-84893700D01*
X41010308Y-84826661D01*
X41063112Y-84780906D01*
X41114623Y-84769700D01*
X41276761Y-84769700D01*
X41276777Y-84769699D01*
X41303815Y-84766791D01*
X41337324Y-84763189D01*
X41474327Y-84712089D01*
X41591384Y-84624461D01*
X41679012Y-84507404D01*
X41730112Y-84370401D01*
X41735361Y-84321581D01*
X41736622Y-84309854D01*
X41736623Y-84309837D01*
X41736623Y-83261194D01*
X43722982Y-83261194D01*
X43722982Y-83261205D01*
X43743508Y-83508929D01*
X43743510Y-83508938D01*
X43804535Y-83749917D01*
X43904390Y-83977567D01*
X44004685Y-84131081D01*
X44745160Y-83390608D01*
X44762198Y-83454193D01*
X44828024Y-83568207D01*
X44921116Y-83661299D01*
X45035130Y-83727125D01*
X45098714Y-83744162D01*
X44358066Y-84484809D01*
X44404891Y-84521255D01*
X44404894Y-84521257D01*
X44623508Y-84639564D01*
X44623519Y-84639569D01*
X44858629Y-84720283D01*
X45103830Y-84761200D01*
X45352416Y-84761200D01*
X45597616Y-84720283D01*
X45832726Y-84639569D01*
X45832737Y-84639564D01*
X46051353Y-84521256D01*
X46051359Y-84521251D01*
X46098178Y-84484810D01*
X46098179Y-84484809D01*
X45357531Y-83744162D01*
X45421116Y-83727125D01*
X45535130Y-83661299D01*
X45628222Y-83568207D01*
X45694048Y-83454193D01*
X45711085Y-83390609D01*
X46451558Y-84131082D01*
X46551856Y-83977564D01*
X46651710Y-83749917D01*
X46712735Y-83508938D01*
X46712737Y-83508929D01*
X46733264Y-83261205D01*
X46733264Y-83261194D01*
X46712737Y-83013470D01*
X46712735Y-83013461D01*
X46651710Y-82772482D01*
X46551855Y-82544832D01*
X46451558Y-82391316D01*
X45711085Y-83131790D01*
X45694048Y-83068207D01*
X45628222Y-82954193D01*
X45535130Y-82861101D01*
X45421116Y-82795275D01*
X45357532Y-82778237D01*
X46098178Y-82037589D01*
X46098178Y-82037588D01*
X46051359Y-82001147D01*
X46051354Y-82001144D01*
X45832737Y-81882835D01*
X45832726Y-81882830D01*
X45597616Y-81802116D01*
X45352416Y-81761200D01*
X45103830Y-81761200D01*
X44858629Y-81802116D01*
X44623519Y-81882830D01*
X44623508Y-81882835D01*
X44404893Y-82001143D01*
X44358066Y-82037589D01*
X45098714Y-82778237D01*
X45035130Y-82795275D01*
X44921116Y-82861101D01*
X44828024Y-82954193D01*
X44762198Y-83068207D01*
X44745160Y-83131791D01*
X44004686Y-82391317D01*
X43904390Y-82544833D01*
X43904388Y-82544837D01*
X43804535Y-82772482D01*
X43743510Y-83013461D01*
X43743508Y-83013470D01*
X43722982Y-83261194D01*
X41736623Y-83261194D01*
X41736623Y-82212562D01*
X41736622Y-82212545D01*
X41731244Y-82162530D01*
X41730112Y-82151999D01*
X41722919Y-82132715D01*
X41700870Y-82073599D01*
X41679012Y-82014996D01*
X41591384Y-81897939D01*
X41474327Y-81810311D01*
X41439315Y-81797252D01*
X41337326Y-81759211D01*
X41276777Y-81752700D01*
X41276761Y-81752700D01*
X41114623Y-81752700D01*
X41047584Y-81733015D01*
X41001829Y-81680211D01*
X40990623Y-81628700D01*
X40990623Y-75734476D01*
X41010308Y-75667437D01*
X41026937Y-75646800D01*
X42241448Y-74432288D01*
X42302769Y-74398805D01*
X42358073Y-74399396D01*
X42435289Y-74417935D01*
X42672000Y-74436565D01*
X42908711Y-74417935D01*
X43139594Y-74362505D01*
X43139600Y-74362502D01*
X43140052Y-74362356D01*
X43140238Y-74362350D01*
X43144332Y-74361368D01*
X43144538Y-74362227D01*
X43209893Y-74360353D01*
X43266064Y-74392602D01*
G37*
%TD.AperFunction*%
%TA.AperFunction,Conductor*%
G36*
X54860000Y-88750180D02*
G01*
X55038253Y-88725681D01*
X55038262Y-88725679D01*
X55314891Y-88648171D01*
X55473992Y-88579064D01*
X55543324Y-88570410D01*
X55606328Y-88600614D01*
X55643001Y-88660085D01*
X55641700Y-88729943D01*
X55611075Y-88780479D01*
X51069974Y-93321581D01*
X51008651Y-93355066D01*
X50982293Y-93357900D01*
X45304995Y-93357900D01*
X45237956Y-93338215D01*
X45192201Y-93285411D01*
X45182257Y-93216253D01*
X45211282Y-93152697D01*
X45217314Y-93146219D01*
X49553914Y-88809619D01*
X49615237Y-88776134D01*
X49641595Y-88773300D01*
X52448638Y-88773300D01*
X52448654Y-88773299D01*
X52475692Y-88770391D01*
X52509201Y-88766789D01*
X52646204Y-88715689D01*
X52763261Y-88628061D01*
X52850889Y-88511004D01*
X52901989Y-88374001D01*
X52907319Y-88324423D01*
X52908499Y-88313454D01*
X52908500Y-88313437D01*
X52908500Y-88234064D01*
X52928185Y-88167025D01*
X52980989Y-88121270D01*
X53050147Y-88111326D01*
X53113703Y-88140351D01*
X53123124Y-88149428D01*
X53173288Y-88203142D01*
X53396135Y-88384441D01*
X53396146Y-88384448D01*
X53641607Y-88533717D01*
X53905108Y-88648171D01*
X54181737Y-88725679D01*
X54181746Y-88725681D01*
X54359999Y-88750180D01*
X54360000Y-88750180D01*
X54360000Y-87427160D01*
X54376649Y-87434057D01*
X54531207Y-87464800D01*
X54688793Y-87464800D01*
X54843351Y-87434057D01*
X54860000Y-87427160D01*
X54860000Y-88750180D01*
G37*
%TD.AperFunction*%
%TA.AperFunction,Conductor*%
G36*
X60088934Y-74728984D02*
G01*
X60133281Y-74757485D01*
X60167254Y-74791458D01*
X60226197Y-74827814D01*
X60272921Y-74879762D01*
X60285100Y-74933353D01*
X60285100Y-84055093D01*
X60265415Y-84122132D01*
X60248781Y-84142774D01*
X60225836Y-84165719D01*
X56733040Y-87658514D01*
X56671717Y-87691999D01*
X56602025Y-87687015D01*
X56546092Y-87645143D01*
X56521675Y-87579679D01*
X56535263Y-87513781D01*
X56540645Y-87503394D01*
X56636849Y-87232702D01*
X56636853Y-87232688D01*
X56695302Y-86951419D01*
X56697807Y-86914800D01*
X55372361Y-86914800D01*
X55379257Y-86898151D01*
X55410000Y-86743593D01*
X55410000Y-86586007D01*
X55379257Y-86431449D01*
X55372361Y-86414800D01*
X56697807Y-86414800D01*
X56697807Y-86414799D01*
X56695302Y-86378180D01*
X56636853Y-86096911D01*
X56636849Y-86096897D01*
X56540644Y-85826204D01*
X56408472Y-85571123D01*
X56242795Y-85336414D01*
X56242795Y-85336413D01*
X56046711Y-85126458D01*
X55823864Y-84945158D01*
X55823853Y-84945151D01*
X55578392Y-84795882D01*
X55314891Y-84681428D01*
X55038262Y-84603920D01*
X55038255Y-84603919D01*
X54860000Y-84579418D01*
X54860000Y-85902439D01*
X54843351Y-85895543D01*
X54688793Y-85864800D01*
X54531207Y-85864800D01*
X54376649Y-85895543D01*
X54360000Y-85902439D01*
X54360000Y-84579418D01*
X54181744Y-84603919D01*
X54181733Y-84603921D01*
X54051276Y-84640473D01*
X53981412Y-84639605D01*
X53923107Y-84601103D01*
X53894874Y-84537192D01*
X53905676Y-84468162D01*
X53930136Y-84433396D01*
X59664225Y-78699308D01*
X59733773Y-78595222D01*
X59781678Y-78479569D01*
X59806100Y-78356791D01*
X59806100Y-78231609D01*
X59806100Y-74933353D01*
X59825785Y-74866314D01*
X59865002Y-74827814D01*
X59923946Y-74791458D01*
X59957919Y-74757485D01*
X60019242Y-74724000D01*
X60088934Y-74728984D01*
G37*
%TD.AperFunction*%
%TA.AperFunction,Conductor*%
G36*
X105216834Y-65284373D02*
G01*
X105272767Y-65326245D01*
X105297184Y-65391709D01*
X105297500Y-65400555D01*
X105297500Y-80706300D01*
X105277815Y-80773339D01*
X105225011Y-80819094D01*
X105173500Y-80830300D01*
X98153803Y-80830300D01*
X98022848Y-80865389D01*
X98022847Y-80865388D01*
X97999046Y-80871766D01*
X97999039Y-80871769D01*
X97860290Y-80951875D01*
X97860285Y-80951879D01*
X94979080Y-83833084D01*
X94979078Y-83833087D01*
X94940591Y-83899749D01*
X94898968Y-83971841D01*
X94884879Y-84024422D01*
X94863203Y-84105319D01*
X94857500Y-84126603D01*
X94857500Y-86154304D01*
X94837815Y-86221343D01*
X94821181Y-86241985D01*
X94734585Y-86328581D01*
X94673262Y-86362066D01*
X94646904Y-86364900D01*
X92895887Y-86364900D01*
X92847644Y-86377826D01*
X92847645Y-86377827D01*
X92741127Y-86406368D01*
X92741125Y-86406368D01*
X92741125Y-86406369D01*
X92679342Y-86442040D01*
X92602372Y-86486478D01*
X92496151Y-86592700D01*
X92496137Y-86592712D01*
X92411084Y-86677767D01*
X92374766Y-86714086D01*
X92360271Y-86728581D01*
X92298948Y-86762066D01*
X92272589Y-86764900D01*
X91957345Y-86764900D01*
X91896802Y-86771410D01*
X91896795Y-86771412D01*
X91864331Y-86783520D01*
X91794639Y-86788503D01*
X91777669Y-86783520D01*
X91745204Y-86771412D01*
X91745202Y-86771411D01*
X91745201Y-86771411D01*
X91745200Y-86771410D01*
X91745197Y-86771410D01*
X91684654Y-86764900D01*
X91684638Y-86764900D01*
X90687362Y-86764900D01*
X90687345Y-86764900D01*
X90626802Y-86771410D01*
X90626795Y-86771412D01*
X90594331Y-86783520D01*
X90524639Y-86788503D01*
X90507669Y-86783520D01*
X90475204Y-86771412D01*
X90475202Y-86771411D01*
X90475201Y-86771411D01*
X90475200Y-86771410D01*
X90475197Y-86771410D01*
X90414654Y-86764900D01*
X90414638Y-86764900D01*
X89417362Y-86764900D01*
X89417345Y-86764900D01*
X89356802Y-86771410D01*
X89356795Y-86771412D01*
X89324331Y-86783520D01*
X89254639Y-86788503D01*
X89237669Y-86783520D01*
X89205204Y-86771412D01*
X89205202Y-86771411D01*
X89205201Y-86771411D01*
X89205200Y-86771410D01*
X89205197Y-86771410D01*
X89144654Y-86764900D01*
X89144638Y-86764900D01*
X88147362Y-86764900D01*
X88147345Y-86764900D01*
X88086797Y-86771411D01*
X88086795Y-86771411D01*
X87949795Y-86822511D01*
X87832739Y-86910139D01*
X87745111Y-87027195D01*
X87694011Y-87164195D01*
X87694011Y-87164197D01*
X87687500Y-87224745D01*
X87687500Y-87263900D01*
X87667815Y-87330939D01*
X87615011Y-87376694D01*
X87563500Y-87387900D01*
X85625595Y-87387900D01*
X85558556Y-87368215D01*
X85537914Y-87351581D01*
X83644114Y-85457781D01*
X83610629Y-85396458D01*
X83615613Y-85326766D01*
X83657485Y-85270833D01*
X83712396Y-85247627D01*
X83812600Y-85231757D01*
X84003008Y-85169888D01*
X84072848Y-85167894D01*
X84129006Y-85200139D01*
X84415888Y-85487022D01*
X84415892Y-85487025D01*
X84519971Y-85556569D01*
X84519984Y-85556576D01*
X84589092Y-85585201D01*
X84635631Y-85604478D01*
X84758404Y-85628899D01*
X84758408Y-85628900D01*
X84758409Y-85628900D01*
X84883591Y-85628900D01*
X86088391Y-85628900D01*
X86155430Y-85648585D01*
X86188155Y-85683732D01*
X86189796Y-85682504D01*
X86195110Y-85689603D01*
X86195111Y-85689604D01*
X86282739Y-85806661D01*
X86399796Y-85894289D01*
X86536799Y-85945389D01*
X86564050Y-85948318D01*
X86597345Y-85951899D01*
X86597362Y-85951900D01*
X88194638Y-85951900D01*
X88194654Y-85951899D01*
X88221692Y-85948991D01*
X88255201Y-85945389D01*
X88392204Y-85894289D01*
X88509261Y-85806661D01*
X88596889Y-85689604D01*
X88647989Y-85552601D01*
X88653688Y-85499592D01*
X88654499Y-85492054D01*
X88654500Y-85492037D01*
X88654500Y-84494762D01*
X88654499Y-84494745D01*
X88647989Y-84434200D01*
X88647988Y-84434197D01*
X88644636Y-84425211D01*
X88635880Y-84401734D01*
X88630895Y-84332043D01*
X88635880Y-84315066D01*
X88635978Y-84314802D01*
X88647989Y-84282601D01*
X88649485Y-84268677D01*
X88654499Y-84222054D01*
X88654500Y-84222037D01*
X88654500Y-83224762D01*
X88654499Y-83224745D01*
X88647989Y-83164200D01*
X88647988Y-83164197D01*
X88635880Y-83131734D01*
X88630895Y-83062043D01*
X88635880Y-83045066D01*
X88635978Y-83044802D01*
X88647989Y-83012601D01*
X88649653Y-82997126D01*
X88654499Y-82952054D01*
X88654500Y-82952037D01*
X88654500Y-81954762D01*
X88654499Y-81954745D01*
X88647989Y-81894200D01*
X88647988Y-81894197D01*
X88643748Y-81882830D01*
X88635880Y-81861734D01*
X88630895Y-81792043D01*
X88635880Y-81775066D01*
X88641052Y-81761200D01*
X88647989Y-81742601D01*
X88649485Y-81728677D01*
X88654499Y-81682054D01*
X88654500Y-81682037D01*
X88654500Y-80684762D01*
X88654499Y-80684745D01*
X88647989Y-80624200D01*
X88647988Y-80624197D01*
X88647987Y-80624195D01*
X88635880Y-80591734D01*
X88630895Y-80522043D01*
X88635880Y-80505066D01*
X88635978Y-80504802D01*
X88647989Y-80472601D01*
X88649485Y-80458677D01*
X88654499Y-80412054D01*
X88654500Y-80412037D01*
X88654500Y-79671244D01*
X95086000Y-79671244D01*
X95092401Y-79730772D01*
X95092403Y-79730779D01*
X95142645Y-79865486D01*
X95142649Y-79865493D01*
X95228809Y-79980587D01*
X95228812Y-79980590D01*
X95343906Y-80066750D01*
X95343913Y-80066754D01*
X95478620Y-80116996D01*
X95478627Y-80116998D01*
X95538155Y-80123399D01*
X95538172Y-80123400D01*
X95786000Y-80123400D01*
X96286000Y-80123400D01*
X96533828Y-80123400D01*
X96533844Y-80123399D01*
X96593372Y-80116998D01*
X96593376Y-80116997D01*
X96692666Y-80079964D01*
X96762358Y-80074980D01*
X96779334Y-80079964D01*
X96878623Y-80116997D01*
X96878627Y-80116998D01*
X96938155Y-80123399D01*
X96938172Y-80123400D01*
X97186000Y-80123400D01*
X97686000Y-80123400D01*
X97933828Y-80123400D01*
X97933844Y-80123399D01*
X97993372Y-80116998D01*
X97993376Y-80116997D01*
X98092666Y-80079964D01*
X98162358Y-80074980D01*
X98179334Y-80079964D01*
X98278623Y-80116997D01*
X98278627Y-80116998D01*
X98338155Y-80123399D01*
X98338172Y-80123400D01*
X98586000Y-80123400D01*
X99086000Y-80123400D01*
X99333828Y-80123400D01*
X99333844Y-80123399D01*
X99393372Y-80116998D01*
X99393379Y-80116996D01*
X99528086Y-80066754D01*
X99528093Y-80066750D01*
X99643187Y-79980590D01*
X99643190Y-79980587D01*
X99729350Y-79865493D01*
X99729354Y-79865486D01*
X99779596Y-79730779D01*
X99779598Y-79730772D01*
X99785999Y-79671244D01*
X99786000Y-79671227D01*
X99786000Y-79423400D01*
X99086000Y-79423400D01*
X99086000Y-80123400D01*
X98586000Y-80123400D01*
X98586000Y-79423400D01*
X97686000Y-79423400D01*
X97686000Y-80123400D01*
X97186000Y-80123400D01*
X97186000Y-79423400D01*
X96286000Y-79423400D01*
X96286000Y-80123400D01*
X95786000Y-80123400D01*
X95786000Y-79423400D01*
X95086000Y-79423400D01*
X95086000Y-79671244D01*
X88654500Y-79671244D01*
X88654500Y-79414762D01*
X88654499Y-79414745D01*
X88647989Y-79354200D01*
X88647988Y-79354197D01*
X88647987Y-79354195D01*
X88635880Y-79321734D01*
X88630895Y-79252043D01*
X88635880Y-79235066D01*
X88641857Y-79219041D01*
X88647989Y-79202601D01*
X88649485Y-79188677D01*
X88654499Y-79142054D01*
X88654500Y-79142037D01*
X88654500Y-78271244D01*
X95086000Y-78271244D01*
X95092401Y-78330772D01*
X95092403Y-78330783D01*
X95129434Y-78430068D01*
X95134418Y-78499760D01*
X95129434Y-78516732D01*
X95092403Y-78616016D01*
X95092401Y-78616027D01*
X95086000Y-78675555D01*
X95086000Y-78923400D01*
X95786000Y-78923400D01*
X96286000Y-78923400D01*
X97186000Y-78923400D01*
X97686000Y-78923400D01*
X98586000Y-78923400D01*
X99086000Y-78923400D01*
X99786000Y-78923400D01*
X99786000Y-78675572D01*
X99785999Y-78675555D01*
X99779598Y-78616027D01*
X99779597Y-78616023D01*
X99742564Y-78516734D01*
X99737580Y-78447042D01*
X99742564Y-78430066D01*
X99779597Y-78330776D01*
X99779598Y-78330772D01*
X99785999Y-78271244D01*
X99786000Y-78271227D01*
X99786000Y-78023400D01*
X99086000Y-78023400D01*
X99086000Y-78923400D01*
X98586000Y-78923400D01*
X98586000Y-78023400D01*
X97686000Y-78023400D01*
X97686000Y-78923400D01*
X97186000Y-78923400D01*
X97186000Y-78023400D01*
X96286000Y-78023400D01*
X96286000Y-78923400D01*
X95786000Y-78923400D01*
X95786000Y-78023400D01*
X95086000Y-78023400D01*
X95086000Y-78271244D01*
X88654500Y-78271244D01*
X88654500Y-78144762D01*
X88654499Y-78144745D01*
X88647989Y-78084200D01*
X88647988Y-78084197D01*
X88647987Y-78084195D01*
X88635880Y-78051734D01*
X88630895Y-77982043D01*
X88635880Y-77965066D01*
X88635978Y-77964802D01*
X88647989Y-77932601D01*
X88649485Y-77918677D01*
X88654499Y-77872054D01*
X88654500Y-77872037D01*
X88654500Y-76874762D01*
X88654499Y-76874745D01*
X88654123Y-76871244D01*
X95086000Y-76871244D01*
X95092401Y-76930772D01*
X95092403Y-76930783D01*
X95129434Y-77030068D01*
X95134418Y-77099760D01*
X95129434Y-77116732D01*
X95092403Y-77216016D01*
X95092401Y-77216027D01*
X95086000Y-77275555D01*
X95086000Y-77523400D01*
X95786000Y-77523400D01*
X96286000Y-77523400D01*
X97186000Y-77523400D01*
X97686000Y-77523400D01*
X98586000Y-77523400D01*
X99086000Y-77523400D01*
X99786000Y-77523400D01*
X99786000Y-77275572D01*
X99785999Y-77275555D01*
X99779598Y-77216027D01*
X99779597Y-77216023D01*
X99742564Y-77116734D01*
X99737580Y-77047042D01*
X99742564Y-77030066D01*
X99779597Y-76930776D01*
X99779598Y-76930772D01*
X99785999Y-76871244D01*
X99786000Y-76871227D01*
X99786000Y-76623400D01*
X99086000Y-76623400D01*
X99086000Y-77523400D01*
X98586000Y-77523400D01*
X98586000Y-76623400D01*
X97686000Y-76623400D01*
X97686000Y-77523400D01*
X97186000Y-77523400D01*
X97186000Y-76623400D01*
X96286000Y-76623400D01*
X96286000Y-77523400D01*
X95786000Y-77523400D01*
X95786000Y-76623400D01*
X95086000Y-76623400D01*
X95086000Y-76871244D01*
X88654123Y-76871244D01*
X88647989Y-76814200D01*
X88647988Y-76814197D01*
X88647987Y-76814195D01*
X88635880Y-76781734D01*
X88630895Y-76712043D01*
X88635880Y-76695066D01*
X88635978Y-76694802D01*
X88647989Y-76662601D01*
X88649485Y-76648677D01*
X88654499Y-76602054D01*
X88654500Y-76602037D01*
X88654500Y-75875555D01*
X95086000Y-75875555D01*
X95086000Y-76123400D01*
X95786000Y-76123400D01*
X96286000Y-76123400D01*
X97186000Y-76123400D01*
X97686000Y-76123400D01*
X98586000Y-76123400D01*
X99086000Y-76123400D01*
X99786000Y-76123400D01*
X99786000Y-75875572D01*
X99785999Y-75875555D01*
X99779598Y-75816027D01*
X99779596Y-75816020D01*
X99729354Y-75681313D01*
X99729350Y-75681306D01*
X99643190Y-75566212D01*
X99643187Y-75566209D01*
X99528093Y-75480049D01*
X99528086Y-75480045D01*
X99393379Y-75429803D01*
X99393372Y-75429801D01*
X99333844Y-75423400D01*
X99086000Y-75423400D01*
X99086000Y-76123400D01*
X98586000Y-76123400D01*
X98586000Y-75423400D01*
X98338155Y-75423400D01*
X98278627Y-75429801D01*
X98278616Y-75429803D01*
X98179332Y-75466834D01*
X98109640Y-75471818D01*
X98092668Y-75466834D01*
X97993383Y-75429803D01*
X97993372Y-75429801D01*
X97933844Y-75423400D01*
X97686000Y-75423400D01*
X97686000Y-76123400D01*
X97186000Y-76123400D01*
X97186000Y-75423400D01*
X96938155Y-75423400D01*
X96878627Y-75429801D01*
X96878616Y-75429803D01*
X96779332Y-75466834D01*
X96709640Y-75471818D01*
X96692668Y-75466834D01*
X96593383Y-75429803D01*
X96593372Y-75429801D01*
X96533844Y-75423400D01*
X96286000Y-75423400D01*
X96286000Y-76123400D01*
X95786000Y-76123400D01*
X95786000Y-75423400D01*
X95538155Y-75423400D01*
X95478627Y-75429801D01*
X95478620Y-75429803D01*
X95343913Y-75480045D01*
X95343906Y-75480049D01*
X95228812Y-75566209D01*
X95228809Y-75566212D01*
X95142649Y-75681306D01*
X95142645Y-75681313D01*
X95092403Y-75816020D01*
X95092401Y-75816027D01*
X95086000Y-75875555D01*
X88654500Y-75875555D01*
X88654500Y-75604762D01*
X88654499Y-75604745D01*
X88647989Y-75544200D01*
X88647988Y-75544197D01*
X88635880Y-75511734D01*
X88630895Y-75442043D01*
X88635880Y-75425066D01*
X88636501Y-75423400D01*
X88647989Y-75392601D01*
X88649485Y-75378677D01*
X88654499Y-75332054D01*
X88654500Y-75332037D01*
X88654500Y-74334762D01*
X88654499Y-74334745D01*
X88647989Y-74274200D01*
X88647035Y-74271642D01*
X88631343Y-74229572D01*
X88626359Y-74159882D01*
X88631344Y-74142904D01*
X88639597Y-74120775D01*
X88639598Y-74120772D01*
X88645999Y-74061244D01*
X88646000Y-74061227D01*
X88646000Y-73813400D01*
X86146000Y-73813400D01*
X86146000Y-74061244D01*
X86152401Y-74120772D01*
X86152403Y-74120782D01*
X86160656Y-74142909D01*
X86165639Y-74212600D01*
X86160655Y-74229571D01*
X86144892Y-74271835D01*
X86103022Y-74327769D01*
X86090715Y-74335887D01*
X86072370Y-74346479D01*
X82771188Y-77647661D01*
X82709865Y-77681146D01*
X82697392Y-77683200D01*
X82612358Y-77692781D01*
X82440383Y-77752957D01*
X82286118Y-77849889D01*
X82157289Y-77978718D01*
X82060358Y-78132982D01*
X82000182Y-78304953D01*
X82000181Y-78304958D01*
X81979784Y-78485996D01*
X81979784Y-78486003D01*
X82000181Y-78667041D01*
X82000182Y-78667046D01*
X82036634Y-78771218D01*
X82060357Y-78839015D01*
X82157289Y-78993281D01*
X82286119Y-79122111D01*
X82440385Y-79219043D01*
X82610018Y-79278400D01*
X82612353Y-79279217D01*
X82612358Y-79279218D01*
X82793396Y-79299616D01*
X82793400Y-79299616D01*
X82793404Y-79299616D01*
X82974441Y-79279218D01*
X82974444Y-79279217D01*
X82974447Y-79279217D01*
X83146415Y-79219043D01*
X83300681Y-79122111D01*
X83429511Y-78993281D01*
X83526443Y-78839015D01*
X83586617Y-78667047D01*
X83596198Y-78582005D01*
X83623263Y-78517595D01*
X83631727Y-78508220D01*
X85925821Y-76214127D01*
X85987142Y-76180644D01*
X86056834Y-76185628D01*
X86112767Y-76227500D01*
X86137184Y-76292964D01*
X86137500Y-76301810D01*
X86137500Y-76602054D01*
X86144010Y-76662597D01*
X86144012Y-76662604D01*
X86156120Y-76695069D01*
X86161103Y-76764761D01*
X86156120Y-76781731D01*
X86144012Y-76814195D01*
X86144010Y-76814202D01*
X86137500Y-76874745D01*
X86137500Y-77872054D01*
X86144010Y-77932597D01*
X86144012Y-77932604D01*
X86156120Y-77965069D01*
X86161103Y-78034761D01*
X86156120Y-78051731D01*
X86144012Y-78084195D01*
X86144010Y-78084202D01*
X86137500Y-78144745D01*
X86137500Y-79142054D01*
X86144010Y-79202597D01*
X86144012Y-79202604D01*
X86156120Y-79235069D01*
X86161103Y-79304761D01*
X86156120Y-79321731D01*
X86144012Y-79354195D01*
X86144010Y-79354202D01*
X86137500Y-79414745D01*
X86137500Y-80412054D01*
X86144010Y-80472597D01*
X86144012Y-80472604D01*
X86156120Y-80505069D01*
X86161103Y-80574761D01*
X86156120Y-80591731D01*
X86144012Y-80624195D01*
X86144010Y-80624202D01*
X86137500Y-80684745D01*
X86137500Y-81682054D01*
X86144010Y-81742597D01*
X86144012Y-81742604D01*
X86156120Y-81775069D01*
X86161103Y-81844761D01*
X86156120Y-81861731D01*
X86141301Y-81901465D01*
X86139003Y-81900608D01*
X86110394Y-81950841D01*
X86048481Y-81983222D01*
X85978890Y-81976990D01*
X85936617Y-81949284D01*
X85545511Y-81558177D01*
X85545507Y-81558174D01*
X85441428Y-81488630D01*
X85441415Y-81488623D01*
X85325773Y-81440723D01*
X85325761Y-81440720D01*
X85202995Y-81416300D01*
X85202991Y-81416300D01*
X80166209Y-81416300D01*
X80166204Y-81416300D01*
X80043438Y-81440720D01*
X80043426Y-81440723D01*
X79927784Y-81488623D01*
X79927769Y-81488631D01*
X79882456Y-81518910D01*
X79882454Y-81518912D01*
X79823689Y-81558176D01*
X79823688Y-81558177D01*
X79383981Y-81997885D01*
X79322658Y-82031370D01*
X79252966Y-82026386D01*
X79197033Y-81984514D01*
X79172616Y-81919050D01*
X79172300Y-81910204D01*
X79172300Y-80243194D01*
X79191985Y-80176155D01*
X79208614Y-80155518D01*
X86014413Y-73349718D01*
X86075736Y-73316234D01*
X86102094Y-73313400D01*
X87146000Y-73313400D01*
X87646000Y-73313400D01*
X88646000Y-73313400D01*
X88646000Y-73065572D01*
X88645999Y-73065555D01*
X88639598Y-73006027D01*
X88639596Y-73006020D01*
X88589354Y-72871313D01*
X88589350Y-72871306D01*
X88503190Y-72756212D01*
X88503187Y-72756209D01*
X88388093Y-72670049D01*
X88388086Y-72670045D01*
X88253379Y-72619803D01*
X88253372Y-72619801D01*
X88193844Y-72613400D01*
X87646000Y-72613400D01*
X87646000Y-73313400D01*
X87146000Y-73313400D01*
X87146000Y-72613400D01*
X87050094Y-72613400D01*
X86983055Y-72593715D01*
X86937300Y-72540911D01*
X86927356Y-72471753D01*
X86956381Y-72408197D01*
X86962413Y-72401719D01*
X87127695Y-72236437D01*
X87696563Y-71667568D01*
X87757884Y-71634085D01*
X87827575Y-71639069D01*
X87858553Y-71655985D01*
X87949792Y-71724287D01*
X87949793Y-71724288D01*
X88081464Y-71773399D01*
X88086799Y-71775389D01*
X88114050Y-71778318D01*
X88147345Y-71781899D01*
X88147362Y-71781900D01*
X89144638Y-71781900D01*
X89144654Y-71781899D01*
X89191277Y-71776885D01*
X89205201Y-71775389D01*
X89237666Y-71763280D01*
X89307357Y-71758295D01*
X89324334Y-71763280D01*
X89356799Y-71775389D01*
X89363760Y-71776137D01*
X89417345Y-71781899D01*
X89417362Y-71781900D01*
X90414638Y-71781900D01*
X90414654Y-71781899D01*
X90461277Y-71776885D01*
X90475201Y-71775389D01*
X90507666Y-71763280D01*
X90577357Y-71758295D01*
X90594334Y-71763280D01*
X90626799Y-71775389D01*
X90633760Y-71776137D01*
X90687345Y-71781899D01*
X90687362Y-71781900D01*
X91684638Y-71781900D01*
X91684654Y-71781899D01*
X91731277Y-71776885D01*
X91745201Y-71775389D01*
X91777666Y-71763280D01*
X91847357Y-71758295D01*
X91864334Y-71763280D01*
X91896799Y-71775389D01*
X91903760Y-71776137D01*
X91957345Y-71781899D01*
X91957362Y-71781900D01*
X92954638Y-71781900D01*
X92954654Y-71781899D01*
X93001277Y-71776885D01*
X93015201Y-71775389D01*
X93047666Y-71763280D01*
X93117357Y-71758295D01*
X93134334Y-71763280D01*
X93166799Y-71775389D01*
X93173760Y-71776137D01*
X93227345Y-71781899D01*
X93227362Y-71781900D01*
X94224638Y-71781900D01*
X94224654Y-71781899D01*
X94271277Y-71776885D01*
X94285201Y-71775389D01*
X94317666Y-71763280D01*
X94387357Y-71758295D01*
X94404334Y-71763280D01*
X94436799Y-71775389D01*
X94443760Y-71776137D01*
X94497345Y-71781899D01*
X94497362Y-71781900D01*
X95494638Y-71781900D01*
X95494654Y-71781899D01*
X95541277Y-71776885D01*
X95555201Y-71775389D01*
X95587666Y-71763280D01*
X95657357Y-71758295D01*
X95674334Y-71763280D01*
X95706799Y-71775389D01*
X95713760Y-71776137D01*
X95767345Y-71781899D01*
X95767362Y-71781900D01*
X96764638Y-71781900D01*
X96764654Y-71781899D01*
X96811277Y-71776885D01*
X96825201Y-71775389D01*
X96857666Y-71763280D01*
X96927357Y-71758295D01*
X96944334Y-71763280D01*
X96976799Y-71775389D01*
X96983760Y-71776137D01*
X97037345Y-71781899D01*
X97037362Y-71781900D01*
X98034638Y-71781900D01*
X98034654Y-71781899D01*
X98081277Y-71776885D01*
X98095201Y-71775389D01*
X98127666Y-71763280D01*
X98197357Y-71758295D01*
X98214334Y-71763280D01*
X98246799Y-71775389D01*
X98253760Y-71776137D01*
X98307345Y-71781899D01*
X98307362Y-71781900D01*
X99304638Y-71781900D01*
X99304654Y-71781899D01*
X99351277Y-71776885D01*
X99365201Y-71775389D01*
X99397666Y-71763280D01*
X99467357Y-71758295D01*
X99484334Y-71763280D01*
X99516799Y-71775389D01*
X99523760Y-71776137D01*
X99577345Y-71781899D01*
X99577362Y-71781900D01*
X100574638Y-71781900D01*
X100574654Y-71781899D01*
X100621277Y-71776885D01*
X100635201Y-71775389D01*
X100667666Y-71763280D01*
X100737357Y-71758295D01*
X100754334Y-71763280D01*
X100786799Y-71775389D01*
X100793760Y-71776137D01*
X100847345Y-71781899D01*
X100847362Y-71781900D01*
X101844638Y-71781900D01*
X101844654Y-71781899D01*
X101891277Y-71776885D01*
X101905201Y-71775389D01*
X101937666Y-71763280D01*
X102007357Y-71758295D01*
X102024334Y-71763280D01*
X102056799Y-71775389D01*
X102063760Y-71776137D01*
X102117345Y-71781899D01*
X102117362Y-71781900D01*
X103114638Y-71781900D01*
X103114654Y-71781899D01*
X103161277Y-71776885D01*
X103175201Y-71775389D01*
X103207666Y-71763280D01*
X103277357Y-71758295D01*
X103294334Y-71763280D01*
X103326799Y-71775389D01*
X103333760Y-71776137D01*
X103387345Y-71781899D01*
X103387362Y-71781900D01*
X104384638Y-71781900D01*
X104384654Y-71781899D01*
X104422560Y-71777823D01*
X104445201Y-71775389D01*
X104489828Y-71758743D01*
X104559514Y-71753758D01*
X104576495Y-71758744D01*
X104598623Y-71766998D01*
X104658155Y-71773399D01*
X104658172Y-71773400D01*
X104906000Y-71773400D01*
X104906000Y-69273400D01*
X104658155Y-69273400D01*
X104598627Y-69279801D01*
X104598617Y-69279803D01*
X104576491Y-69288056D01*
X104506800Y-69293039D01*
X104489828Y-69288055D01*
X104445202Y-69271411D01*
X104384654Y-69264900D01*
X104384638Y-69264900D01*
X104079411Y-69264900D01*
X104012372Y-69245215D01*
X103991730Y-69228581D01*
X103660819Y-68897670D01*
X103627334Y-68836347D01*
X103624500Y-68809989D01*
X103624500Y-66825555D01*
X103644185Y-66758516D01*
X103660819Y-66737874D01*
X105085819Y-65312874D01*
X105147142Y-65279389D01*
X105216834Y-65284373D01*
G37*
%TD.AperFunction*%
%TA.AperFunction,Conductor*%
G36*
X66364448Y-84714084D02*
G01*
X66398913Y-84728360D01*
X66431805Y-84732690D01*
X66495702Y-84760956D01*
X66503302Y-84767948D01*
X66567000Y-84831646D01*
X66618627Y-84780019D01*
X66679950Y-84746534D01*
X66706308Y-84743700D01*
X66768566Y-84743700D01*
X66823609Y-84736453D01*
X66815870Y-84755138D01*
X66815870Y-84815262D01*
X66838878Y-84870808D01*
X66881392Y-84913322D01*
X66936938Y-84936330D01*
X66997062Y-84936330D01*
X67052608Y-84913322D01*
X67095122Y-84870808D01*
X67118130Y-84815262D01*
X67118130Y-84755138D01*
X67110390Y-84736453D01*
X67165434Y-84743700D01*
X67227692Y-84743700D01*
X67294731Y-84763385D01*
X67315373Y-84780019D01*
X67366999Y-84831645D01*
X67412478Y-84786168D01*
X67430693Y-84767952D01*
X67492014Y-84734463D01*
X67502150Y-84732696D01*
X67535087Y-84728360D01*
X67569547Y-84714085D01*
X67635826Y-84706958D01*
X67615870Y-84755138D01*
X67615870Y-84815262D01*
X67638878Y-84870808D01*
X67681392Y-84913322D01*
X67736938Y-84936330D01*
X67797062Y-84936330D01*
X67841363Y-84917979D01*
X67845582Y-84957218D01*
X67838114Y-84982650D01*
X67823841Y-85017109D01*
X67823840Y-85017113D01*
X67819509Y-85050007D01*
X67791241Y-85113903D01*
X67784253Y-85121499D01*
X67720554Y-85185199D01*
X67772181Y-85236826D01*
X67805666Y-85298149D01*
X67808500Y-85324508D01*
X67808500Y-85386766D01*
X67815746Y-85441809D01*
X67797062Y-85434070D01*
X67736938Y-85434070D01*
X67681392Y-85457078D01*
X67638878Y-85499592D01*
X67615870Y-85555138D01*
X67615870Y-85615262D01*
X67638878Y-85670808D01*
X67681392Y-85713322D01*
X67736938Y-85736330D01*
X67797062Y-85736330D01*
X67815745Y-85728591D01*
X67808500Y-85783630D01*
X67808500Y-85845892D01*
X67788815Y-85912931D01*
X67772181Y-85933573D01*
X67720554Y-85985200D01*
X67784251Y-86048897D01*
X67817736Y-86110220D01*
X67819509Y-86120391D01*
X67823840Y-86153287D01*
X67827667Y-86162526D01*
X67838114Y-86187748D01*
X67845237Y-86254025D01*
X67797062Y-86234070D01*
X67736938Y-86234070D01*
X67681392Y-86257078D01*
X67638878Y-86299592D01*
X67615870Y-86355138D01*
X67615870Y-86415262D01*
X67634220Y-86459563D01*
X67594980Y-86463781D01*
X67569548Y-86456314D01*
X67568459Y-86455862D01*
X67535087Y-86442040D01*
X67523391Y-86440500D01*
X67502191Y-86437709D01*
X67438295Y-86409442D01*
X67430697Y-86402451D01*
X67367000Y-86338754D01*
X67315373Y-86390381D01*
X67254050Y-86423866D01*
X67227692Y-86426700D01*
X67165431Y-86426700D01*
X67110391Y-86433945D01*
X67118130Y-86415262D01*
X67118130Y-86355138D01*
X67095122Y-86299592D01*
X67052608Y-86257078D01*
X66997062Y-86234070D01*
X66936938Y-86234070D01*
X66881392Y-86257078D01*
X66838878Y-86299592D01*
X66815870Y-86355138D01*
X66815870Y-86415262D01*
X66823609Y-86433946D01*
X66768567Y-86426700D01*
X66768566Y-86426700D01*
X66706308Y-86426700D01*
X66639269Y-86407015D01*
X66618627Y-86390381D01*
X66567000Y-86338754D01*
X66521524Y-86384230D01*
X66521522Y-86384233D01*
X66503300Y-86402454D01*
X66441976Y-86435937D01*
X66431808Y-86437709D01*
X66398913Y-86442040D01*
X66398909Y-86442041D01*
X66364450Y-86456314D01*
X66298174Y-86463437D01*
X66318130Y-86415262D01*
X66318130Y-86355138D01*
X66295122Y-86299592D01*
X66252608Y-86257078D01*
X66197062Y-86234070D01*
X66136938Y-86234070D01*
X66084721Y-86255698D01*
X66079041Y-86241985D01*
X66074903Y-86231995D01*
X66067434Y-86162526D01*
X66098709Y-86100047D01*
X66101783Y-86096861D01*
X66213444Y-85985200D01*
X66920554Y-85985200D01*
X66967000Y-86031646D01*
X67013446Y-85985200D01*
X66967000Y-85938754D01*
X66920554Y-85985200D01*
X66213444Y-85985200D01*
X66213445Y-85985199D01*
X66077904Y-85849658D01*
X66044419Y-85788335D01*
X66049403Y-85718643D01*
X66064000Y-85695930D01*
X66081392Y-85713322D01*
X66136938Y-85736330D01*
X66197062Y-85736330D01*
X66252608Y-85713322D01*
X66295122Y-85670808D01*
X66318130Y-85615262D01*
X66318130Y-85585200D01*
X66520554Y-85585200D01*
X66567000Y-85631646D01*
X66613446Y-85585200D01*
X66583384Y-85555138D01*
X66815870Y-85555138D01*
X66815870Y-85615262D01*
X66838878Y-85670808D01*
X66881392Y-85713322D01*
X66936938Y-85736330D01*
X66997062Y-85736330D01*
X67052608Y-85713322D01*
X67095122Y-85670808D01*
X67118130Y-85615262D01*
X67118130Y-85585200D01*
X67320554Y-85585200D01*
X67367000Y-85631646D01*
X67413446Y-85585200D01*
X67367000Y-85538754D01*
X67320554Y-85585200D01*
X67118130Y-85585200D01*
X67118130Y-85555138D01*
X67095122Y-85499592D01*
X67052608Y-85457078D01*
X66997062Y-85434070D01*
X66936938Y-85434070D01*
X66881392Y-85457078D01*
X66838878Y-85499592D01*
X66815870Y-85555138D01*
X66583384Y-85555138D01*
X66567000Y-85538754D01*
X66520554Y-85585200D01*
X66318130Y-85585200D01*
X66318130Y-85555138D01*
X66295122Y-85499592D01*
X66252608Y-85457078D01*
X66197062Y-85434070D01*
X66136938Y-85434070D01*
X66118253Y-85441809D01*
X66125500Y-85386766D01*
X66125500Y-85324508D01*
X66145185Y-85257469D01*
X66161819Y-85236827D01*
X66213446Y-85185200D01*
X66920554Y-85185200D01*
X66967000Y-85231646D01*
X67013446Y-85185200D01*
X66967000Y-85138754D01*
X66920554Y-85185200D01*
X66213446Y-85185200D01*
X66149748Y-85121502D01*
X66116263Y-85060179D01*
X66114490Y-85050005D01*
X66110160Y-85017115D01*
X66110160Y-85017113D01*
X66095885Y-84982650D01*
X66088758Y-84916373D01*
X66136938Y-84936330D01*
X66197062Y-84936330D01*
X66252608Y-84913322D01*
X66295122Y-84870808D01*
X66318130Y-84815262D01*
X66318130Y-84755138D01*
X66299778Y-84710834D01*
X66339016Y-84706616D01*
X66364448Y-84714084D01*
G37*
%TD.AperFunction*%
%TA.AperFunction,Conductor*%
G36*
X71607428Y-76561385D02*
G01*
X71628070Y-76578019D01*
X74549167Y-79499116D01*
X74582652Y-79560439D01*
X74577668Y-79630131D01*
X74535796Y-79686064D01*
X74500490Y-79704503D01*
X74419064Y-79731484D01*
X74419059Y-79731486D01*
X74268149Y-79824569D01*
X74173470Y-79919248D01*
X74112146Y-79952732D01*
X74042455Y-79947748D01*
X73998108Y-79919247D01*
X73910145Y-79831284D01*
X73760924Y-79739243D01*
X73760919Y-79739241D01*
X73594497Y-79684094D01*
X73594490Y-79684093D01*
X73491786Y-79673600D01*
X73341800Y-79673600D01*
X73341800Y-82073599D01*
X73491772Y-82073599D01*
X73491786Y-82073598D01*
X73594497Y-82063105D01*
X73760919Y-82007958D01*
X73760924Y-82007956D01*
X73910142Y-81915917D01*
X73998107Y-81827952D01*
X74059430Y-81794467D01*
X74129122Y-81799451D01*
X74173470Y-81827952D01*
X74268148Y-81922630D01*
X74419062Y-82015715D01*
X74587374Y-82071487D01*
X74691255Y-82082100D01*
X75388388Y-82082099D01*
X75455427Y-82101783D01*
X75476069Y-82118418D01*
X75520181Y-82162530D01*
X75553666Y-82223853D01*
X75556500Y-82250211D01*
X75556500Y-83877700D01*
X75536815Y-83944739D01*
X75484011Y-83990494D01*
X75432500Y-84001700D01*
X69578783Y-84001700D01*
X69531330Y-83992261D01*
X69527064Y-83990494D01*
X69410087Y-83942040D01*
X69410085Y-83942039D01*
X69293567Y-83926700D01*
X69293566Y-83926700D01*
X68749500Y-83926700D01*
X68682461Y-83907015D01*
X68636706Y-83854211D01*
X68625500Y-83802700D01*
X68625500Y-83258633D01*
X68610160Y-83142114D01*
X68610158Y-83142109D01*
X68550107Y-82997132D01*
X68550104Y-82997126D01*
X68454572Y-82872628D01*
X68454571Y-82872627D01*
X68330073Y-82777095D01*
X68330069Y-82777093D01*
X68250096Y-82743967D01*
X68209868Y-82717087D01*
X67686819Y-82194038D01*
X67653334Y-82132715D01*
X67650500Y-82106357D01*
X67650500Y-81373586D01*
X71991801Y-81373586D01*
X72002294Y-81476297D01*
X72057441Y-81642719D01*
X72057443Y-81642724D01*
X72149484Y-81791945D01*
X72273454Y-81915915D01*
X72422675Y-82007956D01*
X72422680Y-82007958D01*
X72589102Y-82063105D01*
X72589109Y-82063106D01*
X72691819Y-82073599D01*
X72841799Y-82073599D01*
X72841800Y-82073598D01*
X72841800Y-81123600D01*
X71991801Y-81123600D01*
X71991801Y-81373586D01*
X67650500Y-81373586D01*
X67650500Y-80373613D01*
X71991800Y-80373613D01*
X71991800Y-80623600D01*
X72841800Y-80623600D01*
X72841800Y-79673600D01*
X72691827Y-79673600D01*
X72691812Y-79673601D01*
X72589102Y-79684094D01*
X72422680Y-79739241D01*
X72422675Y-79739243D01*
X72273454Y-79831284D01*
X72149484Y-79955254D01*
X72057443Y-80104475D01*
X72057441Y-80104480D01*
X72002294Y-80270902D01*
X72002293Y-80270909D01*
X71991800Y-80373613D01*
X67650500Y-80373613D01*
X67650500Y-77559297D01*
X67670185Y-77492258D01*
X67686819Y-77471616D01*
X68580416Y-76578019D01*
X68641739Y-76544534D01*
X68668097Y-76541700D01*
X71540389Y-76541700D01*
X71607428Y-76561385D01*
G37*
%TD.AperFunction*%
%TA.AperFunction,Conductor*%
G36*
X68816828Y-49878785D02*
G01*
X68837470Y-49895419D01*
X70499181Y-51557130D01*
X70532666Y-51618453D01*
X70535500Y-51644811D01*
X70535500Y-52341937D01*
X70535501Y-52341953D01*
X70546113Y-52445827D01*
X70581431Y-52552411D01*
X70601885Y-52614138D01*
X70694970Y-52765052D01*
X70820348Y-52890430D01*
X70971262Y-52983515D01*
X71139574Y-53039287D01*
X71243455Y-53049900D01*
X71274518Y-53049899D01*
X71336520Y-53066511D01*
X71409128Y-53108432D01*
X71563889Y-53149900D01*
X71563891Y-53149900D01*
X71724109Y-53149900D01*
X71724111Y-53149900D01*
X71878872Y-53108432D01*
X71905266Y-53093192D01*
X71973166Y-53076719D01*
X72039193Y-53099570D01*
X72054949Y-53112898D01*
X77493373Y-58551322D01*
X77632127Y-58631432D01*
X77709508Y-58652166D01*
X77786889Y-58672900D01*
X77786890Y-58672900D01*
X77947110Y-58672900D01*
X80817137Y-58672900D01*
X80884176Y-58692585D01*
X80929931Y-58745389D01*
X80934843Y-58757896D01*
X80969384Y-58862135D01*
X80969386Y-58862140D01*
X80970212Y-58863479D01*
X81062470Y-59013052D01*
X81187848Y-59138430D01*
X81338762Y-59231515D01*
X81507074Y-59287287D01*
X81610955Y-59297900D01*
X81629517Y-59297899D01*
X81691520Y-59314511D01*
X81764128Y-59356432D01*
X81918889Y-59397900D01*
X81918891Y-59397900D01*
X82079109Y-59397900D01*
X82079111Y-59397900D01*
X82233872Y-59356432D01*
X82233875Y-59356430D01*
X82306480Y-59314512D01*
X82368480Y-59297899D01*
X82387037Y-59297899D01*
X82387044Y-59297899D01*
X82490926Y-59287287D01*
X82659238Y-59231515D01*
X82810152Y-59138430D01*
X82935530Y-59013052D01*
X82935949Y-59012371D01*
X82936359Y-59012002D01*
X82940011Y-59007385D01*
X82940799Y-59008008D01*
X82987889Y-58965644D01*
X83056850Y-58954414D01*
X83120936Y-58982250D01*
X83138761Y-59002820D01*
X83139702Y-59002077D01*
X83144183Y-59007744D01*
X83268154Y-59131715D01*
X83417375Y-59223756D01*
X83417380Y-59223758D01*
X83583802Y-59278905D01*
X83583809Y-59278906D01*
X83686519Y-59289399D01*
X83823999Y-59289399D01*
X84324000Y-59289399D01*
X84461472Y-59289399D01*
X84461486Y-59289398D01*
X84564197Y-59278905D01*
X84730619Y-59223758D01*
X84730624Y-59223756D01*
X84879845Y-59131715D01*
X85003815Y-59007745D01*
X85095856Y-58858524D01*
X85095858Y-58858519D01*
X85151005Y-58692097D01*
X85151006Y-58692090D01*
X85161499Y-58589386D01*
X85161500Y-58589373D01*
X85161500Y-58314400D01*
X84324000Y-58314400D01*
X84324000Y-59289399D01*
X83823999Y-59289399D01*
X83824000Y-59289398D01*
X83824000Y-57814400D01*
X84324000Y-57814400D01*
X85161499Y-57814400D01*
X85161499Y-57539428D01*
X85161498Y-57539413D01*
X85151005Y-57436702D01*
X85095858Y-57270280D01*
X85095856Y-57270275D01*
X85003815Y-57121054D01*
X84879845Y-56997084D01*
X84730624Y-56905043D01*
X84730619Y-56905041D01*
X84564197Y-56849894D01*
X84564190Y-56849893D01*
X84461486Y-56839400D01*
X84324000Y-56839400D01*
X84324000Y-57814400D01*
X83824000Y-57814400D01*
X83824000Y-56839400D01*
X83686527Y-56839400D01*
X83686512Y-56839401D01*
X83583802Y-56849894D01*
X83417380Y-56905041D01*
X83417375Y-56905043D01*
X83268154Y-56997084D01*
X83144183Y-57121055D01*
X83139702Y-57126723D01*
X83137521Y-57124998D01*
X83095056Y-57163175D01*
X83026091Y-57174380D01*
X82962016Y-57146521D01*
X82940163Y-57121294D01*
X82940011Y-57121415D01*
X82937316Y-57118006D01*
X82935951Y-57116431D01*
X82935529Y-57115747D01*
X82810152Y-56990370D01*
X82810148Y-56990367D01*
X82666403Y-56901703D01*
X82619678Y-56849755D01*
X82607500Y-56796165D01*
X82607500Y-54600811D01*
X82627185Y-54533772D01*
X82643819Y-54513130D01*
X86702730Y-50454219D01*
X86764053Y-50420734D01*
X86790411Y-50417900D01*
X88921501Y-50417900D01*
X88988540Y-50437585D01*
X89034295Y-50490389D01*
X89045501Y-50541900D01*
X89045501Y-50704953D01*
X89056113Y-50808827D01*
X89092205Y-50917746D01*
X89111885Y-50977138D01*
X89204970Y-51128052D01*
X89330348Y-51253430D01*
X89481262Y-51346515D01*
X89649574Y-51402287D01*
X89753455Y-51412900D01*
X91094544Y-51412899D01*
X91198426Y-51402287D01*
X91201607Y-51401232D01*
X91203689Y-51401161D01*
X91205049Y-51400870D01*
X91205100Y-51401112D01*
X91271433Y-51398823D01*
X91328304Y-51431253D01*
X99963181Y-60066130D01*
X99996666Y-60127453D01*
X99999500Y-60153811D01*
X99999500Y-60850937D01*
X99999501Y-60850953D01*
X100010113Y-60954826D01*
X100065885Y-61123138D01*
X100158970Y-61274052D01*
X100284348Y-61399430D01*
X100435262Y-61492515D01*
X100603574Y-61548287D01*
X100707455Y-61558900D01*
X101508544Y-61558899D01*
X101612426Y-61548287D01*
X101780738Y-61492515D01*
X101931652Y-61399430D01*
X102020319Y-61310763D01*
X102081642Y-61277278D01*
X102151334Y-61282262D01*
X102195681Y-61310763D01*
X102284348Y-61399430D01*
X102435262Y-61492515D01*
X102603574Y-61548287D01*
X102707455Y-61558900D01*
X103404588Y-61558899D01*
X103471627Y-61578583D01*
X103492269Y-61595218D01*
X103643681Y-61746630D01*
X103677166Y-61807953D01*
X103680000Y-61834311D01*
X103680000Y-62384165D01*
X103660315Y-62451204D01*
X103621097Y-62489703D01*
X103477351Y-62578367D01*
X103477347Y-62578370D01*
X103351970Y-62703747D01*
X103351968Y-62703750D01*
X103351541Y-62704443D01*
X103351123Y-62704818D01*
X103347489Y-62709415D01*
X103346703Y-62708793D01*
X103299591Y-62751164D01*
X103230627Y-62762383D01*
X103166547Y-62734536D01*
X103148739Y-62713978D01*
X103147798Y-62714723D01*
X103143316Y-62709055D01*
X103019345Y-62585084D01*
X102870124Y-62493043D01*
X102870119Y-62493041D01*
X102703697Y-62437894D01*
X102703690Y-62437893D01*
X102600986Y-62427400D01*
X102463500Y-62427400D01*
X102463500Y-63528400D01*
X102443815Y-63595439D01*
X102391011Y-63641194D01*
X102339500Y-63652400D01*
X102213500Y-63652400D01*
X102213500Y-63778400D01*
X102193815Y-63845439D01*
X102141011Y-63891194D01*
X102089500Y-63902400D01*
X101126001Y-63902400D01*
X101126001Y-64177386D01*
X101136494Y-64280097D01*
X101191641Y-64446519D01*
X101191643Y-64446524D01*
X101283684Y-64595745D01*
X101407654Y-64719715D01*
X101556875Y-64811756D01*
X101556880Y-64811758D01*
X101723302Y-64866905D01*
X101723309Y-64866906D01*
X101826019Y-64877399D01*
X101956953Y-64877399D01*
X102023993Y-64897083D01*
X102069748Y-64949887D01*
X102079692Y-65019045D01*
X102064341Y-65063398D01*
X102048968Y-65090024D01*
X102048968Y-65090027D01*
X102007500Y-65244789D01*
X102007500Y-69144363D01*
X101987815Y-69211402D01*
X101935011Y-69257157D01*
X101870245Y-69267653D01*
X101844638Y-69264900D01*
X100847362Y-69264900D01*
X100847345Y-69264900D01*
X100786802Y-69271410D01*
X100786795Y-69271412D01*
X100754331Y-69283520D01*
X100684639Y-69288503D01*
X100667669Y-69283520D01*
X100635204Y-69271412D01*
X100635202Y-69271411D01*
X100635201Y-69271411D01*
X100635200Y-69271410D01*
X100635197Y-69271410D01*
X100574654Y-69264900D01*
X100574638Y-69264900D01*
X99577362Y-69264900D01*
X99577345Y-69264900D01*
X99516802Y-69271410D01*
X99516795Y-69271412D01*
X99484331Y-69283520D01*
X99414639Y-69288503D01*
X99397669Y-69283520D01*
X99365204Y-69271412D01*
X99365202Y-69271411D01*
X99365201Y-69271411D01*
X99365200Y-69271410D01*
X99365197Y-69271410D01*
X99304654Y-69264900D01*
X99304638Y-69264900D01*
X98307362Y-69264900D01*
X98307345Y-69264900D01*
X98246802Y-69271410D01*
X98246795Y-69271412D01*
X98214331Y-69283520D01*
X98144639Y-69288503D01*
X98127669Y-69283520D01*
X98095204Y-69271412D01*
X98095202Y-69271411D01*
X98095201Y-69271411D01*
X98095200Y-69271410D01*
X98095197Y-69271410D01*
X98034654Y-69264900D01*
X98034638Y-69264900D01*
X97037362Y-69264900D01*
X97037345Y-69264900D01*
X96976802Y-69271410D01*
X96976795Y-69271412D01*
X96944331Y-69283520D01*
X96874639Y-69288503D01*
X96857669Y-69283520D01*
X96825204Y-69271412D01*
X96825202Y-69271411D01*
X96825201Y-69271411D01*
X96825200Y-69271410D01*
X96825197Y-69271410D01*
X96764654Y-69264900D01*
X96764638Y-69264900D01*
X95767362Y-69264900D01*
X95767345Y-69264900D01*
X95706802Y-69271410D01*
X95706795Y-69271412D01*
X95674331Y-69283520D01*
X95604639Y-69288503D01*
X95587669Y-69283520D01*
X95555204Y-69271412D01*
X95555202Y-69271411D01*
X95555201Y-69271411D01*
X95555200Y-69271410D01*
X95555197Y-69271410D01*
X95494654Y-69264900D01*
X95494638Y-69264900D01*
X94497362Y-69264900D01*
X94497345Y-69264900D01*
X94436802Y-69271410D01*
X94436795Y-69271412D01*
X94404331Y-69283520D01*
X94334639Y-69288503D01*
X94317669Y-69283520D01*
X94285204Y-69271412D01*
X94285202Y-69271411D01*
X94285201Y-69271411D01*
X94285200Y-69271410D01*
X94285197Y-69271410D01*
X94224654Y-69264900D01*
X94224638Y-69264900D01*
X93227362Y-69264900D01*
X93227345Y-69264900D01*
X93166802Y-69271410D01*
X93166795Y-69271412D01*
X93134331Y-69283520D01*
X93064639Y-69288503D01*
X93047669Y-69283520D01*
X93015204Y-69271412D01*
X93015202Y-69271411D01*
X93015201Y-69271411D01*
X93015200Y-69271410D01*
X93015197Y-69271410D01*
X92954654Y-69264900D01*
X92954638Y-69264900D01*
X91957362Y-69264900D01*
X91957345Y-69264900D01*
X91896802Y-69271410D01*
X91896795Y-69271412D01*
X91864331Y-69283520D01*
X91794639Y-69288503D01*
X91777669Y-69283520D01*
X91745204Y-69271412D01*
X91745202Y-69271411D01*
X91745201Y-69271411D01*
X91745200Y-69271410D01*
X91745197Y-69271410D01*
X91684654Y-69264900D01*
X91684638Y-69264900D01*
X90687362Y-69264900D01*
X90687345Y-69264900D01*
X90626802Y-69271410D01*
X90619245Y-69273196D01*
X90618808Y-69271348D01*
X90559200Y-69275599D01*
X90497883Y-69242101D01*
X90482481Y-69223328D01*
X90409628Y-69114296D01*
X90409627Y-69114294D01*
X90409625Y-69114292D01*
X90321108Y-69025775D01*
X90194508Y-68899175D01*
X90194507Y-68899174D01*
X90190177Y-68894844D01*
X90190166Y-68894834D01*
X88035511Y-66740177D01*
X88035507Y-66740174D01*
X87931428Y-66670630D01*
X87931415Y-66670623D01*
X87815773Y-66622723D01*
X87815761Y-66622720D01*
X87692995Y-66598300D01*
X87692991Y-66598300D01*
X85278377Y-66598300D01*
X85212405Y-66579293D01*
X85087422Y-66500760D01*
X85087419Y-66500758D01*
X84915446Y-66440582D01*
X84915441Y-66440581D01*
X84734404Y-66420184D01*
X84734396Y-66420184D01*
X84553358Y-66440581D01*
X84553353Y-66440582D01*
X84381382Y-66500758D01*
X84227118Y-66597689D01*
X84098289Y-66726518D01*
X84001358Y-66880782D01*
X83941182Y-67052753D01*
X83941181Y-67052758D01*
X83920784Y-67233796D01*
X83920784Y-67233803D01*
X83941181Y-67414841D01*
X83941182Y-67414846D01*
X83974980Y-67511434D01*
X84001357Y-67586815D01*
X84098289Y-67741081D01*
X84227119Y-67869911D01*
X84381385Y-67966843D01*
X84550552Y-68026037D01*
X84553353Y-68027017D01*
X84553358Y-68027018D01*
X84734396Y-68047416D01*
X84734400Y-68047416D01*
X84734404Y-68047416D01*
X84915441Y-68027018D01*
X84915444Y-68027017D01*
X84915447Y-68027017D01*
X85087415Y-67966843D01*
X85087417Y-67966841D01*
X85087419Y-67966841D01*
X85087422Y-67966839D01*
X85212405Y-67888307D01*
X85278377Y-67869300D01*
X87315805Y-67869300D01*
X87382844Y-67888985D01*
X87403486Y-67905619D01*
X88032927Y-68535060D01*
X88551087Y-69053219D01*
X88584572Y-69114542D01*
X88579588Y-69184234D01*
X88537716Y-69240167D01*
X88472252Y-69264584D01*
X88463406Y-69264900D01*
X88147345Y-69264900D01*
X88086797Y-69271411D01*
X88086795Y-69271411D01*
X87949795Y-69322511D01*
X87832739Y-69410139D01*
X87745111Y-69527195D01*
X87694011Y-69664195D01*
X87694011Y-69664197D01*
X87687500Y-69724745D01*
X87687500Y-69862862D01*
X87667815Y-69929901D01*
X87632391Y-69965964D01*
X87536892Y-70029774D01*
X87536888Y-70029777D01*
X78653588Y-78913077D01*
X78592265Y-78946562D01*
X78522573Y-78941578D01*
X78478226Y-78913077D01*
X74211429Y-74646280D01*
X74211427Y-74646278D01*
X74072673Y-74566168D01*
X73995291Y-74545434D01*
X73995290Y-74545433D01*
X73938644Y-74530255D01*
X73917911Y-74524700D01*
X73917910Y-74524700D01*
X68422309Y-74524700D01*
X68355270Y-74505015D01*
X68309515Y-74452211D01*
X68299571Y-74383053D01*
X68316771Y-74335603D01*
X68391204Y-74214928D01*
X68391203Y-74214928D01*
X68391209Y-74214920D01*
X68446062Y-74049381D01*
X68456500Y-73947213D01*
X68456499Y-73372788D01*
X68446062Y-73270619D01*
X68391209Y-73105080D01*
X68391205Y-73105074D01*
X68391204Y-73105071D01*
X68299660Y-72956657D01*
X68299657Y-72956653D01*
X68209319Y-72866315D01*
X68175834Y-72804992D01*
X68173000Y-72778634D01*
X68173000Y-69647865D01*
X68192685Y-69580826D01*
X68209314Y-69560189D01*
X69392885Y-68376617D01*
X69454208Y-68343133D01*
X69480566Y-68340299D01*
X69645099Y-68340299D01*
X69712138Y-68359984D01*
X69732780Y-68376618D01*
X70973028Y-69616865D01*
X71037938Y-69681775D01*
X71079236Y-69723073D01*
X71204114Y-69806514D01*
X71204120Y-69806517D01*
X71204121Y-69806518D01*
X71342887Y-69863997D01*
X71342891Y-69863997D01*
X71342892Y-69863998D01*
X71490197Y-69893300D01*
X71490200Y-69893300D01*
X78518302Y-69893300D01*
X78617404Y-69873586D01*
X78665613Y-69863997D01*
X78804379Y-69806518D01*
X78817265Y-69797908D01*
X78929265Y-69723073D01*
X81704826Y-66947510D01*
X81729332Y-66930126D01*
X81728718Y-66929148D01*
X81734613Y-66925443D01*
X81734615Y-66925443D01*
X81888881Y-66828511D01*
X82017711Y-66699681D01*
X82114643Y-66545415D01*
X82174817Y-66373447D01*
X82181664Y-66312680D01*
X82195216Y-66192403D01*
X82195216Y-66192396D01*
X82174818Y-66011358D01*
X82174817Y-66011353D01*
X82152453Y-65947441D01*
X82114643Y-65839385D01*
X82017711Y-65685119D01*
X81888881Y-65556289D01*
X81734615Y-65459357D01*
X81680293Y-65440349D01*
X81562646Y-65399182D01*
X81562641Y-65399181D01*
X81381604Y-65378784D01*
X81381596Y-65378784D01*
X81200558Y-65399181D01*
X81200553Y-65399182D01*
X81028582Y-65459358D01*
X80874318Y-65556289D01*
X80745489Y-65685118D01*
X80644853Y-65845280D01*
X80643879Y-65844668D01*
X80626488Y-65869172D01*
X78163681Y-68331981D01*
X78102358Y-68365466D01*
X78076000Y-68368300D01*
X77707671Y-68368300D01*
X77640632Y-68348615D01*
X77594877Y-68295811D01*
X77584451Y-68258182D01*
X77577418Y-68195758D01*
X77577417Y-68195753D01*
X77517243Y-68023785D01*
X77420311Y-67869519D01*
X77327419Y-67776627D01*
X77293934Y-67715304D01*
X77291100Y-67688946D01*
X77291100Y-67511434D01*
X77310785Y-67444395D01*
X77350001Y-67405896D01*
X77493752Y-67317230D01*
X77619130Y-67191852D01*
X77712215Y-67040938D01*
X77767987Y-66872626D01*
X77778600Y-66768745D01*
X77778599Y-65717656D01*
X77767987Y-65613774D01*
X77712215Y-65445462D01*
X77619130Y-65294548D01*
X77493752Y-65169170D01*
X77478600Y-65159824D01*
X77431878Y-65107876D01*
X77419700Y-65054287D01*
X77419700Y-63127413D01*
X101126000Y-63127413D01*
X101126000Y-63402400D01*
X101963500Y-63402400D01*
X101963500Y-62427400D01*
X101826027Y-62427400D01*
X101826012Y-62427401D01*
X101723302Y-62437894D01*
X101556880Y-62493041D01*
X101556875Y-62493043D01*
X101407654Y-62585084D01*
X101283684Y-62709054D01*
X101191643Y-62858275D01*
X101191641Y-62858280D01*
X101136494Y-63024702D01*
X101136493Y-63024709D01*
X101126000Y-63127413D01*
X77419700Y-63127413D01*
X77419700Y-60491008D01*
X77419699Y-60491004D01*
X77395279Y-60368238D01*
X77395278Y-60368231D01*
X77395276Y-60368226D01*
X77347376Y-60252584D01*
X77347369Y-60252571D01*
X77277825Y-60148492D01*
X77277822Y-60148488D01*
X77189311Y-60059977D01*
X77189307Y-60059974D01*
X77085228Y-59990430D01*
X77085215Y-59990423D01*
X76969573Y-59942523D01*
X76969561Y-59942520D01*
X76846795Y-59918100D01*
X76846791Y-59918100D01*
X67626591Y-59918100D01*
X67501409Y-59918100D01*
X67501404Y-59918100D01*
X67378638Y-59942520D01*
X67378626Y-59942523D01*
X67262984Y-59990423D01*
X67262971Y-59990430D01*
X67158892Y-60059974D01*
X67158888Y-60059977D01*
X65072048Y-62146819D01*
X64695092Y-62523775D01*
X64650832Y-62568034D01*
X64606573Y-62612293D01*
X64537030Y-62716371D01*
X64537023Y-62716384D01*
X64489123Y-62832026D01*
X64489120Y-62832038D01*
X64464700Y-62954804D01*
X64464700Y-66716005D01*
X64445015Y-66783044D01*
X64428381Y-66803686D01*
X63704492Y-67527575D01*
X63645252Y-67586815D01*
X63615975Y-67616092D01*
X63546425Y-67720180D01*
X63525979Y-67769540D01*
X63482136Y-67823942D01*
X63450431Y-67839787D01*
X63436867Y-67844282D01*
X63436865Y-67844283D01*
X63285946Y-67937371D01*
X63197281Y-68026037D01*
X63135958Y-68059522D01*
X63066266Y-68054538D01*
X63021919Y-68026037D01*
X62933252Y-67937370D01*
X62933248Y-67937367D01*
X62804003Y-67857647D01*
X62757278Y-67805699D01*
X62745100Y-67752109D01*
X62745100Y-64735523D01*
X62764785Y-64668484D01*
X62817589Y-64622729D01*
X62830091Y-64617819D01*
X62987938Y-64565515D01*
X63138852Y-64472430D01*
X63264230Y-64347052D01*
X63357315Y-64196138D01*
X63413087Y-64027826D01*
X63423700Y-63923945D01*
X63423699Y-62872856D01*
X63413087Y-62768974D01*
X63357315Y-62600662D01*
X63264230Y-62449748D01*
X63138852Y-62324370D01*
X63138848Y-62324367D01*
X63022103Y-62252357D01*
X62975378Y-62200409D01*
X62963200Y-62146819D01*
X62963200Y-60215508D01*
X62963199Y-60215504D01*
X62938778Y-60092731D01*
X62896404Y-59990430D01*
X62890876Y-59977084D01*
X62890869Y-59977071D01*
X62821326Y-59872993D01*
X62821325Y-59872992D01*
X62732808Y-59784475D01*
X59815860Y-56867527D01*
X59782375Y-56806204D01*
X59779541Y-56779846D01*
X59779541Y-56086900D01*
X59799226Y-56019861D01*
X59852030Y-55974106D01*
X59903541Y-55962900D01*
X60392679Y-55962900D01*
X60392695Y-55962899D01*
X60419733Y-55959991D01*
X60453242Y-55956389D01*
X60458578Y-55954399D01*
X60467809Y-55950955D01*
X60590245Y-55905289D01*
X60707302Y-55817661D01*
X60794930Y-55700604D01*
X60846030Y-55563601D01*
X60849632Y-55530092D01*
X60852540Y-55503054D01*
X60852541Y-55503037D01*
X60852541Y-54254395D01*
X62439274Y-54254395D01*
X62439274Y-54254404D01*
X62458314Y-54508479D01*
X62515009Y-54756877D01*
X62515014Y-54756894D01*
X62608099Y-54994071D01*
X62608098Y-54994071D01*
X62735498Y-55214732D01*
X62777493Y-55267393D01*
X63579428Y-54465458D01*
X63584930Y-54485991D01*
X63663922Y-54622808D01*
X63775633Y-54734519D01*
X63912450Y-54813511D01*
X63932981Y-54819012D01*
X63130854Y-55621137D01*
X63291664Y-55730775D01*
X63291665Y-55730776D01*
X63521217Y-55841321D01*
X63521215Y-55841321D01*
X63764693Y-55916424D01*
X63764699Y-55916426D01*
X64016636Y-55954399D01*
X64016645Y-55954400D01*
X64271437Y-55954400D01*
X64271445Y-55954399D01*
X64523382Y-55916426D01*
X64523388Y-55916424D01*
X64766865Y-55841321D01*
X64996422Y-55730773D01*
X65157226Y-55621137D01*
X64355100Y-54819012D01*
X64375632Y-54813511D01*
X64512449Y-54734519D01*
X64624160Y-54622808D01*
X64703152Y-54485991D01*
X64708653Y-54465460D01*
X65510586Y-55267393D01*
X65552586Y-55214727D01*
X65679982Y-54994071D01*
X65773067Y-54756894D01*
X65773072Y-54756877D01*
X65829767Y-54508479D01*
X65848808Y-54254404D01*
X65848808Y-54254395D01*
X65829767Y-54000320D01*
X65773072Y-53751922D01*
X65773067Y-53751905D01*
X65679982Y-53514728D01*
X65679983Y-53514728D01*
X65552585Y-53294071D01*
X65510587Y-53241406D01*
X64708653Y-54043339D01*
X64703152Y-54022809D01*
X64624160Y-53885992D01*
X64512449Y-53774281D01*
X64375632Y-53695289D01*
X64355099Y-53689787D01*
X65157226Y-52887661D01*
X64996418Y-52778024D01*
X64996417Y-52778023D01*
X64766864Y-52667478D01*
X64766866Y-52667478D01*
X64523388Y-52592375D01*
X64523382Y-52592373D01*
X64271445Y-52554400D01*
X64016636Y-52554400D01*
X63764699Y-52592373D01*
X63764693Y-52592375D01*
X63521216Y-52667478D01*
X63291665Y-52778023D01*
X63291657Y-52778028D01*
X63130854Y-52887661D01*
X63932981Y-53689787D01*
X63912450Y-53695289D01*
X63775633Y-53774281D01*
X63663922Y-53885992D01*
X63584930Y-54022809D01*
X63579428Y-54043340D01*
X62777494Y-53241406D01*
X62735496Y-53294070D01*
X62608099Y-53514728D01*
X62515014Y-53751905D01*
X62515009Y-53751922D01*
X62458314Y-54000320D01*
X62439274Y-54254395D01*
X60852541Y-54254395D01*
X60852541Y-53457811D01*
X60872226Y-53390772D01*
X60888860Y-53370130D01*
X64363571Y-49895419D01*
X64424894Y-49861934D01*
X64451252Y-49859100D01*
X68749789Y-49859100D01*
X68816828Y-49878785D01*
G37*
%TD.AperFunction*%
%TA.AperFunction,Conductor*%
G36*
X76091739Y-61208785D02*
G01*
X76137494Y-61261589D01*
X76148700Y-61313100D01*
X76148700Y-64944680D01*
X76129015Y-65011719D01*
X76076211Y-65057474D01*
X76063708Y-65062384D01*
X76044427Y-65068773D01*
X76022364Y-65076084D01*
X76022359Y-65076086D01*
X75871446Y-65169171D01*
X75746070Y-65294547D01*
X75746068Y-65294550D01*
X75745641Y-65295243D01*
X75745223Y-65295618D01*
X75741589Y-65300215D01*
X75740803Y-65299593D01*
X75693691Y-65341964D01*
X75624727Y-65353183D01*
X75560647Y-65325336D01*
X75542839Y-65304778D01*
X75541898Y-65305523D01*
X75537416Y-65299855D01*
X75413445Y-65175884D01*
X75264224Y-65083843D01*
X75264219Y-65083841D01*
X75097797Y-65028694D01*
X75097790Y-65028693D01*
X74995086Y-65018200D01*
X74857600Y-65018200D01*
X74857600Y-67468199D01*
X74995072Y-67468199D01*
X74995086Y-67468198D01*
X75097797Y-67457705D01*
X75264219Y-67402558D01*
X75264224Y-67402556D01*
X75413445Y-67310515D01*
X75537416Y-67186544D01*
X75541898Y-67180877D01*
X75544091Y-67182611D01*
X75586457Y-67144465D01*
X75655414Y-67133208D01*
X75719510Y-67161018D01*
X75741434Y-67186306D01*
X75741589Y-67186185D01*
X75744283Y-67189592D01*
X75745645Y-67191163D01*
X75746070Y-67191852D01*
X75871448Y-67317230D01*
X76015198Y-67405896D01*
X76061922Y-67457843D01*
X76074100Y-67511434D01*
X76074100Y-67951547D01*
X76055096Y-68017516D01*
X76051157Y-68023784D01*
X75990982Y-68195753D01*
X75990981Y-68195758D01*
X75983949Y-68258182D01*
X75956883Y-68322596D01*
X75899289Y-68362152D01*
X75860729Y-68368300D01*
X71932499Y-68368300D01*
X71865460Y-68348615D01*
X71844818Y-68331981D01*
X70673618Y-67160780D01*
X70640133Y-67099457D01*
X70637299Y-67073099D01*
X70637299Y-66768186D01*
X73520101Y-66768186D01*
X73530594Y-66870897D01*
X73585741Y-67037319D01*
X73585743Y-67037324D01*
X73677784Y-67186545D01*
X73801754Y-67310515D01*
X73950975Y-67402556D01*
X73950980Y-67402558D01*
X74117402Y-67457705D01*
X74117409Y-67457706D01*
X74220119Y-67468199D01*
X74357599Y-67468199D01*
X74357600Y-67468198D01*
X74357600Y-66493200D01*
X73520101Y-66493200D01*
X73520101Y-66768186D01*
X70637299Y-66768186D01*
X70637299Y-66581262D01*
X70637298Y-66581246D01*
X70633638Y-66545417D01*
X70626687Y-66477374D01*
X70570915Y-66309062D01*
X70477830Y-66158148D01*
X70352452Y-66032770D01*
X70214116Y-65947443D01*
X70201540Y-65939686D01*
X70201535Y-65939684D01*
X70033227Y-65883913D01*
X69929346Y-65873300D01*
X69153262Y-65873300D01*
X69153246Y-65873301D01*
X69049372Y-65883913D01*
X68881064Y-65939684D01*
X68881059Y-65939686D01*
X68730146Y-66032771D01*
X68604770Y-66158147D01*
X68604768Y-66158150D01*
X68604341Y-66158843D01*
X68603923Y-66159218D01*
X68600289Y-66163815D01*
X68599503Y-66163193D01*
X68552391Y-66205564D01*
X68483427Y-66216783D01*
X68419347Y-66188936D01*
X68401539Y-66168378D01*
X68400598Y-66169123D01*
X68396116Y-66163455D01*
X68272145Y-66039484D01*
X68122924Y-65947443D01*
X68122919Y-65947441D01*
X67956497Y-65892294D01*
X67956490Y-65892293D01*
X67853786Y-65881800D01*
X67716300Y-65881800D01*
X67716300Y-66982800D01*
X67696615Y-67049839D01*
X67643811Y-67095594D01*
X67592300Y-67106800D01*
X67466300Y-67106800D01*
X67466300Y-67232800D01*
X67446615Y-67299839D01*
X67393811Y-67345594D01*
X67342300Y-67356800D01*
X66378801Y-67356800D01*
X66378801Y-67631786D01*
X66389294Y-67734497D01*
X66444441Y-67900919D01*
X66444443Y-67900924D01*
X66536484Y-68050145D01*
X66660454Y-68174115D01*
X66809675Y-68266156D01*
X66809680Y-68266158D01*
X66976102Y-68321305D01*
X66976111Y-68321307D01*
X67002683Y-68324021D01*
X67067376Y-68350415D01*
X67107529Y-68407595D01*
X67110394Y-68477406D01*
X67077765Y-68535060D01*
X62171131Y-73441695D01*
X62171126Y-73441701D01*
X62130435Y-73502599D01*
X62076822Y-73547403D01*
X62007497Y-73556110D01*
X61944470Y-73525955D01*
X61909628Y-73472710D01*
X61895265Y-73429365D01*
X61888809Y-73409880D01*
X61888805Y-73409874D01*
X61888804Y-73409871D01*
X61797260Y-73261457D01*
X61797257Y-73261453D01*
X61673945Y-73138141D01*
X61615002Y-73101784D01*
X61568278Y-73049835D01*
X61556100Y-72996246D01*
X61556100Y-70489994D01*
X61575785Y-70422955D01*
X61592415Y-70402317D01*
X61763514Y-70231217D01*
X61824837Y-70197733D01*
X61851195Y-70194899D01*
X62510137Y-70194899D01*
X62510144Y-70194899D01*
X62614026Y-70184287D01*
X62782338Y-70128515D01*
X62933252Y-70035430D01*
X63021919Y-69946763D01*
X63083242Y-69913278D01*
X63152934Y-69918262D01*
X63197281Y-69946763D01*
X63285948Y-70035430D01*
X63436862Y-70128515D01*
X63605174Y-70184287D01*
X63709055Y-70194900D01*
X64510144Y-70194899D01*
X64614026Y-70184287D01*
X64782338Y-70128515D01*
X64933252Y-70035430D01*
X65058630Y-69910052D01*
X65151715Y-69759138D01*
X65207487Y-69590826D01*
X65218100Y-69486945D01*
X65218099Y-68485856D01*
X65207487Y-68381974D01*
X65151715Y-68213662D01*
X65075061Y-68089387D01*
X65056622Y-68021997D01*
X65077544Y-67955333D01*
X65092910Y-67936621D01*
X65593825Y-67435708D01*
X65663373Y-67331622D01*
X65711278Y-67215969D01*
X65735700Y-67093191D01*
X65735700Y-66968009D01*
X65735700Y-66581813D01*
X66378800Y-66581813D01*
X66378800Y-66856800D01*
X67216300Y-66856800D01*
X67216300Y-65881800D01*
X67078827Y-65881800D01*
X67078812Y-65881801D01*
X66976102Y-65892294D01*
X66809680Y-65947441D01*
X66809675Y-65947443D01*
X66660454Y-66039484D01*
X66536484Y-66163454D01*
X66444443Y-66312675D01*
X66444441Y-66312680D01*
X66389294Y-66479102D01*
X66389293Y-66479109D01*
X66378800Y-66581813D01*
X65735700Y-66581813D01*
X65735700Y-65718213D01*
X73520100Y-65718213D01*
X73520100Y-65993200D01*
X74357600Y-65993200D01*
X74357600Y-65018200D01*
X74220127Y-65018200D01*
X74220112Y-65018201D01*
X74117402Y-65028694D01*
X73950980Y-65083841D01*
X73950975Y-65083843D01*
X73801754Y-65175884D01*
X73677784Y-65299854D01*
X73585743Y-65449075D01*
X73585741Y-65449080D01*
X73530594Y-65615502D01*
X73530593Y-65615509D01*
X73520100Y-65718213D01*
X65735700Y-65718213D01*
X65735700Y-63331995D01*
X65755385Y-63264956D01*
X65772019Y-63244314D01*
X67790914Y-61225419D01*
X67852237Y-61191934D01*
X67878595Y-61189100D01*
X76024700Y-61189100D01*
X76091739Y-61208785D01*
G37*
%TD.AperFunction*%
%TA.AperFunction,Conductor*%
G36*
X121850840Y-45347624D02*
G01*
X121917823Y-45367490D01*
X121963434Y-45420419D01*
X121974500Y-45471623D01*
X121974500Y-45485688D01*
X122006161Y-45726185D01*
X122068947Y-45960504D01*
X122143584Y-46140693D01*
X122161776Y-46184612D01*
X122283064Y-46394689D01*
X122283066Y-46394692D01*
X122283067Y-46394693D01*
X122430733Y-46587136D01*
X122430739Y-46587143D01*
X122602256Y-46758660D01*
X122602263Y-46758666D01*
X122715321Y-46845418D01*
X122794711Y-46906336D01*
X123004788Y-47027624D01*
X123228900Y-47120454D01*
X123463211Y-47183238D01*
X123643586Y-47206984D01*
X123703711Y-47214900D01*
X123703712Y-47214900D01*
X123946289Y-47214900D01*
X123994388Y-47208567D01*
X124186789Y-47183238D01*
X124421100Y-47120454D01*
X124645212Y-47027624D01*
X124855289Y-46906336D01*
X125047738Y-46758665D01*
X125219265Y-46587138D01*
X125366936Y-46394689D01*
X125488224Y-46184612D01*
X125581054Y-45960500D01*
X125643838Y-45726189D01*
X125675500Y-45485688D01*
X125675500Y-45482369D01*
X125695185Y-45415330D01*
X125747989Y-45369575D01*
X125799834Y-45358369D01*
X127893074Y-45364065D01*
X127960059Y-45383932D01*
X128005670Y-45436861D01*
X128016734Y-45487324D01*
X128396253Y-108993489D01*
X128376969Y-109060645D01*
X128324440Y-109106715D01*
X128272087Y-109118230D01*
X125799332Y-109114879D01*
X125732319Y-109095103D01*
X125686636Y-109042238D01*
X125675500Y-108990879D01*
X125675500Y-108870111D01*
X125643838Y-108629614D01*
X125643838Y-108629611D01*
X125581054Y-108395300D01*
X125488224Y-108171188D01*
X125366936Y-107961111D01*
X125219265Y-107768662D01*
X125219260Y-107768656D01*
X125047743Y-107597139D01*
X125047736Y-107597133D01*
X124855293Y-107449467D01*
X124855292Y-107449466D01*
X124855289Y-107449464D01*
X124645212Y-107328176D01*
X124645205Y-107328173D01*
X124421104Y-107235347D01*
X124186785Y-107172561D01*
X123946289Y-107140900D01*
X123946288Y-107140900D01*
X123703712Y-107140900D01*
X123703711Y-107140900D01*
X123463214Y-107172561D01*
X123228895Y-107235347D01*
X123004794Y-107328173D01*
X123004785Y-107328177D01*
X122794706Y-107449467D01*
X122602263Y-107597133D01*
X122602256Y-107597139D01*
X122430739Y-107768656D01*
X122430733Y-107768663D01*
X122283067Y-107961106D01*
X122161777Y-108171185D01*
X122161773Y-108171194D01*
X122068947Y-108395295D01*
X122006161Y-108629614D01*
X121974500Y-108870111D01*
X121974500Y-108985528D01*
X121954815Y-109052567D01*
X121902011Y-109098322D01*
X121850332Y-109109528D01*
X36645332Y-108994074D01*
X36578319Y-108974299D01*
X36532636Y-108921433D01*
X36522377Y-108874122D01*
X36521766Y-108874163D01*
X36521500Y-108870117D01*
X36521500Y-108870112D01*
X36489838Y-108629611D01*
X36427054Y-108395300D01*
X36334224Y-108171188D01*
X36212936Y-107961111D01*
X36065265Y-107768662D01*
X36065260Y-107768656D01*
X35893743Y-107597139D01*
X35893736Y-107597133D01*
X35701293Y-107449467D01*
X35701292Y-107449466D01*
X35701289Y-107449464D01*
X35491212Y-107328176D01*
X35491205Y-107328173D01*
X35267104Y-107235347D01*
X35032785Y-107172561D01*
X34792282Y-107140899D01*
X34788237Y-107140634D01*
X34788347Y-107138946D01*
X34727961Y-107121215D01*
X34682206Y-107068411D01*
X34671000Y-107016900D01*
X34671000Y-103470386D01*
X37526001Y-103470386D01*
X37536494Y-103573097D01*
X37591641Y-103739519D01*
X37591643Y-103739524D01*
X37683684Y-103888745D01*
X37807654Y-104012715D01*
X37956875Y-104104756D01*
X37956880Y-104104758D01*
X38123302Y-104159905D01*
X38123309Y-104159906D01*
X38226019Y-104170399D01*
X40075999Y-104170399D01*
X40576000Y-104170399D01*
X42425972Y-104170399D01*
X42425986Y-104170398D01*
X42528697Y-104159905D01*
X42695119Y-104104758D01*
X42695124Y-104104756D01*
X42844345Y-104012715D01*
X42968315Y-103888745D01*
X43060356Y-103739524D01*
X43060358Y-103739519D01*
X43115505Y-103573097D01*
X43115506Y-103573090D01*
X43125999Y-103470386D01*
X43126000Y-103470373D01*
X43126000Y-103370400D01*
X40576000Y-103370400D01*
X40576000Y-104170399D01*
X40075999Y-104170399D01*
X40076000Y-104170398D01*
X40076000Y-103370400D01*
X37526001Y-103370400D01*
X37526001Y-103470386D01*
X34671000Y-103470386D01*
X34671000Y-95969847D01*
X37517500Y-95969847D01*
X37517500Y-96670937D01*
X37517501Y-96670953D01*
X37528113Y-96774827D01*
X37547400Y-96833031D01*
X37583885Y-96943138D01*
X37661764Y-97069400D01*
X37680762Y-97100199D01*
X37679538Y-97100953D01*
X37702666Y-97158297D01*
X37689619Y-97226938D01*
X37678950Y-97243537D01*
X37583886Y-97397659D01*
X37583884Y-97397664D01*
X37528113Y-97565972D01*
X37517500Y-97669847D01*
X37517500Y-98370937D01*
X37517501Y-98370953D01*
X37528113Y-98474827D01*
X37583884Y-98643135D01*
X37583886Y-98643140D01*
X37676971Y-98794054D01*
X37681448Y-98799715D01*
X37679048Y-98801612D01*
X37705941Y-98850861D01*
X37700957Y-98920553D01*
X37686883Y-98945544D01*
X37687475Y-98945909D01*
X37591643Y-99101275D01*
X37591641Y-99101280D01*
X37536494Y-99267702D01*
X37536493Y-99267709D01*
X37526000Y-99370413D01*
X37526000Y-99470400D01*
X43125999Y-99470400D01*
X43125999Y-99370428D01*
X43125998Y-99370413D01*
X43115505Y-99267702D01*
X43060358Y-99101280D01*
X43060356Y-99101275D01*
X42964525Y-98945909D01*
X42966218Y-98944864D01*
X42943817Y-98889329D01*
X42956860Y-98820688D01*
X42971559Y-98800519D01*
X42970549Y-98799720D01*
X42975026Y-98794057D01*
X42975027Y-98794054D01*
X42975030Y-98794052D01*
X43068115Y-98643138D01*
X43123887Y-98474826D01*
X43125500Y-98459034D01*
X43151895Y-98394343D01*
X43161167Y-98383964D01*
X43446625Y-98098508D01*
X43516173Y-97994422D01*
X43523392Y-97976995D01*
X43564076Y-97878773D01*
X43564078Y-97878769D01*
X43567883Y-97859642D01*
X43600267Y-97797731D01*
X43660983Y-97763157D01*
X43730752Y-97766896D01*
X43787425Y-97807762D01*
X43813006Y-97872780D01*
X43813500Y-97883833D01*
X43813500Y-101409805D01*
X43793815Y-101476844D01*
X43741011Y-101522599D01*
X43671853Y-101532543D01*
X43608297Y-101503518D01*
X43601819Y-101497486D01*
X43161176Y-101056843D01*
X43127691Y-100995520D01*
X43125502Y-100981784D01*
X43123887Y-100965974D01*
X43068115Y-100797662D01*
X42975030Y-100646748D01*
X42975029Y-100646747D01*
X42975028Y-100646745D01*
X42970552Y-100641085D01*
X42972950Y-100639188D01*
X42946057Y-100589937D01*
X42951041Y-100520245D01*
X42965121Y-100495258D01*
X42964525Y-100494891D01*
X43060356Y-100339524D01*
X43060358Y-100339519D01*
X43115505Y-100173097D01*
X43115506Y-100173090D01*
X43125999Y-100070386D01*
X43126000Y-100070373D01*
X43126000Y-99970400D01*
X37526001Y-99970400D01*
X37526001Y-100070386D01*
X37536494Y-100173097D01*
X37591641Y-100339519D01*
X37591643Y-100339524D01*
X37687475Y-100494891D01*
X37685779Y-100495936D01*
X37708182Y-100551453D01*
X37695147Y-100620096D01*
X37680451Y-100640297D01*
X37681448Y-100641085D01*
X37676971Y-100646745D01*
X37583886Y-100797659D01*
X37583884Y-100797664D01*
X37528113Y-100965972D01*
X37517500Y-101069847D01*
X37517500Y-101770937D01*
X37517501Y-101770953D01*
X37528113Y-101874827D01*
X37583884Y-102043135D01*
X37583886Y-102043140D01*
X37676971Y-102194054D01*
X37681448Y-102199715D01*
X37679048Y-102201612D01*
X37705941Y-102250861D01*
X37700957Y-102320553D01*
X37686883Y-102345544D01*
X37687475Y-102345909D01*
X37591643Y-102501275D01*
X37591641Y-102501280D01*
X37536494Y-102667702D01*
X37536493Y-102667709D01*
X37526000Y-102770413D01*
X37526000Y-102870400D01*
X43125905Y-102870400D01*
X43192944Y-102890085D01*
X43213586Y-102906719D01*
X44043888Y-103737022D01*
X44043892Y-103737025D01*
X44147971Y-103806569D01*
X44147978Y-103806573D01*
X44199453Y-103827894D01*
X44253855Y-103871734D01*
X44275921Y-103938028D01*
X44276000Y-103942455D01*
X44276000Y-104920371D01*
X44276001Y-104920387D01*
X44286494Y-105023097D01*
X44341641Y-105189519D01*
X44341643Y-105189524D01*
X44433684Y-105338745D01*
X44557654Y-105462715D01*
X44706875Y-105554756D01*
X44706880Y-105554758D01*
X44873302Y-105609905D01*
X44873310Y-105609906D01*
X44957954Y-105618554D01*
X44965263Y-105620399D01*
X44969695Y-105620399D01*
X44982310Y-105621042D01*
X44989462Y-105621773D01*
X44997420Y-105620399D01*
X46800999Y-105620399D01*
X47301000Y-105620399D01*
X49226000Y-105620399D01*
X49726000Y-105620399D01*
X51650999Y-105620399D01*
X52151000Y-105620399D01*
X53975972Y-105620399D01*
X53975986Y-105620398D01*
X54078697Y-105609905D01*
X54245119Y-105554758D01*
X54245124Y-105554756D01*
X54394345Y-105462715D01*
X54518315Y-105338745D01*
X54610356Y-105189524D01*
X54610358Y-105189519D01*
X54665505Y-105023097D01*
X54665506Y-105023090D01*
X54675999Y-104920386D01*
X54676000Y-104920373D01*
X54676000Y-102745400D01*
X52151000Y-102745400D01*
X52151000Y-105620399D01*
X51650999Y-105620399D01*
X51651000Y-105620398D01*
X51651000Y-102745400D01*
X49726000Y-102745400D01*
X49726000Y-105620399D01*
X49226000Y-105620399D01*
X49226000Y-102745400D01*
X47301000Y-102745400D01*
X47301000Y-105620399D01*
X46800999Y-105620399D01*
X46801000Y-105620398D01*
X46801000Y-102245400D01*
X47301000Y-102245400D01*
X49226000Y-102245400D01*
X49726000Y-102245400D01*
X51651000Y-102245400D01*
X52151000Y-102245400D01*
X54675999Y-102245400D01*
X54675999Y-99970400D01*
X52151000Y-99970400D01*
X52151000Y-102245400D01*
X51651000Y-102245400D01*
X51651000Y-99970400D01*
X49726000Y-99970400D01*
X49726000Y-102245400D01*
X49226000Y-102245400D01*
X49226000Y-99844400D01*
X49245685Y-99777361D01*
X49298489Y-99731606D01*
X49350000Y-99720400D01*
X49476000Y-99720400D01*
X49476000Y-99594400D01*
X49495685Y-99527361D01*
X49548489Y-99481606D01*
X49600000Y-99470400D01*
X51651000Y-99470400D01*
X52151000Y-99470400D01*
X54675999Y-99470400D01*
X54675999Y-99376513D01*
X54676000Y-99376492D01*
X54676000Y-97195400D01*
X52151000Y-97195400D01*
X52151000Y-99470400D01*
X51651000Y-99470400D01*
X51651000Y-97195400D01*
X47301000Y-97195400D01*
X47301000Y-102245400D01*
X46801000Y-102245400D01*
X46801000Y-97069400D01*
X46820685Y-97002361D01*
X46873489Y-96956606D01*
X46925000Y-96945400D01*
X47051000Y-96945400D01*
X47051000Y-96819400D01*
X47070685Y-96752361D01*
X47123489Y-96706606D01*
X47175000Y-96695400D01*
X54675999Y-96695400D01*
X54675999Y-94520428D01*
X54675998Y-94520413D01*
X54665505Y-94417702D01*
X54610358Y-94251280D01*
X54610356Y-94251275D01*
X54518315Y-94102054D01*
X54394345Y-93978084D01*
X54245124Y-93886043D01*
X54245119Y-93886041D01*
X54078697Y-93830894D01*
X54078690Y-93830893D01*
X53975986Y-93820400D01*
X52667983Y-93820400D01*
X52600944Y-93800715D01*
X52555189Y-93747911D01*
X52545245Y-93678753D01*
X52574270Y-93615197D01*
X52580302Y-93608719D01*
X54375020Y-91814001D01*
X59803061Y-86385958D01*
X59864382Y-86352475D01*
X59934074Y-86357459D01*
X59956712Y-86368647D01*
X60033101Y-86416645D01*
X60098985Y-86458043D01*
X60256964Y-86513322D01*
X60270953Y-86518217D01*
X60270958Y-86518218D01*
X60451996Y-86538616D01*
X60452000Y-86538616D01*
X60452004Y-86538616D01*
X60633041Y-86518218D01*
X60633044Y-86518217D01*
X60633047Y-86518217D01*
X60805015Y-86458043D01*
X60959281Y-86361111D01*
X61088111Y-86232281D01*
X61183338Y-86080727D01*
X61235673Y-86034437D01*
X61288332Y-86022700D01*
X62688300Y-86022700D01*
X62838500Y-86022700D01*
X63981476Y-86022700D01*
X64048515Y-86042385D01*
X64094270Y-86095189D01*
X64104415Y-86130517D01*
X64107119Y-86151064D01*
X64107120Y-86151066D01*
X64117714Y-86176643D01*
X64125182Y-86246112D01*
X64117714Y-86271543D01*
X64098840Y-86317111D01*
X64098840Y-86317112D01*
X64085737Y-86416645D01*
X64083500Y-86433634D01*
X64083500Y-86686766D01*
X64098365Y-86799682D01*
X64098840Y-86803286D01*
X64099660Y-86805266D01*
X64100496Y-86809472D01*
X64100944Y-86811142D01*
X64100834Y-86811171D01*
X64109100Y-86852722D01*
X64109100Y-90239219D01*
X64089415Y-90306258D01*
X64050197Y-90344757D01*
X63933451Y-90416767D01*
X63933447Y-90416770D01*
X63808070Y-90542147D01*
X63808068Y-90542150D01*
X63807641Y-90542843D01*
X63807223Y-90543218D01*
X63803589Y-90547815D01*
X63802803Y-90547193D01*
X63755691Y-90589564D01*
X63686727Y-90600783D01*
X63622647Y-90572936D01*
X63604839Y-90552378D01*
X63603898Y-90553123D01*
X63599416Y-90547455D01*
X63475445Y-90423484D01*
X63326224Y-90331443D01*
X63326219Y-90331441D01*
X63159797Y-90276294D01*
X63159790Y-90276293D01*
X63057086Y-90265800D01*
X62919600Y-90265800D01*
X62919600Y-91366800D01*
X62899915Y-91433839D01*
X62847111Y-91479594D01*
X62795600Y-91490800D01*
X62669600Y-91490800D01*
X62669600Y-91616800D01*
X62649915Y-91683839D01*
X62597111Y-91729594D01*
X62545600Y-91740800D01*
X61582101Y-91740800D01*
X61582101Y-91783300D01*
X61562416Y-91850339D01*
X61509612Y-91896094D01*
X61458101Y-91907300D01*
X60866011Y-91907300D01*
X60798972Y-91887615D01*
X60778330Y-91870981D01*
X60477537Y-91570188D01*
X60444052Y-91508865D01*
X60441998Y-91496389D01*
X60432418Y-91411356D01*
X60387996Y-91284405D01*
X60372243Y-91239385D01*
X60275311Y-91085119D01*
X60156005Y-90965813D01*
X61582100Y-90965813D01*
X61582100Y-91240800D01*
X62419600Y-91240800D01*
X62419600Y-90265800D01*
X62282127Y-90265800D01*
X62282112Y-90265801D01*
X62179402Y-90276294D01*
X62012980Y-90331441D01*
X62012975Y-90331443D01*
X61863754Y-90423484D01*
X61739784Y-90547454D01*
X61647743Y-90696675D01*
X61647741Y-90696680D01*
X61592594Y-90863102D01*
X61592593Y-90863109D01*
X61582100Y-90965813D01*
X60156005Y-90965813D01*
X60146481Y-90956289D01*
X59992217Y-90859358D01*
X59992216Y-90859357D01*
X59992215Y-90859357D01*
X59937893Y-90840349D01*
X59820246Y-90799182D01*
X59820241Y-90799181D01*
X59639204Y-90778784D01*
X59639196Y-90778784D01*
X59458158Y-90799181D01*
X59458153Y-90799182D01*
X59286182Y-90859358D01*
X59131918Y-90956289D01*
X59003089Y-91085118D01*
X58906158Y-91239382D01*
X58845982Y-91411353D01*
X58845981Y-91411358D01*
X58825584Y-91592396D01*
X58825584Y-91592403D01*
X58845981Y-91773441D01*
X58845982Y-91773446D01*
X58885932Y-91887615D01*
X58906157Y-91945415D01*
X59003089Y-92099681D01*
X59131919Y-92228511D01*
X59198755Y-92270507D01*
X59281429Y-92322455D01*
X59286185Y-92325443D01*
X59458153Y-92385617D01*
X59458156Y-92385618D01*
X59543189Y-92395198D01*
X59607603Y-92422264D01*
X59616988Y-92430737D01*
X59948270Y-92762019D01*
X59981755Y-92823342D01*
X59976771Y-92893034D01*
X59948270Y-92937381D01*
X57348880Y-95536770D01*
X57348878Y-95536773D01*
X57268768Y-95675525D01*
X57227300Y-95830290D01*
X57227300Y-95990509D01*
X57268768Y-96145274D01*
X57308823Y-96214650D01*
X57348878Y-96284027D01*
X58822078Y-97757227D01*
X58822079Y-97757228D01*
X58935372Y-97870521D01*
X58935373Y-97870522D01*
X58935375Y-97870523D01*
X58958429Y-97883833D01*
X59074128Y-97950632D01*
X59228889Y-97992100D01*
X62041034Y-97992100D01*
X62108073Y-98011785D01*
X62146573Y-98051004D01*
X62168741Y-98086945D01*
X62241442Y-98159646D01*
X62274927Y-98220969D01*
X62269943Y-98290661D01*
X62241442Y-98335008D01*
X59680504Y-100895945D01*
X59619181Y-100929430D01*
X59580230Y-100931623D01*
X59573147Y-100930900D01*
X58232062Y-100930900D01*
X58232046Y-100930901D01*
X58128172Y-100941513D01*
X57959864Y-100997284D01*
X57959859Y-100997286D01*
X57808946Y-101090371D01*
X57683571Y-101215746D01*
X57590486Y-101366659D01*
X57590484Y-101366664D01*
X57534713Y-101534972D01*
X57524100Y-101638847D01*
X57524100Y-103429937D01*
X57524101Y-103429953D01*
X57534713Y-103533827D01*
X57590484Y-103702135D01*
X57590486Y-103702140D01*
X57613542Y-103739519D01*
X57683570Y-103853052D01*
X57808948Y-103978430D01*
X57959862Y-104071515D01*
X58128174Y-104127287D01*
X58232055Y-104137900D01*
X59573144Y-104137899D01*
X59677026Y-104127287D01*
X59845338Y-104071515D01*
X59996252Y-103978430D01*
X60121630Y-103853052D01*
X60214715Y-103702138D01*
X60214715Y-103702135D01*
X60216746Y-103698844D01*
X60268694Y-103652120D01*
X60337657Y-103640897D01*
X60401739Y-103668741D01*
X60409966Y-103676260D01*
X60544567Y-103810861D01*
X60720108Y-103938399D01*
X60913440Y-104036906D01*
X61119800Y-104103957D01*
X61200166Y-104116685D01*
X61334105Y-104137900D01*
X61334110Y-104137900D01*
X61551095Y-104137900D01*
X61670151Y-104119042D01*
X61765400Y-104103957D01*
X61971760Y-104036906D01*
X62165092Y-103938399D01*
X62340633Y-103810861D01*
X62494061Y-103657433D01*
X62621599Y-103481892D01*
X62720106Y-103288560D01*
X62787157Y-103082200D01*
X62814605Y-102908900D01*
X62821100Y-102867895D01*
X62821100Y-102200905D01*
X62812993Y-102149724D01*
X62805762Y-102104070D01*
X62814716Y-102034780D01*
X62840551Y-101996996D01*
X65282321Y-99555228D01*
X65362432Y-99416473D01*
X65383166Y-99339091D01*
X65403900Y-99261711D01*
X65403900Y-98368807D01*
X65423585Y-98301768D01*
X65462803Y-98263269D01*
X65516336Y-98230248D01*
X65548746Y-98210258D01*
X65672058Y-98086946D01*
X65694227Y-98051003D01*
X65746175Y-98004279D01*
X65799766Y-97992100D01*
X68787109Y-97992100D01*
X68787110Y-97992100D01*
X68787111Y-97992100D01*
X68864491Y-97971366D01*
X68941873Y-97950632D01*
X69080627Y-97870522D01*
X71557814Y-95393333D01*
X71619135Y-95359850D01*
X71688827Y-95364834D01*
X71744760Y-95406706D01*
X71768851Y-95468413D01*
X71775938Y-95537782D01*
X71830790Y-95703317D01*
X71830795Y-95703328D01*
X71922339Y-95851742D01*
X71922342Y-95851746D01*
X72045654Y-95975058D01*
X72104597Y-96011414D01*
X72151321Y-96063362D01*
X72163500Y-96116953D01*
X72163500Y-97599804D01*
X72143815Y-97666843D01*
X72127181Y-97687485D01*
X69973442Y-99841224D01*
X69912119Y-99874709D01*
X69866362Y-99876016D01*
X69802494Y-99865900D01*
X69802490Y-99865900D01*
X69135510Y-99865900D01*
X69135505Y-99865900D01*
X68921203Y-99899842D01*
X68714837Y-99966895D01*
X68521507Y-100065401D01*
X68421355Y-100138166D01*
X68345967Y-100192939D01*
X68345965Y-100192941D01*
X68345964Y-100192941D01*
X68192541Y-100346364D01*
X68192541Y-100346365D01*
X68192539Y-100346367D01*
X68137766Y-100421755D01*
X68065001Y-100521907D01*
X67966495Y-100715237D01*
X67899442Y-100921603D01*
X67865500Y-101135904D01*
X67865500Y-101352895D01*
X67894339Y-101534974D01*
X67899443Y-101567200D01*
X67966494Y-101773560D01*
X68065001Y-101966892D01*
X68192539Y-102142433D01*
X68192541Y-102142435D01*
X68327139Y-102277033D01*
X68360624Y-102338356D01*
X68355640Y-102408048D01*
X68313768Y-102463981D01*
X68304556Y-102470252D01*
X68150348Y-102565369D01*
X68024971Y-102690746D01*
X67931886Y-102841659D01*
X67931884Y-102841664D01*
X67876113Y-103009972D01*
X67865500Y-103113847D01*
X67865500Y-104454937D01*
X67865501Y-104454953D01*
X67876113Y-104558827D01*
X67931884Y-104727135D01*
X67931885Y-104727138D01*
X68024970Y-104878052D01*
X68150348Y-105003430D01*
X68301262Y-105096515D01*
X68469574Y-105152287D01*
X68573455Y-105162900D01*
X70364544Y-105162899D01*
X70468426Y-105152287D01*
X70636738Y-105096515D01*
X70787652Y-105003430D01*
X70913030Y-104878052D01*
X71006115Y-104727138D01*
X71061887Y-104558826D01*
X71072500Y-104454945D01*
X71072499Y-103130994D01*
X71092184Y-103063956D01*
X71108818Y-103043314D01*
X71292285Y-102859847D01*
X77791500Y-102859847D01*
X77791500Y-104200937D01*
X77791501Y-104200953D01*
X77802018Y-104303899D01*
X77802113Y-104304826D01*
X77857885Y-104473138D01*
X77950970Y-104624052D01*
X78076348Y-104749430D01*
X78227262Y-104842515D01*
X78395574Y-104898287D01*
X78499455Y-104908900D01*
X80290544Y-104908899D01*
X80394426Y-104898287D01*
X80562738Y-104842515D01*
X80713652Y-104749430D01*
X80839030Y-104624052D01*
X80932115Y-104473138D01*
X80960029Y-104388896D01*
X80999801Y-104331452D01*
X81064317Y-104304628D01*
X81077735Y-104303900D01*
X87522592Y-104303900D01*
X87522593Y-104303899D01*
X87645369Y-104279478D01*
X87761022Y-104231573D01*
X87865108Y-104162025D01*
X88140915Y-103886216D01*
X88202236Y-103852733D01*
X88228595Y-103849899D01*
X88887537Y-103849899D01*
X88887544Y-103849899D01*
X88991426Y-103839287D01*
X89159738Y-103783515D01*
X89310652Y-103690430D01*
X89436030Y-103565052D01*
X89529115Y-103414138D01*
X89584887Y-103245826D01*
X89595500Y-103141945D01*
X89595499Y-102140856D01*
X89584887Y-102036974D01*
X89529115Y-101868662D01*
X89436030Y-101717748D01*
X89310652Y-101592370D01*
X89159738Y-101499285D01*
X89154309Y-101497486D01*
X88991427Y-101443513D01*
X88887552Y-101432900D01*
X88118809Y-101432900D01*
X88051770Y-101413215D01*
X88006015Y-101360411D01*
X87996071Y-101291253D01*
X88025096Y-101227697D01*
X88031114Y-101221233D01*
X89252412Y-99999935D01*
X89313733Y-99966452D01*
X89326188Y-99964400D01*
X89411247Y-99954817D01*
X89583215Y-99894643D01*
X89737481Y-99797711D01*
X89866311Y-99668881D01*
X89963243Y-99514615D01*
X90023417Y-99342647D01*
X90023818Y-99339091D01*
X90043816Y-99161603D01*
X90043816Y-99161596D01*
X90023418Y-98980558D01*
X90023417Y-98980553D01*
X90012409Y-98949095D01*
X89963243Y-98808585D01*
X89866311Y-98654319D01*
X89737481Y-98525489D01*
X89651888Y-98471707D01*
X89583217Y-98428558D01*
X89583216Y-98428557D01*
X89583215Y-98428557D01*
X89485437Y-98394343D01*
X89411246Y-98368382D01*
X89411241Y-98368381D01*
X89230204Y-98347984D01*
X89230196Y-98347984D01*
X89049158Y-98368381D01*
X89049153Y-98368382D01*
X88877182Y-98428558D01*
X88722918Y-98525489D01*
X88594089Y-98654318D01*
X88497157Y-98808583D01*
X88436981Y-98980558D01*
X88427400Y-99065592D01*
X88400333Y-99130005D01*
X88391861Y-99139388D01*
X86130896Y-101400353D01*
X86069573Y-101433838D01*
X86055818Y-101436030D01*
X85982572Y-101443513D01*
X85814264Y-101499284D01*
X85814259Y-101499286D01*
X85663346Y-101592371D01*
X85537971Y-101717746D01*
X85444886Y-101868659D01*
X85444884Y-101868664D01*
X85389113Y-102036972D01*
X85378500Y-102140847D01*
X85378500Y-102140855D01*
X85378500Y-102565370D01*
X85378501Y-102908900D01*
X85358817Y-102975939D01*
X85306013Y-103021694D01*
X85254501Y-103032900D01*
X81122499Y-103032900D01*
X81055460Y-103013215D01*
X81009705Y-102960411D01*
X80998499Y-102908900D01*
X80998499Y-102859862D01*
X80998498Y-102859846D01*
X80998218Y-102857107D01*
X80987887Y-102755974D01*
X80932115Y-102587662D01*
X80839030Y-102436748D01*
X80713652Y-102311370D01*
X80562738Y-102218285D01*
X80562736Y-102218284D01*
X80556591Y-102214494D01*
X80557484Y-102213044D01*
X80511783Y-102172795D01*
X80492639Y-102105599D01*
X80512863Y-102038720D01*
X80528954Y-102018916D01*
X80664977Y-101882893D01*
X80791728Y-101708436D01*
X80889627Y-101516301D01*
X80956266Y-101311209D01*
X80967481Y-101240400D01*
X79937709Y-101240400D01*
X79949452Y-101220061D01*
X79990000Y-101068733D01*
X79990000Y-100912067D01*
X79949452Y-100760739D01*
X79937709Y-100740400D01*
X80967481Y-100740400D01*
X80956266Y-100669590D01*
X80889627Y-100464498D01*
X80791728Y-100272363D01*
X80664974Y-100097903D01*
X80664974Y-100097902D01*
X80512497Y-99945425D01*
X80338036Y-99818671D01*
X80145901Y-99720772D01*
X79940809Y-99654134D01*
X79727820Y-99620400D01*
X79645000Y-99620400D01*
X79645000Y-100447690D01*
X79624661Y-100435948D01*
X79473333Y-100395400D01*
X79316667Y-100395400D01*
X79165339Y-100435948D01*
X79145000Y-100447690D01*
X79145000Y-99620400D01*
X79062180Y-99620400D01*
X78849190Y-99654134D01*
X78644098Y-99720772D01*
X78451963Y-99818671D01*
X78277503Y-99945425D01*
X78277502Y-99945425D01*
X78125025Y-100097902D01*
X78125025Y-100097903D01*
X77998271Y-100272363D01*
X77900372Y-100464498D01*
X77833733Y-100669590D01*
X77822519Y-100740400D01*
X78852291Y-100740400D01*
X78840548Y-100760739D01*
X78800000Y-100912067D01*
X78800000Y-101068733D01*
X78840548Y-101220061D01*
X78852291Y-101240400D01*
X77822519Y-101240400D01*
X77833733Y-101311209D01*
X77900372Y-101516301D01*
X77998271Y-101708436D01*
X78125025Y-101882896D01*
X78125025Y-101882897D01*
X78261045Y-102018917D01*
X78294530Y-102080240D01*
X78289546Y-102149932D01*
X78247674Y-102205865D01*
X78233370Y-102214431D01*
X78233409Y-102214494D01*
X78227263Y-102218284D01*
X78227262Y-102218285D01*
X78132017Y-102277033D01*
X78076346Y-102311371D01*
X77950971Y-102436746D01*
X77857886Y-102587659D01*
X77857884Y-102587664D01*
X77802113Y-102755972D01*
X77791500Y-102859847D01*
X71292285Y-102859847D01*
X73061762Y-101090371D01*
X75042625Y-99109508D01*
X75112173Y-99005422D01*
X75160078Y-98889769D01*
X75184500Y-98766991D01*
X75184500Y-98641809D01*
X75184500Y-96116953D01*
X75204185Y-96049914D01*
X75243402Y-96011414D01*
X75302346Y-95975058D01*
X75425658Y-95851746D01*
X75517209Y-95703320D01*
X75572062Y-95537781D01*
X75582500Y-95435613D01*
X75582499Y-95026809D01*
X75602183Y-94959771D01*
X75618813Y-94939134D01*
X77051922Y-93506027D01*
X77132032Y-93367272D01*
X77137952Y-93345174D01*
X77174316Y-93285515D01*
X77237162Y-93254985D01*
X77306538Y-93263279D01*
X77345408Y-93289587D01*
X80808743Y-96752922D01*
X80808744Y-96752923D01*
X80808746Y-96752924D01*
X80939960Y-96828680D01*
X80947498Y-96833032D01*
X81102259Y-96874500D01*
X81102260Y-96874500D01*
X81262481Y-96874500D01*
X90844873Y-96874500D01*
X90911912Y-96894185D01*
X90932554Y-96910819D01*
X95242057Y-101220322D01*
X95267534Y-101235031D01*
X95380812Y-101300432D01*
X95535573Y-101341900D01*
X95535574Y-101341900D01*
X95535575Y-101341900D01*
X99906539Y-101341900D01*
X99906540Y-101341900D01*
X99906541Y-101341900D01*
X99983921Y-101321166D01*
X100061303Y-101300432D01*
X100200057Y-101220322D01*
X106244319Y-95176060D01*
X106305642Y-95142575D01*
X106375334Y-95147559D01*
X106431267Y-95189431D01*
X106455684Y-95254895D01*
X106456000Y-95263741D01*
X106456000Y-103273400D01*
X127646000Y-103273400D01*
X127646000Y-55273400D01*
X106456000Y-55273400D01*
X106456000Y-60388059D01*
X106436315Y-60455098D01*
X106383511Y-60500853D01*
X106314353Y-60510797D01*
X106250797Y-60481772D01*
X106244319Y-60475740D01*
X101655553Y-55886974D01*
X101622068Y-55825651D01*
X101627052Y-55755959D01*
X101668924Y-55700026D01*
X101702275Y-55682253D01*
X101800615Y-55647843D01*
X101954881Y-55550911D01*
X102083711Y-55422081D01*
X102180643Y-55267815D01*
X102180643Y-55267813D01*
X102184348Y-55261918D01*
X102185326Y-55262532D01*
X102202707Y-55238029D01*
X102497072Y-54943666D01*
X102580518Y-54818779D01*
X102637997Y-54680013D01*
X102648338Y-54628027D01*
X102661515Y-54561784D01*
X102667300Y-54532702D01*
X102667300Y-52264188D01*
X102686985Y-52197149D01*
X102718415Y-52163870D01*
X102856578Y-52063489D01*
X103019189Y-51900878D01*
X103074483Y-51824772D01*
X103129812Y-51782108D01*
X103199425Y-51776129D01*
X103261220Y-51808735D01*
X103275114Y-51824769D01*
X103330411Y-51900878D01*
X103493022Y-52063489D01*
X103679069Y-52198660D01*
X103775878Y-52247986D01*
X103883966Y-52303060D01*
X103883968Y-52303060D01*
X103883971Y-52303062D01*
X104001204Y-52341153D01*
X104102681Y-52374126D01*
X104329812Y-52410100D01*
X104329817Y-52410100D01*
X104559788Y-52410100D01*
X104786918Y-52374126D01*
X104853512Y-52352488D01*
X105005629Y-52303062D01*
X105210531Y-52198660D01*
X105396578Y-52063489D01*
X105559189Y-51900878D01*
X105694360Y-51714831D01*
X105764178Y-51577805D01*
X105812152Y-51527009D01*
X105874663Y-51510100D01*
X110389056Y-51510100D01*
X110456095Y-51529785D01*
X110476737Y-51546419D01*
X110564748Y-51634430D01*
X110715662Y-51727515D01*
X110883974Y-51783287D01*
X110987855Y-51793900D01*
X112328944Y-51793899D01*
X112432826Y-51783287D01*
X112601138Y-51727515D01*
X112752052Y-51634430D01*
X112877430Y-51509052D01*
X112970515Y-51358138D01*
X112970515Y-51358135D01*
X112972546Y-51354844D01*
X113024494Y-51308120D01*
X113093457Y-51296897D01*
X113157539Y-51324741D01*
X113165766Y-51332260D01*
X113300367Y-51466861D01*
X113475908Y-51594399D01*
X113669240Y-51692906D01*
X113875600Y-51759957D01*
X113955966Y-51772685D01*
X114089905Y-51793900D01*
X114089910Y-51793900D01*
X114306895Y-51793900D01*
X114425951Y-51775042D01*
X114521200Y-51759957D01*
X114727560Y-51692906D01*
X114920892Y-51594399D01*
X115096433Y-51466861D01*
X115249861Y-51313433D01*
X115377399Y-51137892D01*
X115475906Y-50944560D01*
X115542957Y-50738200D01*
X115561867Y-50618804D01*
X115576900Y-50523895D01*
X115576900Y-49856904D01*
X115548006Y-49674480D01*
X115542957Y-49642600D01*
X115475906Y-49436240D01*
X115377399Y-49242908D01*
X115249861Y-49067367D01*
X115096433Y-48913939D01*
X114920892Y-48786401D01*
X114727560Y-48687894D01*
X114521200Y-48620843D01*
X114521198Y-48620842D01*
X114521196Y-48620842D01*
X114306895Y-48586900D01*
X114306890Y-48586900D01*
X114089910Y-48586900D01*
X114089905Y-48586900D01*
X113875603Y-48620842D01*
X113669237Y-48687895D01*
X113475907Y-48786401D01*
X113300368Y-48913938D01*
X113165766Y-49048540D01*
X113104443Y-49082024D01*
X113034751Y-49077040D01*
X112978818Y-49035168D01*
X112972547Y-49025955D01*
X112877432Y-48871751D01*
X112877429Y-48871747D01*
X112752053Y-48746371D01*
X112752052Y-48746370D01*
X112601138Y-48653285D01*
X112584612Y-48647809D01*
X112432827Y-48597513D01*
X112328945Y-48586900D01*
X110987862Y-48586900D01*
X110987846Y-48586901D01*
X110883972Y-48597513D01*
X110715664Y-48653284D01*
X110715659Y-48653286D01*
X110564746Y-48746371D01*
X110439371Y-48871746D01*
X110346286Y-49022659D01*
X110346284Y-49022664D01*
X110290513Y-49190972D01*
X110279900Y-49294847D01*
X110279900Y-49294855D01*
X110279900Y-49792399D01*
X110279901Y-50169100D01*
X110260217Y-50236139D01*
X110207413Y-50281894D01*
X110155901Y-50293100D01*
X105874663Y-50293100D01*
X105807624Y-50273415D01*
X105764178Y-50225395D01*
X105714800Y-50128485D01*
X105694360Y-50088369D01*
X105559189Y-49902322D01*
X105396578Y-49739711D01*
X105210531Y-49604540D01*
X105161856Y-49579739D01*
X105005633Y-49500139D01*
X104786918Y-49429073D01*
X104559788Y-49393100D01*
X104559783Y-49393100D01*
X104329817Y-49393100D01*
X104329812Y-49393100D01*
X104102681Y-49429073D01*
X103883966Y-49500139D01*
X103679068Y-49604540D01*
X103493019Y-49739713D01*
X103330412Y-49902320D01*
X103275118Y-49978426D01*
X103219787Y-50021091D01*
X103150174Y-50027070D01*
X103088379Y-49994464D01*
X103074482Y-49978426D01*
X103046854Y-49940400D01*
X103019189Y-49902322D01*
X102856578Y-49739711D01*
X102670531Y-49604540D01*
X102621856Y-49579739D01*
X102465633Y-49500139D01*
X102246918Y-49429073D01*
X102019788Y-49393100D01*
X102019783Y-49393100D01*
X101789817Y-49393100D01*
X101789812Y-49393100D01*
X101562681Y-49429073D01*
X101343966Y-49500139D01*
X101139065Y-49604542D01*
X100964373Y-49731463D01*
X100898567Y-49754943D01*
X100830513Y-49739117D01*
X100781818Y-49689012D01*
X100775307Y-49674480D01*
X100768189Y-49655396D01*
X100680561Y-49538339D01*
X100563504Y-49450711D01*
X100545678Y-49444062D01*
X100426503Y-49399611D01*
X100365954Y-49393100D01*
X100365938Y-49393100D01*
X98363662Y-49393100D01*
X98363645Y-49393100D01*
X98303097Y-49399611D01*
X98303095Y-49399611D01*
X98166095Y-49450711D01*
X98049039Y-49538339D01*
X97961411Y-49655395D01*
X97910311Y-49792395D01*
X97910311Y-49792397D01*
X97903800Y-49852945D01*
X97903800Y-51950254D01*
X97910311Y-52010802D01*
X97910311Y-52010804D01*
X97954262Y-52128637D01*
X97961411Y-52147804D01*
X98049039Y-52264861D01*
X98166096Y-52352489D01*
X98303099Y-52403589D01*
X98330350Y-52406518D01*
X98363645Y-52410099D01*
X98363662Y-52410100D01*
X98632300Y-52410100D01*
X98699339Y-52429785D01*
X98745094Y-52482589D01*
X98756300Y-52534100D01*
X98756300Y-54536885D01*
X98762972Y-54561785D01*
X98762973Y-54561785D01*
X98797768Y-54691643D01*
X98877878Y-54830397D01*
X98877880Y-54830399D01*
X102577700Y-58530219D01*
X102611185Y-58591542D01*
X102606201Y-58661234D01*
X102564329Y-58717167D01*
X102498865Y-58741584D01*
X102490019Y-58741900D01*
X102027889Y-58741900D01*
X101873128Y-58783368D01*
X101873125Y-58783369D01*
X101734376Y-58863475D01*
X101734371Y-58863479D01*
X101492269Y-59105581D01*
X101430946Y-59139066D01*
X101404588Y-59141900D01*
X100811411Y-59141900D01*
X100744372Y-59122215D01*
X100723730Y-59105581D01*
X93201369Y-51583220D01*
X93167884Y-51521897D01*
X93172868Y-51452205D01*
X93214740Y-51396272D01*
X93269657Y-51373065D01*
X93284812Y-51370665D01*
X93489901Y-51304027D01*
X93682036Y-51206128D01*
X93856496Y-51079374D01*
X93856497Y-51079374D01*
X94008974Y-50926897D01*
X94008974Y-50926896D01*
X94135728Y-50752436D01*
X94233627Y-50560301D01*
X94300265Y-50355209D01*
X94334000Y-50142220D01*
X94334000Y-50059400D01*
X93506709Y-50059400D01*
X93518452Y-50039061D01*
X93559000Y-49887733D01*
X93559000Y-49731067D01*
X93518452Y-49579739D01*
X93506709Y-49559400D01*
X94334000Y-49559400D01*
X94334000Y-49476579D01*
X94300265Y-49263590D01*
X94233627Y-49058498D01*
X94135728Y-48866363D01*
X94008974Y-48691903D01*
X94008974Y-48691902D01*
X93856497Y-48539425D01*
X93682036Y-48412671D01*
X93489899Y-48314772D01*
X93284805Y-48248133D01*
X93214000Y-48236918D01*
X93214000Y-49266690D01*
X93193661Y-49254948D01*
X93042333Y-49214400D01*
X92885667Y-49214400D01*
X92734339Y-49254948D01*
X92714000Y-49266690D01*
X92714000Y-48236918D01*
X92713999Y-48236918D01*
X92643194Y-48248133D01*
X92438100Y-48314772D01*
X92245963Y-48412671D01*
X92071506Y-48539422D01*
X91935482Y-48675446D01*
X91874159Y-48708930D01*
X91804467Y-48703946D01*
X91748534Y-48662074D01*
X91739969Y-48647769D01*
X91739906Y-48647809D01*
X91736115Y-48641663D01*
X91736115Y-48641662D01*
X91643030Y-48490748D01*
X91517652Y-48365370D01*
X91366738Y-48272285D01*
X91293851Y-48248133D01*
X91198427Y-48216513D01*
X91094545Y-48205900D01*
X89753462Y-48205900D01*
X89753446Y-48205901D01*
X89649572Y-48216513D01*
X89481264Y-48272284D01*
X89481259Y-48272286D01*
X89330346Y-48365371D01*
X89204971Y-48490746D01*
X89111886Y-48641659D01*
X89111884Y-48641664D01*
X89056113Y-48809972D01*
X89045500Y-48913847D01*
X89045500Y-49076900D01*
X89025815Y-49143939D01*
X88973011Y-49189694D01*
X88921500Y-49200900D01*
X86406889Y-49200900D01*
X86252128Y-49242368D01*
X86252127Y-49242368D01*
X86252125Y-49242369D01*
X86252124Y-49242369D01*
X86116595Y-49320618D01*
X86114067Y-49321978D01*
X86113371Y-49322479D01*
X81512080Y-53923770D01*
X81512078Y-53923773D01*
X81431967Y-54062527D01*
X81426443Y-54083142D01*
X81426444Y-54083143D01*
X81390500Y-54217289D01*
X81390500Y-56796165D01*
X81370815Y-56863204D01*
X81331597Y-56901703D01*
X81187851Y-56990367D01*
X81187847Y-56990370D01*
X81062471Y-57115746D01*
X80969386Y-57266659D01*
X80969384Y-57266664D01*
X80934843Y-57370904D01*
X80895070Y-57428349D01*
X80830555Y-57455172D01*
X80817137Y-57455900D01*
X78170411Y-57455900D01*
X78103372Y-57436215D01*
X78082730Y-57419581D01*
X73924729Y-53261580D01*
X73891244Y-53200257D01*
X73896228Y-53130565D01*
X73938100Y-53074632D01*
X74003564Y-53050215D01*
X74012410Y-53049899D01*
X74044537Y-53049899D01*
X74044544Y-53049899D01*
X74148426Y-53039287D01*
X74316738Y-52983515D01*
X74467652Y-52890430D01*
X74593030Y-52765052D01*
X74686115Y-52614138D01*
X74686117Y-52614132D01*
X74703426Y-52561898D01*
X74743197Y-52504452D01*
X74807713Y-52477628D01*
X74821132Y-52476900D01*
X78167592Y-52476900D01*
X78167593Y-52476899D01*
X78290369Y-52452478D01*
X78392681Y-52410099D01*
X78406015Y-52404576D01*
X78406015Y-52404575D01*
X78406022Y-52404573D01*
X78510108Y-52335025D01*
X79014915Y-51830216D01*
X79076236Y-51796733D01*
X79102584Y-51793899D01*
X80426544Y-51793899D01*
X80530426Y-51783287D01*
X80698738Y-51727515D01*
X80849652Y-51634430D01*
X80975030Y-51509052D01*
X81068115Y-51358138D01*
X81068115Y-51358136D01*
X81071906Y-51351991D01*
X81073358Y-51352886D01*
X81113587Y-51307194D01*
X81180780Y-51288039D01*
X81247662Y-51308252D01*
X81267482Y-51324354D01*
X81403502Y-51460374D01*
X81577963Y-51587128D01*
X81770098Y-51685027D01*
X81975190Y-51751666D01*
X82046000Y-51762881D01*
X82046000Y-50733109D01*
X82066339Y-50744852D01*
X82217667Y-50785400D01*
X82374333Y-50785400D01*
X82525661Y-50744852D01*
X82546000Y-50733109D01*
X82546000Y-51762880D01*
X82616809Y-51751666D01*
X82821901Y-51685027D01*
X83014036Y-51587128D01*
X83188496Y-51460374D01*
X83188497Y-51460374D01*
X83340974Y-51307897D01*
X83340974Y-51307896D01*
X83467728Y-51133436D01*
X83565627Y-50941301D01*
X83632265Y-50736209D01*
X83666000Y-50523220D01*
X83666000Y-50440400D01*
X82838709Y-50440400D01*
X82850452Y-50420061D01*
X82891000Y-50268733D01*
X82891000Y-50112067D01*
X82850452Y-49960739D01*
X82838709Y-49940400D01*
X83666000Y-49940400D01*
X83666000Y-49857579D01*
X83632265Y-49644590D01*
X83565627Y-49439498D01*
X83467728Y-49247363D01*
X83340974Y-49072903D01*
X83340974Y-49072902D01*
X83188497Y-48920425D01*
X83014036Y-48793671D01*
X82821899Y-48695772D01*
X82616805Y-48629133D01*
X82546000Y-48617918D01*
X82546000Y-49647690D01*
X82525661Y-49635948D01*
X82374333Y-49595400D01*
X82217667Y-49595400D01*
X82066339Y-49635948D01*
X82046000Y-49647690D01*
X82046000Y-48617918D01*
X82045999Y-48617918D01*
X81975194Y-48629133D01*
X81770100Y-48695772D01*
X81577963Y-48793671D01*
X81403506Y-48920422D01*
X81267482Y-49056446D01*
X81206159Y-49089930D01*
X81136467Y-49084946D01*
X81080534Y-49043074D01*
X81071969Y-49028769D01*
X81071906Y-49028809D01*
X81068115Y-49022663D01*
X81068115Y-49022662D01*
X80975030Y-48871748D01*
X80849652Y-48746370D01*
X80698738Y-48653285D01*
X80682212Y-48647809D01*
X80530427Y-48597513D01*
X80426545Y-48586900D01*
X79085462Y-48586900D01*
X79085446Y-48586901D01*
X78981572Y-48597513D01*
X78813264Y-48653284D01*
X78813259Y-48653286D01*
X78662346Y-48746371D01*
X78536971Y-48871746D01*
X78443886Y-49022659D01*
X78443884Y-49022664D01*
X78388113Y-49190972D01*
X78377500Y-49294847D01*
X78377500Y-50618804D01*
X78357815Y-50685843D01*
X78341181Y-50706485D01*
X77878086Y-51169581D01*
X77816763Y-51203066D01*
X77790405Y-51205900D01*
X74821132Y-51205900D01*
X74754093Y-51186215D01*
X74708338Y-51133411D01*
X74703426Y-51120902D01*
X74686117Y-51068667D01*
X74686116Y-51068665D01*
X74686115Y-51068662D01*
X74593030Y-50917748D01*
X74467652Y-50792370D01*
X74328411Y-50706485D01*
X74316740Y-50699286D01*
X74316735Y-50699284D01*
X74148427Y-50643513D01*
X74044546Y-50632900D01*
X73243462Y-50632900D01*
X73243446Y-50632901D01*
X73139572Y-50643513D01*
X72971264Y-50699284D01*
X72971259Y-50699286D01*
X72820346Y-50792371D01*
X72731681Y-50881037D01*
X72670358Y-50914522D01*
X72600666Y-50909538D01*
X72556319Y-50881037D01*
X72467653Y-50792371D01*
X72467652Y-50792370D01*
X72328411Y-50706485D01*
X72316740Y-50699286D01*
X72316735Y-50699284D01*
X72148427Y-50643513D01*
X72044552Y-50632900D01*
X72044545Y-50632900D01*
X71347411Y-50632900D01*
X71280372Y-50613215D01*
X71259730Y-50596581D01*
X69426829Y-48763680D01*
X69426827Y-48763678D01*
X69288073Y-48683568D01*
X69175054Y-48653285D01*
X69175052Y-48653284D01*
X69175050Y-48653283D01*
X69133312Y-48642100D01*
X69133311Y-48642100D01*
X64067730Y-48642100D01*
X63912969Y-48683568D01*
X63912966Y-48683569D01*
X63774217Y-48763675D01*
X63774212Y-48763679D01*
X60028311Y-52509581D01*
X59966988Y-52543066D01*
X59940630Y-52545900D01*
X57895386Y-52545900D01*
X57834838Y-52552411D01*
X57834836Y-52552411D01*
X57697836Y-52603511D01*
X57580780Y-52691139D01*
X57493152Y-52808195D01*
X57442052Y-52945195D01*
X57442052Y-52945197D01*
X57435541Y-53005745D01*
X57435541Y-55503054D01*
X57442052Y-55563602D01*
X57442052Y-55563604D01*
X57492936Y-55700026D01*
X57493152Y-55700604D01*
X57580780Y-55817661D01*
X57697837Y-55905289D01*
X57812990Y-55948239D01*
X57829504Y-55954399D01*
X57834840Y-55956389D01*
X57862091Y-55959318D01*
X57895386Y-55962899D01*
X57895403Y-55962900D01*
X58384541Y-55962900D01*
X58451580Y-55982585D01*
X58497335Y-56035389D01*
X58508541Y-56086900D01*
X58508541Y-57157036D01*
X58532961Y-57279802D01*
X58532964Y-57279814D01*
X58580864Y-57395456D01*
X58580871Y-57395469D01*
X58650415Y-57499548D01*
X58650418Y-57499552D01*
X61655881Y-60505014D01*
X61689366Y-60566337D01*
X61692200Y-60592695D01*
X61692200Y-62146819D01*
X61672515Y-62213858D01*
X61633297Y-62252357D01*
X61516551Y-62324367D01*
X61516547Y-62324370D01*
X61391170Y-62449747D01*
X61391168Y-62449750D01*
X61390741Y-62450443D01*
X61390323Y-62450818D01*
X61386689Y-62455415D01*
X61385903Y-62454793D01*
X61338791Y-62497164D01*
X61269827Y-62508383D01*
X61205747Y-62480536D01*
X61187939Y-62459978D01*
X61186998Y-62460723D01*
X61182516Y-62455055D01*
X61058545Y-62331084D01*
X60909324Y-62239043D01*
X60909319Y-62239041D01*
X60742897Y-62183894D01*
X60742890Y-62183893D01*
X60640186Y-62173400D01*
X60502700Y-62173400D01*
X60502700Y-64623399D01*
X60640172Y-64623399D01*
X60640186Y-64623398D01*
X60742897Y-64612905D01*
X60909319Y-64557758D01*
X60909324Y-64557756D01*
X61058545Y-64465715D01*
X61182516Y-64341744D01*
X61186998Y-64336077D01*
X61189191Y-64337811D01*
X61231557Y-64299665D01*
X61300514Y-64288408D01*
X61364610Y-64316218D01*
X61386534Y-64341506D01*
X61386689Y-64341385D01*
X61389383Y-64344792D01*
X61390745Y-64346363D01*
X61391169Y-64347051D01*
X61437781Y-64393663D01*
X61471266Y-64454986D01*
X61474100Y-64481344D01*
X61474100Y-67752109D01*
X61454415Y-67819148D01*
X61415197Y-67857647D01*
X61285951Y-67937367D01*
X61285947Y-67937370D01*
X61160571Y-68062746D01*
X61067486Y-68213659D01*
X61067484Y-68213664D01*
X61011713Y-68381972D01*
X61001100Y-68485847D01*
X61001100Y-69144804D01*
X60981415Y-69211843D01*
X60964780Y-69232485D01*
X60515492Y-69681775D01*
X60478235Y-69719032D01*
X60426973Y-69770293D01*
X60357430Y-69874371D01*
X60357423Y-69874384D01*
X60309523Y-69990026D01*
X60309520Y-69990038D01*
X60285100Y-70112804D01*
X60285100Y-72996246D01*
X60265415Y-73063285D01*
X60226198Y-73101784D01*
X60167254Y-73138141D01*
X60167253Y-73138142D01*
X60133281Y-73172115D01*
X60071958Y-73205600D01*
X60002266Y-73200616D01*
X59957919Y-73172115D01*
X59923946Y-73138142D01*
X59923942Y-73138139D01*
X59775528Y-73046595D01*
X59775522Y-73046592D01*
X59775520Y-73046591D01*
X59775517Y-73046590D01*
X59609982Y-72991738D01*
X59507814Y-72981300D01*
X58833394Y-72981300D01*
X58833378Y-72981301D01*
X58731217Y-72991738D01*
X58565682Y-73046590D01*
X58565671Y-73046595D01*
X58417257Y-73138139D01*
X58417253Y-73138142D01*
X58293942Y-73261453D01*
X58293939Y-73261457D01*
X58202395Y-73409871D01*
X58202390Y-73409882D01*
X58147538Y-73575417D01*
X58137100Y-73677579D01*
X58137100Y-74252005D01*
X58137101Y-74252021D01*
X58147538Y-74354182D01*
X58202390Y-74519717D01*
X58202395Y-74519728D01*
X58293939Y-74668142D01*
X58293942Y-74668146D01*
X58417254Y-74791458D01*
X58476197Y-74827814D01*
X58522921Y-74879762D01*
X58535100Y-74933353D01*
X58535100Y-77979604D01*
X58515415Y-78046643D01*
X58498781Y-78067285D01*
X58478405Y-78087661D01*
X58417082Y-78121146D01*
X58347390Y-78116162D01*
X58291457Y-78074290D01*
X58267040Y-78008826D01*
X58267504Y-77986096D01*
X58268416Y-77978002D01*
X58268416Y-77977996D01*
X58248018Y-77796958D01*
X58248017Y-77796953D01*
X58211566Y-77692783D01*
X58187843Y-77624985D01*
X58090911Y-77470719D01*
X57962081Y-77341889D01*
X57807817Y-77244958D01*
X57807816Y-77244957D01*
X57807815Y-77244957D01*
X57725138Y-77216027D01*
X57635846Y-77184782D01*
X57635841Y-77184781D01*
X57454804Y-77164384D01*
X57454796Y-77164384D01*
X57273761Y-77184781D01*
X57273752Y-77184783D01*
X57205852Y-77208542D01*
X57164899Y-77215500D01*
X48297000Y-77215500D01*
X48229961Y-77195815D01*
X48209319Y-77179181D01*
X44208687Y-73178549D01*
X44175202Y-73117226D01*
X44172750Y-73081139D01*
X44173975Y-73065572D01*
X44185165Y-72923400D01*
X46238835Y-72923400D01*
X46257465Y-73160114D01*
X46312895Y-73390995D01*
X46312895Y-73390997D01*
X46403757Y-73610359D01*
X46403759Y-73610362D01*
X46527820Y-73812810D01*
X46527821Y-73812813D01*
X46536473Y-73822943D01*
X46682031Y-73993369D01*
X46821797Y-74112740D01*
X46862586Y-74147578D01*
X46862588Y-74147578D01*
X46898530Y-74169604D01*
X47065037Y-74271640D01*
X47065040Y-74271642D01*
X47284403Y-74362504D01*
X47284404Y-74362504D01*
X47284406Y-74362505D01*
X47515289Y-74417935D01*
X47752000Y-74436565D01*
X47988711Y-74417935D01*
X48219594Y-74362505D01*
X48219596Y-74362504D01*
X48219597Y-74362504D01*
X48438959Y-74271642D01*
X48438960Y-74271641D01*
X48438963Y-74271640D01*
X48641416Y-74147576D01*
X48821969Y-73993369D01*
X48976176Y-73812816D01*
X49100240Y-73610363D01*
X49114715Y-73575419D01*
X49191104Y-73390997D01*
X49191104Y-73390996D01*
X49191105Y-73390994D01*
X49246535Y-73160111D01*
X49265165Y-72923400D01*
X49246535Y-72686689D01*
X49227997Y-72609473D01*
X49231488Y-72539692D01*
X49260888Y-72492848D01*
X49878991Y-71874745D01*
X51323500Y-71874745D01*
X51323500Y-73972054D01*
X51330011Y-74032602D01*
X51330011Y-74032604D01*
X51372896Y-74147579D01*
X51381111Y-74169604D01*
X51468739Y-74286661D01*
X51585796Y-74374289D01*
X51722799Y-74425389D01*
X51750050Y-74428318D01*
X51783345Y-74431899D01*
X51783362Y-74431900D01*
X53880638Y-74431900D01*
X53880654Y-74431899D01*
X53907692Y-74428991D01*
X53941201Y-74425389D01*
X54078204Y-74374289D01*
X54195261Y-74286661D01*
X54282889Y-74169604D01*
X54333989Y-74032601D01*
X54338207Y-73993368D01*
X54340499Y-73972054D01*
X54340500Y-73972037D01*
X54340500Y-71874762D01*
X54340499Y-71874745D01*
X54337157Y-71843670D01*
X54333989Y-71814199D01*
X54319513Y-71775389D01*
X54300454Y-71724289D01*
X54282889Y-71677196D01*
X54195261Y-71560139D01*
X54078204Y-71472511D01*
X54054348Y-71463613D01*
X53941203Y-71421411D01*
X53880654Y-71414900D01*
X53880638Y-71414900D01*
X51783362Y-71414900D01*
X51783345Y-71414900D01*
X51722797Y-71421411D01*
X51722795Y-71421411D01*
X51585795Y-71472511D01*
X51468739Y-71560139D01*
X51381111Y-71677195D01*
X51330011Y-71814195D01*
X51330011Y-71814197D01*
X51323500Y-71874745D01*
X49878991Y-71874745D01*
X53525873Y-68227865D01*
X53609318Y-68102979D01*
X53666797Y-67964213D01*
X53667912Y-67958609D01*
X53672138Y-67937367D01*
X53696100Y-67816902D01*
X53696100Y-63923386D01*
X59165201Y-63923386D01*
X59175694Y-64026097D01*
X59230841Y-64192519D01*
X59230843Y-64192524D01*
X59322884Y-64341745D01*
X59446854Y-64465715D01*
X59596075Y-64557756D01*
X59596080Y-64557758D01*
X59762502Y-64612905D01*
X59762509Y-64612906D01*
X59865219Y-64623399D01*
X60002699Y-64623399D01*
X60002700Y-64623398D01*
X60002700Y-63648400D01*
X59165201Y-63648400D01*
X59165201Y-63923386D01*
X53696100Y-63923386D01*
X53696100Y-62873413D01*
X59165200Y-62873413D01*
X59165200Y-63148400D01*
X60002700Y-63148400D01*
X60002700Y-62173400D01*
X59865227Y-62173400D01*
X59865212Y-62173401D01*
X59762502Y-62183894D01*
X59596080Y-62239041D01*
X59596075Y-62239043D01*
X59446854Y-62331084D01*
X59322884Y-62455054D01*
X59230843Y-62604275D01*
X59230841Y-62604280D01*
X59175694Y-62770702D01*
X59175693Y-62770709D01*
X59165200Y-62873413D01*
X53696100Y-62873413D01*
X53696100Y-54320912D01*
X53715785Y-54253873D01*
X53747216Y-54220593D01*
X53831629Y-54159264D01*
X53831629Y-54159263D01*
X53831633Y-54159261D01*
X53985061Y-54005833D01*
X54112599Y-53830292D01*
X54211106Y-53636960D01*
X54278157Y-53430600D01*
X54307056Y-53248138D01*
X54312100Y-53216295D01*
X54312100Y-52549304D01*
X54280927Y-52352489D01*
X54278157Y-52335000D01*
X54211106Y-52128640D01*
X54112599Y-51935308D01*
X53985061Y-51759767D01*
X53831633Y-51606339D01*
X53656092Y-51478801D01*
X53462760Y-51380294D01*
X53256400Y-51313243D01*
X53256398Y-51313242D01*
X53256396Y-51313242D01*
X53042095Y-51279300D01*
X53042090Y-51279300D01*
X52825110Y-51279300D01*
X52825105Y-51279300D01*
X52610803Y-51313242D01*
X52404437Y-51380295D01*
X52211107Y-51478801D01*
X52035568Y-51606338D01*
X51894788Y-51747118D01*
X51833465Y-51780602D01*
X51763773Y-51775618D01*
X51707840Y-51733746D01*
X51701568Y-51724532D01*
X51605917Y-51569456D01*
X51481945Y-51445484D01*
X51332724Y-51353443D01*
X51332719Y-51353441D01*
X51166297Y-51298294D01*
X51166290Y-51298293D01*
X51063586Y-51287800D01*
X50643600Y-51287800D01*
X50643600Y-52340090D01*
X50623261Y-52328348D01*
X50471933Y-52287800D01*
X50315267Y-52287800D01*
X50163939Y-52328348D01*
X50143600Y-52340090D01*
X50143600Y-51287800D01*
X49723628Y-51287800D01*
X49723612Y-51287801D01*
X49620902Y-51298294D01*
X49454480Y-51353441D01*
X49454475Y-51353443D01*
X49305254Y-51445484D01*
X49181284Y-51569454D01*
X49089243Y-51718675D01*
X49089241Y-51718680D01*
X49034094Y-51885102D01*
X49034093Y-51885109D01*
X49023600Y-51987813D01*
X49023600Y-52632800D01*
X49850891Y-52632800D01*
X49839148Y-52653139D01*
X49798600Y-52804467D01*
X49798600Y-52961133D01*
X49839148Y-53112461D01*
X49850891Y-53132800D01*
X49023601Y-53132800D01*
X49023601Y-53777786D01*
X49034094Y-53880497D01*
X49089241Y-54046919D01*
X49089243Y-54046924D01*
X49181284Y-54196145D01*
X49305254Y-54320115D01*
X49454475Y-54412156D01*
X49454480Y-54412158D01*
X49620902Y-54467305D01*
X49620909Y-54467306D01*
X49723619Y-54477799D01*
X50143599Y-54477799D01*
X50143600Y-54477798D01*
X50143600Y-53425509D01*
X50163939Y-53437252D01*
X50315267Y-53477800D01*
X50471933Y-53477800D01*
X50623261Y-53437252D01*
X50643600Y-53425509D01*
X50643600Y-54477799D01*
X51063572Y-54477799D01*
X51063586Y-54477798D01*
X51166297Y-54467305D01*
X51332719Y-54412158D01*
X51332724Y-54412156D01*
X51481945Y-54320115D01*
X51605917Y-54196143D01*
X51701568Y-54041067D01*
X51753516Y-53994342D01*
X51822478Y-53983119D01*
X51886560Y-54010962D01*
X51894788Y-54018482D01*
X52035570Y-54159264D01*
X52119984Y-54220593D01*
X52162651Y-54275923D01*
X52171100Y-54320912D01*
X52171100Y-67374599D01*
X52151415Y-67441638D01*
X52134781Y-67462280D01*
X48182551Y-71414509D01*
X48121228Y-71447994D01*
X48065923Y-71447402D01*
X48049949Y-71443566D01*
X47988714Y-71428865D01*
X47752000Y-71410235D01*
X47515285Y-71428865D01*
X47284404Y-71484295D01*
X47284402Y-71484295D01*
X47065040Y-71575157D01*
X47065037Y-71575159D01*
X46862589Y-71699220D01*
X46862586Y-71699221D01*
X46682031Y-71853431D01*
X46527821Y-72033986D01*
X46527820Y-72033989D01*
X46403759Y-72236437D01*
X46403757Y-72236440D01*
X46312895Y-72455802D01*
X46312895Y-72455804D01*
X46257465Y-72686685D01*
X46238835Y-72923400D01*
X44185165Y-72923400D01*
X44166535Y-72686689D01*
X44111105Y-72455806D01*
X44111104Y-72455803D01*
X44111104Y-72455802D01*
X44020242Y-72236440D01*
X44020240Y-72236437D01*
X43896179Y-72033989D01*
X43896178Y-72033986D01*
X43760187Y-71874762D01*
X43741969Y-71853431D01*
X43617491Y-71747117D01*
X43561413Y-71699221D01*
X43561410Y-71699220D01*
X43358962Y-71575159D01*
X43358959Y-71575157D01*
X43139596Y-71484295D01*
X42908714Y-71428865D01*
X42672000Y-71410235D01*
X42435285Y-71428865D01*
X42204404Y-71484295D01*
X42204402Y-71484295D01*
X41985040Y-71575157D01*
X41985037Y-71575159D01*
X41782589Y-71699220D01*
X41782586Y-71699221D01*
X41602031Y-71853431D01*
X41447821Y-72033986D01*
X41447820Y-72033989D01*
X41323759Y-72236437D01*
X41323757Y-72236440D01*
X41232895Y-72455802D01*
X41232895Y-72455804D01*
X41177465Y-72686685D01*
X41158835Y-72923400D01*
X41177465Y-73160114D01*
X41196002Y-73237323D01*
X41192511Y-73307105D01*
X41163109Y-73353951D01*
X39635852Y-74881209D01*
X39635851Y-74881210D01*
X39635850Y-74881212D01*
X39601012Y-74933353D01*
X39591026Y-74948298D01*
X39591025Y-74948299D01*
X39552408Y-75006092D01*
X39552403Y-75006100D01*
X39494926Y-75144863D01*
X39494924Y-75144869D01*
X39465623Y-75292174D01*
X39465623Y-81628700D01*
X39445938Y-81695739D01*
X39393134Y-81741494D01*
X39341623Y-81752700D01*
X39179468Y-81752700D01*
X39118920Y-81759211D01*
X39118918Y-81759211D01*
X38981918Y-81810311D01*
X38864862Y-81897939D01*
X38777234Y-82014995D01*
X38726134Y-82151995D01*
X38726134Y-82151997D01*
X38719623Y-82212545D01*
X38719623Y-84309854D01*
X38726134Y-84370402D01*
X38726134Y-84370404D01*
X38777234Y-84507404D01*
X38864862Y-84624461D01*
X38981919Y-84712089D01*
X39118922Y-84763189D01*
X39146173Y-84766118D01*
X39179468Y-84769699D01*
X39179485Y-84769700D01*
X39341623Y-84769700D01*
X39408662Y-84789385D01*
X39454417Y-84842189D01*
X39465623Y-84893700D01*
X39465623Y-95137900D01*
X39445938Y-95204939D01*
X39393134Y-95250694D01*
X39341623Y-95261900D01*
X38225462Y-95261900D01*
X38225446Y-95261901D01*
X38121572Y-95272513D01*
X37953264Y-95328284D01*
X37953259Y-95328286D01*
X37802346Y-95421371D01*
X37676971Y-95546746D01*
X37583886Y-95697659D01*
X37583884Y-95697664D01*
X37528113Y-95865972D01*
X37517500Y-95969847D01*
X34671000Y-95969847D01*
X34671000Y-47084900D01*
X34690685Y-47017861D01*
X34743489Y-46972106D01*
X34788314Y-46962354D01*
X34788237Y-46961166D01*
X34792282Y-46960900D01*
X34792288Y-46960900D01*
X35032789Y-46929238D01*
X35267100Y-46866454D01*
X35491212Y-46773624D01*
X35701289Y-46652336D01*
X35893738Y-46504665D01*
X36065265Y-46333138D01*
X36212936Y-46140689D01*
X36334224Y-45930612D01*
X36427054Y-45706500D01*
X36489838Y-45472189D01*
X36521500Y-45231688D01*
X36521500Y-45231681D01*
X36521501Y-45231667D01*
X36521503Y-45231659D01*
X36522030Y-45227663D01*
X36522924Y-45227780D01*
X36545526Y-45166057D01*
X36601208Y-45123852D01*
X36645567Y-45115772D01*
X121850840Y-45347624D01*
G37*
%TD.AperFunction*%
%TD*%
M02*
