%TF.GenerationSoftware,KiCad,Pcbnew,8.0.8*%
%TF.CreationDate,2025-03-31T15:18:46-05:00*%
%TF.ProjectId,group1_battlebot,67726f75-7031-45f6-9261-74746c65626f,rev?*%
%TF.SameCoordinates,Original*%
%TF.FileFunction,Legend,Top*%
%TF.FilePolarity,Positive*%
%FSLAX46Y46*%
G04 Gerber Fmt 4.6, Leading zero omitted, Abs format (unit mm)*
G04 Created by KiCad (PCBNEW 8.0.8) date 2025-03-31 15:18:46*
%MOMM*%
%LPD*%
G01*
G04 APERTURE LIST*
%ADD10C,0.300000*%
%ADD11C,0.150000*%
%ADD12C,0.120000*%
G04 APERTURE END LIST*
D10*
X33015710Y-51765396D02*
X33015710Y-50265396D01*
X33015710Y-50265396D02*
X33515710Y-51336825D01*
X33515710Y-51336825D02*
X34015710Y-50265396D01*
X34015710Y-50265396D02*
X34015710Y-51765396D01*
X34658568Y-51336825D02*
X35372854Y-51336825D01*
X34515711Y-51765396D02*
X35015711Y-50265396D01*
X35015711Y-50265396D02*
X35515711Y-51765396D01*
X36872853Y-51765396D02*
X36372853Y-51051110D01*
X36015710Y-51765396D02*
X36015710Y-50265396D01*
X36015710Y-50265396D02*
X36587139Y-50265396D01*
X36587139Y-50265396D02*
X36729996Y-50336825D01*
X36729996Y-50336825D02*
X36801425Y-50408253D01*
X36801425Y-50408253D02*
X36872853Y-50551110D01*
X36872853Y-50551110D02*
X36872853Y-50765396D01*
X36872853Y-50765396D02*
X36801425Y-50908253D01*
X36801425Y-50908253D02*
X36729996Y-50979682D01*
X36729996Y-50979682D02*
X36587139Y-51051110D01*
X36587139Y-51051110D02*
X36015710Y-51051110D01*
X38515710Y-50265396D02*
X39444282Y-50265396D01*
X39444282Y-50265396D02*
X38944282Y-50836825D01*
X38944282Y-50836825D02*
X39158567Y-50836825D01*
X39158567Y-50836825D02*
X39301425Y-50908253D01*
X39301425Y-50908253D02*
X39372853Y-50979682D01*
X39372853Y-50979682D02*
X39444282Y-51122539D01*
X39444282Y-51122539D02*
X39444282Y-51479682D01*
X39444282Y-51479682D02*
X39372853Y-51622539D01*
X39372853Y-51622539D02*
X39301425Y-51693968D01*
X39301425Y-51693968D02*
X39158567Y-51765396D01*
X39158567Y-51765396D02*
X38729996Y-51765396D01*
X38729996Y-51765396D02*
X38587139Y-51693968D01*
X38587139Y-51693968D02*
X38515710Y-51622539D01*
X40872853Y-51765396D02*
X40015710Y-51765396D01*
X40444281Y-51765396D02*
X40444281Y-50265396D01*
X40444281Y-50265396D02*
X40301424Y-50479682D01*
X40301424Y-50479682D02*
X40158567Y-50622539D01*
X40158567Y-50622539D02*
X40015710Y-50693968D01*
X42587138Y-50408253D02*
X42658566Y-50336825D01*
X42658566Y-50336825D02*
X42801424Y-50265396D01*
X42801424Y-50265396D02*
X43158566Y-50265396D01*
X43158566Y-50265396D02*
X43301424Y-50336825D01*
X43301424Y-50336825D02*
X43372852Y-50408253D01*
X43372852Y-50408253D02*
X43444281Y-50551110D01*
X43444281Y-50551110D02*
X43444281Y-50693968D01*
X43444281Y-50693968D02*
X43372852Y-50908253D01*
X43372852Y-50908253D02*
X42515709Y-51765396D01*
X42515709Y-51765396D02*
X43444281Y-51765396D01*
X44801423Y-50265396D02*
X44087137Y-50265396D01*
X44087137Y-50265396D02*
X44015709Y-50979682D01*
X44015709Y-50979682D02*
X44087137Y-50908253D01*
X44087137Y-50908253D02*
X44229995Y-50836825D01*
X44229995Y-50836825D02*
X44587137Y-50836825D01*
X44587137Y-50836825D02*
X44729995Y-50908253D01*
X44729995Y-50908253D02*
X44801423Y-50979682D01*
X44801423Y-50979682D02*
X44872852Y-51122539D01*
X44872852Y-51122539D02*
X44872852Y-51479682D01*
X44872852Y-51479682D02*
X44801423Y-51622539D01*
X44801423Y-51622539D02*
X44729995Y-51693968D01*
X44729995Y-51693968D02*
X44587137Y-51765396D01*
X44587137Y-51765396D02*
X44229995Y-51765396D01*
X44229995Y-51765396D02*
X44087137Y-51693968D01*
X44087137Y-51693968D02*
X44015709Y-51622539D01*
X33801425Y-52751741D02*
X33658568Y-52680312D01*
X33658568Y-52680312D02*
X33444282Y-52680312D01*
X33444282Y-52680312D02*
X33229996Y-52751741D01*
X33229996Y-52751741D02*
X33087139Y-52894598D01*
X33087139Y-52894598D02*
X33015710Y-53037455D01*
X33015710Y-53037455D02*
X32944282Y-53323169D01*
X32944282Y-53323169D02*
X32944282Y-53537455D01*
X32944282Y-53537455D02*
X33015710Y-53823169D01*
X33015710Y-53823169D02*
X33087139Y-53966026D01*
X33087139Y-53966026D02*
X33229996Y-54108884D01*
X33229996Y-54108884D02*
X33444282Y-54180312D01*
X33444282Y-54180312D02*
X33587139Y-54180312D01*
X33587139Y-54180312D02*
X33801425Y-54108884D01*
X33801425Y-54108884D02*
X33872853Y-54037455D01*
X33872853Y-54037455D02*
X33872853Y-53537455D01*
X33872853Y-53537455D02*
X33587139Y-53537455D01*
X34515710Y-54180312D02*
X34515710Y-53180312D01*
X34515710Y-53466026D02*
X34587139Y-53323169D01*
X34587139Y-53323169D02*
X34658568Y-53251741D01*
X34658568Y-53251741D02*
X34801425Y-53180312D01*
X34801425Y-53180312D02*
X34944282Y-53180312D01*
X35658567Y-54180312D02*
X35515710Y-54108884D01*
X35515710Y-54108884D02*
X35444281Y-54037455D01*
X35444281Y-54037455D02*
X35372853Y-53894598D01*
X35372853Y-53894598D02*
X35372853Y-53466026D01*
X35372853Y-53466026D02*
X35444281Y-53323169D01*
X35444281Y-53323169D02*
X35515710Y-53251741D01*
X35515710Y-53251741D02*
X35658567Y-53180312D01*
X35658567Y-53180312D02*
X35872853Y-53180312D01*
X35872853Y-53180312D02*
X36015710Y-53251741D01*
X36015710Y-53251741D02*
X36087139Y-53323169D01*
X36087139Y-53323169D02*
X36158567Y-53466026D01*
X36158567Y-53466026D02*
X36158567Y-53894598D01*
X36158567Y-53894598D02*
X36087139Y-54037455D01*
X36087139Y-54037455D02*
X36015710Y-54108884D01*
X36015710Y-54108884D02*
X35872853Y-54180312D01*
X35872853Y-54180312D02*
X35658567Y-54180312D01*
X37444282Y-53180312D02*
X37444282Y-54180312D01*
X36801424Y-53180312D02*
X36801424Y-53966026D01*
X36801424Y-53966026D02*
X36872853Y-54108884D01*
X36872853Y-54108884D02*
X37015710Y-54180312D01*
X37015710Y-54180312D02*
X37229996Y-54180312D01*
X37229996Y-54180312D02*
X37372853Y-54108884D01*
X37372853Y-54108884D02*
X37444282Y-54037455D01*
X38158567Y-53180312D02*
X38158567Y-54680312D01*
X38158567Y-53251741D02*
X38301425Y-53180312D01*
X38301425Y-53180312D02*
X38587139Y-53180312D01*
X38587139Y-53180312D02*
X38729996Y-53251741D01*
X38729996Y-53251741D02*
X38801425Y-53323169D01*
X38801425Y-53323169D02*
X38872853Y-53466026D01*
X38872853Y-53466026D02*
X38872853Y-53894598D01*
X38872853Y-53894598D02*
X38801425Y-54037455D01*
X38801425Y-54037455D02*
X38729996Y-54108884D01*
X38729996Y-54108884D02*
X38587139Y-54180312D01*
X38587139Y-54180312D02*
X38301425Y-54180312D01*
X38301425Y-54180312D02*
X38158567Y-54108884D01*
X41444282Y-54180312D02*
X40587139Y-54180312D01*
X41015710Y-54180312D02*
X41015710Y-52680312D01*
X41015710Y-52680312D02*
X40872853Y-52894598D01*
X40872853Y-52894598D02*
X40729996Y-53037455D01*
X40729996Y-53037455D02*
X40587139Y-53108884D01*
X32801425Y-55095228D02*
X33301425Y-56595228D01*
X33301425Y-56595228D02*
X33801425Y-55095228D01*
X34872853Y-56523800D02*
X34729996Y-56595228D01*
X34729996Y-56595228D02*
X34444282Y-56595228D01*
X34444282Y-56595228D02*
X34301424Y-56523800D01*
X34301424Y-56523800D02*
X34229996Y-56380942D01*
X34229996Y-56380942D02*
X34229996Y-55809514D01*
X34229996Y-55809514D02*
X34301424Y-55666657D01*
X34301424Y-55666657D02*
X34444282Y-55595228D01*
X34444282Y-55595228D02*
X34729996Y-55595228D01*
X34729996Y-55595228D02*
X34872853Y-55666657D01*
X34872853Y-55666657D02*
X34944282Y-55809514D01*
X34944282Y-55809514D02*
X34944282Y-55952371D01*
X34944282Y-55952371D02*
X34229996Y-56095228D01*
X35587138Y-56595228D02*
X35587138Y-55595228D01*
X35587138Y-55880942D02*
X35658567Y-55738085D01*
X35658567Y-55738085D02*
X35729996Y-55666657D01*
X35729996Y-55666657D02*
X35872853Y-55595228D01*
X35872853Y-55595228D02*
X36015710Y-55595228D01*
X36444281Y-56523800D02*
X36587138Y-56595228D01*
X36587138Y-56595228D02*
X36872852Y-56595228D01*
X36872852Y-56595228D02*
X37015709Y-56523800D01*
X37015709Y-56523800D02*
X37087138Y-56380942D01*
X37087138Y-56380942D02*
X37087138Y-56309514D01*
X37087138Y-56309514D02*
X37015709Y-56166657D01*
X37015709Y-56166657D02*
X36872852Y-56095228D01*
X36872852Y-56095228D02*
X36658567Y-56095228D01*
X36658567Y-56095228D02*
X36515709Y-56023800D01*
X36515709Y-56023800D02*
X36444281Y-55880942D01*
X36444281Y-55880942D02*
X36444281Y-55809514D01*
X36444281Y-55809514D02*
X36515709Y-55666657D01*
X36515709Y-55666657D02*
X36658567Y-55595228D01*
X36658567Y-55595228D02*
X36872852Y-55595228D01*
X36872852Y-55595228D02*
X37015709Y-55666657D01*
X37729995Y-56595228D02*
X37729995Y-55595228D01*
X37729995Y-55095228D02*
X37658567Y-55166657D01*
X37658567Y-55166657D02*
X37729995Y-55238085D01*
X37729995Y-55238085D02*
X37801424Y-55166657D01*
X37801424Y-55166657D02*
X37729995Y-55095228D01*
X37729995Y-55095228D02*
X37729995Y-55238085D01*
X38658567Y-56595228D02*
X38515710Y-56523800D01*
X38515710Y-56523800D02*
X38444281Y-56452371D01*
X38444281Y-56452371D02*
X38372853Y-56309514D01*
X38372853Y-56309514D02*
X38372853Y-55880942D01*
X38372853Y-55880942D02*
X38444281Y-55738085D01*
X38444281Y-55738085D02*
X38515710Y-55666657D01*
X38515710Y-55666657D02*
X38658567Y-55595228D01*
X38658567Y-55595228D02*
X38872853Y-55595228D01*
X38872853Y-55595228D02*
X39015710Y-55666657D01*
X39015710Y-55666657D02*
X39087139Y-55738085D01*
X39087139Y-55738085D02*
X39158567Y-55880942D01*
X39158567Y-55880942D02*
X39158567Y-56309514D01*
X39158567Y-56309514D02*
X39087139Y-56452371D01*
X39087139Y-56452371D02*
X39015710Y-56523800D01*
X39015710Y-56523800D02*
X38872853Y-56595228D01*
X38872853Y-56595228D02*
X38658567Y-56595228D01*
X39801424Y-55595228D02*
X39801424Y-56595228D01*
X39801424Y-55738085D02*
X39872853Y-55666657D01*
X39872853Y-55666657D02*
X40015710Y-55595228D01*
X40015710Y-55595228D02*
X40229996Y-55595228D01*
X40229996Y-55595228D02*
X40372853Y-55666657D01*
X40372853Y-55666657D02*
X40444282Y-55809514D01*
X40444282Y-55809514D02*
X40444282Y-56595228D01*
X42158567Y-55095228D02*
X43087139Y-55095228D01*
X43087139Y-55095228D02*
X42587139Y-55666657D01*
X42587139Y-55666657D02*
X42801424Y-55666657D01*
X42801424Y-55666657D02*
X42944282Y-55738085D01*
X42944282Y-55738085D02*
X43015710Y-55809514D01*
X43015710Y-55809514D02*
X43087139Y-55952371D01*
X43087139Y-55952371D02*
X43087139Y-56309514D01*
X43087139Y-56309514D02*
X43015710Y-56452371D01*
X43015710Y-56452371D02*
X42944282Y-56523800D01*
X42944282Y-56523800D02*
X42801424Y-56595228D01*
X42801424Y-56595228D02*
X42372853Y-56595228D01*
X42372853Y-56595228D02*
X42229996Y-56523800D01*
X42229996Y-56523800D02*
X42158567Y-56452371D01*
D11*
X91360666Y-45144219D02*
X91360666Y-45858504D01*
X91360666Y-45858504D02*
X91313047Y-46001361D01*
X91313047Y-46001361D02*
X91217809Y-46096600D01*
X91217809Y-46096600D02*
X91074952Y-46144219D01*
X91074952Y-46144219D02*
X90979714Y-46144219D01*
X91741619Y-45144219D02*
X92408285Y-45144219D01*
X92408285Y-45144219D02*
X91979714Y-46144219D01*
X88717809Y-54344219D02*
X88717809Y-53344219D01*
X88717809Y-53344219D02*
X89098761Y-53344219D01*
X89098761Y-53344219D02*
X89193999Y-53391838D01*
X89193999Y-53391838D02*
X89241618Y-53439457D01*
X89241618Y-53439457D02*
X89289237Y-53534695D01*
X89289237Y-53534695D02*
X89289237Y-53677552D01*
X89289237Y-53677552D02*
X89241618Y-53772790D01*
X89241618Y-53772790D02*
X89193999Y-53820409D01*
X89193999Y-53820409D02*
X89098761Y-53868028D01*
X89098761Y-53868028D02*
X88717809Y-53868028D01*
X89717809Y-54344219D02*
X89717809Y-53677552D01*
X89717809Y-53868028D02*
X89765428Y-53772790D01*
X89765428Y-53772790D02*
X89813047Y-53725171D01*
X89813047Y-53725171D02*
X89908285Y-53677552D01*
X89908285Y-53677552D02*
X90003523Y-53677552D01*
X90479714Y-54344219D02*
X90384476Y-54296600D01*
X90384476Y-54296600D02*
X90336857Y-54248980D01*
X90336857Y-54248980D02*
X90289238Y-54153742D01*
X90289238Y-54153742D02*
X90289238Y-53868028D01*
X90289238Y-53868028D02*
X90336857Y-53772790D01*
X90336857Y-53772790D02*
X90384476Y-53725171D01*
X90384476Y-53725171D02*
X90479714Y-53677552D01*
X90479714Y-53677552D02*
X90622571Y-53677552D01*
X90622571Y-53677552D02*
X90717809Y-53725171D01*
X90717809Y-53725171D02*
X90765428Y-53772790D01*
X90765428Y-53772790D02*
X90813047Y-53868028D01*
X90813047Y-53868028D02*
X90813047Y-54153742D01*
X90813047Y-54153742D02*
X90765428Y-54248980D01*
X90765428Y-54248980D02*
X90717809Y-54296600D01*
X90717809Y-54296600D02*
X90622571Y-54344219D01*
X90622571Y-54344219D02*
X90479714Y-54344219D01*
X91670190Y-53677552D02*
X91670190Y-54487076D01*
X91670190Y-54487076D02*
X91622571Y-54582314D01*
X91622571Y-54582314D02*
X91574952Y-54629933D01*
X91574952Y-54629933D02*
X91479714Y-54677552D01*
X91479714Y-54677552D02*
X91336857Y-54677552D01*
X91336857Y-54677552D02*
X91241619Y-54629933D01*
X91670190Y-54296600D02*
X91574952Y-54344219D01*
X91574952Y-54344219D02*
X91384476Y-54344219D01*
X91384476Y-54344219D02*
X91289238Y-54296600D01*
X91289238Y-54296600D02*
X91241619Y-54248980D01*
X91241619Y-54248980D02*
X91194000Y-54153742D01*
X91194000Y-54153742D02*
X91194000Y-53868028D01*
X91194000Y-53868028D02*
X91241619Y-53772790D01*
X91241619Y-53772790D02*
X91289238Y-53725171D01*
X91289238Y-53725171D02*
X91384476Y-53677552D01*
X91384476Y-53677552D02*
X91574952Y-53677552D01*
X91574952Y-53677552D02*
X91670190Y-53725171D01*
X91908286Y-54439457D02*
X92670190Y-54439457D01*
X92765429Y-53344219D02*
X93098762Y-54344219D01*
X93098762Y-54344219D02*
X93432095Y-53344219D01*
X93765429Y-54344219D02*
X93765429Y-53677552D01*
X93765429Y-53344219D02*
X93717810Y-53391838D01*
X93717810Y-53391838D02*
X93765429Y-53439457D01*
X93765429Y-53439457D02*
X93813048Y-53391838D01*
X93813048Y-53391838D02*
X93765429Y-53344219D01*
X93765429Y-53344219D02*
X93765429Y-53439457D01*
X94241619Y-53677552D02*
X94241619Y-54344219D01*
X94241619Y-53772790D02*
X94289238Y-53725171D01*
X94289238Y-53725171D02*
X94384476Y-53677552D01*
X94384476Y-53677552D02*
X94527333Y-53677552D01*
X94527333Y-53677552D02*
X94622571Y-53725171D01*
X94622571Y-53725171D02*
X94670190Y-53820409D01*
X94670190Y-53820409D02*
X94670190Y-54344219D01*
X42561456Y-77370780D02*
X42513837Y-77418400D01*
X42513837Y-77418400D02*
X42370980Y-77466019D01*
X42370980Y-77466019D02*
X42275742Y-77466019D01*
X42275742Y-77466019D02*
X42132885Y-77418400D01*
X42132885Y-77418400D02*
X42037647Y-77323161D01*
X42037647Y-77323161D02*
X41990028Y-77227923D01*
X41990028Y-77227923D02*
X41942409Y-77037447D01*
X41942409Y-77037447D02*
X41942409Y-76894590D01*
X41942409Y-76894590D02*
X41990028Y-76704114D01*
X41990028Y-76704114D02*
X42037647Y-76608876D01*
X42037647Y-76608876D02*
X42132885Y-76513638D01*
X42132885Y-76513638D02*
X42275742Y-76466019D01*
X42275742Y-76466019D02*
X42370980Y-76466019D01*
X42370980Y-76466019D02*
X42513837Y-76513638D01*
X42513837Y-76513638D02*
X42561456Y-76561257D01*
X43513837Y-77466019D02*
X42942409Y-77466019D01*
X43228123Y-77466019D02*
X43228123Y-76466019D01*
X43228123Y-76466019D02*
X43132885Y-76608876D01*
X43132885Y-76608876D02*
X43037647Y-76704114D01*
X43037647Y-76704114D02*
X42942409Y-76751733D01*
X41085265Y-88966019D02*
X40894789Y-88966019D01*
X40894789Y-88966019D02*
X40799551Y-89013638D01*
X40799551Y-89013638D02*
X40751932Y-89061257D01*
X40751932Y-89061257D02*
X40656694Y-89204114D01*
X40656694Y-89204114D02*
X40609075Y-89394590D01*
X40609075Y-89394590D02*
X40609075Y-89775542D01*
X40609075Y-89775542D02*
X40656694Y-89870780D01*
X40656694Y-89870780D02*
X40704313Y-89918400D01*
X40704313Y-89918400D02*
X40799551Y-89966019D01*
X40799551Y-89966019D02*
X40990027Y-89966019D01*
X40990027Y-89966019D02*
X41085265Y-89918400D01*
X41085265Y-89918400D02*
X41132884Y-89870780D01*
X41132884Y-89870780D02*
X41180503Y-89775542D01*
X41180503Y-89775542D02*
X41180503Y-89537447D01*
X41180503Y-89537447D02*
X41132884Y-89442209D01*
X41132884Y-89442209D02*
X41085265Y-89394590D01*
X41085265Y-89394590D02*
X40990027Y-89346971D01*
X40990027Y-89346971D02*
X40799551Y-89346971D01*
X40799551Y-89346971D02*
X40704313Y-89394590D01*
X40704313Y-89394590D02*
X40656694Y-89442209D01*
X40656694Y-89442209D02*
X40609075Y-89537447D01*
X41751932Y-89394590D02*
X41656694Y-89346971D01*
X41656694Y-89346971D02*
X41609075Y-89299352D01*
X41609075Y-89299352D02*
X41561456Y-89204114D01*
X41561456Y-89204114D02*
X41561456Y-89156495D01*
X41561456Y-89156495D02*
X41609075Y-89061257D01*
X41609075Y-89061257D02*
X41656694Y-89013638D01*
X41656694Y-89013638D02*
X41751932Y-88966019D01*
X41751932Y-88966019D02*
X41942408Y-88966019D01*
X41942408Y-88966019D02*
X42037646Y-89013638D01*
X42037646Y-89013638D02*
X42085265Y-89061257D01*
X42085265Y-89061257D02*
X42132884Y-89156495D01*
X42132884Y-89156495D02*
X42132884Y-89204114D01*
X42132884Y-89204114D02*
X42085265Y-89299352D01*
X42085265Y-89299352D02*
X42037646Y-89346971D01*
X42037646Y-89346971D02*
X41942408Y-89394590D01*
X41942408Y-89394590D02*
X41751932Y-89394590D01*
X41751932Y-89394590D02*
X41656694Y-89442209D01*
X41656694Y-89442209D02*
X41609075Y-89489828D01*
X41609075Y-89489828D02*
X41561456Y-89585066D01*
X41561456Y-89585066D02*
X41561456Y-89775542D01*
X41561456Y-89775542D02*
X41609075Y-89870780D01*
X41609075Y-89870780D02*
X41656694Y-89918400D01*
X41656694Y-89918400D02*
X41751932Y-89966019D01*
X41751932Y-89966019D02*
X41942408Y-89966019D01*
X41942408Y-89966019D02*
X42037646Y-89918400D01*
X42037646Y-89918400D02*
X42085265Y-89870780D01*
X42085265Y-89870780D02*
X42132884Y-89775542D01*
X42132884Y-89775542D02*
X42132884Y-89585066D01*
X42132884Y-89585066D02*
X42085265Y-89489828D01*
X42085265Y-89489828D02*
X42037646Y-89442209D01*
X42037646Y-89442209D02*
X41942408Y-89394590D01*
X42751932Y-88966019D02*
X42847170Y-88966019D01*
X42847170Y-88966019D02*
X42942408Y-89013638D01*
X42942408Y-89013638D02*
X42990027Y-89061257D01*
X42990027Y-89061257D02*
X43037646Y-89156495D01*
X43037646Y-89156495D02*
X43085265Y-89346971D01*
X43085265Y-89346971D02*
X43085265Y-89585066D01*
X43085265Y-89585066D02*
X43037646Y-89775542D01*
X43037646Y-89775542D02*
X42990027Y-89870780D01*
X42990027Y-89870780D02*
X42942408Y-89918400D01*
X42942408Y-89918400D02*
X42847170Y-89966019D01*
X42847170Y-89966019D02*
X42751932Y-89966019D01*
X42751932Y-89966019D02*
X42656694Y-89918400D01*
X42656694Y-89918400D02*
X42609075Y-89870780D01*
X42609075Y-89870780D02*
X42561456Y-89775542D01*
X42561456Y-89775542D02*
X42513837Y-89585066D01*
X42513837Y-89585066D02*
X42513837Y-89346971D01*
X42513837Y-89346971D02*
X42561456Y-89156495D01*
X42561456Y-89156495D02*
X42609075Y-89061257D01*
X42609075Y-89061257D02*
X42656694Y-89013638D01*
X42656694Y-89013638D02*
X42751932Y-88966019D01*
X43942408Y-89299352D02*
X43942408Y-89966019D01*
X43513837Y-89299352D02*
X43513837Y-89823161D01*
X43513837Y-89823161D02*
X43561456Y-89918400D01*
X43561456Y-89918400D02*
X43656694Y-89966019D01*
X43656694Y-89966019D02*
X43799551Y-89966019D01*
X43799551Y-89966019D02*
X43894789Y-89918400D01*
X43894789Y-89918400D02*
X43942408Y-89870780D01*
X44751932Y-89442209D02*
X44418599Y-89442209D01*
X44418599Y-89966019D02*
X44418599Y-88966019D01*
X44418599Y-88966019D02*
X44894789Y-88966019D01*
X61477374Y-47113980D02*
X61429755Y-47161600D01*
X61429755Y-47161600D02*
X61286898Y-47209219D01*
X61286898Y-47209219D02*
X61191660Y-47209219D01*
X61191660Y-47209219D02*
X61048803Y-47161600D01*
X61048803Y-47161600D02*
X60953565Y-47066361D01*
X60953565Y-47066361D02*
X60905946Y-46971123D01*
X60905946Y-46971123D02*
X60858327Y-46780647D01*
X60858327Y-46780647D02*
X60858327Y-46637790D01*
X60858327Y-46637790D02*
X60905946Y-46447314D01*
X60905946Y-46447314D02*
X60953565Y-46352076D01*
X60953565Y-46352076D02*
X61048803Y-46256838D01*
X61048803Y-46256838D02*
X61191660Y-46209219D01*
X61191660Y-46209219D02*
X61286898Y-46209219D01*
X61286898Y-46209219D02*
X61429755Y-46256838D01*
X61429755Y-46256838D02*
X61477374Y-46304457D01*
X61858327Y-46304457D02*
X61905946Y-46256838D01*
X61905946Y-46256838D02*
X62001184Y-46209219D01*
X62001184Y-46209219D02*
X62239279Y-46209219D01*
X62239279Y-46209219D02*
X62334517Y-46256838D01*
X62334517Y-46256838D02*
X62382136Y-46304457D01*
X62382136Y-46304457D02*
X62429755Y-46399695D01*
X62429755Y-46399695D02*
X62429755Y-46494933D01*
X62429755Y-46494933D02*
X62382136Y-46637790D01*
X62382136Y-46637790D02*
X61810708Y-47209219D01*
X61810708Y-47209219D02*
X62429755Y-47209219D01*
X66816552Y-58274857D02*
X66864171Y-58227238D01*
X66864171Y-58227238D02*
X66959409Y-58179619D01*
X66959409Y-58179619D02*
X67197504Y-58179619D01*
X67197504Y-58179619D02*
X67292742Y-58227238D01*
X67292742Y-58227238D02*
X67340361Y-58274857D01*
X67340361Y-58274857D02*
X67387980Y-58370095D01*
X67387980Y-58370095D02*
X67387980Y-58465333D01*
X67387980Y-58465333D02*
X67340361Y-58608190D01*
X67340361Y-58608190D02*
X66768933Y-59179619D01*
X66768933Y-59179619D02*
X67387980Y-59179619D01*
X67768933Y-58274857D02*
X67816552Y-58227238D01*
X67816552Y-58227238D02*
X67911790Y-58179619D01*
X67911790Y-58179619D02*
X68149885Y-58179619D01*
X68149885Y-58179619D02*
X68245123Y-58227238D01*
X68245123Y-58227238D02*
X68292742Y-58274857D01*
X68292742Y-58274857D02*
X68340361Y-58370095D01*
X68340361Y-58370095D02*
X68340361Y-58465333D01*
X68340361Y-58465333D02*
X68292742Y-58608190D01*
X68292742Y-58608190D02*
X67721314Y-59179619D01*
X67721314Y-59179619D02*
X68340361Y-59179619D01*
X68959409Y-58179619D02*
X69054647Y-58179619D01*
X69054647Y-58179619D02*
X69149885Y-58227238D01*
X69149885Y-58227238D02*
X69197504Y-58274857D01*
X69197504Y-58274857D02*
X69245123Y-58370095D01*
X69245123Y-58370095D02*
X69292742Y-58560571D01*
X69292742Y-58560571D02*
X69292742Y-58798666D01*
X69292742Y-58798666D02*
X69245123Y-58989142D01*
X69245123Y-58989142D02*
X69197504Y-59084380D01*
X69197504Y-59084380D02*
X69149885Y-59132000D01*
X69149885Y-59132000D02*
X69054647Y-59179619D01*
X69054647Y-59179619D02*
X68959409Y-59179619D01*
X68959409Y-59179619D02*
X68864171Y-59132000D01*
X68864171Y-59132000D02*
X68816552Y-59084380D01*
X68816552Y-59084380D02*
X68768933Y-58989142D01*
X68768933Y-58989142D02*
X68721314Y-58798666D01*
X68721314Y-58798666D02*
X68721314Y-58560571D01*
X68721314Y-58560571D02*
X68768933Y-58370095D01*
X68768933Y-58370095D02*
X68816552Y-58274857D01*
X68816552Y-58274857D02*
X68864171Y-58227238D01*
X68864171Y-58227238D02*
X68959409Y-58179619D01*
X70149885Y-58512952D02*
X70149885Y-59179619D01*
X69721314Y-58512952D02*
X69721314Y-59036761D01*
X69721314Y-59036761D02*
X69768933Y-59132000D01*
X69768933Y-59132000D02*
X69864171Y-59179619D01*
X69864171Y-59179619D02*
X70007028Y-59179619D01*
X70007028Y-59179619D02*
X70102266Y-59132000D01*
X70102266Y-59132000D02*
X70149885Y-59084380D01*
X70959409Y-58655809D02*
X70626076Y-58655809D01*
X70626076Y-59179619D02*
X70626076Y-58179619D01*
X70626076Y-58179619D02*
X71102266Y-58179619D01*
X73925133Y-79678419D02*
X73591800Y-79202228D01*
X73353705Y-79678419D02*
X73353705Y-78678419D01*
X73353705Y-78678419D02*
X73734657Y-78678419D01*
X73734657Y-78678419D02*
X73829895Y-78726038D01*
X73829895Y-78726038D02*
X73877514Y-78773657D01*
X73877514Y-78773657D02*
X73925133Y-78868895D01*
X73925133Y-78868895D02*
X73925133Y-79011752D01*
X73925133Y-79011752D02*
X73877514Y-79106990D01*
X73877514Y-79106990D02*
X73829895Y-79154609D01*
X73829895Y-79154609D02*
X73734657Y-79202228D01*
X73734657Y-79202228D02*
X73353705Y-79202228D01*
X74258467Y-78678419D02*
X74877514Y-78678419D01*
X74877514Y-78678419D02*
X74544181Y-79059371D01*
X74544181Y-79059371D02*
X74687038Y-79059371D01*
X74687038Y-79059371D02*
X74782276Y-79106990D01*
X74782276Y-79106990D02*
X74829895Y-79154609D01*
X74829895Y-79154609D02*
X74877514Y-79249847D01*
X74877514Y-79249847D02*
X74877514Y-79487942D01*
X74877514Y-79487942D02*
X74829895Y-79583180D01*
X74829895Y-79583180D02*
X74782276Y-79630800D01*
X74782276Y-79630800D02*
X74687038Y-79678419D01*
X74687038Y-79678419D02*
X74401324Y-79678419D01*
X74401324Y-79678419D02*
X74306086Y-79630800D01*
X74306086Y-79630800D02*
X74258467Y-79583180D01*
X73972752Y-82978419D02*
X73401324Y-82978419D01*
X73687038Y-82978419D02*
X73687038Y-81978419D01*
X73687038Y-81978419D02*
X73591800Y-82121276D01*
X73591800Y-82121276D02*
X73496562Y-82216514D01*
X73496562Y-82216514D02*
X73401324Y-82264133D01*
X74401324Y-82978419D02*
X74401324Y-81978419D01*
X74496562Y-82597466D02*
X74782276Y-82978419D01*
X74782276Y-82311752D02*
X74401324Y-82692704D01*
X73507333Y-97033219D02*
X73031143Y-97033219D01*
X73031143Y-97033219D02*
X73031143Y-96033219D01*
X73745429Y-96033219D02*
X74364476Y-96033219D01*
X74364476Y-96033219D02*
X74031143Y-96414171D01*
X74031143Y-96414171D02*
X74174000Y-96414171D01*
X74174000Y-96414171D02*
X74269238Y-96461790D01*
X74269238Y-96461790D02*
X74316857Y-96509409D01*
X74316857Y-96509409D02*
X74364476Y-96604647D01*
X74364476Y-96604647D02*
X74364476Y-96842742D01*
X74364476Y-96842742D02*
X74316857Y-96937980D01*
X74316857Y-96937980D02*
X74269238Y-96985600D01*
X74269238Y-96985600D02*
X74174000Y-97033219D01*
X74174000Y-97033219D02*
X73888286Y-97033219D01*
X73888286Y-97033219D02*
X73793048Y-96985600D01*
X73793048Y-96985600D02*
X73745429Y-96937980D01*
X72293047Y-94173219D02*
X71721619Y-94173219D01*
X72007333Y-94173219D02*
X72007333Y-93173219D01*
X72007333Y-93173219D02*
X71912095Y-93316076D01*
X71912095Y-93316076D02*
X71816857Y-93411314D01*
X71816857Y-93411314D02*
X71721619Y-93458933D01*
X72912095Y-93173219D02*
X73007333Y-93173219D01*
X73007333Y-93173219D02*
X73102571Y-93220838D01*
X73102571Y-93220838D02*
X73150190Y-93268457D01*
X73150190Y-93268457D02*
X73197809Y-93363695D01*
X73197809Y-93363695D02*
X73245428Y-93554171D01*
X73245428Y-93554171D02*
X73245428Y-93792266D01*
X73245428Y-93792266D02*
X73197809Y-93982742D01*
X73197809Y-93982742D02*
X73150190Y-94077980D01*
X73150190Y-94077980D02*
X73102571Y-94125600D01*
X73102571Y-94125600D02*
X73007333Y-94173219D01*
X73007333Y-94173219D02*
X72912095Y-94173219D01*
X72912095Y-94173219D02*
X72816857Y-94125600D01*
X72816857Y-94125600D02*
X72769238Y-94077980D01*
X72769238Y-94077980D02*
X72721619Y-93982742D01*
X72721619Y-93982742D02*
X72674000Y-93792266D01*
X72674000Y-93792266D02*
X72674000Y-93554171D01*
X72674000Y-93554171D02*
X72721619Y-93363695D01*
X72721619Y-93363695D02*
X72769238Y-93268457D01*
X72769238Y-93268457D02*
X72816857Y-93220838D01*
X72816857Y-93220838D02*
X72912095Y-93173219D01*
X73674000Y-94173219D02*
X73674000Y-93506552D01*
X73674000Y-93601790D02*
X73721619Y-93554171D01*
X73721619Y-93554171D02*
X73816857Y-93506552D01*
X73816857Y-93506552D02*
X73959714Y-93506552D01*
X73959714Y-93506552D02*
X74054952Y-93554171D01*
X74054952Y-93554171D02*
X74102571Y-93649409D01*
X74102571Y-93649409D02*
X74102571Y-94173219D01*
X74102571Y-93649409D02*
X74150190Y-93554171D01*
X74150190Y-93554171D02*
X74245428Y-93506552D01*
X74245428Y-93506552D02*
X74388285Y-93506552D01*
X74388285Y-93506552D02*
X74483524Y-93554171D01*
X74483524Y-93554171D02*
X74531143Y-93649409D01*
X74531143Y-93649409D02*
X74531143Y-94173219D01*
X75007333Y-94173219D02*
X75007333Y-93173219D01*
X75007333Y-93649409D02*
X75578761Y-93649409D01*
X75578761Y-94173219D02*
X75578761Y-93173219D01*
X81886466Y-78997019D02*
X81886466Y-79711304D01*
X81886466Y-79711304D02*
X81838847Y-79854161D01*
X81838847Y-79854161D02*
X81743609Y-79949400D01*
X81743609Y-79949400D02*
X81600752Y-79997019D01*
X81600752Y-79997019D02*
X81505514Y-79997019D01*
X82410276Y-79997019D02*
X82600752Y-79997019D01*
X82600752Y-79997019D02*
X82695990Y-79949400D01*
X82695990Y-79949400D02*
X82743609Y-79901780D01*
X82743609Y-79901780D02*
X82838847Y-79758923D01*
X82838847Y-79758923D02*
X82886466Y-79568447D01*
X82886466Y-79568447D02*
X82886466Y-79187495D01*
X82886466Y-79187495D02*
X82838847Y-79092257D01*
X82838847Y-79092257D02*
X82791228Y-79044638D01*
X82791228Y-79044638D02*
X82695990Y-78997019D01*
X82695990Y-78997019D02*
X82505514Y-78997019D01*
X82505514Y-78997019D02*
X82410276Y-79044638D01*
X82410276Y-79044638D02*
X82362657Y-79092257D01*
X82362657Y-79092257D02*
X82315038Y-79187495D01*
X82315038Y-79187495D02*
X82315038Y-79425590D01*
X82315038Y-79425590D02*
X82362657Y-79520828D01*
X82362657Y-79520828D02*
X82410276Y-79568447D01*
X82410276Y-79568447D02*
X82505514Y-79616066D01*
X82505514Y-79616066D02*
X82695990Y-79616066D01*
X82695990Y-79616066D02*
X82791228Y-79568447D01*
X82791228Y-79568447D02*
X82838847Y-79520828D01*
X82838847Y-79520828D02*
X82886466Y-79425590D01*
X68337133Y-65786380D02*
X68289514Y-65834000D01*
X68289514Y-65834000D02*
X68146657Y-65881619D01*
X68146657Y-65881619D02*
X68051419Y-65881619D01*
X68051419Y-65881619D02*
X67908562Y-65834000D01*
X67908562Y-65834000D02*
X67813324Y-65738761D01*
X67813324Y-65738761D02*
X67765705Y-65643523D01*
X67765705Y-65643523D02*
X67718086Y-65453047D01*
X67718086Y-65453047D02*
X67718086Y-65310190D01*
X67718086Y-65310190D02*
X67765705Y-65119714D01*
X67765705Y-65119714D02*
X67813324Y-65024476D01*
X67813324Y-65024476D02*
X67908562Y-64929238D01*
X67908562Y-64929238D02*
X68051419Y-64881619D01*
X68051419Y-64881619D02*
X68146657Y-64881619D01*
X68146657Y-64881619D02*
X68289514Y-64929238D01*
X68289514Y-64929238D02*
X68337133Y-64976857D01*
X68670467Y-64881619D02*
X69289514Y-64881619D01*
X69289514Y-64881619D02*
X68956181Y-65262571D01*
X68956181Y-65262571D02*
X69099038Y-65262571D01*
X69099038Y-65262571D02*
X69194276Y-65310190D01*
X69194276Y-65310190D02*
X69241895Y-65357809D01*
X69241895Y-65357809D02*
X69289514Y-65453047D01*
X69289514Y-65453047D02*
X69289514Y-65691142D01*
X69289514Y-65691142D02*
X69241895Y-65786380D01*
X69241895Y-65786380D02*
X69194276Y-65834000D01*
X69194276Y-65834000D02*
X69099038Y-65881619D01*
X69099038Y-65881619D02*
X68813324Y-65881619D01*
X68813324Y-65881619D02*
X68718086Y-65834000D01*
X68718086Y-65834000D02*
X68670467Y-65786380D01*
X67432371Y-69241619D02*
X66860943Y-69241619D01*
X67146657Y-69241619D02*
X67146657Y-68241619D01*
X67146657Y-68241619D02*
X67051419Y-68384476D01*
X67051419Y-68384476D02*
X66956181Y-68479714D01*
X66956181Y-68479714D02*
X66860943Y-68527333D01*
X68051419Y-68241619D02*
X68146657Y-68241619D01*
X68146657Y-68241619D02*
X68241895Y-68289238D01*
X68241895Y-68289238D02*
X68289514Y-68336857D01*
X68289514Y-68336857D02*
X68337133Y-68432095D01*
X68337133Y-68432095D02*
X68384752Y-68622571D01*
X68384752Y-68622571D02*
X68384752Y-68860666D01*
X68384752Y-68860666D02*
X68337133Y-69051142D01*
X68337133Y-69051142D02*
X68289514Y-69146380D01*
X68289514Y-69146380D02*
X68241895Y-69194000D01*
X68241895Y-69194000D02*
X68146657Y-69241619D01*
X68146657Y-69241619D02*
X68051419Y-69241619D01*
X68051419Y-69241619D02*
X67956181Y-69194000D01*
X67956181Y-69194000D02*
X67908562Y-69146380D01*
X67908562Y-69146380D02*
X67860943Y-69051142D01*
X67860943Y-69051142D02*
X67813324Y-68860666D01*
X67813324Y-68860666D02*
X67813324Y-68622571D01*
X67813324Y-68622571D02*
X67860943Y-68432095D01*
X67860943Y-68432095D02*
X67908562Y-68336857D01*
X67908562Y-68336857D02*
X67956181Y-68289238D01*
X67956181Y-68289238D02*
X68051419Y-68241619D01*
X69241895Y-68574952D02*
X69241895Y-69241619D01*
X68813324Y-68574952D02*
X68813324Y-69098761D01*
X68813324Y-69098761D02*
X68860943Y-69194000D01*
X68860943Y-69194000D02*
X68956181Y-69241619D01*
X68956181Y-69241619D02*
X69099038Y-69241619D01*
X69099038Y-69241619D02*
X69194276Y-69194000D01*
X69194276Y-69194000D02*
X69241895Y-69146380D01*
X70051419Y-68717809D02*
X69718086Y-68717809D01*
X69718086Y-69241619D02*
X69718086Y-68241619D01*
X69718086Y-68241619D02*
X70194276Y-68241619D01*
X82869833Y-56743980D02*
X82822214Y-56791600D01*
X82822214Y-56791600D02*
X82679357Y-56839219D01*
X82679357Y-56839219D02*
X82584119Y-56839219D01*
X82584119Y-56839219D02*
X82441262Y-56791600D01*
X82441262Y-56791600D02*
X82346024Y-56696361D01*
X82346024Y-56696361D02*
X82298405Y-56601123D01*
X82298405Y-56601123D02*
X82250786Y-56410647D01*
X82250786Y-56410647D02*
X82250786Y-56267790D01*
X82250786Y-56267790D02*
X82298405Y-56077314D01*
X82298405Y-56077314D02*
X82346024Y-55982076D01*
X82346024Y-55982076D02*
X82441262Y-55886838D01*
X82441262Y-55886838D02*
X82584119Y-55839219D01*
X82584119Y-55839219D02*
X82679357Y-55839219D01*
X82679357Y-55839219D02*
X82822214Y-55886838D01*
X82822214Y-55886838D02*
X82869833Y-55934457D01*
X83441262Y-56267790D02*
X83346024Y-56220171D01*
X83346024Y-56220171D02*
X83298405Y-56172552D01*
X83298405Y-56172552D02*
X83250786Y-56077314D01*
X83250786Y-56077314D02*
X83250786Y-56029695D01*
X83250786Y-56029695D02*
X83298405Y-55934457D01*
X83298405Y-55934457D02*
X83346024Y-55886838D01*
X83346024Y-55886838D02*
X83441262Y-55839219D01*
X83441262Y-55839219D02*
X83631738Y-55839219D01*
X83631738Y-55839219D02*
X83726976Y-55886838D01*
X83726976Y-55886838D02*
X83774595Y-55934457D01*
X83774595Y-55934457D02*
X83822214Y-56029695D01*
X83822214Y-56029695D02*
X83822214Y-56077314D01*
X83822214Y-56077314D02*
X83774595Y-56172552D01*
X83774595Y-56172552D02*
X83726976Y-56220171D01*
X83726976Y-56220171D02*
X83631738Y-56267790D01*
X83631738Y-56267790D02*
X83441262Y-56267790D01*
X83441262Y-56267790D02*
X83346024Y-56315409D01*
X83346024Y-56315409D02*
X83298405Y-56363028D01*
X83298405Y-56363028D02*
X83250786Y-56458266D01*
X83250786Y-56458266D02*
X83250786Y-56648742D01*
X83250786Y-56648742D02*
X83298405Y-56743980D01*
X83298405Y-56743980D02*
X83346024Y-56791600D01*
X83346024Y-56791600D02*
X83441262Y-56839219D01*
X83441262Y-56839219D02*
X83631738Y-56839219D01*
X83631738Y-56839219D02*
X83726976Y-56791600D01*
X83726976Y-56791600D02*
X83774595Y-56743980D01*
X83774595Y-56743980D02*
X83822214Y-56648742D01*
X83822214Y-56648742D02*
X83822214Y-56458266D01*
X83822214Y-56458266D02*
X83774595Y-56363028D01*
X83774595Y-56363028D02*
X83726976Y-56315409D01*
X83726976Y-56315409D02*
X83631738Y-56267790D01*
X82441261Y-60199219D02*
X81869833Y-60199219D01*
X82155547Y-60199219D02*
X82155547Y-59199219D01*
X82155547Y-59199219D02*
X82060309Y-59342076D01*
X82060309Y-59342076D02*
X81965071Y-59437314D01*
X81965071Y-59437314D02*
X81869833Y-59484933D01*
X83298404Y-59532552D02*
X83298404Y-60199219D01*
X82869833Y-59532552D02*
X82869833Y-60056361D01*
X82869833Y-60056361D02*
X82917452Y-60151600D01*
X82917452Y-60151600D02*
X83012690Y-60199219D01*
X83012690Y-60199219D02*
X83155547Y-60199219D01*
X83155547Y-60199219D02*
X83250785Y-60151600D01*
X83250785Y-60151600D02*
X83298404Y-60103980D01*
X84107928Y-59675409D02*
X83774595Y-59675409D01*
X83774595Y-60199219D02*
X83774595Y-59199219D01*
X83774595Y-59199219D02*
X84250785Y-59199219D01*
X62942933Y-67791219D02*
X62609600Y-67315028D01*
X62371505Y-67791219D02*
X62371505Y-66791219D01*
X62371505Y-66791219D02*
X62752457Y-66791219D01*
X62752457Y-66791219D02*
X62847695Y-66838838D01*
X62847695Y-66838838D02*
X62895314Y-66886457D01*
X62895314Y-66886457D02*
X62942933Y-66981695D01*
X62942933Y-66981695D02*
X62942933Y-67124552D01*
X62942933Y-67124552D02*
X62895314Y-67219790D01*
X62895314Y-67219790D02*
X62847695Y-67267409D01*
X62847695Y-67267409D02*
X62752457Y-67315028D01*
X62752457Y-67315028D02*
X62371505Y-67315028D01*
X63276267Y-66791219D02*
X63942933Y-66791219D01*
X63942933Y-66791219D02*
X63514362Y-67791219D01*
X62990552Y-71091219D02*
X62419124Y-71091219D01*
X62704838Y-71091219D02*
X62704838Y-70091219D01*
X62704838Y-70091219D02*
X62609600Y-70234076D01*
X62609600Y-70234076D02*
X62514362Y-70329314D01*
X62514362Y-70329314D02*
X62419124Y-70376933D01*
X63419124Y-71091219D02*
X63419124Y-70091219D01*
X63514362Y-70710266D02*
X63800076Y-71091219D01*
X63800076Y-70424552D02*
X63419124Y-70805504D01*
X47214095Y-92525219D02*
X47214095Y-93334742D01*
X47214095Y-93334742D02*
X47261714Y-93429980D01*
X47261714Y-93429980D02*
X47309333Y-93477600D01*
X47309333Y-93477600D02*
X47404571Y-93525219D01*
X47404571Y-93525219D02*
X47595047Y-93525219D01*
X47595047Y-93525219D02*
X47690285Y-93477600D01*
X47690285Y-93477600D02*
X47737904Y-93429980D01*
X47737904Y-93429980D02*
X47785523Y-93334742D01*
X47785523Y-93334742D02*
X47785523Y-92525219D01*
X48690285Y-92858552D02*
X48690285Y-93525219D01*
X48452190Y-92477600D02*
X48214095Y-93191885D01*
X48214095Y-93191885D02*
X48833142Y-93191885D01*
X43523619Y-106825219D02*
X43047429Y-106825219D01*
X43047429Y-106825219D02*
X43047429Y-105825219D01*
X43856953Y-106825219D02*
X43856953Y-105825219D01*
X43856953Y-105825219D02*
X44190286Y-106539504D01*
X44190286Y-106539504D02*
X44523619Y-105825219D01*
X44523619Y-105825219D02*
X44523619Y-106825219D01*
X44952191Y-105920457D02*
X44999810Y-105872838D01*
X44999810Y-105872838D02*
X45095048Y-105825219D01*
X45095048Y-105825219D02*
X45333143Y-105825219D01*
X45333143Y-105825219D02*
X45428381Y-105872838D01*
X45428381Y-105872838D02*
X45476000Y-105920457D01*
X45476000Y-105920457D02*
X45523619Y-106015695D01*
X45523619Y-106015695D02*
X45523619Y-106110933D01*
X45523619Y-106110933D02*
X45476000Y-106253790D01*
X45476000Y-106253790D02*
X44904572Y-106825219D01*
X44904572Y-106825219D02*
X45523619Y-106825219D01*
X46428381Y-105825219D02*
X45952191Y-105825219D01*
X45952191Y-105825219D02*
X45904572Y-106301409D01*
X45904572Y-106301409D02*
X45952191Y-106253790D01*
X45952191Y-106253790D02*
X46047429Y-106206171D01*
X46047429Y-106206171D02*
X46285524Y-106206171D01*
X46285524Y-106206171D02*
X46380762Y-106253790D01*
X46380762Y-106253790D02*
X46428381Y-106301409D01*
X46428381Y-106301409D02*
X46476000Y-106396647D01*
X46476000Y-106396647D02*
X46476000Y-106634742D01*
X46476000Y-106634742D02*
X46428381Y-106729980D01*
X46428381Y-106729980D02*
X46380762Y-106777600D01*
X46380762Y-106777600D02*
X46285524Y-106825219D01*
X46285524Y-106825219D02*
X46047429Y-106825219D01*
X46047429Y-106825219D02*
X45952191Y-106777600D01*
X45952191Y-106777600D02*
X45904572Y-106729980D01*
X46952191Y-106825219D02*
X47142667Y-106825219D01*
X47142667Y-106825219D02*
X47237905Y-106777600D01*
X47237905Y-106777600D02*
X47285524Y-106729980D01*
X47285524Y-106729980D02*
X47380762Y-106587123D01*
X47380762Y-106587123D02*
X47428381Y-106396647D01*
X47428381Y-106396647D02*
X47428381Y-106015695D01*
X47428381Y-106015695D02*
X47380762Y-105920457D01*
X47380762Y-105920457D02*
X47333143Y-105872838D01*
X47333143Y-105872838D02*
X47237905Y-105825219D01*
X47237905Y-105825219D02*
X47047429Y-105825219D01*
X47047429Y-105825219D02*
X46952191Y-105872838D01*
X46952191Y-105872838D02*
X46904572Y-105920457D01*
X46904572Y-105920457D02*
X46856953Y-106015695D01*
X46856953Y-106015695D02*
X46856953Y-106253790D01*
X46856953Y-106253790D02*
X46904572Y-106349028D01*
X46904572Y-106349028D02*
X46952191Y-106396647D01*
X46952191Y-106396647D02*
X47047429Y-106444266D01*
X47047429Y-106444266D02*
X47237905Y-106444266D01*
X47237905Y-106444266D02*
X47333143Y-106396647D01*
X47333143Y-106396647D02*
X47380762Y-106349028D01*
X47380762Y-106349028D02*
X47428381Y-106253790D01*
X48285524Y-105825219D02*
X48095048Y-105825219D01*
X48095048Y-105825219D02*
X47999810Y-105872838D01*
X47999810Y-105872838D02*
X47952191Y-105920457D01*
X47952191Y-105920457D02*
X47856953Y-106063314D01*
X47856953Y-106063314D02*
X47809334Y-106253790D01*
X47809334Y-106253790D02*
X47809334Y-106634742D01*
X47809334Y-106634742D02*
X47856953Y-106729980D01*
X47856953Y-106729980D02*
X47904572Y-106777600D01*
X47904572Y-106777600D02*
X47999810Y-106825219D01*
X47999810Y-106825219D02*
X48190286Y-106825219D01*
X48190286Y-106825219D02*
X48285524Y-106777600D01*
X48285524Y-106777600D02*
X48333143Y-106729980D01*
X48333143Y-106729980D02*
X48380762Y-106634742D01*
X48380762Y-106634742D02*
X48380762Y-106396647D01*
X48380762Y-106396647D02*
X48333143Y-106301409D01*
X48333143Y-106301409D02*
X48285524Y-106253790D01*
X48285524Y-106253790D02*
X48190286Y-106206171D01*
X48190286Y-106206171D02*
X47999810Y-106206171D01*
X47999810Y-106206171D02*
X47904572Y-106253790D01*
X47904572Y-106253790D02*
X47856953Y-106301409D01*
X47856953Y-106301409D02*
X47809334Y-106396647D01*
X48761715Y-106777600D02*
X48904572Y-106825219D01*
X48904572Y-106825219D02*
X49142667Y-106825219D01*
X49142667Y-106825219D02*
X49237905Y-106777600D01*
X49237905Y-106777600D02*
X49285524Y-106729980D01*
X49285524Y-106729980D02*
X49333143Y-106634742D01*
X49333143Y-106634742D02*
X49333143Y-106539504D01*
X49333143Y-106539504D02*
X49285524Y-106444266D01*
X49285524Y-106444266D02*
X49237905Y-106396647D01*
X49237905Y-106396647D02*
X49142667Y-106349028D01*
X49142667Y-106349028D02*
X48952191Y-106301409D01*
X48952191Y-106301409D02*
X48856953Y-106253790D01*
X48856953Y-106253790D02*
X48809334Y-106206171D01*
X48809334Y-106206171D02*
X48761715Y-106110933D01*
X48761715Y-106110933D02*
X48761715Y-106015695D01*
X48761715Y-106015695D02*
X48809334Y-105920457D01*
X48809334Y-105920457D02*
X48856953Y-105872838D01*
X48856953Y-105872838D02*
X48952191Y-105825219D01*
X48952191Y-105825219D02*
X49190286Y-105825219D01*
X49190286Y-105825219D02*
X49333143Y-105872838D01*
X49761715Y-106444266D02*
X50523620Y-106444266D01*
X50904572Y-105825219D02*
X51523619Y-105825219D01*
X51523619Y-105825219D02*
X51190286Y-106206171D01*
X51190286Y-106206171D02*
X51333143Y-106206171D01*
X51333143Y-106206171D02*
X51428381Y-106253790D01*
X51428381Y-106253790D02*
X51476000Y-106301409D01*
X51476000Y-106301409D02*
X51523619Y-106396647D01*
X51523619Y-106396647D02*
X51523619Y-106634742D01*
X51523619Y-106634742D02*
X51476000Y-106729980D01*
X51476000Y-106729980D02*
X51428381Y-106777600D01*
X51428381Y-106777600D02*
X51333143Y-106825219D01*
X51333143Y-106825219D02*
X51047429Y-106825219D01*
X51047429Y-106825219D02*
X50952191Y-106777600D01*
X50952191Y-106777600D02*
X50904572Y-106729980D01*
X51952191Y-106729980D02*
X51999810Y-106777600D01*
X51999810Y-106777600D02*
X51952191Y-106825219D01*
X51952191Y-106825219D02*
X51904572Y-106777600D01*
X51904572Y-106777600D02*
X51952191Y-106729980D01*
X51952191Y-106729980D02*
X51952191Y-106825219D01*
X52333143Y-105825219D02*
X52952190Y-105825219D01*
X52952190Y-105825219D02*
X52618857Y-106206171D01*
X52618857Y-106206171D02*
X52761714Y-106206171D01*
X52761714Y-106206171D02*
X52856952Y-106253790D01*
X52856952Y-106253790D02*
X52904571Y-106301409D01*
X52904571Y-106301409D02*
X52952190Y-106396647D01*
X52952190Y-106396647D02*
X52952190Y-106634742D01*
X52952190Y-106634742D02*
X52904571Y-106729980D01*
X52904571Y-106729980D02*
X52856952Y-106777600D01*
X52856952Y-106777600D02*
X52761714Y-106825219D01*
X52761714Y-106825219D02*
X52476000Y-106825219D01*
X52476000Y-106825219D02*
X52380762Y-106777600D01*
X52380762Y-106777600D02*
X52333143Y-106729980D01*
X63540433Y-90170380D02*
X63492814Y-90218000D01*
X63492814Y-90218000D02*
X63349957Y-90265619D01*
X63349957Y-90265619D02*
X63254719Y-90265619D01*
X63254719Y-90265619D02*
X63111862Y-90218000D01*
X63111862Y-90218000D02*
X63016624Y-90122761D01*
X63016624Y-90122761D02*
X62969005Y-90027523D01*
X62969005Y-90027523D02*
X62921386Y-89837047D01*
X62921386Y-89837047D02*
X62921386Y-89694190D01*
X62921386Y-89694190D02*
X62969005Y-89503714D01*
X62969005Y-89503714D02*
X63016624Y-89408476D01*
X63016624Y-89408476D02*
X63111862Y-89313238D01*
X63111862Y-89313238D02*
X63254719Y-89265619D01*
X63254719Y-89265619D02*
X63349957Y-89265619D01*
X63349957Y-89265619D02*
X63492814Y-89313238D01*
X63492814Y-89313238D02*
X63540433Y-89360857D01*
X64397576Y-89598952D02*
X64397576Y-90265619D01*
X64159481Y-89218000D02*
X63921386Y-89932285D01*
X63921386Y-89932285D02*
X64540433Y-89932285D01*
X62969148Y-92818857D02*
X63016767Y-92771238D01*
X63016767Y-92771238D02*
X63112005Y-92723619D01*
X63112005Y-92723619D02*
X63350100Y-92723619D01*
X63350100Y-92723619D02*
X63445338Y-92771238D01*
X63445338Y-92771238D02*
X63492957Y-92818857D01*
X63492957Y-92818857D02*
X63540576Y-92914095D01*
X63540576Y-92914095D02*
X63540576Y-93009333D01*
X63540576Y-93009333D02*
X63492957Y-93152190D01*
X63492957Y-93152190D02*
X62921529Y-93723619D01*
X62921529Y-93723619D02*
X63540576Y-93723619D01*
X63969148Y-93628380D02*
X64016767Y-93676000D01*
X64016767Y-93676000D02*
X63969148Y-93723619D01*
X63969148Y-93723619D02*
X63921529Y-93676000D01*
X63921529Y-93676000D02*
X63969148Y-93628380D01*
X63969148Y-93628380D02*
X63969148Y-93723619D01*
X64397719Y-92818857D02*
X64445338Y-92771238D01*
X64445338Y-92771238D02*
X64540576Y-92723619D01*
X64540576Y-92723619D02*
X64778671Y-92723619D01*
X64778671Y-92723619D02*
X64873909Y-92771238D01*
X64873909Y-92771238D02*
X64921528Y-92818857D01*
X64921528Y-92818857D02*
X64969147Y-92914095D01*
X64969147Y-92914095D02*
X64969147Y-93009333D01*
X64969147Y-93009333D02*
X64921528Y-93152190D01*
X64921528Y-93152190D02*
X64350100Y-93723619D01*
X64350100Y-93723619D02*
X64969147Y-93723619D01*
X65826290Y-93056952D02*
X65826290Y-93723619D01*
X65397719Y-93056952D02*
X65397719Y-93580761D01*
X65397719Y-93580761D02*
X65445338Y-93676000D01*
X65445338Y-93676000D02*
X65540576Y-93723619D01*
X65540576Y-93723619D02*
X65683433Y-93723619D01*
X65683433Y-93723619D02*
X65778671Y-93676000D01*
X65778671Y-93676000D02*
X65826290Y-93628380D01*
X66635814Y-93199809D02*
X66302481Y-93199809D01*
X66302481Y-93723619D02*
X66302481Y-92723619D01*
X66302481Y-92723619D02*
X66778671Y-92723619D01*
X74729819Y-102593733D02*
X75444104Y-102593733D01*
X75444104Y-102593733D02*
X75586961Y-102641352D01*
X75586961Y-102641352D02*
X75682200Y-102736590D01*
X75682200Y-102736590D02*
X75729819Y-102879447D01*
X75729819Y-102879447D02*
X75729819Y-102974685D01*
X74729819Y-101641352D02*
X74729819Y-102117542D01*
X74729819Y-102117542D02*
X75206009Y-102165161D01*
X75206009Y-102165161D02*
X75158390Y-102117542D01*
X75158390Y-102117542D02*
X75110771Y-102022304D01*
X75110771Y-102022304D02*
X75110771Y-101784209D01*
X75110771Y-101784209D02*
X75158390Y-101688971D01*
X75158390Y-101688971D02*
X75206009Y-101641352D01*
X75206009Y-101641352D02*
X75301247Y-101593733D01*
X75301247Y-101593733D02*
X75539342Y-101593733D01*
X75539342Y-101593733D02*
X75634580Y-101641352D01*
X75634580Y-101641352D02*
X75682200Y-101688971D01*
X75682200Y-101688971D02*
X75729819Y-101784209D01*
X75729819Y-101784209D02*
X75729819Y-102022304D01*
X75729819Y-102022304D02*
X75682200Y-102117542D01*
X75682200Y-102117542D02*
X75634580Y-102165161D01*
X83929819Y-106855639D02*
X83929819Y-107331829D01*
X83929819Y-107331829D02*
X82929819Y-107331829D01*
X83406009Y-106522305D02*
X83406009Y-106188972D01*
X83929819Y-106046115D02*
X83929819Y-106522305D01*
X83929819Y-106522305D02*
X82929819Y-106522305D01*
X82929819Y-106522305D02*
X82929819Y-106046115D01*
X83929819Y-105617543D02*
X82929819Y-105617543D01*
X82929819Y-105617543D02*
X82929819Y-105379448D01*
X82929819Y-105379448D02*
X82977438Y-105236591D01*
X82977438Y-105236591D02*
X83072676Y-105141353D01*
X83072676Y-105141353D02*
X83167914Y-105093734D01*
X83167914Y-105093734D02*
X83358390Y-105046115D01*
X83358390Y-105046115D02*
X83501247Y-105046115D01*
X83501247Y-105046115D02*
X83691723Y-105093734D01*
X83691723Y-105093734D02*
X83786961Y-105141353D01*
X83786961Y-105141353D02*
X83882200Y-105236591D01*
X83882200Y-105236591D02*
X83929819Y-105379448D01*
X83929819Y-105379448D02*
X83929819Y-105617543D01*
X84025057Y-104855639D02*
X84025057Y-104093734D01*
X83406009Y-103522305D02*
X83453628Y-103379448D01*
X83453628Y-103379448D02*
X83501247Y-103331829D01*
X83501247Y-103331829D02*
X83596485Y-103284210D01*
X83596485Y-103284210D02*
X83739342Y-103284210D01*
X83739342Y-103284210D02*
X83834580Y-103331829D01*
X83834580Y-103331829D02*
X83882200Y-103379448D01*
X83882200Y-103379448D02*
X83929819Y-103474686D01*
X83929819Y-103474686D02*
X83929819Y-103855638D01*
X83929819Y-103855638D02*
X82929819Y-103855638D01*
X82929819Y-103855638D02*
X82929819Y-103522305D01*
X82929819Y-103522305D02*
X82977438Y-103427067D01*
X82977438Y-103427067D02*
X83025057Y-103379448D01*
X83025057Y-103379448D02*
X83120295Y-103331829D01*
X83120295Y-103331829D02*
X83215533Y-103331829D01*
X83215533Y-103331829D02*
X83310771Y-103379448D01*
X83310771Y-103379448D02*
X83358390Y-103427067D01*
X83358390Y-103427067D02*
X83406009Y-103522305D01*
X83406009Y-103522305D02*
X83406009Y-103855638D01*
X83929819Y-102712781D02*
X83882200Y-102808019D01*
X83882200Y-102808019D02*
X83786961Y-102855638D01*
X83786961Y-102855638D02*
X82929819Y-102855638D01*
X83263152Y-101903257D02*
X83929819Y-101903257D01*
X83263152Y-102331828D02*
X83786961Y-102331828D01*
X83786961Y-102331828D02*
X83882200Y-102284209D01*
X83882200Y-102284209D02*
X83929819Y-102188971D01*
X83929819Y-102188971D02*
X83929819Y-102046114D01*
X83929819Y-102046114D02*
X83882200Y-101950876D01*
X83882200Y-101950876D02*
X83834580Y-101903257D01*
X83882200Y-101046114D02*
X83929819Y-101141352D01*
X83929819Y-101141352D02*
X83929819Y-101331828D01*
X83929819Y-101331828D02*
X83882200Y-101427066D01*
X83882200Y-101427066D02*
X83786961Y-101474685D01*
X83786961Y-101474685D02*
X83406009Y-101474685D01*
X83406009Y-101474685D02*
X83310771Y-101427066D01*
X83310771Y-101427066D02*
X83263152Y-101331828D01*
X83263152Y-101331828D02*
X83263152Y-101141352D01*
X83263152Y-101141352D02*
X83310771Y-101046114D01*
X83310771Y-101046114D02*
X83406009Y-100998495D01*
X83406009Y-100998495D02*
X83501247Y-100998495D01*
X83501247Y-100998495D02*
X83596485Y-101474685D01*
X83263152Y-100712780D02*
X83263152Y-100331828D01*
X82929819Y-100569923D02*
X83786961Y-100569923D01*
X83786961Y-100569923D02*
X83882200Y-100522304D01*
X83882200Y-100522304D02*
X83929819Y-100427066D01*
X83929819Y-100427066D02*
X83929819Y-100331828D01*
X83929819Y-99855637D02*
X83882200Y-99950875D01*
X83882200Y-99950875D02*
X83834580Y-99998494D01*
X83834580Y-99998494D02*
X83739342Y-100046113D01*
X83739342Y-100046113D02*
X83453628Y-100046113D01*
X83453628Y-100046113D02*
X83358390Y-99998494D01*
X83358390Y-99998494D02*
X83310771Y-99950875D01*
X83310771Y-99950875D02*
X83263152Y-99855637D01*
X83263152Y-99855637D02*
X83263152Y-99712780D01*
X83263152Y-99712780D02*
X83310771Y-99617542D01*
X83310771Y-99617542D02*
X83358390Y-99569923D01*
X83358390Y-99569923D02*
X83453628Y-99522304D01*
X83453628Y-99522304D02*
X83739342Y-99522304D01*
X83739342Y-99522304D02*
X83834580Y-99569923D01*
X83834580Y-99569923D02*
X83882200Y-99617542D01*
X83882200Y-99617542D02*
X83929819Y-99712780D01*
X83929819Y-99712780D02*
X83929819Y-99855637D01*
X83929819Y-98950875D02*
X83882200Y-99046113D01*
X83882200Y-99046113D02*
X83834580Y-99093732D01*
X83834580Y-99093732D02*
X83739342Y-99141351D01*
X83739342Y-99141351D02*
X83453628Y-99141351D01*
X83453628Y-99141351D02*
X83358390Y-99093732D01*
X83358390Y-99093732D02*
X83310771Y-99046113D01*
X83310771Y-99046113D02*
X83263152Y-98950875D01*
X83263152Y-98950875D02*
X83263152Y-98808018D01*
X83263152Y-98808018D02*
X83310771Y-98712780D01*
X83310771Y-98712780D02*
X83358390Y-98665161D01*
X83358390Y-98665161D02*
X83453628Y-98617542D01*
X83453628Y-98617542D02*
X83739342Y-98617542D01*
X83739342Y-98617542D02*
X83834580Y-98665161D01*
X83834580Y-98665161D02*
X83882200Y-98712780D01*
X83882200Y-98712780D02*
X83929819Y-98808018D01*
X83929819Y-98808018D02*
X83929819Y-98950875D01*
X83263152Y-98331827D02*
X83263152Y-97950875D01*
X82929819Y-98188970D02*
X83786961Y-98188970D01*
X83786961Y-98188970D02*
X83882200Y-98141351D01*
X83882200Y-98141351D02*
X83929819Y-98046113D01*
X83929819Y-98046113D02*
X83929819Y-97950875D01*
X83929819Y-97617541D02*
X82929819Y-97617541D01*
X83929819Y-97188970D02*
X83406009Y-97188970D01*
X83406009Y-97188970D02*
X83310771Y-97236589D01*
X83310771Y-97236589D02*
X83263152Y-97331827D01*
X83263152Y-97331827D02*
X83263152Y-97474684D01*
X83263152Y-97474684D02*
X83310771Y-97569922D01*
X83310771Y-97569922D02*
X83358390Y-97617541D01*
X75478433Y-64922780D02*
X75430814Y-64970400D01*
X75430814Y-64970400D02*
X75287957Y-65018019D01*
X75287957Y-65018019D02*
X75192719Y-65018019D01*
X75192719Y-65018019D02*
X75049862Y-64970400D01*
X75049862Y-64970400D02*
X74954624Y-64875161D01*
X74954624Y-64875161D02*
X74907005Y-64779923D01*
X74907005Y-64779923D02*
X74859386Y-64589447D01*
X74859386Y-64589447D02*
X74859386Y-64446590D01*
X74859386Y-64446590D02*
X74907005Y-64256114D01*
X74907005Y-64256114D02*
X74954624Y-64160876D01*
X74954624Y-64160876D02*
X75049862Y-64065638D01*
X75049862Y-64065638D02*
X75192719Y-64018019D01*
X75192719Y-64018019D02*
X75287957Y-64018019D01*
X75287957Y-64018019D02*
X75430814Y-64065638D01*
X75430814Y-64065638D02*
X75478433Y-64113257D01*
X76335576Y-64018019D02*
X76145100Y-64018019D01*
X76145100Y-64018019D02*
X76049862Y-64065638D01*
X76049862Y-64065638D02*
X76002243Y-64113257D01*
X76002243Y-64113257D02*
X75907005Y-64256114D01*
X75907005Y-64256114D02*
X75859386Y-64446590D01*
X75859386Y-64446590D02*
X75859386Y-64827542D01*
X75859386Y-64827542D02*
X75907005Y-64922780D01*
X75907005Y-64922780D02*
X75954624Y-64970400D01*
X75954624Y-64970400D02*
X76049862Y-65018019D01*
X76049862Y-65018019D02*
X76240338Y-65018019D01*
X76240338Y-65018019D02*
X76335576Y-64970400D01*
X76335576Y-64970400D02*
X76383195Y-64922780D01*
X76383195Y-64922780D02*
X76430814Y-64827542D01*
X76430814Y-64827542D02*
X76430814Y-64589447D01*
X76430814Y-64589447D02*
X76383195Y-64494209D01*
X76383195Y-64494209D02*
X76335576Y-64446590D01*
X76335576Y-64446590D02*
X76240338Y-64398971D01*
X76240338Y-64398971D02*
X76049862Y-64398971D01*
X76049862Y-64398971D02*
X75954624Y-64446590D01*
X75954624Y-64446590D02*
X75907005Y-64494209D01*
X75907005Y-64494209D02*
X75859386Y-64589447D01*
X74097480Y-68378019D02*
X73526052Y-68378019D01*
X73811766Y-68378019D02*
X73811766Y-67378019D01*
X73811766Y-67378019D02*
X73716528Y-67520876D01*
X73716528Y-67520876D02*
X73621290Y-67616114D01*
X73621290Y-67616114D02*
X73526052Y-67663733D01*
X74716528Y-67378019D02*
X74811766Y-67378019D01*
X74811766Y-67378019D02*
X74907004Y-67425638D01*
X74907004Y-67425638D02*
X74954623Y-67473257D01*
X74954623Y-67473257D02*
X75002242Y-67568495D01*
X75002242Y-67568495D02*
X75049861Y-67758971D01*
X75049861Y-67758971D02*
X75049861Y-67997066D01*
X75049861Y-67997066D02*
X75002242Y-68187542D01*
X75002242Y-68187542D02*
X74954623Y-68282780D01*
X74954623Y-68282780D02*
X74907004Y-68330400D01*
X74907004Y-68330400D02*
X74811766Y-68378019D01*
X74811766Y-68378019D02*
X74716528Y-68378019D01*
X74716528Y-68378019D02*
X74621290Y-68330400D01*
X74621290Y-68330400D02*
X74573671Y-68282780D01*
X74573671Y-68282780D02*
X74526052Y-68187542D01*
X74526052Y-68187542D02*
X74478433Y-67997066D01*
X74478433Y-67997066D02*
X74478433Y-67758971D01*
X74478433Y-67758971D02*
X74526052Y-67568495D01*
X74526052Y-67568495D02*
X74573671Y-67473257D01*
X74573671Y-67473257D02*
X74621290Y-67425638D01*
X74621290Y-67425638D02*
X74716528Y-67378019D01*
X75668909Y-67378019D02*
X75764147Y-67378019D01*
X75764147Y-67378019D02*
X75859385Y-67425638D01*
X75859385Y-67425638D02*
X75907004Y-67473257D01*
X75907004Y-67473257D02*
X75954623Y-67568495D01*
X75954623Y-67568495D02*
X76002242Y-67758971D01*
X76002242Y-67758971D02*
X76002242Y-67997066D01*
X76002242Y-67997066D02*
X75954623Y-68187542D01*
X75954623Y-68187542D02*
X75907004Y-68282780D01*
X75907004Y-68282780D02*
X75859385Y-68330400D01*
X75859385Y-68330400D02*
X75764147Y-68378019D01*
X75764147Y-68378019D02*
X75668909Y-68378019D01*
X75668909Y-68378019D02*
X75573671Y-68330400D01*
X75573671Y-68330400D02*
X75526052Y-68282780D01*
X75526052Y-68282780D02*
X75478433Y-68187542D01*
X75478433Y-68187542D02*
X75430814Y-67997066D01*
X75430814Y-67997066D02*
X75430814Y-67758971D01*
X75430814Y-67758971D02*
X75478433Y-67568495D01*
X75478433Y-67568495D02*
X75526052Y-67473257D01*
X75526052Y-67473257D02*
X75573671Y-67425638D01*
X75573671Y-67425638D02*
X75668909Y-67378019D01*
X76430814Y-67711352D02*
X76430814Y-68378019D01*
X76430814Y-67806590D02*
X76478433Y-67758971D01*
X76478433Y-67758971D02*
X76573671Y-67711352D01*
X76573671Y-67711352D02*
X76716528Y-67711352D01*
X76716528Y-67711352D02*
X76811766Y-67758971D01*
X76811766Y-67758971D02*
X76859385Y-67854209D01*
X76859385Y-67854209D02*
X76859385Y-68378019D01*
X77668909Y-67854209D02*
X77335576Y-67854209D01*
X77335576Y-68378019D02*
X77335576Y-67378019D01*
X77335576Y-67378019D02*
X77811766Y-67378019D01*
X82680276Y-88552819D02*
X82680276Y-89267104D01*
X82680276Y-89267104D02*
X82632657Y-89409961D01*
X82632657Y-89409961D02*
X82537419Y-89505200D01*
X82537419Y-89505200D02*
X82394562Y-89552819D01*
X82394562Y-89552819D02*
X82299324Y-89552819D01*
X83680276Y-89552819D02*
X83108848Y-89552819D01*
X83394562Y-89552819D02*
X83394562Y-88552819D01*
X83394562Y-88552819D02*
X83299324Y-88695676D01*
X83299324Y-88695676D02*
X83204086Y-88790914D01*
X83204086Y-88790914D02*
X83108848Y-88838533D01*
X84299324Y-88552819D02*
X84394562Y-88552819D01*
X84394562Y-88552819D02*
X84489800Y-88600438D01*
X84489800Y-88600438D02*
X84537419Y-88648057D01*
X84537419Y-88648057D02*
X84585038Y-88743295D01*
X84585038Y-88743295D02*
X84632657Y-88933771D01*
X84632657Y-88933771D02*
X84632657Y-89171866D01*
X84632657Y-89171866D02*
X84585038Y-89362342D01*
X84585038Y-89362342D02*
X84537419Y-89457580D01*
X84537419Y-89457580D02*
X84489800Y-89505200D01*
X84489800Y-89505200D02*
X84394562Y-89552819D01*
X84394562Y-89552819D02*
X84299324Y-89552819D01*
X84299324Y-89552819D02*
X84204086Y-89505200D01*
X84204086Y-89505200D02*
X84156467Y-89457580D01*
X84156467Y-89457580D02*
X84108848Y-89362342D01*
X84108848Y-89362342D02*
X84061229Y-89171866D01*
X84061229Y-89171866D02*
X84061229Y-88933771D01*
X84061229Y-88933771D02*
X84108848Y-88743295D01*
X84108848Y-88743295D02*
X84156467Y-88648057D01*
X84156467Y-88648057D02*
X84204086Y-88600438D01*
X84204086Y-88600438D02*
X84299324Y-88552819D01*
X112595066Y-45525219D02*
X112595066Y-46239504D01*
X112595066Y-46239504D02*
X112547447Y-46382361D01*
X112547447Y-46382361D02*
X112452209Y-46477600D01*
X112452209Y-46477600D02*
X112309352Y-46525219D01*
X112309352Y-46525219D02*
X112214114Y-46525219D01*
X113214114Y-45953790D02*
X113118876Y-45906171D01*
X113118876Y-45906171D02*
X113071257Y-45858552D01*
X113071257Y-45858552D02*
X113023638Y-45763314D01*
X113023638Y-45763314D02*
X113023638Y-45715695D01*
X113023638Y-45715695D02*
X113071257Y-45620457D01*
X113071257Y-45620457D02*
X113118876Y-45572838D01*
X113118876Y-45572838D02*
X113214114Y-45525219D01*
X113214114Y-45525219D02*
X113404590Y-45525219D01*
X113404590Y-45525219D02*
X113499828Y-45572838D01*
X113499828Y-45572838D02*
X113547447Y-45620457D01*
X113547447Y-45620457D02*
X113595066Y-45715695D01*
X113595066Y-45715695D02*
X113595066Y-45763314D01*
X113595066Y-45763314D02*
X113547447Y-45858552D01*
X113547447Y-45858552D02*
X113499828Y-45906171D01*
X113499828Y-45906171D02*
X113404590Y-45953790D01*
X113404590Y-45953790D02*
X113214114Y-45953790D01*
X113214114Y-45953790D02*
X113118876Y-46001409D01*
X113118876Y-46001409D02*
X113071257Y-46049028D01*
X113071257Y-46049028D02*
X113023638Y-46144266D01*
X113023638Y-46144266D02*
X113023638Y-46334742D01*
X113023638Y-46334742D02*
X113071257Y-46429980D01*
X113071257Y-46429980D02*
X113118876Y-46477600D01*
X113118876Y-46477600D02*
X113214114Y-46525219D01*
X113214114Y-46525219D02*
X113404590Y-46525219D01*
X113404590Y-46525219D02*
X113499828Y-46477600D01*
X113499828Y-46477600D02*
X113547447Y-46429980D01*
X113547447Y-46429980D02*
X113595066Y-46334742D01*
X113595066Y-46334742D02*
X113595066Y-46144266D01*
X113595066Y-46144266D02*
X113547447Y-46049028D01*
X113547447Y-46049028D02*
X113499828Y-46001409D01*
X113499828Y-46001409D02*
X113404590Y-45953790D01*
X109261733Y-54725219D02*
X109261733Y-53725219D01*
X109261733Y-53725219D02*
X109642685Y-53725219D01*
X109642685Y-53725219D02*
X109737923Y-53772838D01*
X109737923Y-53772838D02*
X109785542Y-53820457D01*
X109785542Y-53820457D02*
X109833161Y-53915695D01*
X109833161Y-53915695D02*
X109833161Y-54058552D01*
X109833161Y-54058552D02*
X109785542Y-54153790D01*
X109785542Y-54153790D02*
X109737923Y-54201409D01*
X109737923Y-54201409D02*
X109642685Y-54249028D01*
X109642685Y-54249028D02*
X109261733Y-54249028D01*
X110261733Y-54058552D02*
X110261733Y-54725219D01*
X110261733Y-54153790D02*
X110309352Y-54106171D01*
X110309352Y-54106171D02*
X110404590Y-54058552D01*
X110404590Y-54058552D02*
X110547447Y-54058552D01*
X110547447Y-54058552D02*
X110642685Y-54106171D01*
X110642685Y-54106171D02*
X110690304Y-54201409D01*
X110690304Y-54201409D02*
X110690304Y-54725219D01*
X111547447Y-54677600D02*
X111452209Y-54725219D01*
X111452209Y-54725219D02*
X111261733Y-54725219D01*
X111261733Y-54725219D02*
X111166495Y-54677600D01*
X111166495Y-54677600D02*
X111118876Y-54582361D01*
X111118876Y-54582361D02*
X111118876Y-54201409D01*
X111118876Y-54201409D02*
X111166495Y-54106171D01*
X111166495Y-54106171D02*
X111261733Y-54058552D01*
X111261733Y-54058552D02*
X111452209Y-54058552D01*
X111452209Y-54058552D02*
X111547447Y-54106171D01*
X111547447Y-54106171D02*
X111595066Y-54201409D01*
X111595066Y-54201409D02*
X111595066Y-54296647D01*
X111595066Y-54296647D02*
X111118876Y-54391885D01*
X112452209Y-54058552D02*
X112452209Y-54725219D01*
X112023638Y-54058552D02*
X112023638Y-54582361D01*
X112023638Y-54582361D02*
X112071257Y-54677600D01*
X112071257Y-54677600D02*
X112166495Y-54725219D01*
X112166495Y-54725219D02*
X112309352Y-54725219D01*
X112309352Y-54725219D02*
X112404590Y-54677600D01*
X112404590Y-54677600D02*
X112452209Y-54629980D01*
X112928400Y-54725219D02*
X112928400Y-54058552D01*
X112928400Y-54153790D02*
X112976019Y-54106171D01*
X112976019Y-54106171D02*
X113071257Y-54058552D01*
X113071257Y-54058552D02*
X113214114Y-54058552D01*
X113214114Y-54058552D02*
X113309352Y-54106171D01*
X113309352Y-54106171D02*
X113356971Y-54201409D01*
X113356971Y-54201409D02*
X113356971Y-54725219D01*
X113356971Y-54201409D02*
X113404590Y-54106171D01*
X113404590Y-54106171D02*
X113499828Y-54058552D01*
X113499828Y-54058552D02*
X113642685Y-54058552D01*
X113642685Y-54058552D02*
X113737924Y-54106171D01*
X113737924Y-54106171D02*
X113785543Y-54201409D01*
X113785543Y-54201409D02*
X113785543Y-54725219D01*
X114690304Y-54725219D02*
X114690304Y-54201409D01*
X114690304Y-54201409D02*
X114642685Y-54106171D01*
X114642685Y-54106171D02*
X114547447Y-54058552D01*
X114547447Y-54058552D02*
X114356971Y-54058552D01*
X114356971Y-54058552D02*
X114261733Y-54106171D01*
X114690304Y-54677600D02*
X114595066Y-54725219D01*
X114595066Y-54725219D02*
X114356971Y-54725219D01*
X114356971Y-54725219D02*
X114261733Y-54677600D01*
X114261733Y-54677600D02*
X114214114Y-54582361D01*
X114214114Y-54582361D02*
X114214114Y-54487123D01*
X114214114Y-54487123D02*
X114261733Y-54391885D01*
X114261733Y-54391885D02*
X114356971Y-54344266D01*
X114356971Y-54344266D02*
X114595066Y-54344266D01*
X114595066Y-54344266D02*
X114690304Y-54296647D01*
X115023638Y-54058552D02*
X115404590Y-54058552D01*
X115166495Y-53725219D02*
X115166495Y-54582361D01*
X115166495Y-54582361D02*
X115214114Y-54677600D01*
X115214114Y-54677600D02*
X115309352Y-54725219D01*
X115309352Y-54725219D02*
X115404590Y-54725219D01*
X115737924Y-54725219D02*
X115737924Y-54058552D01*
X115737924Y-53725219D02*
X115690305Y-53772838D01*
X115690305Y-53772838D02*
X115737924Y-53820457D01*
X115737924Y-53820457D02*
X115785543Y-53772838D01*
X115785543Y-53772838D02*
X115737924Y-53725219D01*
X115737924Y-53725219D02*
X115737924Y-53820457D01*
X116642685Y-54677600D02*
X116547447Y-54725219D01*
X116547447Y-54725219D02*
X116356971Y-54725219D01*
X116356971Y-54725219D02*
X116261733Y-54677600D01*
X116261733Y-54677600D02*
X116214114Y-54629980D01*
X116214114Y-54629980D02*
X116166495Y-54534742D01*
X116166495Y-54534742D02*
X116166495Y-54249028D01*
X116166495Y-54249028D02*
X116214114Y-54153790D01*
X116214114Y-54153790D02*
X116261733Y-54106171D01*
X116261733Y-54106171D02*
X116356971Y-54058552D01*
X116356971Y-54058552D02*
X116547447Y-54058552D01*
X116547447Y-54058552D02*
X116642685Y-54106171D01*
X46418667Y-66330600D02*
X46561524Y-66378219D01*
X46561524Y-66378219D02*
X46799619Y-66378219D01*
X46799619Y-66378219D02*
X46894857Y-66330600D01*
X46894857Y-66330600D02*
X46942476Y-66282980D01*
X46942476Y-66282980D02*
X46990095Y-66187742D01*
X46990095Y-66187742D02*
X46990095Y-66092504D01*
X46990095Y-66092504D02*
X46942476Y-65997266D01*
X46942476Y-65997266D02*
X46894857Y-65949647D01*
X46894857Y-65949647D02*
X46799619Y-65902028D01*
X46799619Y-65902028D02*
X46609143Y-65854409D01*
X46609143Y-65854409D02*
X46513905Y-65806790D01*
X46513905Y-65806790D02*
X46466286Y-65759171D01*
X46466286Y-65759171D02*
X46418667Y-65663933D01*
X46418667Y-65663933D02*
X46418667Y-65568695D01*
X46418667Y-65568695D02*
X46466286Y-65473457D01*
X46466286Y-65473457D02*
X46513905Y-65425838D01*
X46513905Y-65425838D02*
X46609143Y-65378219D01*
X46609143Y-65378219D02*
X46847238Y-65378219D01*
X46847238Y-65378219D02*
X46990095Y-65425838D01*
X47323429Y-65378219D02*
X47561524Y-66378219D01*
X47561524Y-66378219D02*
X47752000Y-65663933D01*
X47752000Y-65663933D02*
X47942476Y-66378219D01*
X47942476Y-66378219D02*
X48180572Y-65378219D01*
X49085333Y-66378219D02*
X48513905Y-66378219D01*
X48799619Y-66378219D02*
X48799619Y-65378219D01*
X48799619Y-65378219D02*
X48704381Y-65521076D01*
X48704381Y-65521076D02*
X48609143Y-65616314D01*
X48609143Y-65616314D02*
X48513905Y-65663933D01*
X44656762Y-76010600D02*
X44799619Y-76058219D01*
X44799619Y-76058219D02*
X45037714Y-76058219D01*
X45037714Y-76058219D02*
X45132952Y-76010600D01*
X45132952Y-76010600D02*
X45180571Y-75962980D01*
X45180571Y-75962980D02*
X45228190Y-75867742D01*
X45228190Y-75867742D02*
X45228190Y-75772504D01*
X45228190Y-75772504D02*
X45180571Y-75677266D01*
X45180571Y-75677266D02*
X45132952Y-75629647D01*
X45132952Y-75629647D02*
X45037714Y-75582028D01*
X45037714Y-75582028D02*
X44847238Y-75534409D01*
X44847238Y-75534409D02*
X44752000Y-75486790D01*
X44752000Y-75486790D02*
X44704381Y-75439171D01*
X44704381Y-75439171D02*
X44656762Y-75343933D01*
X44656762Y-75343933D02*
X44656762Y-75248695D01*
X44656762Y-75248695D02*
X44704381Y-75153457D01*
X44704381Y-75153457D02*
X44752000Y-75105838D01*
X44752000Y-75105838D02*
X44847238Y-75058219D01*
X44847238Y-75058219D02*
X45085333Y-75058219D01*
X45085333Y-75058219D02*
X45228190Y-75105838D01*
X45561524Y-75058219D02*
X45799619Y-76058219D01*
X45799619Y-76058219D02*
X45990095Y-75343933D01*
X45990095Y-75343933D02*
X46180571Y-76058219D01*
X46180571Y-76058219D02*
X46418667Y-75058219D01*
X46561524Y-76153457D02*
X47323428Y-76153457D01*
X47513905Y-76010600D02*
X47656762Y-76058219D01*
X47656762Y-76058219D02*
X47894857Y-76058219D01*
X47894857Y-76058219D02*
X47990095Y-76010600D01*
X47990095Y-76010600D02*
X48037714Y-75962980D01*
X48037714Y-75962980D02*
X48085333Y-75867742D01*
X48085333Y-75867742D02*
X48085333Y-75772504D01*
X48085333Y-75772504D02*
X48037714Y-75677266D01*
X48037714Y-75677266D02*
X47990095Y-75629647D01*
X47990095Y-75629647D02*
X47894857Y-75582028D01*
X47894857Y-75582028D02*
X47704381Y-75534409D01*
X47704381Y-75534409D02*
X47609143Y-75486790D01*
X47609143Y-75486790D02*
X47561524Y-75439171D01*
X47561524Y-75439171D02*
X47513905Y-75343933D01*
X47513905Y-75343933D02*
X47513905Y-75248695D01*
X47513905Y-75248695D02*
X47561524Y-75153457D01*
X47561524Y-75153457D02*
X47609143Y-75105838D01*
X47609143Y-75105838D02*
X47704381Y-75058219D01*
X47704381Y-75058219D02*
X47942476Y-75058219D01*
X47942476Y-75058219D02*
X48085333Y-75105838D01*
X48513905Y-76058219D02*
X48513905Y-75058219D01*
X48513905Y-75058219D02*
X48894857Y-75058219D01*
X48894857Y-75058219D02*
X48990095Y-75105838D01*
X48990095Y-75105838D02*
X49037714Y-75153457D01*
X49037714Y-75153457D02*
X49085333Y-75248695D01*
X49085333Y-75248695D02*
X49085333Y-75391552D01*
X49085333Y-75391552D02*
X49037714Y-75486790D01*
X49037714Y-75486790D02*
X48990095Y-75534409D01*
X48990095Y-75534409D02*
X48894857Y-75582028D01*
X48894857Y-75582028D02*
X48513905Y-75582028D01*
X49513905Y-76058219D02*
X49513905Y-75058219D01*
X49513905Y-75058219D02*
X49752000Y-75058219D01*
X49752000Y-75058219D02*
X49894857Y-75105838D01*
X49894857Y-75105838D02*
X49990095Y-75201076D01*
X49990095Y-75201076D02*
X50037714Y-75296314D01*
X50037714Y-75296314D02*
X50085333Y-75486790D01*
X50085333Y-75486790D02*
X50085333Y-75629647D01*
X50085333Y-75629647D02*
X50037714Y-75820123D01*
X50037714Y-75820123D02*
X49990095Y-75915361D01*
X49990095Y-75915361D02*
X49894857Y-76010600D01*
X49894857Y-76010600D02*
X49752000Y-76058219D01*
X49752000Y-76058219D02*
X49513905Y-76058219D01*
X50371048Y-75058219D02*
X50942476Y-75058219D01*
X50656762Y-76058219D02*
X50656762Y-75058219D01*
X53141523Y-71682980D02*
X53093904Y-71730600D01*
X53093904Y-71730600D02*
X52951047Y-71778219D01*
X52951047Y-71778219D02*
X52855809Y-71778219D01*
X52855809Y-71778219D02*
X52712952Y-71730600D01*
X52712952Y-71730600D02*
X52617714Y-71635361D01*
X52617714Y-71635361D02*
X52570095Y-71540123D01*
X52570095Y-71540123D02*
X52522476Y-71349647D01*
X52522476Y-71349647D02*
X52522476Y-71206790D01*
X52522476Y-71206790D02*
X52570095Y-71016314D01*
X52570095Y-71016314D02*
X52617714Y-70921076D01*
X52617714Y-70921076D02*
X52712952Y-70825838D01*
X52712952Y-70825838D02*
X52855809Y-70778219D01*
X52855809Y-70778219D02*
X52951047Y-70778219D01*
X52951047Y-70778219D02*
X53093904Y-70825838D01*
X53093904Y-70825838D02*
X53141523Y-70873457D01*
X41886286Y-71778219D02*
X41886286Y-70778219D01*
X41886286Y-70778219D02*
X42457714Y-71778219D01*
X42457714Y-71778219D02*
X42457714Y-70778219D01*
X43505333Y-71682980D02*
X43457714Y-71730600D01*
X43457714Y-71730600D02*
X43314857Y-71778219D01*
X43314857Y-71778219D02*
X43219619Y-71778219D01*
X43219619Y-71778219D02*
X43076762Y-71730600D01*
X43076762Y-71730600D02*
X42981524Y-71635361D01*
X42981524Y-71635361D02*
X42933905Y-71540123D01*
X42933905Y-71540123D02*
X42886286Y-71349647D01*
X42886286Y-71349647D02*
X42886286Y-71206790D01*
X42886286Y-71206790D02*
X42933905Y-71016314D01*
X42933905Y-71016314D02*
X42981524Y-70921076D01*
X42981524Y-70921076D02*
X43076762Y-70825838D01*
X43076762Y-70825838D02*
X43219619Y-70778219D01*
X43219619Y-70778219D02*
X43314857Y-70778219D01*
X43314857Y-70778219D02*
X43457714Y-70825838D01*
X43457714Y-70825838D02*
X43505333Y-70873457D01*
X46942476Y-71778219D02*
X46942476Y-70778219D01*
X46942476Y-70778219D02*
X47513904Y-71778219D01*
X47513904Y-71778219D02*
X47513904Y-70778219D01*
X48180571Y-70778219D02*
X48371047Y-70778219D01*
X48371047Y-70778219D02*
X48466285Y-70825838D01*
X48466285Y-70825838D02*
X48561523Y-70921076D01*
X48561523Y-70921076D02*
X48609142Y-71111552D01*
X48609142Y-71111552D02*
X48609142Y-71444885D01*
X48609142Y-71444885D02*
X48561523Y-71635361D01*
X48561523Y-71635361D02*
X48466285Y-71730600D01*
X48466285Y-71730600D02*
X48371047Y-71778219D01*
X48371047Y-71778219D02*
X48180571Y-71778219D01*
X48180571Y-71778219D02*
X48085333Y-71730600D01*
X48085333Y-71730600D02*
X47990095Y-71635361D01*
X47990095Y-71635361D02*
X47942476Y-71444885D01*
X47942476Y-71444885D02*
X47942476Y-71111552D01*
X47942476Y-71111552D02*
X47990095Y-70921076D01*
X47990095Y-70921076D02*
X48085333Y-70825838D01*
X48085333Y-70825838D02*
X48180571Y-70778219D01*
X51330266Y-48217619D02*
X51330266Y-48931904D01*
X51330266Y-48931904D02*
X51282647Y-49074761D01*
X51282647Y-49074761D02*
X51187409Y-49170000D01*
X51187409Y-49170000D02*
X51044552Y-49217619D01*
X51044552Y-49217619D02*
X50949314Y-49217619D01*
X52330266Y-49217619D02*
X51758838Y-49217619D01*
X52044552Y-49217619D02*
X52044552Y-48217619D01*
X52044552Y-48217619D02*
X51949314Y-48360476D01*
X51949314Y-48360476D02*
X51854076Y-48455714D01*
X51854076Y-48455714D02*
X51758838Y-48503333D01*
X50639791Y-56417619D02*
X50973124Y-57417619D01*
X50973124Y-57417619D02*
X51306457Y-56417619D01*
X51639791Y-57417619D02*
X51639791Y-56750952D01*
X51639791Y-56417619D02*
X51592172Y-56465238D01*
X51592172Y-56465238D02*
X51639791Y-56512857D01*
X51639791Y-56512857D02*
X51687410Y-56465238D01*
X51687410Y-56465238D02*
X51639791Y-56417619D01*
X51639791Y-56417619D02*
X51639791Y-56512857D01*
X52115981Y-56750952D02*
X52115981Y-57417619D01*
X52115981Y-56846190D02*
X52163600Y-56798571D01*
X52163600Y-56798571D02*
X52258838Y-56750952D01*
X52258838Y-56750952D02*
X52401695Y-56750952D01*
X52401695Y-56750952D02*
X52496933Y-56798571D01*
X52496933Y-56798571D02*
X52544552Y-56893809D01*
X52544552Y-56893809D02*
X52544552Y-57417619D01*
X96743295Y-82873419D02*
X96743295Y-83682942D01*
X96743295Y-83682942D02*
X96790914Y-83778180D01*
X96790914Y-83778180D02*
X96838533Y-83825800D01*
X96838533Y-83825800D02*
X96933771Y-83873419D01*
X96933771Y-83873419D02*
X97124247Y-83873419D01*
X97124247Y-83873419D02*
X97219485Y-83825800D01*
X97219485Y-83825800D02*
X97267104Y-83778180D01*
X97267104Y-83778180D02*
X97314723Y-83682942D01*
X97314723Y-83682942D02*
X97314723Y-82873419D01*
X98219485Y-82873419D02*
X98029009Y-82873419D01*
X98029009Y-82873419D02*
X97933771Y-82921038D01*
X97933771Y-82921038D02*
X97886152Y-82968657D01*
X97886152Y-82968657D02*
X97790914Y-83111514D01*
X97790914Y-83111514D02*
X97743295Y-83301990D01*
X97743295Y-83301990D02*
X97743295Y-83682942D01*
X97743295Y-83682942D02*
X97790914Y-83778180D01*
X97790914Y-83778180D02*
X97838533Y-83825800D01*
X97838533Y-83825800D02*
X97933771Y-83873419D01*
X97933771Y-83873419D02*
X98124247Y-83873419D01*
X98124247Y-83873419D02*
X98219485Y-83825800D01*
X98219485Y-83825800D02*
X98267104Y-83778180D01*
X98267104Y-83778180D02*
X98314723Y-83682942D01*
X98314723Y-83682942D02*
X98314723Y-83444847D01*
X98314723Y-83444847D02*
X98267104Y-83349609D01*
X98267104Y-83349609D02*
X98219485Y-83301990D01*
X98219485Y-83301990D02*
X98124247Y-83254371D01*
X98124247Y-83254371D02*
X97933771Y-83254371D01*
X97933771Y-83254371D02*
X97838533Y-83301990D01*
X97838533Y-83301990D02*
X97790914Y-83349609D01*
X97790914Y-83349609D02*
X97743295Y-83444847D01*
X85337009Y-86749589D02*
X85337009Y-86416256D01*
X85860819Y-86273399D02*
X85860819Y-86749589D01*
X85860819Y-86749589D02*
X84860819Y-86749589D01*
X84860819Y-86749589D02*
X84860819Y-86273399D01*
X85813200Y-85892446D02*
X85860819Y-85749589D01*
X85860819Y-85749589D02*
X85860819Y-85511494D01*
X85860819Y-85511494D02*
X85813200Y-85416256D01*
X85813200Y-85416256D02*
X85765580Y-85368637D01*
X85765580Y-85368637D02*
X85670342Y-85321018D01*
X85670342Y-85321018D02*
X85575104Y-85321018D01*
X85575104Y-85321018D02*
X85479866Y-85368637D01*
X85479866Y-85368637D02*
X85432247Y-85416256D01*
X85432247Y-85416256D02*
X85384628Y-85511494D01*
X85384628Y-85511494D02*
X85337009Y-85701970D01*
X85337009Y-85701970D02*
X85289390Y-85797208D01*
X85289390Y-85797208D02*
X85241771Y-85844827D01*
X85241771Y-85844827D02*
X85146533Y-85892446D01*
X85146533Y-85892446D02*
X85051295Y-85892446D01*
X85051295Y-85892446D02*
X84956057Y-85844827D01*
X84956057Y-85844827D02*
X84908438Y-85797208D01*
X84908438Y-85797208D02*
X84860819Y-85701970D01*
X84860819Y-85701970D02*
X84860819Y-85463875D01*
X84860819Y-85463875D02*
X84908438Y-85321018D01*
X85860819Y-84892446D02*
X84860819Y-84892446D01*
X84860819Y-84892446D02*
X84860819Y-84511494D01*
X84860819Y-84511494D02*
X84908438Y-84416256D01*
X84908438Y-84416256D02*
X84956057Y-84368637D01*
X84956057Y-84368637D02*
X85051295Y-84321018D01*
X85051295Y-84321018D02*
X85194152Y-84321018D01*
X85194152Y-84321018D02*
X85289390Y-84368637D01*
X85289390Y-84368637D02*
X85337009Y-84416256D01*
X85337009Y-84416256D02*
X85384628Y-84511494D01*
X85384628Y-84511494D02*
X85384628Y-84892446D01*
X84860819Y-83987684D02*
X84860819Y-83368637D01*
X84860819Y-83368637D02*
X85241771Y-83701970D01*
X85241771Y-83701970D02*
X85241771Y-83559113D01*
X85241771Y-83559113D02*
X85289390Y-83463875D01*
X85289390Y-83463875D02*
X85337009Y-83416256D01*
X85337009Y-83416256D02*
X85432247Y-83368637D01*
X85432247Y-83368637D02*
X85670342Y-83368637D01*
X85670342Y-83368637D02*
X85765580Y-83416256D01*
X85765580Y-83416256D02*
X85813200Y-83463875D01*
X85813200Y-83463875D02*
X85860819Y-83559113D01*
X85860819Y-83559113D02*
X85860819Y-83844827D01*
X85860819Y-83844827D02*
X85813200Y-83940065D01*
X85813200Y-83940065D02*
X85765580Y-83987684D01*
X84956057Y-82987684D02*
X84908438Y-82940065D01*
X84908438Y-82940065D02*
X84860819Y-82844827D01*
X84860819Y-82844827D02*
X84860819Y-82606732D01*
X84860819Y-82606732D02*
X84908438Y-82511494D01*
X84908438Y-82511494D02*
X84956057Y-82463875D01*
X84956057Y-82463875D02*
X85051295Y-82416256D01*
X85051295Y-82416256D02*
X85146533Y-82416256D01*
X85146533Y-82416256D02*
X85289390Y-82463875D01*
X85289390Y-82463875D02*
X85860819Y-83035303D01*
X85860819Y-83035303D02*
X85860819Y-82416256D01*
X85479866Y-81987684D02*
X85479866Y-81225780D01*
X84860819Y-80844827D02*
X85860819Y-80606732D01*
X85860819Y-80606732D02*
X85146533Y-80416256D01*
X85146533Y-80416256D02*
X85860819Y-80225780D01*
X85860819Y-80225780D02*
X84860819Y-79987685D01*
X85860819Y-79035304D02*
X85384628Y-79368637D01*
X85860819Y-79606732D02*
X84860819Y-79606732D01*
X84860819Y-79606732D02*
X84860819Y-79225780D01*
X84860819Y-79225780D02*
X84908438Y-79130542D01*
X84908438Y-79130542D02*
X84956057Y-79082923D01*
X84956057Y-79082923D02*
X85051295Y-79035304D01*
X85051295Y-79035304D02*
X85194152Y-79035304D01*
X85194152Y-79035304D02*
X85289390Y-79082923D01*
X85289390Y-79082923D02*
X85337009Y-79130542D01*
X85337009Y-79130542D02*
X85384628Y-79225780D01*
X85384628Y-79225780D02*
X85384628Y-79606732D01*
X84860819Y-78416256D02*
X84860819Y-78225780D01*
X84860819Y-78225780D02*
X84908438Y-78130542D01*
X84908438Y-78130542D02*
X85003676Y-78035304D01*
X85003676Y-78035304D02*
X85194152Y-77987685D01*
X85194152Y-77987685D02*
X85527485Y-77987685D01*
X85527485Y-77987685D02*
X85717961Y-78035304D01*
X85717961Y-78035304D02*
X85813200Y-78130542D01*
X85813200Y-78130542D02*
X85860819Y-78225780D01*
X85860819Y-78225780D02*
X85860819Y-78416256D01*
X85860819Y-78416256D02*
X85813200Y-78511494D01*
X85813200Y-78511494D02*
X85717961Y-78606732D01*
X85717961Y-78606732D02*
X85527485Y-78654351D01*
X85527485Y-78654351D02*
X85194152Y-78654351D01*
X85194152Y-78654351D02*
X85003676Y-78606732D01*
X85003676Y-78606732D02*
X84908438Y-78511494D01*
X84908438Y-78511494D02*
X84860819Y-78416256D01*
X84860819Y-77368637D02*
X84860819Y-77178161D01*
X84860819Y-77178161D02*
X84908438Y-77082923D01*
X84908438Y-77082923D02*
X85003676Y-76987685D01*
X85003676Y-76987685D02*
X85194152Y-76940066D01*
X85194152Y-76940066D02*
X85527485Y-76940066D01*
X85527485Y-76940066D02*
X85717961Y-76987685D01*
X85717961Y-76987685D02*
X85813200Y-77082923D01*
X85813200Y-77082923D02*
X85860819Y-77178161D01*
X85860819Y-77178161D02*
X85860819Y-77368637D01*
X85860819Y-77368637D02*
X85813200Y-77463875D01*
X85813200Y-77463875D02*
X85717961Y-77559113D01*
X85717961Y-77559113D02*
X85527485Y-77606732D01*
X85527485Y-77606732D02*
X85194152Y-77606732D01*
X85194152Y-77606732D02*
X85003676Y-77559113D01*
X85003676Y-77559113D02*
X84908438Y-77463875D01*
X84908438Y-77463875D02*
X84860819Y-77368637D01*
X85860819Y-76511494D02*
X84860819Y-76511494D01*
X84860819Y-76511494D02*
X85575104Y-76178161D01*
X85575104Y-76178161D02*
X84860819Y-75844828D01*
X84860819Y-75844828D02*
X85860819Y-75844828D01*
X85479866Y-75368637D02*
X85479866Y-74606733D01*
X84860819Y-74225780D02*
X84860819Y-73606733D01*
X84860819Y-73606733D02*
X85241771Y-73940066D01*
X85241771Y-73940066D02*
X85241771Y-73797209D01*
X85241771Y-73797209D02*
X85289390Y-73701971D01*
X85289390Y-73701971D02*
X85337009Y-73654352D01*
X85337009Y-73654352D02*
X85432247Y-73606733D01*
X85432247Y-73606733D02*
X85670342Y-73606733D01*
X85670342Y-73606733D02*
X85765580Y-73654352D01*
X85765580Y-73654352D02*
X85813200Y-73701971D01*
X85813200Y-73701971D02*
X85860819Y-73797209D01*
X85860819Y-73797209D02*
X85860819Y-74082923D01*
X85860819Y-74082923D02*
X85813200Y-74178161D01*
X85813200Y-74178161D02*
X85765580Y-74225780D01*
X84956057Y-73225780D02*
X84908438Y-73178161D01*
X84908438Y-73178161D02*
X84860819Y-73082923D01*
X84860819Y-73082923D02*
X84860819Y-72844828D01*
X84860819Y-72844828D02*
X84908438Y-72749590D01*
X84908438Y-72749590D02*
X84956057Y-72701971D01*
X84956057Y-72701971D02*
X85051295Y-72654352D01*
X85051295Y-72654352D02*
X85146533Y-72654352D01*
X85146533Y-72654352D02*
X85289390Y-72701971D01*
X85289390Y-72701971D02*
X85860819Y-73273399D01*
X85860819Y-73273399D02*
X85860819Y-72654352D01*
X85337009Y-72225780D02*
X85337009Y-71892447D01*
X85860819Y-71749590D02*
X85860819Y-72225780D01*
X85860819Y-72225780D02*
X84860819Y-72225780D01*
X84860819Y-72225780D02*
X84860819Y-71749590D01*
X123063095Y-105246219D02*
X123063095Y-104246219D01*
X123063095Y-104722409D02*
X123634523Y-104722409D01*
X123634523Y-105246219D02*
X123634523Y-104246219D01*
X124539285Y-104579552D02*
X124539285Y-105246219D01*
X124301190Y-104198600D02*
X124063095Y-104912885D01*
X124063095Y-104912885D02*
X124682142Y-104912885D01*
X63753733Y-96408419D02*
X63277543Y-96408419D01*
X63277543Y-96408419D02*
X63277543Y-95408419D01*
X64039448Y-95503657D02*
X64087067Y-95456038D01*
X64087067Y-95456038D02*
X64182305Y-95408419D01*
X64182305Y-95408419D02*
X64420400Y-95408419D01*
X64420400Y-95408419D02*
X64515638Y-95456038D01*
X64515638Y-95456038D02*
X64563257Y-95503657D01*
X64563257Y-95503657D02*
X64610876Y-95598895D01*
X64610876Y-95598895D02*
X64610876Y-95694133D01*
X64610876Y-95694133D02*
X64563257Y-95836990D01*
X64563257Y-95836990D02*
X63991829Y-96408419D01*
X63991829Y-96408419D02*
X64610876Y-96408419D01*
X62539447Y-99268419D02*
X61968019Y-99268419D01*
X62253733Y-99268419D02*
X62253733Y-98268419D01*
X62253733Y-98268419D02*
X62158495Y-98411276D01*
X62158495Y-98411276D02*
X62063257Y-98506514D01*
X62063257Y-98506514D02*
X61968019Y-98554133D01*
X63158495Y-98268419D02*
X63253733Y-98268419D01*
X63253733Y-98268419D02*
X63348971Y-98316038D01*
X63348971Y-98316038D02*
X63396590Y-98363657D01*
X63396590Y-98363657D02*
X63444209Y-98458895D01*
X63444209Y-98458895D02*
X63491828Y-98649371D01*
X63491828Y-98649371D02*
X63491828Y-98887466D01*
X63491828Y-98887466D02*
X63444209Y-99077942D01*
X63444209Y-99077942D02*
X63396590Y-99173180D01*
X63396590Y-99173180D02*
X63348971Y-99220800D01*
X63348971Y-99220800D02*
X63253733Y-99268419D01*
X63253733Y-99268419D02*
X63158495Y-99268419D01*
X63158495Y-99268419D02*
X63063257Y-99220800D01*
X63063257Y-99220800D02*
X63015638Y-99173180D01*
X63015638Y-99173180D02*
X62968019Y-99077942D01*
X62968019Y-99077942D02*
X62920400Y-98887466D01*
X62920400Y-98887466D02*
X62920400Y-98649371D01*
X62920400Y-98649371D02*
X62968019Y-98458895D01*
X62968019Y-98458895D02*
X63015638Y-98363657D01*
X63015638Y-98363657D02*
X63063257Y-98316038D01*
X63063257Y-98316038D02*
X63158495Y-98268419D01*
X63920400Y-99268419D02*
X63920400Y-98601752D01*
X63920400Y-98696990D02*
X63968019Y-98649371D01*
X63968019Y-98649371D02*
X64063257Y-98601752D01*
X64063257Y-98601752D02*
X64206114Y-98601752D01*
X64206114Y-98601752D02*
X64301352Y-98649371D01*
X64301352Y-98649371D02*
X64348971Y-98744609D01*
X64348971Y-98744609D02*
X64348971Y-99268419D01*
X64348971Y-98744609D02*
X64396590Y-98649371D01*
X64396590Y-98649371D02*
X64491828Y-98601752D01*
X64491828Y-98601752D02*
X64634685Y-98601752D01*
X64634685Y-98601752D02*
X64729924Y-98649371D01*
X64729924Y-98649371D02*
X64777543Y-98744609D01*
X64777543Y-98744609D02*
X64777543Y-99268419D01*
X65253733Y-99268419D02*
X65253733Y-98268419D01*
X65253733Y-98744609D02*
X65825161Y-98744609D01*
X65825161Y-99268419D02*
X65825161Y-98268419D01*
X59839266Y-97869219D02*
X59839266Y-98583504D01*
X59839266Y-98583504D02*
X59791647Y-98726361D01*
X59791647Y-98726361D02*
X59696409Y-98821600D01*
X59696409Y-98821600D02*
X59553552Y-98869219D01*
X59553552Y-98869219D02*
X59458314Y-98869219D01*
X60267838Y-97964457D02*
X60315457Y-97916838D01*
X60315457Y-97916838D02*
X60410695Y-97869219D01*
X60410695Y-97869219D02*
X60648790Y-97869219D01*
X60648790Y-97869219D02*
X60744028Y-97916838D01*
X60744028Y-97916838D02*
X60791647Y-97964457D01*
X60791647Y-97964457D02*
X60839266Y-98059695D01*
X60839266Y-98059695D02*
X60839266Y-98154933D01*
X60839266Y-98154933D02*
X60791647Y-98297790D01*
X60791647Y-98297790D02*
X60220219Y-98869219D01*
X60220219Y-98869219D02*
X60839266Y-98869219D01*
X57934504Y-107069219D02*
X57934504Y-106069219D01*
X57934504Y-106069219D02*
X58267837Y-106783504D01*
X58267837Y-106783504D02*
X58601170Y-106069219D01*
X58601170Y-106069219D02*
X58601170Y-107069219D01*
X59220218Y-107069219D02*
X59124980Y-107021600D01*
X59124980Y-107021600D02*
X59077361Y-106973980D01*
X59077361Y-106973980D02*
X59029742Y-106878742D01*
X59029742Y-106878742D02*
X59029742Y-106593028D01*
X59029742Y-106593028D02*
X59077361Y-106497790D01*
X59077361Y-106497790D02*
X59124980Y-106450171D01*
X59124980Y-106450171D02*
X59220218Y-106402552D01*
X59220218Y-106402552D02*
X59363075Y-106402552D01*
X59363075Y-106402552D02*
X59458313Y-106450171D01*
X59458313Y-106450171D02*
X59505932Y-106497790D01*
X59505932Y-106497790D02*
X59553551Y-106593028D01*
X59553551Y-106593028D02*
X59553551Y-106878742D01*
X59553551Y-106878742D02*
X59505932Y-106973980D01*
X59505932Y-106973980D02*
X59458313Y-107021600D01*
X59458313Y-107021600D02*
X59363075Y-107069219D01*
X59363075Y-107069219D02*
X59220218Y-107069219D01*
X59839266Y-106402552D02*
X60220218Y-106402552D01*
X59982123Y-106069219D02*
X59982123Y-106926361D01*
X59982123Y-106926361D02*
X60029742Y-107021600D01*
X60029742Y-107021600D02*
X60124980Y-107069219D01*
X60124980Y-107069219D02*
X60220218Y-107069219D01*
X60696409Y-107069219D02*
X60601171Y-107021600D01*
X60601171Y-107021600D02*
X60553552Y-106973980D01*
X60553552Y-106973980D02*
X60505933Y-106878742D01*
X60505933Y-106878742D02*
X60505933Y-106593028D01*
X60505933Y-106593028D02*
X60553552Y-106497790D01*
X60553552Y-106497790D02*
X60601171Y-106450171D01*
X60601171Y-106450171D02*
X60696409Y-106402552D01*
X60696409Y-106402552D02*
X60839266Y-106402552D01*
X60839266Y-106402552D02*
X60934504Y-106450171D01*
X60934504Y-106450171D02*
X60982123Y-106497790D01*
X60982123Y-106497790D02*
X61029742Y-106593028D01*
X61029742Y-106593028D02*
X61029742Y-106878742D01*
X61029742Y-106878742D02*
X60982123Y-106973980D01*
X60982123Y-106973980D02*
X60934504Y-107021600D01*
X60934504Y-107021600D02*
X60839266Y-107069219D01*
X60839266Y-107069219D02*
X60696409Y-107069219D01*
X61458314Y-107069219D02*
X61458314Y-106402552D01*
X61458314Y-106593028D02*
X61505933Y-106497790D01*
X61505933Y-106497790D02*
X61553552Y-106450171D01*
X61553552Y-106450171D02*
X61648790Y-106402552D01*
X61648790Y-106402552D02*
X61744028Y-106402552D01*
X62553552Y-107069219D02*
X62077362Y-107069219D01*
X62077362Y-107069219D02*
X62077362Y-106069219D01*
X101941333Y-59155219D02*
X101608000Y-58679028D01*
X101369905Y-59155219D02*
X101369905Y-58155219D01*
X101369905Y-58155219D02*
X101750857Y-58155219D01*
X101750857Y-58155219D02*
X101846095Y-58202838D01*
X101846095Y-58202838D02*
X101893714Y-58250457D01*
X101893714Y-58250457D02*
X101941333Y-58345695D01*
X101941333Y-58345695D02*
X101941333Y-58488552D01*
X101941333Y-58488552D02*
X101893714Y-58583790D01*
X101893714Y-58583790D02*
X101846095Y-58631409D01*
X101846095Y-58631409D02*
X101750857Y-58679028D01*
X101750857Y-58679028D02*
X101369905Y-58679028D01*
X102798476Y-58155219D02*
X102608000Y-58155219D01*
X102608000Y-58155219D02*
X102512762Y-58202838D01*
X102512762Y-58202838D02*
X102465143Y-58250457D01*
X102465143Y-58250457D02*
X102369905Y-58393314D01*
X102369905Y-58393314D02*
X102322286Y-58583790D01*
X102322286Y-58583790D02*
X102322286Y-58964742D01*
X102322286Y-58964742D02*
X102369905Y-59059980D01*
X102369905Y-59059980D02*
X102417524Y-59107600D01*
X102417524Y-59107600D02*
X102512762Y-59155219D01*
X102512762Y-59155219D02*
X102703238Y-59155219D01*
X102703238Y-59155219D02*
X102798476Y-59107600D01*
X102798476Y-59107600D02*
X102846095Y-59059980D01*
X102846095Y-59059980D02*
X102893714Y-58964742D01*
X102893714Y-58964742D02*
X102893714Y-58726647D01*
X102893714Y-58726647D02*
X102846095Y-58631409D01*
X102846095Y-58631409D02*
X102798476Y-58583790D01*
X102798476Y-58583790D02*
X102703238Y-58536171D01*
X102703238Y-58536171D02*
X102512762Y-58536171D01*
X102512762Y-58536171D02*
X102417524Y-58583790D01*
X102417524Y-58583790D02*
X102369905Y-58631409D01*
X102369905Y-58631409D02*
X102322286Y-58726647D01*
X100242761Y-62075219D02*
X99671333Y-62075219D01*
X99957047Y-62075219D02*
X99957047Y-61075219D01*
X99957047Y-61075219D02*
X99861809Y-61218076D01*
X99861809Y-61218076D02*
X99766571Y-61313314D01*
X99766571Y-61313314D02*
X99671333Y-61360933D01*
X100861809Y-61075219D02*
X100957047Y-61075219D01*
X100957047Y-61075219D02*
X101052285Y-61122838D01*
X101052285Y-61122838D02*
X101099904Y-61170457D01*
X101099904Y-61170457D02*
X101147523Y-61265695D01*
X101147523Y-61265695D02*
X101195142Y-61456171D01*
X101195142Y-61456171D02*
X101195142Y-61694266D01*
X101195142Y-61694266D02*
X101147523Y-61884742D01*
X101147523Y-61884742D02*
X101099904Y-61979980D01*
X101099904Y-61979980D02*
X101052285Y-62027600D01*
X101052285Y-62027600D02*
X100957047Y-62075219D01*
X100957047Y-62075219D02*
X100861809Y-62075219D01*
X100861809Y-62075219D02*
X100766571Y-62027600D01*
X100766571Y-62027600D02*
X100718952Y-61979980D01*
X100718952Y-61979980D02*
X100671333Y-61884742D01*
X100671333Y-61884742D02*
X100623714Y-61694266D01*
X100623714Y-61694266D02*
X100623714Y-61456171D01*
X100623714Y-61456171D02*
X100671333Y-61265695D01*
X100671333Y-61265695D02*
X100718952Y-61170457D01*
X100718952Y-61170457D02*
X100766571Y-61122838D01*
X100766571Y-61122838D02*
X100861809Y-61075219D01*
X101623714Y-62075219D02*
X101623714Y-61075219D01*
X101718952Y-61694266D02*
X102004666Y-62075219D01*
X102004666Y-61408552D02*
X101623714Y-61789504D01*
X87320333Y-101446219D02*
X86987000Y-100970028D01*
X86748905Y-101446219D02*
X86748905Y-100446219D01*
X86748905Y-100446219D02*
X87129857Y-100446219D01*
X87129857Y-100446219D02*
X87225095Y-100493838D01*
X87225095Y-100493838D02*
X87272714Y-100541457D01*
X87272714Y-100541457D02*
X87320333Y-100636695D01*
X87320333Y-100636695D02*
X87320333Y-100779552D01*
X87320333Y-100779552D02*
X87272714Y-100874790D01*
X87272714Y-100874790D02*
X87225095Y-100922409D01*
X87225095Y-100922409D02*
X87129857Y-100970028D01*
X87129857Y-100970028D02*
X86748905Y-100970028D01*
X88225095Y-100446219D02*
X87748905Y-100446219D01*
X87748905Y-100446219D02*
X87701286Y-100922409D01*
X87701286Y-100922409D02*
X87748905Y-100874790D01*
X87748905Y-100874790D02*
X87844143Y-100827171D01*
X87844143Y-100827171D02*
X88082238Y-100827171D01*
X88082238Y-100827171D02*
X88177476Y-100874790D01*
X88177476Y-100874790D02*
X88225095Y-100922409D01*
X88225095Y-100922409D02*
X88272714Y-101017647D01*
X88272714Y-101017647D02*
X88272714Y-101255742D01*
X88272714Y-101255742D02*
X88225095Y-101350980D01*
X88225095Y-101350980D02*
X88177476Y-101398600D01*
X88177476Y-101398600D02*
X88082238Y-101446219D01*
X88082238Y-101446219D02*
X87844143Y-101446219D01*
X87844143Y-101446219D02*
X87748905Y-101398600D01*
X87748905Y-101398600D02*
X87701286Y-101350980D01*
X87367952Y-104746219D02*
X86796524Y-104746219D01*
X87082238Y-104746219D02*
X87082238Y-103746219D01*
X87082238Y-103746219D02*
X86987000Y-103889076D01*
X86987000Y-103889076D02*
X86891762Y-103984314D01*
X86891762Y-103984314D02*
X86796524Y-104031933D01*
X87796524Y-104746219D02*
X87796524Y-103746219D01*
X87891762Y-104365266D02*
X88177476Y-104746219D01*
X88177476Y-104079552D02*
X87796524Y-104460504D01*
X33909095Y-49765219D02*
X33909095Y-48765219D01*
X33909095Y-49241409D02*
X34480523Y-49241409D01*
X34480523Y-49765219D02*
X34480523Y-48765219D01*
X35480523Y-49765219D02*
X34909095Y-49765219D01*
X35194809Y-49765219D02*
X35194809Y-48765219D01*
X35194809Y-48765219D02*
X35099571Y-48908076D01*
X35099571Y-48908076D02*
X35004333Y-49003314D01*
X35004333Y-49003314D02*
X34909095Y-49050933D01*
X66381333Y-75449580D02*
X66333714Y-75497200D01*
X66333714Y-75497200D02*
X66190857Y-75544819D01*
X66190857Y-75544819D02*
X66095619Y-75544819D01*
X66095619Y-75544819D02*
X65952762Y-75497200D01*
X65952762Y-75497200D02*
X65857524Y-75401961D01*
X65857524Y-75401961D02*
X65809905Y-75306723D01*
X65809905Y-75306723D02*
X65762286Y-75116247D01*
X65762286Y-75116247D02*
X65762286Y-74973390D01*
X65762286Y-74973390D02*
X65809905Y-74782914D01*
X65809905Y-74782914D02*
X65857524Y-74687676D01*
X65857524Y-74687676D02*
X65952762Y-74592438D01*
X65952762Y-74592438D02*
X66095619Y-74544819D01*
X66095619Y-74544819D02*
X66190857Y-74544819D01*
X66190857Y-74544819D02*
X66333714Y-74592438D01*
X66333714Y-74592438D02*
X66381333Y-74640057D01*
X67286095Y-74544819D02*
X66809905Y-74544819D01*
X66809905Y-74544819D02*
X66762286Y-75021009D01*
X66762286Y-75021009D02*
X66809905Y-74973390D01*
X66809905Y-74973390D02*
X66905143Y-74925771D01*
X66905143Y-74925771D02*
X67143238Y-74925771D01*
X67143238Y-74925771D02*
X67238476Y-74973390D01*
X67238476Y-74973390D02*
X67286095Y-75021009D01*
X67286095Y-75021009D02*
X67333714Y-75116247D01*
X67333714Y-75116247D02*
X67333714Y-75354342D01*
X67333714Y-75354342D02*
X67286095Y-75449580D01*
X67286095Y-75449580D02*
X67238476Y-75497200D01*
X67238476Y-75497200D02*
X67143238Y-75544819D01*
X67143238Y-75544819D02*
X66905143Y-75544819D01*
X66905143Y-75544819D02*
X66809905Y-75497200D01*
X66809905Y-75497200D02*
X66762286Y-75449580D01*
X64428952Y-71684819D02*
X64524190Y-71684819D01*
X64524190Y-71684819D02*
X64619428Y-71732438D01*
X64619428Y-71732438D02*
X64667047Y-71780057D01*
X64667047Y-71780057D02*
X64714666Y-71875295D01*
X64714666Y-71875295D02*
X64762285Y-72065771D01*
X64762285Y-72065771D02*
X64762285Y-72303866D01*
X64762285Y-72303866D02*
X64714666Y-72494342D01*
X64714666Y-72494342D02*
X64667047Y-72589580D01*
X64667047Y-72589580D02*
X64619428Y-72637200D01*
X64619428Y-72637200D02*
X64524190Y-72684819D01*
X64524190Y-72684819D02*
X64428952Y-72684819D01*
X64428952Y-72684819D02*
X64333714Y-72637200D01*
X64333714Y-72637200D02*
X64286095Y-72589580D01*
X64286095Y-72589580D02*
X64238476Y-72494342D01*
X64238476Y-72494342D02*
X64190857Y-72303866D01*
X64190857Y-72303866D02*
X64190857Y-72065771D01*
X64190857Y-72065771D02*
X64238476Y-71875295D01*
X64238476Y-71875295D02*
X64286095Y-71780057D01*
X64286095Y-71780057D02*
X64333714Y-71732438D01*
X64333714Y-71732438D02*
X64428952Y-71684819D01*
X65190857Y-72589580D02*
X65238476Y-72637200D01*
X65238476Y-72637200D02*
X65190857Y-72684819D01*
X65190857Y-72684819D02*
X65143238Y-72637200D01*
X65143238Y-72637200D02*
X65190857Y-72589580D01*
X65190857Y-72589580D02*
X65190857Y-72684819D01*
X65857523Y-71684819D02*
X65952761Y-71684819D01*
X65952761Y-71684819D02*
X66047999Y-71732438D01*
X66047999Y-71732438D02*
X66095618Y-71780057D01*
X66095618Y-71780057D02*
X66143237Y-71875295D01*
X66143237Y-71875295D02*
X66190856Y-72065771D01*
X66190856Y-72065771D02*
X66190856Y-72303866D01*
X66190856Y-72303866D02*
X66143237Y-72494342D01*
X66143237Y-72494342D02*
X66095618Y-72589580D01*
X66095618Y-72589580D02*
X66047999Y-72637200D01*
X66047999Y-72637200D02*
X65952761Y-72684819D01*
X65952761Y-72684819D02*
X65857523Y-72684819D01*
X65857523Y-72684819D02*
X65762285Y-72637200D01*
X65762285Y-72637200D02*
X65714666Y-72589580D01*
X65714666Y-72589580D02*
X65667047Y-72494342D01*
X65667047Y-72494342D02*
X65619428Y-72303866D01*
X65619428Y-72303866D02*
X65619428Y-72065771D01*
X65619428Y-72065771D02*
X65667047Y-71875295D01*
X65667047Y-71875295D02*
X65714666Y-71780057D01*
X65714666Y-71780057D02*
X65762285Y-71732438D01*
X65762285Y-71732438D02*
X65857523Y-71684819D01*
X67143237Y-72684819D02*
X66571809Y-72684819D01*
X66857523Y-72684819D02*
X66857523Y-71684819D01*
X66857523Y-71684819D02*
X66762285Y-71827676D01*
X66762285Y-71827676D02*
X66667047Y-71922914D01*
X66667047Y-71922914D02*
X66571809Y-71970533D01*
X68000380Y-72018152D02*
X68000380Y-72684819D01*
X67571809Y-72018152D02*
X67571809Y-72541961D01*
X67571809Y-72541961D02*
X67619428Y-72637200D01*
X67619428Y-72637200D02*
X67714666Y-72684819D01*
X67714666Y-72684819D02*
X67857523Y-72684819D01*
X67857523Y-72684819D02*
X67952761Y-72637200D01*
X67952761Y-72637200D02*
X68000380Y-72589580D01*
X68809904Y-72161009D02*
X68476571Y-72161009D01*
X68476571Y-72684819D02*
X68476571Y-71684819D01*
X68476571Y-71684819D02*
X68952761Y-71684819D01*
X33909095Y-105246219D02*
X33909095Y-104246219D01*
X33909095Y-104722409D02*
X34480523Y-104722409D01*
X34480523Y-105246219D02*
X34480523Y-104246219D01*
X34861476Y-104246219D02*
X35480523Y-104246219D01*
X35480523Y-104246219D02*
X35147190Y-104627171D01*
X35147190Y-104627171D02*
X35290047Y-104627171D01*
X35290047Y-104627171D02*
X35385285Y-104674790D01*
X35385285Y-104674790D02*
X35432904Y-104722409D01*
X35432904Y-104722409D02*
X35480523Y-104817647D01*
X35480523Y-104817647D02*
X35480523Y-105055742D01*
X35480523Y-105055742D02*
X35432904Y-105150980D01*
X35432904Y-105150980D02*
X35385285Y-105198600D01*
X35385285Y-105198600D02*
X35290047Y-105246219D01*
X35290047Y-105246219D02*
X35004333Y-105246219D01*
X35004333Y-105246219D02*
X34909095Y-105198600D01*
X34909095Y-105198600D02*
X34861476Y-105150980D01*
X101809561Y-47181657D02*
X101714323Y-47134038D01*
X101714323Y-47134038D02*
X101619085Y-47038800D01*
X101619085Y-47038800D02*
X101476228Y-46895942D01*
X101476228Y-46895942D02*
X101380990Y-46848323D01*
X101380990Y-46848323D02*
X101285752Y-46848323D01*
X101333371Y-47086419D02*
X101238133Y-47038800D01*
X101238133Y-47038800D02*
X101142895Y-46943561D01*
X101142895Y-46943561D02*
X101095276Y-46753085D01*
X101095276Y-46753085D02*
X101095276Y-46419752D01*
X101095276Y-46419752D02*
X101142895Y-46229276D01*
X101142895Y-46229276D02*
X101238133Y-46134038D01*
X101238133Y-46134038D02*
X101333371Y-46086419D01*
X101333371Y-46086419D02*
X101523847Y-46086419D01*
X101523847Y-46086419D02*
X101619085Y-46134038D01*
X101619085Y-46134038D02*
X101714323Y-46229276D01*
X101714323Y-46229276D02*
X101761942Y-46419752D01*
X101761942Y-46419752D02*
X101761942Y-46753085D01*
X101761942Y-46753085D02*
X101714323Y-46943561D01*
X101714323Y-46943561D02*
X101619085Y-47038800D01*
X101619085Y-47038800D02*
X101523847Y-47086419D01*
X101523847Y-47086419D02*
X101333371Y-47086419D01*
X102714323Y-47086419D02*
X102142895Y-47086419D01*
X102428609Y-47086419D02*
X102428609Y-46086419D01*
X102428609Y-46086419D02*
X102333371Y-46229276D01*
X102333371Y-46229276D02*
X102238133Y-46324514D01*
X102238133Y-46324514D02*
X102142895Y-46372133D01*
X123063095Y-41619219D02*
X123063095Y-40619219D01*
X123063095Y-41095409D02*
X123634523Y-41095409D01*
X123634523Y-41619219D02*
X123634523Y-40619219D01*
X124063095Y-40714457D02*
X124110714Y-40666838D01*
X124110714Y-40666838D02*
X124205952Y-40619219D01*
X124205952Y-40619219D02*
X124444047Y-40619219D01*
X124444047Y-40619219D02*
X124539285Y-40666838D01*
X124539285Y-40666838D02*
X124586904Y-40714457D01*
X124586904Y-40714457D02*
X124634523Y-40809695D01*
X124634523Y-40809695D02*
X124634523Y-40904933D01*
X124634523Y-40904933D02*
X124586904Y-41047790D01*
X124586904Y-41047790D02*
X124015476Y-41619219D01*
X124015476Y-41619219D02*
X124634523Y-41619219D01*
X59878933Y-72989619D02*
X59402743Y-72989619D01*
X59402743Y-72989619D02*
X59402743Y-71989619D01*
X60736076Y-72989619D02*
X60164648Y-72989619D01*
X60450362Y-72989619D02*
X60450362Y-71989619D01*
X60450362Y-71989619D02*
X60355124Y-72132476D01*
X60355124Y-72132476D02*
X60259886Y-72227714D01*
X60259886Y-72227714D02*
X60164648Y-72275333D01*
X58259886Y-74849619D02*
X58878933Y-74849619D01*
X58878933Y-74849619D02*
X58545600Y-75230571D01*
X58545600Y-75230571D02*
X58688457Y-75230571D01*
X58688457Y-75230571D02*
X58783695Y-75278190D01*
X58783695Y-75278190D02*
X58831314Y-75325809D01*
X58831314Y-75325809D02*
X58878933Y-75421047D01*
X58878933Y-75421047D02*
X58878933Y-75659142D01*
X58878933Y-75659142D02*
X58831314Y-75754380D01*
X58831314Y-75754380D02*
X58783695Y-75802000D01*
X58783695Y-75802000D02*
X58688457Y-75849619D01*
X58688457Y-75849619D02*
X58402743Y-75849619D01*
X58402743Y-75849619D02*
X58307505Y-75802000D01*
X58307505Y-75802000D02*
X58259886Y-75754380D01*
X59212267Y-74849619D02*
X59831314Y-74849619D01*
X59831314Y-74849619D02*
X59497981Y-75230571D01*
X59497981Y-75230571D02*
X59640838Y-75230571D01*
X59640838Y-75230571D02*
X59736076Y-75278190D01*
X59736076Y-75278190D02*
X59783695Y-75325809D01*
X59783695Y-75325809D02*
X59831314Y-75421047D01*
X59831314Y-75421047D02*
X59831314Y-75659142D01*
X59831314Y-75659142D02*
X59783695Y-75754380D01*
X59783695Y-75754380D02*
X59736076Y-75802000D01*
X59736076Y-75802000D02*
X59640838Y-75849619D01*
X59640838Y-75849619D02*
X59355124Y-75849619D01*
X59355124Y-75849619D02*
X59259886Y-75802000D01*
X59259886Y-75802000D02*
X59212267Y-75754380D01*
X60688457Y-75182952D02*
X60688457Y-75849619D01*
X60259886Y-75182952D02*
X60259886Y-75706761D01*
X60259886Y-75706761D02*
X60307505Y-75802000D01*
X60307505Y-75802000D02*
X60402743Y-75849619D01*
X60402743Y-75849619D02*
X60545600Y-75849619D01*
X60545600Y-75849619D02*
X60640838Y-75802000D01*
X60640838Y-75802000D02*
X60688457Y-75754380D01*
X61164648Y-75849619D02*
X61164648Y-74849619D01*
X61164648Y-75325809D02*
X61736076Y-75325809D01*
X61736076Y-75849619D02*
X61736076Y-74849619D01*
X97202666Y-102513219D02*
X97202666Y-103227504D01*
X97202666Y-103227504D02*
X97155047Y-103370361D01*
X97155047Y-103370361D02*
X97059809Y-103465600D01*
X97059809Y-103465600D02*
X96916952Y-103513219D01*
X96916952Y-103513219D02*
X96821714Y-103513219D01*
X98107428Y-102513219D02*
X97916952Y-102513219D01*
X97916952Y-102513219D02*
X97821714Y-102560838D01*
X97821714Y-102560838D02*
X97774095Y-102608457D01*
X97774095Y-102608457D02*
X97678857Y-102751314D01*
X97678857Y-102751314D02*
X97631238Y-102941790D01*
X97631238Y-102941790D02*
X97631238Y-103322742D01*
X97631238Y-103322742D02*
X97678857Y-103417980D01*
X97678857Y-103417980D02*
X97726476Y-103465600D01*
X97726476Y-103465600D02*
X97821714Y-103513219D01*
X97821714Y-103513219D02*
X98012190Y-103513219D01*
X98012190Y-103513219D02*
X98107428Y-103465600D01*
X98107428Y-103465600D02*
X98155047Y-103417980D01*
X98155047Y-103417980D02*
X98202666Y-103322742D01*
X98202666Y-103322742D02*
X98202666Y-103084647D01*
X98202666Y-103084647D02*
X98155047Y-102989409D01*
X98155047Y-102989409D02*
X98107428Y-102941790D01*
X98107428Y-102941790D02*
X98012190Y-102894171D01*
X98012190Y-102894171D02*
X97821714Y-102894171D01*
X97821714Y-102894171D02*
X97726476Y-102941790D01*
X97726476Y-102941790D02*
X97678857Y-102989409D01*
X97678857Y-102989409D02*
X97631238Y-103084647D01*
X95297904Y-95217980D02*
X95250285Y-95265600D01*
X95250285Y-95265600D02*
X95107428Y-95313219D01*
X95107428Y-95313219D02*
X95012190Y-95313219D01*
X95012190Y-95313219D02*
X94869333Y-95265600D01*
X94869333Y-95265600D02*
X94774095Y-95170361D01*
X94774095Y-95170361D02*
X94726476Y-95075123D01*
X94726476Y-95075123D02*
X94678857Y-94884647D01*
X94678857Y-94884647D02*
X94678857Y-94741790D01*
X94678857Y-94741790D02*
X94726476Y-94551314D01*
X94726476Y-94551314D02*
X94774095Y-94456076D01*
X94774095Y-94456076D02*
X94869333Y-94360838D01*
X94869333Y-94360838D02*
X95012190Y-94313219D01*
X95012190Y-94313219D02*
X95107428Y-94313219D01*
X95107428Y-94313219D02*
X95250285Y-94360838D01*
X95250285Y-94360838D02*
X95297904Y-94408457D01*
X95726476Y-95313219D02*
X95726476Y-94313219D01*
X96155047Y-95313219D02*
X96155047Y-94789409D01*
X96155047Y-94789409D02*
X96107428Y-94694171D01*
X96107428Y-94694171D02*
X96012190Y-94646552D01*
X96012190Y-94646552D02*
X95869333Y-94646552D01*
X95869333Y-94646552D02*
X95774095Y-94694171D01*
X95774095Y-94694171D02*
X95726476Y-94741790D01*
X96631238Y-95313219D02*
X96631238Y-94646552D01*
X96631238Y-94313219D02*
X96583619Y-94360838D01*
X96583619Y-94360838D02*
X96631238Y-94408457D01*
X96631238Y-94408457D02*
X96678857Y-94360838D01*
X96678857Y-94360838D02*
X96631238Y-94313219D01*
X96631238Y-94313219D02*
X96631238Y-94408457D01*
X97107428Y-94646552D02*
X97107428Y-95646552D01*
X97107428Y-94694171D02*
X97202666Y-94646552D01*
X97202666Y-94646552D02*
X97393142Y-94646552D01*
X97393142Y-94646552D02*
X97488380Y-94694171D01*
X97488380Y-94694171D02*
X97535999Y-94741790D01*
X97535999Y-94741790D02*
X97583618Y-94837028D01*
X97583618Y-94837028D02*
X97583618Y-95122742D01*
X97583618Y-95122742D02*
X97535999Y-95217980D01*
X97535999Y-95217980D02*
X97488380Y-95265600D01*
X97488380Y-95265600D02*
X97393142Y-95313219D01*
X97393142Y-95313219D02*
X97202666Y-95313219D01*
X97202666Y-95313219D02*
X97107428Y-95265600D01*
X98583618Y-95217980D02*
X98535999Y-95265600D01*
X98535999Y-95265600D02*
X98393142Y-95313219D01*
X98393142Y-95313219D02*
X98297904Y-95313219D01*
X98297904Y-95313219D02*
X98155047Y-95265600D01*
X98155047Y-95265600D02*
X98059809Y-95170361D01*
X98059809Y-95170361D02*
X98012190Y-95075123D01*
X98012190Y-95075123D02*
X97964571Y-94884647D01*
X97964571Y-94884647D02*
X97964571Y-94741790D01*
X97964571Y-94741790D02*
X98012190Y-94551314D01*
X98012190Y-94551314D02*
X98059809Y-94456076D01*
X98059809Y-94456076D02*
X98155047Y-94360838D01*
X98155047Y-94360838D02*
X98297904Y-94313219D01*
X98297904Y-94313219D02*
X98393142Y-94313219D01*
X98393142Y-94313219D02*
X98535999Y-94360838D01*
X98535999Y-94360838D02*
X98583618Y-94408457D01*
X99155047Y-95313219D02*
X99059809Y-95265600D01*
X99059809Y-95265600D02*
X99012190Y-95217980D01*
X99012190Y-95217980D02*
X98964571Y-95122742D01*
X98964571Y-95122742D02*
X98964571Y-94837028D01*
X98964571Y-94837028D02*
X99012190Y-94741790D01*
X99012190Y-94741790D02*
X99059809Y-94694171D01*
X99059809Y-94694171D02*
X99155047Y-94646552D01*
X99155047Y-94646552D02*
X99297904Y-94646552D01*
X99297904Y-94646552D02*
X99393142Y-94694171D01*
X99393142Y-94694171D02*
X99440761Y-94741790D01*
X99440761Y-94741790D02*
X99488380Y-94837028D01*
X99488380Y-94837028D02*
X99488380Y-95122742D01*
X99488380Y-95122742D02*
X99440761Y-95217980D01*
X99440761Y-95217980D02*
X99393142Y-95265600D01*
X99393142Y-95265600D02*
X99297904Y-95313219D01*
X99297904Y-95313219D02*
X99155047Y-95313219D01*
X99916952Y-94646552D02*
X99916952Y-95313219D01*
X99916952Y-94741790D02*
X99964571Y-94694171D01*
X99964571Y-94694171D02*
X100059809Y-94646552D01*
X100059809Y-94646552D02*
X100202666Y-94646552D01*
X100202666Y-94646552D02*
X100297904Y-94694171D01*
X100297904Y-94694171D02*
X100345523Y-94789409D01*
X100345523Y-94789409D02*
X100345523Y-95313219D01*
X103084333Y-62331980D02*
X103036714Y-62379600D01*
X103036714Y-62379600D02*
X102893857Y-62427219D01*
X102893857Y-62427219D02*
X102798619Y-62427219D01*
X102798619Y-62427219D02*
X102655762Y-62379600D01*
X102655762Y-62379600D02*
X102560524Y-62284361D01*
X102560524Y-62284361D02*
X102512905Y-62189123D01*
X102512905Y-62189123D02*
X102465286Y-61998647D01*
X102465286Y-61998647D02*
X102465286Y-61855790D01*
X102465286Y-61855790D02*
X102512905Y-61665314D01*
X102512905Y-61665314D02*
X102560524Y-61570076D01*
X102560524Y-61570076D02*
X102655762Y-61474838D01*
X102655762Y-61474838D02*
X102798619Y-61427219D01*
X102798619Y-61427219D02*
X102893857Y-61427219D01*
X102893857Y-61427219D02*
X103036714Y-61474838D01*
X103036714Y-61474838D02*
X103084333Y-61522457D01*
X103560524Y-62427219D02*
X103751000Y-62427219D01*
X103751000Y-62427219D02*
X103846238Y-62379600D01*
X103846238Y-62379600D02*
X103893857Y-62331980D01*
X103893857Y-62331980D02*
X103989095Y-62189123D01*
X103989095Y-62189123D02*
X104036714Y-61998647D01*
X104036714Y-61998647D02*
X104036714Y-61617695D01*
X104036714Y-61617695D02*
X103989095Y-61522457D01*
X103989095Y-61522457D02*
X103941476Y-61474838D01*
X103941476Y-61474838D02*
X103846238Y-61427219D01*
X103846238Y-61427219D02*
X103655762Y-61427219D01*
X103655762Y-61427219D02*
X103560524Y-61474838D01*
X103560524Y-61474838D02*
X103512905Y-61522457D01*
X103512905Y-61522457D02*
X103465286Y-61617695D01*
X103465286Y-61617695D02*
X103465286Y-61855790D01*
X103465286Y-61855790D02*
X103512905Y-61951028D01*
X103512905Y-61951028D02*
X103560524Y-61998647D01*
X103560524Y-61998647D02*
X103655762Y-62046266D01*
X103655762Y-62046266D02*
X103846238Y-62046266D01*
X103846238Y-62046266D02*
X103941476Y-61998647D01*
X103941476Y-61998647D02*
X103989095Y-61951028D01*
X103989095Y-61951028D02*
X104036714Y-61855790D01*
X101703380Y-65787219D02*
X101131952Y-65787219D01*
X101417666Y-65787219D02*
X101417666Y-64787219D01*
X101417666Y-64787219D02*
X101322428Y-64930076D01*
X101322428Y-64930076D02*
X101227190Y-65025314D01*
X101227190Y-65025314D02*
X101131952Y-65072933D01*
X102322428Y-64787219D02*
X102417666Y-64787219D01*
X102417666Y-64787219D02*
X102512904Y-64834838D01*
X102512904Y-64834838D02*
X102560523Y-64882457D01*
X102560523Y-64882457D02*
X102608142Y-64977695D01*
X102608142Y-64977695D02*
X102655761Y-65168171D01*
X102655761Y-65168171D02*
X102655761Y-65406266D01*
X102655761Y-65406266D02*
X102608142Y-65596742D01*
X102608142Y-65596742D02*
X102560523Y-65691980D01*
X102560523Y-65691980D02*
X102512904Y-65739600D01*
X102512904Y-65739600D02*
X102417666Y-65787219D01*
X102417666Y-65787219D02*
X102322428Y-65787219D01*
X102322428Y-65787219D02*
X102227190Y-65739600D01*
X102227190Y-65739600D02*
X102179571Y-65691980D01*
X102179571Y-65691980D02*
X102131952Y-65596742D01*
X102131952Y-65596742D02*
X102084333Y-65406266D01*
X102084333Y-65406266D02*
X102084333Y-65168171D01*
X102084333Y-65168171D02*
X102131952Y-64977695D01*
X102131952Y-64977695D02*
X102179571Y-64882457D01*
X102179571Y-64882457D02*
X102227190Y-64834838D01*
X102227190Y-64834838D02*
X102322428Y-64787219D01*
X103274809Y-64787219D02*
X103370047Y-64787219D01*
X103370047Y-64787219D02*
X103465285Y-64834838D01*
X103465285Y-64834838D02*
X103512904Y-64882457D01*
X103512904Y-64882457D02*
X103560523Y-64977695D01*
X103560523Y-64977695D02*
X103608142Y-65168171D01*
X103608142Y-65168171D02*
X103608142Y-65406266D01*
X103608142Y-65406266D02*
X103560523Y-65596742D01*
X103560523Y-65596742D02*
X103512904Y-65691980D01*
X103512904Y-65691980D02*
X103465285Y-65739600D01*
X103465285Y-65739600D02*
X103370047Y-65787219D01*
X103370047Y-65787219D02*
X103274809Y-65787219D01*
X103274809Y-65787219D02*
X103179571Y-65739600D01*
X103179571Y-65739600D02*
X103131952Y-65691980D01*
X103131952Y-65691980D02*
X103084333Y-65596742D01*
X103084333Y-65596742D02*
X103036714Y-65406266D01*
X103036714Y-65406266D02*
X103036714Y-65168171D01*
X103036714Y-65168171D02*
X103084333Y-64977695D01*
X103084333Y-64977695D02*
X103131952Y-64882457D01*
X103131952Y-64882457D02*
X103179571Y-64834838D01*
X103179571Y-64834838D02*
X103274809Y-64787219D01*
X104036714Y-65120552D02*
X104036714Y-65787219D01*
X104036714Y-65215790D02*
X104084333Y-65168171D01*
X104084333Y-65168171D02*
X104179571Y-65120552D01*
X104179571Y-65120552D02*
X104322428Y-65120552D01*
X104322428Y-65120552D02*
X104417666Y-65168171D01*
X104417666Y-65168171D02*
X104465285Y-65263409D01*
X104465285Y-65263409D02*
X104465285Y-65787219D01*
X105274809Y-65263409D02*
X104941476Y-65263409D01*
X104941476Y-65787219D02*
X104941476Y-64787219D01*
X104941476Y-64787219D02*
X105417666Y-64787219D01*
X64803819Y-102847733D02*
X65518104Y-102847733D01*
X65518104Y-102847733D02*
X65660961Y-102895352D01*
X65660961Y-102895352D02*
X65756200Y-102990590D01*
X65756200Y-102990590D02*
X65803819Y-103133447D01*
X65803819Y-103133447D02*
X65803819Y-103228685D01*
X64803819Y-102466780D02*
X64803819Y-101847733D01*
X64803819Y-101847733D02*
X65184771Y-102181066D01*
X65184771Y-102181066D02*
X65184771Y-102038209D01*
X65184771Y-102038209D02*
X65232390Y-101942971D01*
X65232390Y-101942971D02*
X65280009Y-101895352D01*
X65280009Y-101895352D02*
X65375247Y-101847733D01*
X65375247Y-101847733D02*
X65613342Y-101847733D01*
X65613342Y-101847733D02*
X65708580Y-101895352D01*
X65708580Y-101895352D02*
X65756200Y-101942971D01*
X65756200Y-101942971D02*
X65803819Y-102038209D01*
X65803819Y-102038209D02*
X65803819Y-102323923D01*
X65803819Y-102323923D02*
X65756200Y-102419161D01*
X65756200Y-102419161D02*
X65708580Y-102466780D01*
X74003819Y-104847733D02*
X73003819Y-104847733D01*
X73003819Y-104847733D02*
X73718104Y-104514400D01*
X73718104Y-104514400D02*
X73003819Y-104181067D01*
X73003819Y-104181067D02*
X74003819Y-104181067D01*
X74003819Y-103562019D02*
X73956200Y-103657257D01*
X73956200Y-103657257D02*
X73908580Y-103704876D01*
X73908580Y-103704876D02*
X73813342Y-103752495D01*
X73813342Y-103752495D02*
X73527628Y-103752495D01*
X73527628Y-103752495D02*
X73432390Y-103704876D01*
X73432390Y-103704876D02*
X73384771Y-103657257D01*
X73384771Y-103657257D02*
X73337152Y-103562019D01*
X73337152Y-103562019D02*
X73337152Y-103419162D01*
X73337152Y-103419162D02*
X73384771Y-103323924D01*
X73384771Y-103323924D02*
X73432390Y-103276305D01*
X73432390Y-103276305D02*
X73527628Y-103228686D01*
X73527628Y-103228686D02*
X73813342Y-103228686D01*
X73813342Y-103228686D02*
X73908580Y-103276305D01*
X73908580Y-103276305D02*
X73956200Y-103323924D01*
X73956200Y-103323924D02*
X74003819Y-103419162D01*
X74003819Y-103419162D02*
X74003819Y-103562019D01*
X73337152Y-102942971D02*
X73337152Y-102562019D01*
X73003819Y-102800114D02*
X73860961Y-102800114D01*
X73860961Y-102800114D02*
X73956200Y-102752495D01*
X73956200Y-102752495D02*
X74003819Y-102657257D01*
X74003819Y-102657257D02*
X74003819Y-102562019D01*
X74003819Y-102085828D02*
X73956200Y-102181066D01*
X73956200Y-102181066D02*
X73908580Y-102228685D01*
X73908580Y-102228685D02*
X73813342Y-102276304D01*
X73813342Y-102276304D02*
X73527628Y-102276304D01*
X73527628Y-102276304D02*
X73432390Y-102228685D01*
X73432390Y-102228685D02*
X73384771Y-102181066D01*
X73384771Y-102181066D02*
X73337152Y-102085828D01*
X73337152Y-102085828D02*
X73337152Y-101942971D01*
X73337152Y-101942971D02*
X73384771Y-101847733D01*
X73384771Y-101847733D02*
X73432390Y-101800114D01*
X73432390Y-101800114D02*
X73527628Y-101752495D01*
X73527628Y-101752495D02*
X73813342Y-101752495D01*
X73813342Y-101752495D02*
X73908580Y-101800114D01*
X73908580Y-101800114D02*
X73956200Y-101847733D01*
X73956200Y-101847733D02*
X74003819Y-101942971D01*
X74003819Y-101942971D02*
X74003819Y-102085828D01*
X74003819Y-101323923D02*
X73337152Y-101323923D01*
X73527628Y-101323923D02*
X73432390Y-101276304D01*
X73432390Y-101276304D02*
X73384771Y-101228685D01*
X73384771Y-101228685D02*
X73337152Y-101133447D01*
X73337152Y-101133447D02*
X73337152Y-101038209D01*
X74003819Y-100133447D02*
X73527628Y-100466780D01*
X74003819Y-100704875D02*
X73003819Y-100704875D01*
X73003819Y-100704875D02*
X73003819Y-100323923D01*
X73003819Y-100323923D02*
X73051438Y-100228685D01*
X73051438Y-100228685D02*
X73099057Y-100181066D01*
X73099057Y-100181066D02*
X73194295Y-100133447D01*
X73194295Y-100133447D02*
X73337152Y-100133447D01*
X73337152Y-100133447D02*
X73432390Y-100181066D01*
X73432390Y-100181066D02*
X73480009Y-100228685D01*
X73480009Y-100228685D02*
X73527628Y-100323923D01*
X73527628Y-100323923D02*
X73527628Y-100704875D01*
X51966905Y-83399619D02*
X51966905Y-82399619D01*
X51966905Y-82399619D02*
X52205000Y-82399619D01*
X52205000Y-82399619D02*
X52347857Y-82447238D01*
X52347857Y-82447238D02*
X52443095Y-82542476D01*
X52443095Y-82542476D02*
X52490714Y-82637714D01*
X52490714Y-82637714D02*
X52538333Y-82828190D01*
X52538333Y-82828190D02*
X52538333Y-82971047D01*
X52538333Y-82971047D02*
X52490714Y-83161523D01*
X52490714Y-83161523D02*
X52443095Y-83256761D01*
X52443095Y-83256761D02*
X52347857Y-83352000D01*
X52347857Y-83352000D02*
X52205000Y-83399619D01*
X52205000Y-83399619D02*
X51966905Y-83399619D01*
X53490714Y-83399619D02*
X52919286Y-83399619D01*
X53205000Y-83399619D02*
X53205000Y-82399619D01*
X53205000Y-82399619D02*
X53109762Y-82542476D01*
X53109762Y-82542476D02*
X53014524Y-82637714D01*
X53014524Y-82637714D02*
X52919286Y-82685333D01*
X50633571Y-92173119D02*
X50062143Y-92173119D01*
X50347857Y-92173119D02*
X50347857Y-91173119D01*
X50347857Y-91173119D02*
X50252619Y-91315976D01*
X50252619Y-91315976D02*
X50157381Y-91411214D01*
X50157381Y-91411214D02*
X50062143Y-91458833D01*
X51062143Y-91506452D02*
X51062143Y-92173119D01*
X51062143Y-91601690D02*
X51109762Y-91554071D01*
X51109762Y-91554071D02*
X51205000Y-91506452D01*
X51205000Y-91506452D02*
X51347857Y-91506452D01*
X51347857Y-91506452D02*
X51443095Y-91554071D01*
X51443095Y-91554071D02*
X51490714Y-91649309D01*
X51490714Y-91649309D02*
X51490714Y-92173119D01*
X52443095Y-91173119D02*
X51966905Y-91173119D01*
X51966905Y-91173119D02*
X51919286Y-91649309D01*
X51919286Y-91649309D02*
X51966905Y-91601690D01*
X51966905Y-91601690D02*
X52062143Y-91554071D01*
X52062143Y-91554071D02*
X52300238Y-91554071D01*
X52300238Y-91554071D02*
X52395476Y-91601690D01*
X52395476Y-91601690D02*
X52443095Y-91649309D01*
X52443095Y-91649309D02*
X52490714Y-91744547D01*
X52490714Y-91744547D02*
X52490714Y-91982642D01*
X52490714Y-91982642D02*
X52443095Y-92077880D01*
X52443095Y-92077880D02*
X52395476Y-92125500D01*
X52395476Y-92125500D02*
X52300238Y-92173119D01*
X52300238Y-92173119D02*
X52062143Y-92173119D01*
X52062143Y-92173119D02*
X51966905Y-92125500D01*
X51966905Y-92125500D02*
X51919286Y-92077880D01*
X53062143Y-91601690D02*
X52966905Y-91554071D01*
X52966905Y-91554071D02*
X52919286Y-91506452D01*
X52919286Y-91506452D02*
X52871667Y-91411214D01*
X52871667Y-91411214D02*
X52871667Y-91363595D01*
X52871667Y-91363595D02*
X52919286Y-91268357D01*
X52919286Y-91268357D02*
X52966905Y-91220738D01*
X52966905Y-91220738D02*
X53062143Y-91173119D01*
X53062143Y-91173119D02*
X53252619Y-91173119D01*
X53252619Y-91173119D02*
X53347857Y-91220738D01*
X53347857Y-91220738D02*
X53395476Y-91268357D01*
X53395476Y-91268357D02*
X53443095Y-91363595D01*
X53443095Y-91363595D02*
X53443095Y-91411214D01*
X53443095Y-91411214D02*
X53395476Y-91506452D01*
X53395476Y-91506452D02*
X53347857Y-91554071D01*
X53347857Y-91554071D02*
X53252619Y-91601690D01*
X53252619Y-91601690D02*
X53062143Y-91601690D01*
X53062143Y-91601690D02*
X52966905Y-91649309D01*
X52966905Y-91649309D02*
X52919286Y-91696928D01*
X52919286Y-91696928D02*
X52871667Y-91792166D01*
X52871667Y-91792166D02*
X52871667Y-91982642D01*
X52871667Y-91982642D02*
X52919286Y-92077880D01*
X52919286Y-92077880D02*
X52966905Y-92125500D01*
X52966905Y-92125500D02*
X53062143Y-92173119D01*
X53062143Y-92173119D02*
X53252619Y-92173119D01*
X53252619Y-92173119D02*
X53347857Y-92125500D01*
X53347857Y-92125500D02*
X53395476Y-92077880D01*
X53395476Y-92077880D02*
X53443095Y-91982642D01*
X53443095Y-91982642D02*
X53443095Y-91792166D01*
X53443095Y-91792166D02*
X53395476Y-91696928D01*
X53395476Y-91696928D02*
X53347857Y-91649309D01*
X53347857Y-91649309D02*
X53252619Y-91601690D01*
X53824048Y-91268357D02*
X53871667Y-91220738D01*
X53871667Y-91220738D02*
X53966905Y-91173119D01*
X53966905Y-91173119D02*
X54205000Y-91173119D01*
X54205000Y-91173119D02*
X54300238Y-91220738D01*
X54300238Y-91220738D02*
X54347857Y-91268357D01*
X54347857Y-91268357D02*
X54395476Y-91363595D01*
X54395476Y-91363595D02*
X54395476Y-91458833D01*
X54395476Y-91458833D02*
X54347857Y-91601690D01*
X54347857Y-91601690D02*
X53776429Y-92173119D01*
X53776429Y-92173119D02*
X54395476Y-92173119D01*
X55252619Y-91506452D02*
X55252619Y-92173119D01*
X55014524Y-91125500D02*
X54776429Y-91839785D01*
X54776429Y-91839785D02*
X55395476Y-91839785D01*
X54371905Y-89433904D02*
X54848095Y-89433904D01*
X54276667Y-89719619D02*
X54610000Y-88719619D01*
X54610000Y-88719619D02*
X54943333Y-89719619D01*
X72477333Y-50646219D02*
X72144000Y-50170028D01*
X71905905Y-50646219D02*
X71905905Y-49646219D01*
X71905905Y-49646219D02*
X72286857Y-49646219D01*
X72286857Y-49646219D02*
X72382095Y-49693838D01*
X72382095Y-49693838D02*
X72429714Y-49741457D01*
X72429714Y-49741457D02*
X72477333Y-49836695D01*
X72477333Y-49836695D02*
X72477333Y-49979552D01*
X72477333Y-49979552D02*
X72429714Y-50074790D01*
X72429714Y-50074790D02*
X72382095Y-50122409D01*
X72382095Y-50122409D02*
X72286857Y-50170028D01*
X72286857Y-50170028D02*
X71905905Y-50170028D01*
X73334476Y-49979552D02*
X73334476Y-50646219D01*
X73096381Y-49598600D02*
X72858286Y-50312885D01*
X72858286Y-50312885D02*
X73477333Y-50312885D01*
X72524952Y-53946219D02*
X71953524Y-53946219D01*
X72239238Y-53946219D02*
X72239238Y-52946219D01*
X72239238Y-52946219D02*
X72144000Y-53089076D01*
X72144000Y-53089076D02*
X72048762Y-53184314D01*
X72048762Y-53184314D02*
X71953524Y-53231933D01*
X72953524Y-53946219D02*
X72953524Y-52946219D01*
X73048762Y-53565266D02*
X73334476Y-53946219D01*
X73334476Y-53279552D02*
X72953524Y-53660504D01*
X80692666Y-45525219D02*
X80692666Y-46239504D01*
X80692666Y-46239504D02*
X80645047Y-46382361D01*
X80645047Y-46382361D02*
X80549809Y-46477600D01*
X80549809Y-46477600D02*
X80406952Y-46525219D01*
X80406952Y-46525219D02*
X80311714Y-46525219D01*
X81597428Y-45858552D02*
X81597428Y-46525219D01*
X81359333Y-45477600D02*
X81121238Y-46191885D01*
X81121238Y-46191885D02*
X81740285Y-46191885D01*
X77787904Y-54725219D02*
X77311714Y-54725219D01*
X77311714Y-54725219D02*
X77311714Y-53725219D01*
X78121238Y-54201409D02*
X78454571Y-54201409D01*
X78597428Y-54725219D02*
X78121238Y-54725219D01*
X78121238Y-54725219D02*
X78121238Y-53725219D01*
X78121238Y-53725219D02*
X78597428Y-53725219D01*
X79026000Y-54725219D02*
X79026000Y-53725219D01*
X79026000Y-53725219D02*
X79264095Y-53725219D01*
X79264095Y-53725219D02*
X79406952Y-53772838D01*
X79406952Y-53772838D02*
X79502190Y-53868076D01*
X79502190Y-53868076D02*
X79549809Y-53963314D01*
X79549809Y-53963314D02*
X79597428Y-54153790D01*
X79597428Y-54153790D02*
X79597428Y-54296647D01*
X79597428Y-54296647D02*
X79549809Y-54487123D01*
X79549809Y-54487123D02*
X79502190Y-54582361D01*
X79502190Y-54582361D02*
X79406952Y-54677600D01*
X79406952Y-54677600D02*
X79264095Y-54725219D01*
X79264095Y-54725219D02*
X79026000Y-54725219D01*
X79787905Y-54820457D02*
X80549809Y-54820457D01*
X80787905Y-54725219D02*
X80787905Y-53725219D01*
X80787905Y-53725219D02*
X81168857Y-53725219D01*
X81168857Y-53725219D02*
X81264095Y-53772838D01*
X81264095Y-53772838D02*
X81311714Y-53820457D01*
X81311714Y-53820457D02*
X81359333Y-53915695D01*
X81359333Y-53915695D02*
X81359333Y-54058552D01*
X81359333Y-54058552D02*
X81311714Y-54153790D01*
X81311714Y-54153790D02*
X81264095Y-54201409D01*
X81264095Y-54201409D02*
X81168857Y-54249028D01*
X81168857Y-54249028D02*
X80787905Y-54249028D01*
X81930762Y-54725219D02*
X81835524Y-54677600D01*
X81835524Y-54677600D02*
X81787905Y-54629980D01*
X81787905Y-54629980D02*
X81740286Y-54534742D01*
X81740286Y-54534742D02*
X81740286Y-54249028D01*
X81740286Y-54249028D02*
X81787905Y-54153790D01*
X81787905Y-54153790D02*
X81835524Y-54106171D01*
X81835524Y-54106171D02*
X81930762Y-54058552D01*
X81930762Y-54058552D02*
X82073619Y-54058552D01*
X82073619Y-54058552D02*
X82168857Y-54106171D01*
X82168857Y-54106171D02*
X82216476Y-54153790D01*
X82216476Y-54153790D02*
X82264095Y-54249028D01*
X82264095Y-54249028D02*
X82264095Y-54534742D01*
X82264095Y-54534742D02*
X82216476Y-54629980D01*
X82216476Y-54629980D02*
X82168857Y-54677600D01*
X82168857Y-54677600D02*
X82073619Y-54725219D01*
X82073619Y-54725219D02*
X81930762Y-54725219D01*
X82597429Y-54058552D02*
X82787905Y-54725219D01*
X82787905Y-54725219D02*
X82978381Y-54249028D01*
X82978381Y-54249028D02*
X83168857Y-54725219D01*
X83168857Y-54725219D02*
X83359333Y-54058552D01*
X84121238Y-54677600D02*
X84026000Y-54725219D01*
X84026000Y-54725219D02*
X83835524Y-54725219D01*
X83835524Y-54725219D02*
X83740286Y-54677600D01*
X83740286Y-54677600D02*
X83692667Y-54582361D01*
X83692667Y-54582361D02*
X83692667Y-54201409D01*
X83692667Y-54201409D02*
X83740286Y-54106171D01*
X83740286Y-54106171D02*
X83835524Y-54058552D01*
X83835524Y-54058552D02*
X84026000Y-54058552D01*
X84026000Y-54058552D02*
X84121238Y-54106171D01*
X84121238Y-54106171D02*
X84168857Y-54201409D01*
X84168857Y-54201409D02*
X84168857Y-54296647D01*
X84168857Y-54296647D02*
X83692667Y-54391885D01*
X84597429Y-54725219D02*
X84597429Y-54058552D01*
X84597429Y-54249028D02*
X84645048Y-54153790D01*
X84645048Y-54153790D02*
X84692667Y-54106171D01*
X84692667Y-54106171D02*
X84787905Y-54058552D01*
X84787905Y-54058552D02*
X84883143Y-54058552D01*
X67895933Y-93343619D02*
X67562600Y-92867428D01*
X67324505Y-93343619D02*
X67324505Y-92343619D01*
X67324505Y-92343619D02*
X67705457Y-92343619D01*
X67705457Y-92343619D02*
X67800695Y-92391238D01*
X67800695Y-92391238D02*
X67848314Y-92438857D01*
X67848314Y-92438857D02*
X67895933Y-92534095D01*
X67895933Y-92534095D02*
X67895933Y-92676952D01*
X67895933Y-92676952D02*
X67848314Y-92772190D01*
X67848314Y-92772190D02*
X67800695Y-92819809D01*
X67800695Y-92819809D02*
X67705457Y-92867428D01*
X67705457Y-92867428D02*
X67324505Y-92867428D01*
X68276886Y-92438857D02*
X68324505Y-92391238D01*
X68324505Y-92391238D02*
X68419743Y-92343619D01*
X68419743Y-92343619D02*
X68657838Y-92343619D01*
X68657838Y-92343619D02*
X68753076Y-92391238D01*
X68753076Y-92391238D02*
X68800695Y-92438857D01*
X68800695Y-92438857D02*
X68848314Y-92534095D01*
X68848314Y-92534095D02*
X68848314Y-92629333D01*
X68848314Y-92629333D02*
X68800695Y-92772190D01*
X68800695Y-92772190D02*
X68229267Y-93343619D01*
X68229267Y-93343619D02*
X68848314Y-93343619D01*
X67943552Y-96643619D02*
X67372124Y-96643619D01*
X67657838Y-96643619D02*
X67657838Y-95643619D01*
X67657838Y-95643619D02*
X67562600Y-95786476D01*
X67562600Y-95786476D02*
X67467362Y-95881714D01*
X67467362Y-95881714D02*
X67372124Y-95929333D01*
X68372124Y-96643619D02*
X68372124Y-95643619D01*
X68467362Y-96262666D02*
X68753076Y-96643619D01*
X68753076Y-95976952D02*
X68372124Y-96357904D01*
X66205095Y-88370019D02*
X66205095Y-89179542D01*
X66205095Y-89179542D02*
X66252714Y-89274780D01*
X66252714Y-89274780D02*
X66300333Y-89322400D01*
X66300333Y-89322400D02*
X66395571Y-89370019D01*
X66395571Y-89370019D02*
X66586047Y-89370019D01*
X66586047Y-89370019D02*
X66681285Y-89322400D01*
X66681285Y-89322400D02*
X66728904Y-89274780D01*
X66728904Y-89274780D02*
X66776523Y-89179542D01*
X66776523Y-89179542D02*
X66776523Y-88370019D01*
X67157476Y-88370019D02*
X67776523Y-88370019D01*
X67776523Y-88370019D02*
X67443190Y-88750971D01*
X67443190Y-88750971D02*
X67586047Y-88750971D01*
X67586047Y-88750971D02*
X67681285Y-88798590D01*
X67681285Y-88798590D02*
X67728904Y-88846209D01*
X67728904Y-88846209D02*
X67776523Y-88941447D01*
X67776523Y-88941447D02*
X67776523Y-89179542D01*
X67776523Y-89179542D02*
X67728904Y-89274780D01*
X67728904Y-89274780D02*
X67681285Y-89322400D01*
X67681285Y-89322400D02*
X67586047Y-89370019D01*
X67586047Y-89370019D02*
X67300333Y-89370019D01*
X67300333Y-89370019D02*
X67205095Y-89322400D01*
X67205095Y-89322400D02*
X67157476Y-89274780D01*
X62562238Y-82710019D02*
X62562238Y-81710019D01*
X62562238Y-81710019D02*
X62800333Y-81710019D01*
X62800333Y-81710019D02*
X62943190Y-81757638D01*
X62943190Y-81757638D02*
X63038428Y-81852876D01*
X63038428Y-81852876D02*
X63086047Y-81948114D01*
X63086047Y-81948114D02*
X63133666Y-82138590D01*
X63133666Y-82138590D02*
X63133666Y-82281447D01*
X63133666Y-82281447D02*
X63086047Y-82471923D01*
X63086047Y-82471923D02*
X63038428Y-82567161D01*
X63038428Y-82567161D02*
X62943190Y-82662400D01*
X62943190Y-82662400D02*
X62800333Y-82710019D01*
X62800333Y-82710019D02*
X62562238Y-82710019D01*
X64133666Y-82710019D02*
X63800333Y-82233828D01*
X63562238Y-82710019D02*
X63562238Y-81710019D01*
X63562238Y-81710019D02*
X63943190Y-81710019D01*
X63943190Y-81710019D02*
X64038428Y-81757638D01*
X64038428Y-81757638D02*
X64086047Y-81805257D01*
X64086047Y-81805257D02*
X64133666Y-81900495D01*
X64133666Y-81900495D02*
X64133666Y-82043352D01*
X64133666Y-82043352D02*
X64086047Y-82138590D01*
X64086047Y-82138590D02*
X64038428Y-82186209D01*
X64038428Y-82186209D02*
X63943190Y-82233828D01*
X63943190Y-82233828D02*
X63562238Y-82233828D01*
X64419381Y-81710019D02*
X64752714Y-82710019D01*
X64752714Y-82710019D02*
X65086047Y-81710019D01*
X65562238Y-82138590D02*
X65467000Y-82090971D01*
X65467000Y-82090971D02*
X65419381Y-82043352D01*
X65419381Y-82043352D02*
X65371762Y-81948114D01*
X65371762Y-81948114D02*
X65371762Y-81900495D01*
X65371762Y-81900495D02*
X65419381Y-81805257D01*
X65419381Y-81805257D02*
X65467000Y-81757638D01*
X65467000Y-81757638D02*
X65562238Y-81710019D01*
X65562238Y-81710019D02*
X65752714Y-81710019D01*
X65752714Y-81710019D02*
X65847952Y-81757638D01*
X65847952Y-81757638D02*
X65895571Y-81805257D01*
X65895571Y-81805257D02*
X65943190Y-81900495D01*
X65943190Y-81900495D02*
X65943190Y-81948114D01*
X65943190Y-81948114D02*
X65895571Y-82043352D01*
X65895571Y-82043352D02*
X65847952Y-82090971D01*
X65847952Y-82090971D02*
X65752714Y-82138590D01*
X65752714Y-82138590D02*
X65562238Y-82138590D01*
X65562238Y-82138590D02*
X65467000Y-82186209D01*
X65467000Y-82186209D02*
X65419381Y-82233828D01*
X65419381Y-82233828D02*
X65371762Y-82329066D01*
X65371762Y-82329066D02*
X65371762Y-82519542D01*
X65371762Y-82519542D02*
X65419381Y-82614780D01*
X65419381Y-82614780D02*
X65467000Y-82662400D01*
X65467000Y-82662400D02*
X65562238Y-82710019D01*
X65562238Y-82710019D02*
X65752714Y-82710019D01*
X65752714Y-82710019D02*
X65847952Y-82662400D01*
X65847952Y-82662400D02*
X65895571Y-82614780D01*
X65895571Y-82614780D02*
X65943190Y-82519542D01*
X65943190Y-82519542D02*
X65943190Y-82329066D01*
X65943190Y-82329066D02*
X65895571Y-82233828D01*
X65895571Y-82233828D02*
X65847952Y-82186209D01*
X65847952Y-82186209D02*
X65752714Y-82138590D01*
X66514619Y-82138590D02*
X66419381Y-82090971D01*
X66419381Y-82090971D02*
X66371762Y-82043352D01*
X66371762Y-82043352D02*
X66324143Y-81948114D01*
X66324143Y-81948114D02*
X66324143Y-81900495D01*
X66324143Y-81900495D02*
X66371762Y-81805257D01*
X66371762Y-81805257D02*
X66419381Y-81757638D01*
X66419381Y-81757638D02*
X66514619Y-81710019D01*
X66514619Y-81710019D02*
X66705095Y-81710019D01*
X66705095Y-81710019D02*
X66800333Y-81757638D01*
X66800333Y-81757638D02*
X66847952Y-81805257D01*
X66847952Y-81805257D02*
X66895571Y-81900495D01*
X66895571Y-81900495D02*
X66895571Y-81948114D01*
X66895571Y-81948114D02*
X66847952Y-82043352D01*
X66847952Y-82043352D02*
X66800333Y-82090971D01*
X66800333Y-82090971D02*
X66705095Y-82138590D01*
X66705095Y-82138590D02*
X66514619Y-82138590D01*
X66514619Y-82138590D02*
X66419381Y-82186209D01*
X66419381Y-82186209D02*
X66371762Y-82233828D01*
X66371762Y-82233828D02*
X66324143Y-82329066D01*
X66324143Y-82329066D02*
X66324143Y-82519542D01*
X66324143Y-82519542D02*
X66371762Y-82614780D01*
X66371762Y-82614780D02*
X66419381Y-82662400D01*
X66419381Y-82662400D02*
X66514619Y-82710019D01*
X66514619Y-82710019D02*
X66705095Y-82710019D01*
X66705095Y-82710019D02*
X66800333Y-82662400D01*
X66800333Y-82662400D02*
X66847952Y-82614780D01*
X66847952Y-82614780D02*
X66895571Y-82519542D01*
X66895571Y-82519542D02*
X66895571Y-82329066D01*
X66895571Y-82329066D02*
X66847952Y-82233828D01*
X66847952Y-82233828D02*
X66800333Y-82186209D01*
X66800333Y-82186209D02*
X66705095Y-82138590D01*
X67228905Y-81710019D02*
X67847952Y-81710019D01*
X67847952Y-81710019D02*
X67514619Y-82090971D01*
X67514619Y-82090971D02*
X67657476Y-82090971D01*
X67657476Y-82090971D02*
X67752714Y-82138590D01*
X67752714Y-82138590D02*
X67800333Y-82186209D01*
X67800333Y-82186209D02*
X67847952Y-82281447D01*
X67847952Y-82281447D02*
X67847952Y-82519542D01*
X67847952Y-82519542D02*
X67800333Y-82614780D01*
X67800333Y-82614780D02*
X67752714Y-82662400D01*
X67752714Y-82662400D02*
X67657476Y-82710019D01*
X67657476Y-82710019D02*
X67371762Y-82710019D01*
X67371762Y-82710019D02*
X67276524Y-82662400D01*
X67276524Y-82662400D02*
X67228905Y-82614780D01*
X68181286Y-81710019D02*
X68800333Y-81710019D01*
X68800333Y-81710019D02*
X68467000Y-82090971D01*
X68467000Y-82090971D02*
X68609857Y-82090971D01*
X68609857Y-82090971D02*
X68705095Y-82138590D01*
X68705095Y-82138590D02*
X68752714Y-82186209D01*
X68752714Y-82186209D02*
X68800333Y-82281447D01*
X68800333Y-82281447D02*
X68800333Y-82519542D01*
X68800333Y-82519542D02*
X68752714Y-82614780D01*
X68752714Y-82614780D02*
X68705095Y-82662400D01*
X68705095Y-82662400D02*
X68609857Y-82710019D01*
X68609857Y-82710019D02*
X68324143Y-82710019D01*
X68324143Y-82710019D02*
X68228905Y-82662400D01*
X68228905Y-82662400D02*
X68181286Y-82614780D01*
X69800333Y-82710019D02*
X69467000Y-82233828D01*
X69228905Y-82710019D02*
X69228905Y-81710019D01*
X69228905Y-81710019D02*
X69609857Y-81710019D01*
X69609857Y-81710019D02*
X69705095Y-81757638D01*
X69705095Y-81757638D02*
X69752714Y-81805257D01*
X69752714Y-81805257D02*
X69800333Y-81900495D01*
X69800333Y-81900495D02*
X69800333Y-82043352D01*
X69800333Y-82043352D02*
X69752714Y-82138590D01*
X69752714Y-82138590D02*
X69705095Y-82186209D01*
X69705095Y-82186209D02*
X69609857Y-82233828D01*
X69609857Y-82233828D02*
X69228905Y-82233828D01*
X70086048Y-81710019D02*
X70657476Y-81710019D01*
X70371762Y-82710019D02*
X70371762Y-81710019D01*
X71181286Y-82233828D02*
X71181286Y-82710019D01*
X70847953Y-81710019D02*
X71181286Y-82233828D01*
X71181286Y-82233828D02*
X71514619Y-81710019D01*
X61123533Y-62077980D02*
X61075914Y-62125600D01*
X61075914Y-62125600D02*
X60933057Y-62173219D01*
X60933057Y-62173219D02*
X60837819Y-62173219D01*
X60837819Y-62173219D02*
X60694962Y-62125600D01*
X60694962Y-62125600D02*
X60599724Y-62030361D01*
X60599724Y-62030361D02*
X60552105Y-61935123D01*
X60552105Y-61935123D02*
X60504486Y-61744647D01*
X60504486Y-61744647D02*
X60504486Y-61601790D01*
X60504486Y-61601790D02*
X60552105Y-61411314D01*
X60552105Y-61411314D02*
X60599724Y-61316076D01*
X60599724Y-61316076D02*
X60694962Y-61220838D01*
X60694962Y-61220838D02*
X60837819Y-61173219D01*
X60837819Y-61173219D02*
X60933057Y-61173219D01*
X60933057Y-61173219D02*
X61075914Y-61220838D01*
X61075914Y-61220838D02*
X61123533Y-61268457D01*
X61456867Y-61173219D02*
X62123533Y-61173219D01*
X62123533Y-61173219D02*
X61694962Y-62173219D01*
X59742580Y-65533219D02*
X59171152Y-65533219D01*
X59456866Y-65533219D02*
X59456866Y-64533219D01*
X59456866Y-64533219D02*
X59361628Y-64676076D01*
X59361628Y-64676076D02*
X59266390Y-64771314D01*
X59266390Y-64771314D02*
X59171152Y-64818933D01*
X60361628Y-64533219D02*
X60456866Y-64533219D01*
X60456866Y-64533219D02*
X60552104Y-64580838D01*
X60552104Y-64580838D02*
X60599723Y-64628457D01*
X60599723Y-64628457D02*
X60647342Y-64723695D01*
X60647342Y-64723695D02*
X60694961Y-64914171D01*
X60694961Y-64914171D02*
X60694961Y-65152266D01*
X60694961Y-65152266D02*
X60647342Y-65342742D01*
X60647342Y-65342742D02*
X60599723Y-65437980D01*
X60599723Y-65437980D02*
X60552104Y-65485600D01*
X60552104Y-65485600D02*
X60456866Y-65533219D01*
X60456866Y-65533219D02*
X60361628Y-65533219D01*
X60361628Y-65533219D02*
X60266390Y-65485600D01*
X60266390Y-65485600D02*
X60218771Y-65437980D01*
X60218771Y-65437980D02*
X60171152Y-65342742D01*
X60171152Y-65342742D02*
X60123533Y-65152266D01*
X60123533Y-65152266D02*
X60123533Y-64914171D01*
X60123533Y-64914171D02*
X60171152Y-64723695D01*
X60171152Y-64723695D02*
X60218771Y-64628457D01*
X60218771Y-64628457D02*
X60266390Y-64580838D01*
X60266390Y-64580838D02*
X60361628Y-64533219D01*
X61314009Y-64533219D02*
X61409247Y-64533219D01*
X61409247Y-64533219D02*
X61504485Y-64580838D01*
X61504485Y-64580838D02*
X61552104Y-64628457D01*
X61552104Y-64628457D02*
X61599723Y-64723695D01*
X61599723Y-64723695D02*
X61647342Y-64914171D01*
X61647342Y-64914171D02*
X61647342Y-65152266D01*
X61647342Y-65152266D02*
X61599723Y-65342742D01*
X61599723Y-65342742D02*
X61552104Y-65437980D01*
X61552104Y-65437980D02*
X61504485Y-65485600D01*
X61504485Y-65485600D02*
X61409247Y-65533219D01*
X61409247Y-65533219D02*
X61314009Y-65533219D01*
X61314009Y-65533219D02*
X61218771Y-65485600D01*
X61218771Y-65485600D02*
X61171152Y-65437980D01*
X61171152Y-65437980D02*
X61123533Y-65342742D01*
X61123533Y-65342742D02*
X61075914Y-65152266D01*
X61075914Y-65152266D02*
X61075914Y-64914171D01*
X61075914Y-64914171D02*
X61123533Y-64723695D01*
X61123533Y-64723695D02*
X61171152Y-64628457D01*
X61171152Y-64628457D02*
X61218771Y-64580838D01*
X61218771Y-64580838D02*
X61314009Y-64533219D01*
X62075914Y-64866552D02*
X62075914Y-65866552D01*
X62075914Y-64914171D02*
X62171152Y-64866552D01*
X62171152Y-64866552D02*
X62361628Y-64866552D01*
X62361628Y-64866552D02*
X62456866Y-64914171D01*
X62456866Y-64914171D02*
X62504485Y-64961790D01*
X62504485Y-64961790D02*
X62552104Y-65057028D01*
X62552104Y-65057028D02*
X62552104Y-65342742D01*
X62552104Y-65342742D02*
X62504485Y-65437980D01*
X62504485Y-65437980D02*
X62456866Y-65485600D01*
X62456866Y-65485600D02*
X62361628Y-65533219D01*
X62361628Y-65533219D02*
X62171152Y-65533219D01*
X62171152Y-65533219D02*
X62075914Y-65485600D01*
X63314009Y-65009409D02*
X62980676Y-65009409D01*
X62980676Y-65533219D02*
X62980676Y-64533219D01*
X62980676Y-64533219D02*
X63456866Y-64533219D01*
D12*
%TO.C,J7*%
X88754000Y-47809400D02*
X88754000Y-51809400D01*
X89044000Y-46779400D02*
X89044000Y-52799400D01*
X89044000Y-52799400D02*
X94344000Y-52799400D01*
X89624000Y-46779400D02*
X89624000Y-47379400D01*
X89624000Y-47379400D02*
X91224000Y-47379400D01*
X90424000Y-51799400D02*
X90674000Y-51269400D01*
X90424000Y-51799400D02*
X92964000Y-51799400D01*
X90424000Y-52799400D02*
X90424000Y-51799400D01*
X90674000Y-51269400D02*
X92714000Y-51269400D01*
X90674000Y-52799400D02*
X90674000Y-51799400D01*
X91224000Y-47379400D02*
X91224000Y-46779400D01*
X92164000Y-46779400D02*
X92164000Y-47379400D01*
X92164000Y-47379400D02*
X93764000Y-47379400D01*
X92714000Y-51269400D02*
X92964000Y-51799400D01*
X92714000Y-52799400D02*
X92714000Y-51799400D01*
X92964000Y-51799400D02*
X92964000Y-52799400D01*
X93764000Y-47379400D02*
X93764000Y-46779400D01*
X94344000Y-46779400D02*
X89044000Y-46779400D01*
X94344000Y-52799400D02*
X94344000Y-46779400D01*
%TO.C,C1*%
X37248477Y-80386200D02*
X38248477Y-80386200D01*
X37748477Y-79886200D02*
X37748477Y-80886200D01*
X42728123Y-78181200D02*
X42728123Y-88341200D01*
X42768123Y-78181200D02*
X42768123Y-88341200D01*
X42808123Y-78181200D02*
X42808123Y-88341200D01*
X42848123Y-78182200D02*
X42848123Y-88340200D01*
X42888123Y-78183200D02*
X42888123Y-88339200D01*
X42928123Y-78184200D02*
X42928123Y-88338200D01*
X42968123Y-78186200D02*
X42968123Y-88336200D01*
X43008123Y-78188200D02*
X43008123Y-88334200D01*
X43048123Y-78191200D02*
X43048123Y-88331200D01*
X43088123Y-78193200D02*
X43088123Y-88329200D01*
X43128123Y-78196200D02*
X43128123Y-88326200D01*
X43168123Y-78199200D02*
X43168123Y-88323200D01*
X43208123Y-78203200D02*
X43208123Y-88319200D01*
X43248123Y-78207200D02*
X43248123Y-88315200D01*
X43288123Y-78211200D02*
X43288123Y-88311200D01*
X43328123Y-78216200D02*
X43328123Y-88306200D01*
X43368123Y-78221200D02*
X43368123Y-88301200D01*
X43408123Y-78226200D02*
X43408123Y-88296200D01*
X43449123Y-78231200D02*
X43449123Y-88291200D01*
X43489123Y-78237200D02*
X43489123Y-88285200D01*
X43529123Y-78243200D02*
X43529123Y-88279200D01*
X43569123Y-78250200D02*
X43569123Y-88272200D01*
X43609123Y-78257200D02*
X43609123Y-88265200D01*
X43649123Y-78264200D02*
X43649123Y-88258200D01*
X43689123Y-78271200D02*
X43689123Y-88251200D01*
X43729123Y-78279200D02*
X43729123Y-88243200D01*
X43769123Y-78287200D02*
X43769123Y-88235200D01*
X43809123Y-78296200D02*
X43809123Y-88226200D01*
X43849123Y-78305200D02*
X43849123Y-88217200D01*
X43889123Y-78314200D02*
X43889123Y-88208200D01*
X43929123Y-78323200D02*
X43929123Y-88199200D01*
X43969123Y-78333200D02*
X43969123Y-88189200D01*
X44009123Y-78343200D02*
X44009123Y-82020200D01*
X44009123Y-84502200D02*
X44009123Y-88179200D01*
X44049123Y-78354200D02*
X44049123Y-82020200D01*
X44049123Y-84502200D02*
X44049123Y-88168200D01*
X44089123Y-78364200D02*
X44089123Y-82020200D01*
X44089123Y-84502200D02*
X44089123Y-88158200D01*
X44129123Y-78376200D02*
X44129123Y-82020200D01*
X44129123Y-84502200D02*
X44129123Y-88146200D01*
X44169123Y-78387200D02*
X44169123Y-82020200D01*
X44169123Y-84502200D02*
X44169123Y-88135200D01*
X44209123Y-78399200D02*
X44209123Y-82020200D01*
X44209123Y-84502200D02*
X44209123Y-88123200D01*
X44249123Y-78411200D02*
X44249123Y-82020200D01*
X44249123Y-84502200D02*
X44249123Y-88111200D01*
X44289123Y-78424200D02*
X44289123Y-82020200D01*
X44289123Y-84502200D02*
X44289123Y-88098200D01*
X44329123Y-78437200D02*
X44329123Y-82020200D01*
X44329123Y-84502200D02*
X44329123Y-88085200D01*
X44369123Y-78450200D02*
X44369123Y-82020200D01*
X44369123Y-84502200D02*
X44369123Y-88072200D01*
X44409123Y-78464200D02*
X44409123Y-82020200D01*
X44409123Y-84502200D02*
X44409123Y-88058200D01*
X44449123Y-78478200D02*
X44449123Y-82020200D01*
X44449123Y-84502200D02*
X44449123Y-88044200D01*
X44489123Y-78493200D02*
X44489123Y-82020200D01*
X44489123Y-84502200D02*
X44489123Y-88029200D01*
X44529123Y-78507200D02*
X44529123Y-82020200D01*
X44529123Y-84502200D02*
X44529123Y-88015200D01*
X44569123Y-78523200D02*
X44569123Y-82020200D01*
X44569123Y-84502200D02*
X44569123Y-87999200D01*
X44609123Y-78538200D02*
X44609123Y-82020200D01*
X44609123Y-84502200D02*
X44609123Y-87984200D01*
X44649123Y-78554200D02*
X44649123Y-82020200D01*
X44649123Y-84502200D02*
X44649123Y-87968200D01*
X44689123Y-78571200D02*
X44689123Y-82020200D01*
X44689123Y-84502200D02*
X44689123Y-87951200D01*
X44729123Y-78587200D02*
X44729123Y-82020200D01*
X44729123Y-84502200D02*
X44729123Y-87935200D01*
X44769123Y-78604200D02*
X44769123Y-82020200D01*
X44769123Y-84502200D02*
X44769123Y-87918200D01*
X44809123Y-78622200D02*
X44809123Y-82020200D01*
X44809123Y-84502200D02*
X44809123Y-87900200D01*
X44849123Y-78640200D02*
X44849123Y-82020200D01*
X44849123Y-84502200D02*
X44849123Y-87882200D01*
X44889123Y-78658200D02*
X44889123Y-82020200D01*
X44889123Y-84502200D02*
X44889123Y-87864200D01*
X44929123Y-78677200D02*
X44929123Y-82020200D01*
X44929123Y-84502200D02*
X44929123Y-87845200D01*
X44969123Y-78697200D02*
X44969123Y-82020200D01*
X44969123Y-84502200D02*
X44969123Y-87825200D01*
X45009123Y-78716200D02*
X45009123Y-82020200D01*
X45009123Y-84502200D02*
X45009123Y-87806200D01*
X45049123Y-78736200D02*
X45049123Y-82020200D01*
X45049123Y-84502200D02*
X45049123Y-87786200D01*
X45089123Y-78757200D02*
X45089123Y-82020200D01*
X45089123Y-84502200D02*
X45089123Y-87765200D01*
X45129123Y-78778200D02*
X45129123Y-82020200D01*
X45129123Y-84502200D02*
X45129123Y-87744200D01*
X45169123Y-78799200D02*
X45169123Y-82020200D01*
X45169123Y-84502200D02*
X45169123Y-87723200D01*
X45209123Y-78821200D02*
X45209123Y-82020200D01*
X45209123Y-84502200D02*
X45209123Y-87701200D01*
X45249123Y-78844200D02*
X45249123Y-82020200D01*
X45249123Y-84502200D02*
X45249123Y-87678200D01*
X45289123Y-78866200D02*
X45289123Y-82020200D01*
X45289123Y-84502200D02*
X45289123Y-87656200D01*
X45329123Y-78890200D02*
X45329123Y-82020200D01*
X45329123Y-84502200D02*
X45329123Y-87632200D01*
X45369123Y-78914200D02*
X45369123Y-82020200D01*
X45369123Y-84502200D02*
X45369123Y-87608200D01*
X45409123Y-78938200D02*
X45409123Y-82020200D01*
X45409123Y-84502200D02*
X45409123Y-87584200D01*
X45449123Y-78963200D02*
X45449123Y-82020200D01*
X45449123Y-84502200D02*
X45449123Y-87559200D01*
X45489123Y-78988200D02*
X45489123Y-82020200D01*
X45489123Y-84502200D02*
X45489123Y-87534200D01*
X45529123Y-79014200D02*
X45529123Y-82020200D01*
X45529123Y-84502200D02*
X45529123Y-87508200D01*
X45569123Y-79040200D02*
X45569123Y-82020200D01*
X45569123Y-84502200D02*
X45569123Y-87482200D01*
X45609123Y-79067200D02*
X45609123Y-82020200D01*
X45609123Y-84502200D02*
X45609123Y-87455200D01*
X45649123Y-79095200D02*
X45649123Y-82020200D01*
X45649123Y-84502200D02*
X45649123Y-87427200D01*
X45689123Y-79123200D02*
X45689123Y-82020200D01*
X45689123Y-84502200D02*
X45689123Y-87399200D01*
X45729123Y-79151200D02*
X45729123Y-82020200D01*
X45729123Y-84502200D02*
X45729123Y-87371200D01*
X45769123Y-79181200D02*
X45769123Y-82020200D01*
X45769123Y-84502200D02*
X45769123Y-87341200D01*
X45809123Y-79211200D02*
X45809123Y-82020200D01*
X45809123Y-84502200D02*
X45809123Y-87311200D01*
X45849123Y-79241200D02*
X45849123Y-82020200D01*
X45849123Y-84502200D02*
X45849123Y-87281200D01*
X45889123Y-79272200D02*
X45889123Y-82020200D01*
X45889123Y-84502200D02*
X45889123Y-87250200D01*
X45929123Y-79304200D02*
X45929123Y-82020200D01*
X45929123Y-84502200D02*
X45929123Y-87218200D01*
X45969123Y-79336200D02*
X45969123Y-82020200D01*
X45969123Y-84502200D02*
X45969123Y-87186200D01*
X46009123Y-79369200D02*
X46009123Y-82020200D01*
X46009123Y-84502200D02*
X46009123Y-87153200D01*
X46049123Y-79403200D02*
X46049123Y-82020200D01*
X46049123Y-84502200D02*
X46049123Y-87119200D01*
X46089123Y-79437200D02*
X46089123Y-82020200D01*
X46089123Y-84502200D02*
X46089123Y-87085200D01*
X46129123Y-79472200D02*
X46129123Y-82020200D01*
X46129123Y-84502200D02*
X46129123Y-87050200D01*
X46169123Y-79508200D02*
X46169123Y-82020200D01*
X46169123Y-84502200D02*
X46169123Y-87014200D01*
X46209123Y-79545200D02*
X46209123Y-82020200D01*
X46209123Y-84502200D02*
X46209123Y-86977200D01*
X46249123Y-79582200D02*
X46249123Y-82020200D01*
X46249123Y-84502200D02*
X46249123Y-86940200D01*
X46289123Y-79621200D02*
X46289123Y-82020200D01*
X46289123Y-84502200D02*
X46289123Y-86901200D01*
X46329123Y-79660200D02*
X46329123Y-82020200D01*
X46329123Y-84502200D02*
X46329123Y-86862200D01*
X46369123Y-79700200D02*
X46369123Y-82020200D01*
X46369123Y-84502200D02*
X46369123Y-86822200D01*
X46409123Y-79741200D02*
X46409123Y-82020200D01*
X46409123Y-84502200D02*
X46409123Y-86781200D01*
X46449123Y-79783200D02*
X46449123Y-82020200D01*
X46449123Y-84502200D02*
X46449123Y-86739200D01*
X46489123Y-79825200D02*
X46489123Y-86697200D01*
X46529123Y-79869200D02*
X46529123Y-86653200D01*
X46569123Y-79914200D02*
X46569123Y-86608200D01*
X46609123Y-79960200D02*
X46609123Y-86562200D01*
X46649123Y-80007200D02*
X46649123Y-86515200D01*
X46689123Y-80055200D02*
X46689123Y-86467200D01*
X46729123Y-80105200D02*
X46729123Y-86417200D01*
X46769123Y-80155200D02*
X46769123Y-86367200D01*
X46809123Y-80207200D02*
X46809123Y-86315200D01*
X46849123Y-80261200D02*
X46849123Y-86261200D01*
X46889123Y-80316200D02*
X46889123Y-86206200D01*
X46929123Y-80372200D02*
X46929123Y-86150200D01*
X46969123Y-80431200D02*
X46969123Y-86091200D01*
X47009123Y-80491200D02*
X47009123Y-86031200D01*
X47049123Y-80552200D02*
X47049123Y-85970200D01*
X47089123Y-80616200D02*
X47089123Y-85906200D01*
X47129123Y-80682200D02*
X47129123Y-85840200D01*
X47169123Y-80751200D02*
X47169123Y-85771200D01*
X47209123Y-80822200D02*
X47209123Y-85700200D01*
X47249123Y-80896200D02*
X47249123Y-85626200D01*
X47289123Y-80972200D02*
X47289123Y-85550200D01*
X47329123Y-81052200D02*
X47329123Y-85470200D01*
X47369123Y-81136200D02*
X47369123Y-85386200D01*
X47409123Y-81224200D02*
X47409123Y-85298200D01*
X47449123Y-81317200D02*
X47449123Y-85205200D01*
X47489123Y-81415200D02*
X47489123Y-85107200D01*
X47529123Y-81519200D02*
X47529123Y-85003200D01*
X47569123Y-81631200D02*
X47569123Y-84891200D01*
X47609123Y-81751200D02*
X47609123Y-84771200D01*
X47649123Y-81883200D02*
X47649123Y-84639200D01*
X47689123Y-82031200D02*
X47689123Y-84491200D01*
X47729123Y-82199200D02*
X47729123Y-84323200D01*
X47769123Y-82399200D02*
X47769123Y-84123200D01*
X47809123Y-82662200D02*
X47809123Y-83860200D01*
X47848123Y-83261200D02*
G75*
G02*
X37608123Y-83261200I-5120000J0D01*
G01*
X37608123Y-83261200D02*
G75*
G02*
X47848123Y-83261200I5120000J0D01*
G01*
%TO.C,C2*%
X54826959Y-50679400D02*
X56076959Y-50679400D01*
X55451959Y-50054400D02*
X55451959Y-51304400D01*
X61644041Y-47924400D02*
X61644041Y-60584400D01*
X61684041Y-47924400D02*
X61684041Y-60584400D01*
X61724041Y-47924400D02*
X61724041Y-60584400D01*
X61764041Y-47925400D02*
X61764041Y-60583400D01*
X61804041Y-47926400D02*
X61804041Y-60582400D01*
X61844041Y-47927400D02*
X61844041Y-60581400D01*
X61884041Y-47928400D02*
X61884041Y-60580400D01*
X61924041Y-47930400D02*
X61924041Y-60578400D01*
X61964041Y-47932400D02*
X61964041Y-60576400D01*
X62004041Y-47934400D02*
X62004041Y-60574400D01*
X62044041Y-47936400D02*
X62044041Y-60572400D01*
X62084041Y-47939400D02*
X62084041Y-60569400D01*
X62124041Y-47942400D02*
X62124041Y-60566400D01*
X62164041Y-47945400D02*
X62164041Y-60563400D01*
X62204041Y-47948400D02*
X62204041Y-60560400D01*
X62244041Y-47952400D02*
X62244041Y-60556400D01*
X62284041Y-47956400D02*
X62284041Y-60552400D01*
X62324041Y-47960400D02*
X62324041Y-60548400D01*
X62365041Y-47964400D02*
X62365041Y-60544400D01*
X62405041Y-47969400D02*
X62405041Y-60539400D01*
X62445041Y-47974400D02*
X62445041Y-60534400D01*
X62485041Y-47979400D02*
X62485041Y-60529400D01*
X62525041Y-47985400D02*
X62525041Y-60523400D01*
X62565041Y-47990400D02*
X62565041Y-60518400D01*
X62605041Y-47996400D02*
X62605041Y-60512400D01*
X62645041Y-48002400D02*
X62645041Y-60506400D01*
X62685041Y-48009400D02*
X62685041Y-60499400D01*
X62725041Y-48016400D02*
X62725041Y-52814400D01*
X62725041Y-55694400D02*
X62725041Y-60492400D01*
X62765041Y-48023400D02*
X62765041Y-52814400D01*
X62765041Y-55694400D02*
X62765041Y-60485400D01*
X62805041Y-48030400D02*
X62805041Y-52814400D01*
X62805041Y-55694400D02*
X62805041Y-60478400D01*
X62845041Y-48038400D02*
X62845041Y-52814400D01*
X62845041Y-55694400D02*
X62845041Y-60470400D01*
X62885041Y-48045400D02*
X62885041Y-52814400D01*
X62885041Y-55694400D02*
X62885041Y-60463400D01*
X62925041Y-48053400D02*
X62925041Y-52814400D01*
X62925041Y-55694400D02*
X62925041Y-60455400D01*
X62965041Y-48062400D02*
X62965041Y-52814400D01*
X62965041Y-55694400D02*
X62965041Y-60446400D01*
X63005041Y-48070400D02*
X63005041Y-52814400D01*
X63005041Y-55694400D02*
X63005041Y-60438400D01*
X63045041Y-48079400D02*
X63045041Y-52814400D01*
X63045041Y-55694400D02*
X63045041Y-60429400D01*
X63085041Y-48088400D02*
X63085041Y-52814400D01*
X63085041Y-55694400D02*
X63085041Y-60420400D01*
X63125041Y-48098400D02*
X63125041Y-52814400D01*
X63125041Y-55694400D02*
X63125041Y-60410400D01*
X63165041Y-48108400D02*
X63165041Y-52814400D01*
X63165041Y-55694400D02*
X63165041Y-60400400D01*
X63205041Y-48117400D02*
X63205041Y-52814400D01*
X63205041Y-55694400D02*
X63205041Y-60391400D01*
X63245041Y-48128400D02*
X63245041Y-52814400D01*
X63245041Y-55694400D02*
X63245041Y-60380400D01*
X63285041Y-48138400D02*
X63285041Y-52814400D01*
X63285041Y-55694400D02*
X63285041Y-60370400D01*
X63325041Y-48149400D02*
X63325041Y-52814400D01*
X63325041Y-55694400D02*
X63325041Y-60359400D01*
X63365041Y-48160400D02*
X63365041Y-52814400D01*
X63365041Y-55694400D02*
X63365041Y-60348400D01*
X63405041Y-48171400D02*
X63405041Y-52814400D01*
X63405041Y-55694400D02*
X63405041Y-60337400D01*
X63445041Y-48183400D02*
X63445041Y-52814400D01*
X63445041Y-55694400D02*
X63445041Y-60325400D01*
X63485041Y-48195400D02*
X63485041Y-52814400D01*
X63485041Y-55694400D02*
X63485041Y-60313400D01*
X63525041Y-48207400D02*
X63525041Y-52814400D01*
X63525041Y-55694400D02*
X63525041Y-60301400D01*
X63565041Y-48220400D02*
X63565041Y-52814400D01*
X63565041Y-55694400D02*
X63565041Y-60288400D01*
X63605041Y-48233400D02*
X63605041Y-52814400D01*
X63605041Y-55694400D02*
X63605041Y-60275400D01*
X63645041Y-48246400D02*
X63645041Y-52814400D01*
X63645041Y-55694400D02*
X63645041Y-60262400D01*
X63685041Y-48259400D02*
X63685041Y-52814400D01*
X63685041Y-55694400D02*
X63685041Y-60249400D01*
X63725041Y-48273400D02*
X63725041Y-52814400D01*
X63725041Y-55694400D02*
X63725041Y-60235400D01*
X63765041Y-48287400D02*
X63765041Y-52814400D01*
X63765041Y-55694400D02*
X63765041Y-60221400D01*
X63805041Y-48301400D02*
X63805041Y-52814400D01*
X63805041Y-55694400D02*
X63805041Y-60207400D01*
X63845041Y-48315400D02*
X63845041Y-52814400D01*
X63845041Y-55694400D02*
X63845041Y-60193400D01*
X63885041Y-48330400D02*
X63885041Y-52814400D01*
X63885041Y-55694400D02*
X63885041Y-60178400D01*
X63925041Y-48346400D02*
X63925041Y-52814400D01*
X63925041Y-55694400D02*
X63925041Y-60162400D01*
X63965041Y-48361400D02*
X63965041Y-52814400D01*
X63965041Y-55694400D02*
X63965041Y-60147400D01*
X64005041Y-48377400D02*
X64005041Y-52814400D01*
X64005041Y-55694400D02*
X64005041Y-60131400D01*
X64045041Y-48393400D02*
X64045041Y-52814400D01*
X64045041Y-55694400D02*
X64045041Y-60115400D01*
X64085041Y-48409400D02*
X64085041Y-52814400D01*
X64085041Y-55694400D02*
X64085041Y-60099400D01*
X64125041Y-48426400D02*
X64125041Y-52814400D01*
X64125041Y-55694400D02*
X64125041Y-60082400D01*
X64165041Y-48443400D02*
X64165041Y-52814400D01*
X64165041Y-55694400D02*
X64165041Y-60065400D01*
X64205041Y-48461400D02*
X64205041Y-52814400D01*
X64205041Y-55694400D02*
X64205041Y-60047400D01*
X64245041Y-48478400D02*
X64245041Y-52814400D01*
X64245041Y-55694400D02*
X64245041Y-60030400D01*
X64285041Y-48496400D02*
X64285041Y-52814400D01*
X64285041Y-55694400D02*
X64285041Y-60012400D01*
X64325041Y-48515400D02*
X64325041Y-52814400D01*
X64325041Y-55694400D02*
X64325041Y-59993400D01*
X64365041Y-48533400D02*
X64365041Y-52814400D01*
X64365041Y-55694400D02*
X64365041Y-59975400D01*
X64405041Y-48552400D02*
X64405041Y-52814400D01*
X64405041Y-55694400D02*
X64405041Y-59956400D01*
X64445041Y-48572400D02*
X64445041Y-52814400D01*
X64445041Y-55694400D02*
X64445041Y-59936400D01*
X64485041Y-48592400D02*
X64485041Y-52814400D01*
X64485041Y-55694400D02*
X64485041Y-59916400D01*
X64525041Y-48612400D02*
X64525041Y-52814400D01*
X64525041Y-55694400D02*
X64525041Y-59896400D01*
X64565041Y-48632400D02*
X64565041Y-52814400D01*
X64565041Y-55694400D02*
X64565041Y-59876400D01*
X64605041Y-48653400D02*
X64605041Y-52814400D01*
X64605041Y-55694400D02*
X64605041Y-59855400D01*
X64645041Y-48674400D02*
X64645041Y-52814400D01*
X64645041Y-55694400D02*
X64645041Y-59834400D01*
X64685041Y-48696400D02*
X64685041Y-52814400D01*
X64685041Y-55694400D02*
X64685041Y-59812400D01*
X64725041Y-48718400D02*
X64725041Y-52814400D01*
X64725041Y-55694400D02*
X64725041Y-59790400D01*
X64765041Y-48740400D02*
X64765041Y-52814400D01*
X64765041Y-55694400D02*
X64765041Y-59768400D01*
X64805041Y-48763400D02*
X64805041Y-52814400D01*
X64805041Y-55694400D02*
X64805041Y-59745400D01*
X64845041Y-48786400D02*
X64845041Y-52814400D01*
X64845041Y-55694400D02*
X64845041Y-59722400D01*
X64885041Y-48809400D02*
X64885041Y-52814400D01*
X64885041Y-55694400D02*
X64885041Y-59699400D01*
X64925041Y-48833400D02*
X64925041Y-52814400D01*
X64925041Y-55694400D02*
X64925041Y-59675400D01*
X64965041Y-48857400D02*
X64965041Y-52814400D01*
X64965041Y-55694400D02*
X64965041Y-59651400D01*
X65005041Y-48882400D02*
X65005041Y-52814400D01*
X65005041Y-55694400D02*
X65005041Y-59626400D01*
X65045041Y-48907400D02*
X65045041Y-52814400D01*
X65045041Y-55694400D02*
X65045041Y-59601400D01*
X65085041Y-48932400D02*
X65085041Y-52814400D01*
X65085041Y-55694400D02*
X65085041Y-59576400D01*
X65125041Y-48958400D02*
X65125041Y-52814400D01*
X65125041Y-55694400D02*
X65125041Y-59550400D01*
X65165041Y-48984400D02*
X65165041Y-52814400D01*
X65165041Y-55694400D02*
X65165041Y-59524400D01*
X65205041Y-49011400D02*
X65205041Y-52814400D01*
X65205041Y-55694400D02*
X65205041Y-59497400D01*
X65245041Y-49038400D02*
X65245041Y-52814400D01*
X65245041Y-55694400D02*
X65245041Y-59470400D01*
X65285041Y-49066400D02*
X65285041Y-52814400D01*
X65285041Y-55694400D02*
X65285041Y-59442400D01*
X65325041Y-49094400D02*
X65325041Y-52814400D01*
X65325041Y-55694400D02*
X65325041Y-59414400D01*
X65365041Y-49123400D02*
X65365041Y-52814400D01*
X65365041Y-55694400D02*
X65365041Y-59385400D01*
X65405041Y-49152400D02*
X65405041Y-52814400D01*
X65405041Y-55694400D02*
X65405041Y-59356400D01*
X65445041Y-49181400D02*
X65445041Y-52814400D01*
X65445041Y-55694400D02*
X65445041Y-59327400D01*
X65485041Y-49211400D02*
X65485041Y-52814400D01*
X65485041Y-55694400D02*
X65485041Y-59297400D01*
X65525041Y-49242400D02*
X65525041Y-52814400D01*
X65525041Y-55694400D02*
X65525041Y-59266400D01*
X65565041Y-49272400D02*
X65565041Y-52814400D01*
X65565041Y-55694400D02*
X65565041Y-59236400D01*
X65605041Y-49304400D02*
X65605041Y-59204400D01*
X65645041Y-49336400D02*
X65645041Y-59172400D01*
X65685041Y-49369400D02*
X65685041Y-59139400D01*
X65725041Y-49402400D02*
X65725041Y-59106400D01*
X65765041Y-49435400D02*
X65765041Y-59073400D01*
X65805041Y-49469400D02*
X65805041Y-59039400D01*
X65845041Y-49504400D02*
X65845041Y-59004400D01*
X65885041Y-49540400D02*
X65885041Y-58968400D01*
X65925041Y-49576400D02*
X65925041Y-58932400D01*
X65965041Y-49612400D02*
X65965041Y-58896400D01*
X66005041Y-49649400D02*
X66005041Y-58859400D01*
X66045041Y-49687400D02*
X66045041Y-58821400D01*
X66085041Y-49726400D02*
X66085041Y-58782400D01*
X66125041Y-49765400D02*
X66125041Y-58743400D01*
X66165041Y-49805400D02*
X66165041Y-58703400D01*
X66205041Y-49846400D02*
X66205041Y-58662400D01*
X66245041Y-49887400D02*
X66245041Y-58621400D01*
X66285041Y-49929400D02*
X66285041Y-58579400D01*
X66325041Y-49972400D02*
X66325041Y-58536400D01*
X66365041Y-50016400D02*
X66365041Y-58492400D01*
X66405041Y-50060400D02*
X66405041Y-58448400D01*
X66445041Y-50106400D02*
X66445041Y-58402400D01*
X66485041Y-50152400D02*
X66485041Y-58356400D01*
X66525041Y-50199400D02*
X66525041Y-58309400D01*
X66565041Y-50247400D02*
X66565041Y-58261400D01*
X66605041Y-50297400D02*
X66605041Y-58211400D01*
X66645041Y-50347400D02*
X66645041Y-58161400D01*
X66685041Y-50398400D02*
X66685041Y-58110400D01*
X66725041Y-50450400D02*
X66725041Y-58058400D01*
X66765041Y-50504400D02*
X66765041Y-58004400D01*
X66805041Y-50558400D02*
X66805041Y-57950400D01*
X66845041Y-50614400D02*
X66845041Y-57894400D01*
X66885041Y-50671400D02*
X66885041Y-57837400D01*
X66925041Y-50730400D02*
X66925041Y-57778400D01*
X66965041Y-50790400D02*
X66965041Y-57718400D01*
X67005041Y-50852400D02*
X67005041Y-57656400D01*
X67045041Y-50915400D02*
X67045041Y-57593400D01*
X67085041Y-50979400D02*
X67085041Y-57529400D01*
X67125041Y-51046400D02*
X67125041Y-57462400D01*
X67165041Y-51114400D02*
X67165041Y-57394400D01*
X67205041Y-51185400D02*
X67205041Y-57323400D01*
X67245041Y-51258400D02*
X67245041Y-57250400D01*
X67285041Y-51333400D02*
X67285041Y-57175400D01*
X67325041Y-51410400D02*
X67325041Y-57098400D01*
X67365041Y-51490400D02*
X67365041Y-57018400D01*
X67405041Y-51573400D02*
X67405041Y-56935400D01*
X67445041Y-51660400D02*
X67445041Y-56848400D01*
X67485041Y-51750400D02*
X67485041Y-56758400D01*
X67525041Y-51844400D02*
X67525041Y-56664400D01*
X67565041Y-51942400D02*
X67565041Y-56566400D01*
X67605041Y-52045400D02*
X67605041Y-56463400D01*
X67645041Y-52154400D02*
X67645041Y-56354400D01*
X67685041Y-52270400D02*
X67685041Y-56238400D01*
X67725041Y-52393400D02*
X67725041Y-56115400D01*
X67765041Y-52526400D02*
X67765041Y-55982400D01*
X67805041Y-52671400D02*
X67805041Y-55837400D01*
X67845041Y-52832400D02*
X67845041Y-55676400D01*
X67885041Y-53013400D02*
X67885041Y-55495400D01*
X67925041Y-53226400D02*
X67925041Y-55282400D01*
X67965041Y-53497400D02*
X67965041Y-55011400D01*
X68005041Y-53937400D02*
X68005041Y-54571400D01*
X68014041Y-54254400D02*
G75*
G02*
X55274041Y-54254400I-6370000J0D01*
G01*
X55274041Y-54254400D02*
G75*
G02*
X68014041Y-54254400I6370000J0D01*
G01*
%TO.C,R3*%
X73864736Y-80138600D02*
X74318864Y-80138600D01*
X73864736Y-81608600D02*
X74318864Y-81608600D01*
%TO.C,L3*%
X73845267Y-94638400D02*
X73502733Y-94638400D01*
X73845267Y-95658400D02*
X73502733Y-95658400D01*
%TO.C,J9*%
X79279800Y-81662200D02*
X79279800Y-85662200D01*
X79569800Y-80632200D02*
X79569800Y-86652200D01*
X79569800Y-86652200D02*
X84869800Y-86652200D01*
X80149800Y-80632200D02*
X80149800Y-81232200D01*
X80149800Y-81232200D02*
X81749800Y-81232200D01*
X80949800Y-85652200D02*
X81199800Y-85122200D01*
X80949800Y-85652200D02*
X83489800Y-85652200D01*
X80949800Y-86652200D02*
X80949800Y-85652200D01*
X81199800Y-85122200D02*
X83239800Y-85122200D01*
X81199800Y-86652200D02*
X81199800Y-85652200D01*
X81749800Y-81232200D02*
X81749800Y-80632200D01*
X82689800Y-80632200D02*
X82689800Y-81232200D01*
X82689800Y-81232200D02*
X84289800Y-81232200D01*
X83239800Y-85122200D02*
X83489800Y-85652200D01*
X83239800Y-86652200D02*
X83239800Y-85652200D01*
X83489800Y-85652200D02*
X83489800Y-86652200D01*
X84289800Y-81232200D02*
X84289800Y-80632200D01*
X84869800Y-80632200D02*
X79569800Y-80632200D01*
X84869800Y-86652200D02*
X84869800Y-80632200D01*
%TO.C,C3*%
X68242548Y-66371800D02*
X68765052Y-66371800D01*
X68242548Y-67841800D02*
X68765052Y-67841800D01*
%TO.C,C8*%
X82775248Y-57329400D02*
X83297752Y-57329400D01*
X82775248Y-58799400D02*
X83297752Y-58799400D01*
%TO.C,R7*%
X62882536Y-68251400D02*
X63336664Y-68251400D01*
X62882536Y-69721400D02*
X63336664Y-69721400D01*
%TO.C,U4*%
X43151000Y-94520400D02*
X43151000Y-95470400D01*
X43151000Y-104920400D02*
X43151000Y-103970400D01*
X44516000Y-94520400D02*
X43151000Y-94520400D01*
X44516000Y-104920400D02*
X43151000Y-104920400D01*
X40326000Y-95510400D02*
X39986000Y-95040400D01*
X40666000Y-95040400D01*
X40326000Y-95510400D01*
G36*
X40326000Y-95510400D02*
G01*
X39986000Y-95040400D01*
X40666000Y-95040400D01*
X40326000Y-95510400D01*
G37*
%TO.C,C4*%
X63445848Y-90755800D02*
X63968352Y-90755800D01*
X63445848Y-92225800D02*
X63968352Y-92225800D01*
%TO.C,J5*%
X76365000Y-99610400D02*
X76365000Y-104910400D01*
X76365000Y-101790400D02*
X76965000Y-101790400D01*
X76365000Y-104330400D02*
X76965000Y-104330400D01*
X76365000Y-104910400D02*
X82385000Y-104910400D01*
X76965000Y-100190400D02*
X76365000Y-100190400D01*
X76965000Y-101790400D02*
X76965000Y-100190400D01*
X76965000Y-102730400D02*
X76365000Y-102730400D01*
X76965000Y-104330400D02*
X76965000Y-102730400D01*
X77395000Y-105200400D02*
X81395000Y-105200400D01*
X80855000Y-101240400D02*
X81385000Y-100990400D01*
X80855000Y-103280400D02*
X80855000Y-101240400D01*
X81385000Y-100990400D02*
X82385000Y-100990400D01*
X81385000Y-103530400D02*
X80855000Y-103280400D01*
X81385000Y-103530400D02*
X81385000Y-100990400D01*
X82385000Y-99610400D02*
X76365000Y-99610400D01*
X82385000Y-101240400D02*
X81385000Y-101240400D01*
X82385000Y-103280400D02*
X81385000Y-103280400D01*
X82385000Y-103530400D02*
X81385000Y-103530400D01*
X82385000Y-104910400D02*
X82385000Y-99610400D01*
%TO.C,C6*%
X75383848Y-65508200D02*
X75906352Y-65508200D01*
X75383848Y-66978200D02*
X75906352Y-66978200D01*
%TO.C,J10*%
X79279800Y-91218000D02*
X79279800Y-95218000D01*
X79569800Y-90188000D02*
X79569800Y-96208000D01*
X79569800Y-96208000D02*
X87409800Y-96208000D01*
X80149800Y-90188000D02*
X80149800Y-90788000D01*
X80149800Y-90788000D02*
X81749800Y-90788000D01*
X80949800Y-95208000D02*
X81199800Y-94678000D01*
X80949800Y-95208000D02*
X86029800Y-95208000D01*
X80949800Y-96208000D02*
X80949800Y-95208000D01*
X81199800Y-94678000D02*
X85779800Y-94678000D01*
X81199800Y-96208000D02*
X81199800Y-95208000D01*
X81749800Y-90788000D02*
X81749800Y-90188000D01*
X82689800Y-90188000D02*
X82689800Y-90788000D01*
X82689800Y-90788000D02*
X84289800Y-90788000D01*
X84289800Y-90788000D02*
X84289800Y-90188000D01*
X85229800Y-90188000D02*
X85229800Y-90788000D01*
X85229800Y-90788000D02*
X86829800Y-90788000D01*
X85779800Y-94678000D02*
X86029800Y-95208000D01*
X85779800Y-96208000D02*
X85779800Y-95208000D01*
X86029800Y-95208000D02*
X86029800Y-96208000D01*
X86829800Y-90788000D02*
X86829800Y-90188000D01*
X87409800Y-90188000D02*
X79569800Y-90188000D01*
X87409800Y-96208000D02*
X87409800Y-90188000D01*
%TO.C,J8*%
X109988400Y-48190400D02*
X109988400Y-52190400D01*
X110278400Y-47160400D02*
X110278400Y-53180400D01*
X110278400Y-53180400D02*
X115578400Y-53180400D01*
X110858400Y-47160400D02*
X110858400Y-47760400D01*
X110858400Y-47760400D02*
X112458400Y-47760400D01*
X111658400Y-52180400D02*
X111908400Y-51650400D01*
X111658400Y-52180400D02*
X114198400Y-52180400D01*
X111658400Y-53180400D02*
X111658400Y-52180400D01*
X111908400Y-51650400D02*
X113948400Y-51650400D01*
X111908400Y-53180400D02*
X111908400Y-52180400D01*
X112458400Y-47760400D02*
X112458400Y-47160400D01*
X113398400Y-47160400D02*
X113398400Y-47760400D01*
X113398400Y-47760400D02*
X114998400Y-47760400D01*
X113948400Y-51650400D02*
X114198400Y-52180400D01*
X113948400Y-53180400D02*
X113948400Y-52180400D01*
X114198400Y-52180400D02*
X114198400Y-53180400D01*
X114998400Y-47760400D02*
X114998400Y-47160400D01*
X115578400Y-47160400D02*
X110278400Y-47160400D01*
X115578400Y-53180400D02*
X115578400Y-47160400D01*
%TO.C,SW1*%
X40894000Y-63823400D02*
X40894000Y-72428400D01*
X43942000Y-72428400D02*
X46482000Y-72428400D01*
X51562000Y-72428400D02*
X49022000Y-72428400D01*
X54610000Y-63823400D02*
X40894000Y-63823400D01*
X54610000Y-72428400D02*
X54610000Y-63823400D01*
X49232000Y-63423400D02*
X50432000Y-63423400D01*
X50432000Y-64223400D01*
X49232000Y-64223400D01*
X49232000Y-63423400D01*
%TO.C,J1*%
X48723600Y-50882800D02*
X48723600Y-54882800D01*
X49013600Y-49852800D02*
X49013600Y-55872800D01*
X49013600Y-55872800D02*
X54313600Y-55872800D01*
X49593600Y-49852800D02*
X49593600Y-50452800D01*
X49593600Y-50452800D02*
X51193600Y-50452800D01*
X50393600Y-54872800D02*
X50643600Y-54342800D01*
X50393600Y-54872800D02*
X52933600Y-54872800D01*
X50393600Y-55872800D02*
X50393600Y-54872800D01*
X50643600Y-54342800D02*
X52683600Y-54342800D01*
X50643600Y-55872800D02*
X50643600Y-54872800D01*
X51193600Y-50452800D02*
X51193600Y-49852800D01*
X52133600Y-49852800D02*
X52133600Y-50452800D01*
X52133600Y-50452800D02*
X53733600Y-50452800D01*
X52683600Y-54342800D02*
X52933600Y-54872800D01*
X52683600Y-55872800D02*
X52683600Y-54872800D01*
X52933600Y-54872800D02*
X52933600Y-55872800D01*
X53733600Y-50452800D02*
X53733600Y-49852800D01*
X54313600Y-49852800D02*
X49013600Y-49852800D01*
X54313600Y-55872800D02*
X54313600Y-49852800D01*
%TO.C,U6*%
X87026000Y-70153400D02*
X87026000Y-71153400D01*
X87026000Y-88393400D02*
X87026000Y-87393400D01*
X87806000Y-70153400D02*
X87026000Y-70153400D01*
X87806000Y-88393400D02*
X87026000Y-88393400D01*
X112766000Y-70153400D02*
X106606000Y-70153400D01*
X112766000Y-70153400D02*
X112766000Y-88393400D01*
X112766000Y-88393400D02*
X106351000Y-88393400D01*
X106381000Y-70148400D02*
X105881000Y-70148400D01*
X105881000Y-69648400D01*
X106381000Y-70148400D01*
G36*
X106381000Y-70148400D02*
G01*
X105881000Y-70148400D01*
X105881000Y-69648400D01*
X106381000Y-70148400D01*
G37*
%TO.C,L2*%
X63749133Y-96873600D02*
X64091667Y-96873600D01*
X63749133Y-97893600D02*
X64091667Y-97893600D01*
%TO.C,J2*%
X57232600Y-100534400D02*
X57232600Y-104534400D01*
X57522600Y-99504400D02*
X57522600Y-105524400D01*
X57522600Y-105524400D02*
X62822600Y-105524400D01*
X58102600Y-99504400D02*
X58102600Y-100104400D01*
X58102600Y-100104400D02*
X59702600Y-100104400D01*
X58902600Y-104524400D02*
X59152600Y-103994400D01*
X58902600Y-104524400D02*
X61442600Y-104524400D01*
X58902600Y-105524400D02*
X58902600Y-104524400D01*
X59152600Y-103994400D02*
X61192600Y-103994400D01*
X59152600Y-105524400D02*
X59152600Y-104524400D01*
X59702600Y-100104400D02*
X59702600Y-99504400D01*
X60642600Y-99504400D02*
X60642600Y-100104400D01*
X60642600Y-100104400D02*
X62242600Y-100104400D01*
X61192600Y-103994400D02*
X61442600Y-104524400D01*
X61192600Y-105524400D02*
X61192600Y-104524400D01*
X61442600Y-104524400D02*
X61442600Y-105524400D01*
X62242600Y-100104400D02*
X62242600Y-99504400D01*
X62822600Y-99504400D02*
X57522600Y-99504400D01*
X62822600Y-105524400D02*
X62822600Y-99504400D01*
%TO.C,R6*%
X101880936Y-59615400D02*
X102335064Y-59615400D01*
X101880936Y-61085400D02*
X102335064Y-61085400D01*
%TO.C,R5*%
X87259936Y-101906400D02*
X87714064Y-101906400D01*
X87259936Y-103376400D02*
X87714064Y-103376400D01*
%TO.C,C5*%
X66694267Y-73150000D02*
X66401733Y-73150000D01*
X66694267Y-74170000D02*
X66401733Y-74170000D01*
%TO.C,Q1*%
X96784800Y-47631600D02*
X96784800Y-52272600D01*
X96784800Y-47631600D02*
X107024800Y-47631600D01*
X96784800Y-49141600D02*
X107024800Y-49141600D01*
X96784800Y-52272600D02*
X107024800Y-52272600D01*
X100054800Y-47631600D02*
X100054800Y-49141600D01*
X103755800Y-47631600D02*
X103755800Y-49141600D01*
X107024800Y-47631600D02*
X107024800Y-52272600D01*
%TO.C,L1*%
X59874333Y-73454800D02*
X60216867Y-73454800D01*
X59874333Y-74474800D02*
X60216867Y-74474800D01*
%TO.C,J6*%
X94886000Y-95948400D02*
X94886000Y-101968400D01*
X94886000Y-101968400D02*
X100186000Y-101968400D01*
X95466000Y-101368400D02*
X95466000Y-101968400D01*
X96266000Y-96948400D02*
X96266000Y-95948400D01*
X96516000Y-95948400D02*
X96516000Y-96948400D01*
X96516000Y-97478400D02*
X96266000Y-96948400D01*
X97066000Y-101368400D02*
X95466000Y-101368400D01*
X97066000Y-101968400D02*
X97066000Y-101368400D01*
X98006000Y-101368400D02*
X98006000Y-101968400D01*
X98556000Y-95948400D02*
X98556000Y-96948400D01*
X98556000Y-97478400D02*
X96516000Y-97478400D01*
X98806000Y-95948400D02*
X98806000Y-96948400D01*
X98806000Y-96948400D02*
X96266000Y-96948400D01*
X98806000Y-96948400D02*
X98556000Y-97478400D01*
X99606000Y-101368400D02*
X98006000Y-101368400D01*
X99606000Y-101968400D02*
X99606000Y-101368400D01*
X100186000Y-95948400D02*
X94886000Y-95948400D01*
X100186000Y-101968400D02*
X100186000Y-95948400D01*
X100476000Y-100938400D02*
X100476000Y-96938400D01*
%TO.C,C9*%
X102989748Y-62917400D02*
X103512252Y-62917400D01*
X102989748Y-64387400D02*
X103512252Y-64387400D01*
%TO.C,J3*%
X66439000Y-99864400D02*
X66439000Y-105164400D01*
X66439000Y-102044400D02*
X67039000Y-102044400D01*
X66439000Y-104584400D02*
X67039000Y-104584400D01*
X66439000Y-105164400D02*
X72459000Y-105164400D01*
X67039000Y-100444400D02*
X66439000Y-100444400D01*
X67039000Y-102044400D02*
X67039000Y-100444400D01*
X67039000Y-102984400D02*
X66439000Y-102984400D01*
X67039000Y-104584400D02*
X67039000Y-102984400D01*
X67469000Y-105454400D02*
X71469000Y-105454400D01*
X70929000Y-101494400D02*
X71459000Y-101244400D01*
X70929000Y-103534400D02*
X70929000Y-101494400D01*
X71459000Y-101244400D02*
X72459000Y-101244400D01*
X71459000Y-103784400D02*
X70929000Y-103534400D01*
X71459000Y-103784400D02*
X71459000Y-101244400D01*
X72459000Y-99864400D02*
X66439000Y-99864400D01*
X72459000Y-101494400D02*
X71459000Y-101494400D01*
X72459000Y-103534400D02*
X71459000Y-103534400D01*
X72459000Y-103784400D02*
X71459000Y-103784400D01*
X72459000Y-105164400D02*
X72459000Y-99864400D01*
%TO.C,D1*%
X52896636Y-88340186D02*
G75*
G02*
X52954716Y-85064800I-2096636J1675386D01*
G01*
%TO.C,R4*%
X72416936Y-51106400D02*
X72871064Y-51106400D01*
X72416936Y-52576400D02*
X72871064Y-52576400D01*
%TO.C,J4*%
X78086000Y-48190400D02*
X78086000Y-52190400D01*
X78376000Y-47160400D02*
X78376000Y-53180400D01*
X78376000Y-53180400D02*
X83676000Y-53180400D01*
X78956000Y-47160400D02*
X78956000Y-47760400D01*
X78956000Y-47760400D02*
X80556000Y-47760400D01*
X79756000Y-52180400D02*
X80006000Y-51650400D01*
X79756000Y-52180400D02*
X82296000Y-52180400D01*
X79756000Y-53180400D02*
X79756000Y-52180400D01*
X80006000Y-51650400D02*
X82046000Y-51650400D01*
X80006000Y-53180400D02*
X80006000Y-52180400D01*
X80556000Y-47760400D02*
X80556000Y-47160400D01*
X81496000Y-47160400D02*
X81496000Y-47760400D01*
X81496000Y-47760400D02*
X83096000Y-47760400D01*
X82046000Y-51650400D02*
X82296000Y-52180400D01*
X82046000Y-53180400D02*
X82046000Y-52180400D01*
X82296000Y-52180400D02*
X82296000Y-53180400D01*
X83096000Y-47760400D02*
X83096000Y-47160400D01*
X83676000Y-47160400D02*
X78376000Y-47160400D01*
X83676000Y-53180400D02*
X83676000Y-47160400D01*
%TO.C,R2*%
X67835536Y-93803800D02*
X68289664Y-93803800D01*
X67835536Y-95273800D02*
X68289664Y-95273800D01*
%TO.C,U3*%
X64857000Y-83475200D02*
X64857000Y-84175200D01*
X64857000Y-87695200D02*
X64857000Y-86995200D01*
X65557000Y-83475200D02*
X64857000Y-83475200D01*
X65557000Y-87695200D02*
X64857000Y-87695200D01*
X68377000Y-83475200D02*
X69077000Y-83475200D01*
X68377000Y-87695200D02*
X68777000Y-87695200D01*
X69077000Y-83475200D02*
X69077000Y-84175200D01*
X69077000Y-86995200D02*
X69077000Y-87455200D01*
X69317000Y-88025200D02*
X68837000Y-88025200D01*
X69077000Y-87695200D01*
X69317000Y-88025200D01*
G36*
X69317000Y-88025200D02*
G01*
X68837000Y-88025200D01*
X69077000Y-87695200D01*
X69317000Y-88025200D01*
G37*
%TO.C,C7*%
X61028948Y-62663400D02*
X61551452Y-62663400D01*
X61028948Y-64133400D02*
X61551452Y-64133400D01*
%TD*%
M02*
