%TF.GenerationSoftware,KiCad,Pcbnew,8.0.8*%
%TF.CreationDate,2025-03-31T15:18:46-05:00*%
%TF.ProjectId,group1_battlebot,67726f75-7031-45f6-9261-74746c65626f,rev?*%
%TF.SameCoordinates,Original*%
%TF.FileFunction,Copper,L2,Bot*%
%TF.FilePolarity,Positive*%
%FSLAX46Y46*%
G04 Gerber Fmt 4.6, Leading zero omitted, Abs format (unit mm)*
G04 Created by KiCad (PCBNEW 8.0.8) date 2025-03-31 15:18:46*
%MOMM*%
%LPD*%
G01*
G04 APERTURE LIST*
G04 Aperture macros list*
%AMRoundRect*
0 Rectangle with rounded corners*
0 $1 Rounding radius*
0 $2 $3 $4 $5 $6 $7 $8 $9 X,Y pos of 4 corners*
0 Add a 4 corners polygon primitive as box body*
4,1,4,$2,$3,$4,$5,$6,$7,$8,$9,$2,$3,0*
0 Add four circle primitives for the rounded corners*
1,1,$1+$1,$2,$3*
1,1,$1+$1,$4,$5*
1,1,$1+$1,$6,$7*
1,1,$1+$1,$8,$9*
0 Add four rect primitives between the rounded corners*
20,1,$1+$1,$2,$3,$4,$5,0*
20,1,$1+$1,$4,$5,$6,$7,0*
20,1,$1+$1,$6,$7,$8,$9,0*
20,1,$1+$1,$8,$9,$2,$3,0*%
G04 Aperture macros list end*
%TA.AperFunction,ComponentPad*%
%ADD10RoundRect,0.250000X-0.620000X-0.845000X0.620000X-0.845000X0.620000X0.845000X-0.620000X0.845000X0*%
%TD*%
%TA.AperFunction,ComponentPad*%
%ADD11O,1.740000X2.190000*%
%TD*%
%TA.AperFunction,ComponentPad*%
%ADD12R,2.000000X2.000000*%
%TD*%
%TA.AperFunction,ComponentPad*%
%ADD13C,2.000000*%
%TD*%
%TA.AperFunction,ComponentPad*%
%ADD14R,2.400000X2.400000*%
%TD*%
%TA.AperFunction,ComponentPad*%
%ADD15C,2.400000*%
%TD*%
%TA.AperFunction,ComponentPad*%
%ADD16RoundRect,0.250000X0.845000X-0.620000X0.845000X0.620000X-0.845000X0.620000X-0.845000X-0.620000X0*%
%TD*%
%TA.AperFunction,ComponentPad*%
%ADD17O,2.190000X1.740000*%
%TD*%
%TA.AperFunction,HeatsinkPad*%
%ADD18C,0.600000*%
%TD*%
%TA.AperFunction,ComponentPad*%
%ADD19R,1.905000X2.000000*%
%TD*%
%TA.AperFunction,ComponentPad*%
%ADD20O,1.905000X2.000000*%
%TD*%
%TA.AperFunction,ComponentPad*%
%ADD21RoundRect,0.250000X0.620000X0.845000X-0.620000X0.845000X-0.620000X-0.845000X0.620000X-0.845000X0*%
%TD*%
%TA.AperFunction,ComponentPad*%
%ADD22R,3.200000X3.200000*%
%TD*%
%TA.AperFunction,ComponentPad*%
%ADD23O,3.200000X3.200000*%
%TD*%
%TA.AperFunction,HeatsinkPad*%
%ADD24C,0.500000*%
%TD*%
%TA.AperFunction,HeatsinkPad*%
%ADD25R,2.100000X2.100000*%
%TD*%
%TA.AperFunction,ViaPad*%
%ADD26C,0.600000*%
%TD*%
%TA.AperFunction,Conductor*%
%ADD27C,0.508000*%
%TD*%
%TA.AperFunction,Conductor*%
%ADD28C,0.254000*%
%TD*%
%TA.AperFunction,Conductor*%
%ADD29C,0.200000*%
%TD*%
G04 APERTURE END LIST*
D10*
%TO.P,J7,1,Pin_1*%
%TO.N,/3v3 output*%
X90424000Y-49809400D03*
D11*
%TO.P,J7,2,Pin_2*%
%TO.N,GND*%
X92964000Y-49809400D03*
%TD*%
D12*
%TO.P,C1,1*%
%TO.N,/12v_out*%
X40228123Y-83261200D03*
D13*
%TO.P,C1,2*%
%TO.N,GND*%
X45228123Y-83261200D03*
%TD*%
D14*
%TO.P,C2,1*%
%TO.N,/3v3 output*%
X59144041Y-54254400D03*
D15*
%TO.P,C2,2*%
%TO.N,GND*%
X64144041Y-54254400D03*
%TD*%
D10*
%TO.P,J9,1,Pin_1*%
%TO.N,Net-(J9-Pin_1)*%
X80949800Y-83662200D03*
D11*
%TO.P,J9,2,Pin_2*%
%TO.N,Net-(J9-Pin_2)*%
X83489800Y-83662200D03*
%TD*%
D16*
%TO.P,J5,1,Pin_1*%
%TO.N,Net-(J5-Pin_1)*%
X79395000Y-103530400D03*
D17*
%TO.P,J5,2,Pin_2*%
%TO.N,GND*%
X79395000Y-100990400D03*
%TD*%
D10*
%TO.P,J10,1,Pin_1*%
%TO.N,Net-(J10-Pin_1)*%
X80949800Y-93218000D03*
D11*
%TO.P,J10,2,Pin_2*%
%TO.N,Net-(J10-Pin_2)*%
X83489800Y-93218000D03*
%TO.P,J10,3,Pin_3*%
%TO.N,Net-(J10-Pin_3)*%
X86029800Y-93218000D03*
%TD*%
D10*
%TO.P,J8,1,Pin_1*%
%TO.N,Net-(J8-Pin_1)*%
X111658400Y-50190400D03*
D11*
%TO.P,J8,2,Pin_2*%
%TO.N,N/C*%
X114198400Y-50190400D03*
%TD*%
D12*
%TO.P,SW1,1,A*%
%TO.N,unconnected-(SW1-A-Pad1)*%
X52832000Y-72923400D03*
D13*
%TO.P,SW1,2,B*%
%TO.N,Net-(J1-Pin_2)*%
X47752000Y-72923400D03*
%TO.P,SW1,3,C*%
%TO.N,/12v_out*%
X42672000Y-72923400D03*
%TD*%
D10*
%TO.P,J1,1,Pin_1*%
%TO.N,GND*%
X50393600Y-52882800D03*
D11*
%TO.P,J1,2,Pin_2*%
%TO.N,Net-(J1-Pin_2)*%
X52933600Y-52882800D03*
%TD*%
D18*
%TO.P,U6,39,GND*%
%TO.N,GND*%
X98136000Y-76373400D03*
X96736000Y-76373400D03*
X98836000Y-77073400D03*
X97436000Y-77073400D03*
X96036000Y-77073400D03*
X98136000Y-77748400D03*
X96736000Y-77748400D03*
X98836000Y-78473400D03*
X97436000Y-78473400D03*
X96036000Y-78473400D03*
X98136000Y-79173400D03*
X96736000Y-79173400D03*
%TD*%
D10*
%TO.P,J2,1,Pin_1*%
%TO.N,Net-(J2-Pin_1)*%
X58902600Y-102534400D03*
D11*
%TO.P,J2,2,Pin_2*%
%TO.N,Net-(J2-Pin_2)*%
X61442600Y-102534400D03*
%TD*%
D19*
%TO.P,Q1,1,G*%
%TO.N,Net-(Q1-G)*%
X99364800Y-50901600D03*
D20*
%TO.P,Q1,2,D*%
%TO.N,/12v_out*%
X101904800Y-50901600D03*
%TO.P,Q1,3,S*%
%TO.N,Net-(J8-Pin_1)*%
X104444800Y-50901600D03*
%TD*%
D21*
%TO.P,J6,1,Pin_1*%
%TO.N,Net-(J6-Pin_1)*%
X98806000Y-98938400D03*
D11*
%TO.P,J6,2,Pin_2*%
%TO.N,Net-(J6-Pin_2)*%
X96266000Y-98938400D03*
%TD*%
D16*
%TO.P,J3,1,Pin_1*%
%TO.N,Net-(J3-Pin_1)*%
X69469000Y-103784400D03*
D17*
%TO.P,J3,2,Pin_2*%
%TO.N,Net-(J3-Pin_2)*%
X69469000Y-101244400D03*
%TD*%
D22*
%TO.P,D1,1,K*%
%TO.N,Net-(D1-K)*%
X50800000Y-86664800D03*
D23*
%TO.P,D1,2,A*%
%TO.N,GND*%
X54610000Y-86664800D03*
%TD*%
D10*
%TO.P,J4,1,Pin_1*%
%TO.N,Net-(J4-Pin_1)*%
X79756000Y-50190400D03*
D11*
%TO.P,J4,2,Pin_2*%
%TO.N,GND*%
X82296000Y-50190400D03*
%TD*%
D24*
%TO.P,U3,17,GND*%
%TO.N,GND*%
X67767000Y-86385200D03*
X67767000Y-85585200D03*
X67767000Y-84785200D03*
X66967000Y-86385200D03*
X66967000Y-85585200D03*
D25*
X66967000Y-85585200D03*
D24*
X66967000Y-84785200D03*
X66167000Y-86385200D03*
X66167000Y-85585200D03*
X66167000Y-84785200D03*
%TD*%
D26*
%TO.N,/12v_out*%
X101447600Y-54914800D03*
X81381600Y-66192400D03*
X60452000Y-85725000D03*
X57454800Y-77978000D03*
%TO.N,GND*%
X67995800Y-63550800D03*
X90170000Y-55778400D03*
X58724800Y-66954400D03*
X100406200Y-85267800D03*
X69875400Y-82448400D03*
X70688200Y-87985600D03*
X62839600Y-87020400D03*
X91592400Y-84963000D03*
%TO.N,/nSleep*%
X76784200Y-68376800D03*
X59639200Y-91592400D03*
%TO.N,/Bluetooth*%
X89230200Y-99161600D03*
X94056200Y-92252800D03*
%TO.N,/HBridgeA1*%
X66642000Y-89019400D03*
X82793400Y-78486000D03*
%TO.N,/HBridgeA2*%
X84734400Y-67233800D03*
X66827400Y-90982800D03*
%TD*%
D27*
%TO.N,/12v_out*%
X101447600Y-54914800D02*
X92659200Y-54914800D01*
X57454800Y-77978000D02*
X60452000Y-80975200D01*
X92659200Y-54914800D02*
X81381600Y-66192400D01*
X60452000Y-80975200D02*
X60452000Y-85725000D01*
D28*
%TO.N,GND*%
X91592400Y-84963000D02*
X100101400Y-84963000D01*
X67995800Y-63550800D02*
X62128400Y-63550800D01*
X62128400Y-63550800D02*
X58724800Y-66954400D01*
X100101400Y-84963000D02*
X100406200Y-85267800D01*
D29*
%TO.N,/nSleep*%
X59639200Y-91592400D02*
X59639200Y-87274400D01*
X76784200Y-70241329D02*
X76784200Y-68376800D01*
X60588600Y-86325000D02*
X60700529Y-86325000D01*
X59639200Y-87274400D02*
X60588600Y-86325000D01*
X60700529Y-86325000D02*
X76784200Y-70241329D01*
%TO.N,/Bluetooth*%
X94056200Y-94335600D02*
X89230200Y-99161600D01*
X94056200Y-92252800D02*
X94056200Y-94335600D01*
%TO.N,/HBridgeA1*%
X75666600Y-83618271D02*
X80798871Y-78486000D01*
X67945000Y-90424000D02*
X75666600Y-90424000D01*
X66642000Y-89019400D02*
X66642000Y-89121000D01*
X66642000Y-89121000D02*
X67945000Y-90424000D01*
X75666600Y-90424000D02*
X75666600Y-83618271D01*
X80798871Y-78486000D02*
X82793400Y-78486000D01*
D28*
%TO.N,/HBridgeA2*%
X66827400Y-90982800D02*
X84734400Y-90982800D01*
X84734400Y-90982800D02*
X84734400Y-67233800D01*
%TD*%
%TA.AperFunction,Conductor*%
%TO.N,GND*%
G36*
X121850840Y-45347624D02*
G01*
X121917823Y-45367490D01*
X121963434Y-45420419D01*
X121974500Y-45471623D01*
X121974500Y-45485688D01*
X122006161Y-45726185D01*
X122068947Y-45960504D01*
X122143584Y-46140693D01*
X122161776Y-46184612D01*
X122283064Y-46394689D01*
X122283066Y-46394692D01*
X122283067Y-46394693D01*
X122430733Y-46587136D01*
X122430739Y-46587143D01*
X122602256Y-46758660D01*
X122602263Y-46758666D01*
X122715321Y-46845418D01*
X122794711Y-46906336D01*
X123004788Y-47027624D01*
X123228900Y-47120454D01*
X123463211Y-47183238D01*
X123643586Y-47206984D01*
X123703711Y-47214900D01*
X123703712Y-47214900D01*
X123946289Y-47214900D01*
X123994388Y-47208567D01*
X124186789Y-47183238D01*
X124421100Y-47120454D01*
X124645212Y-47027624D01*
X124855289Y-46906336D01*
X125047738Y-46758665D01*
X125219265Y-46587138D01*
X125366936Y-46394689D01*
X125488224Y-46184612D01*
X125581054Y-45960500D01*
X125643838Y-45726189D01*
X125675500Y-45485688D01*
X125675500Y-45482369D01*
X125695185Y-45415330D01*
X125747989Y-45369575D01*
X125799834Y-45358369D01*
X127893074Y-45364065D01*
X127960059Y-45383932D01*
X128005670Y-45436861D01*
X128016734Y-45487324D01*
X128396253Y-108993489D01*
X128376969Y-109060645D01*
X128324440Y-109106715D01*
X128272087Y-109118230D01*
X125799332Y-109114879D01*
X125732319Y-109095103D01*
X125686636Y-109042238D01*
X125675500Y-108990879D01*
X125675500Y-108870111D01*
X125643838Y-108629614D01*
X125643838Y-108629611D01*
X125581054Y-108395300D01*
X125488224Y-108171188D01*
X125366936Y-107961111D01*
X125219265Y-107768662D01*
X125219260Y-107768656D01*
X125047743Y-107597139D01*
X125047736Y-107597133D01*
X124855293Y-107449467D01*
X124855292Y-107449466D01*
X124855289Y-107449464D01*
X124645212Y-107328176D01*
X124645205Y-107328173D01*
X124421104Y-107235347D01*
X124186785Y-107172561D01*
X123946289Y-107140900D01*
X123946288Y-107140900D01*
X123703712Y-107140900D01*
X123703711Y-107140900D01*
X123463214Y-107172561D01*
X123228895Y-107235347D01*
X123004794Y-107328173D01*
X123004785Y-107328177D01*
X122794706Y-107449467D01*
X122602263Y-107597133D01*
X122602256Y-107597139D01*
X122430739Y-107768656D01*
X122430733Y-107768663D01*
X122283067Y-107961106D01*
X122161777Y-108171185D01*
X122161773Y-108171194D01*
X122068947Y-108395295D01*
X122006161Y-108629614D01*
X121974500Y-108870111D01*
X121974500Y-108985528D01*
X121954815Y-109052567D01*
X121902011Y-109098322D01*
X121850332Y-109109528D01*
X36645332Y-108994074D01*
X36578319Y-108974299D01*
X36532636Y-108921433D01*
X36522377Y-108874122D01*
X36521766Y-108874163D01*
X36521500Y-108870117D01*
X36521500Y-108870112D01*
X36489838Y-108629611D01*
X36427054Y-108395300D01*
X36334224Y-108171188D01*
X36212936Y-107961111D01*
X36065265Y-107768662D01*
X36065260Y-107768656D01*
X35893743Y-107597139D01*
X35893736Y-107597133D01*
X35701293Y-107449467D01*
X35701292Y-107449466D01*
X35701289Y-107449464D01*
X35491212Y-107328176D01*
X35491205Y-107328173D01*
X35267104Y-107235347D01*
X35032785Y-107172561D01*
X34792282Y-107140899D01*
X34788237Y-107140634D01*
X34788347Y-107138946D01*
X34727961Y-107121215D01*
X34682206Y-107068411D01*
X34671000Y-107016900D01*
X34671000Y-101638847D01*
X57524100Y-101638847D01*
X57524100Y-103429937D01*
X57524101Y-103429953D01*
X57534713Y-103533827D01*
X57581910Y-103676260D01*
X57590485Y-103702138D01*
X57683570Y-103853052D01*
X57808948Y-103978430D01*
X57959862Y-104071515D01*
X58128174Y-104127287D01*
X58232055Y-104137900D01*
X59573144Y-104137899D01*
X59677026Y-104127287D01*
X59845338Y-104071515D01*
X59996252Y-103978430D01*
X60121630Y-103853052D01*
X60214715Y-103702138D01*
X60214715Y-103702135D01*
X60216746Y-103698844D01*
X60268694Y-103652120D01*
X60337657Y-103640897D01*
X60401739Y-103668741D01*
X60409966Y-103676260D01*
X60544567Y-103810861D01*
X60720108Y-103938399D01*
X60913440Y-104036906D01*
X61119800Y-104103957D01*
X61200166Y-104116685D01*
X61334105Y-104137900D01*
X61334110Y-104137900D01*
X61551095Y-104137900D01*
X61670151Y-104119042D01*
X61765400Y-104103957D01*
X61971760Y-104036906D01*
X62165092Y-103938399D01*
X62340633Y-103810861D01*
X62494061Y-103657433D01*
X62621599Y-103481892D01*
X62720106Y-103288560D01*
X62787157Y-103082200D01*
X62802242Y-102986951D01*
X62821100Y-102867895D01*
X62821100Y-102200904D01*
X62787157Y-101986603D01*
X62787157Y-101986600D01*
X62720106Y-101780240D01*
X62621599Y-101586908D01*
X62494061Y-101411367D01*
X62340633Y-101257939D01*
X62172666Y-101135904D01*
X67865500Y-101135904D01*
X67865500Y-101352895D01*
X67894339Y-101534974D01*
X67899443Y-101567200D01*
X67966494Y-101773560D01*
X68065001Y-101966892D01*
X68192539Y-102142433D01*
X68192541Y-102142435D01*
X68327139Y-102277033D01*
X68360624Y-102338356D01*
X68355640Y-102408048D01*
X68313768Y-102463981D01*
X68304556Y-102470252D01*
X68150348Y-102565369D01*
X68024971Y-102690746D01*
X67931886Y-102841659D01*
X67931884Y-102841664D01*
X67876113Y-103009972D01*
X67865500Y-103113847D01*
X67865500Y-104454937D01*
X67865501Y-104454953D01*
X67876113Y-104558827D01*
X67931884Y-104727135D01*
X67931885Y-104727138D01*
X68024970Y-104878052D01*
X68150348Y-105003430D01*
X68301262Y-105096515D01*
X68469574Y-105152287D01*
X68573455Y-105162900D01*
X70364544Y-105162899D01*
X70468426Y-105152287D01*
X70636738Y-105096515D01*
X70787652Y-105003430D01*
X70913030Y-104878052D01*
X71006115Y-104727138D01*
X71061887Y-104558826D01*
X71072500Y-104454945D01*
X71072499Y-103113856D01*
X71061887Y-103009974D01*
X71012141Y-102859847D01*
X77791500Y-102859847D01*
X77791500Y-104200937D01*
X77791501Y-104200953D01*
X77802113Y-104304826D01*
X77857885Y-104473138D01*
X77950970Y-104624052D01*
X78076348Y-104749430D01*
X78227262Y-104842515D01*
X78395574Y-104898287D01*
X78499455Y-104908900D01*
X80290544Y-104908899D01*
X80394426Y-104898287D01*
X80562738Y-104842515D01*
X80713652Y-104749430D01*
X80839030Y-104624052D01*
X80932115Y-104473138D01*
X80987887Y-104304826D01*
X80998500Y-104200945D01*
X80998499Y-103273400D01*
X106456000Y-103273400D01*
X127646000Y-103273400D01*
X127646000Y-55273400D01*
X106456000Y-55273400D01*
X106456000Y-103273400D01*
X80998499Y-103273400D01*
X80998499Y-102859856D01*
X80987887Y-102755974D01*
X80932115Y-102587662D01*
X80839030Y-102436748D01*
X80713652Y-102311370D01*
X80562738Y-102218285D01*
X80562736Y-102218284D01*
X80556591Y-102214494D01*
X80557484Y-102213044D01*
X80511783Y-102172795D01*
X80492639Y-102105599D01*
X80512863Y-102038720D01*
X80528954Y-102018916D01*
X80664977Y-101882893D01*
X80791728Y-101708436D01*
X80889627Y-101516301D01*
X80956266Y-101311209D01*
X80967481Y-101240400D01*
X79937709Y-101240400D01*
X79949452Y-101220061D01*
X79990000Y-101068733D01*
X79990000Y-100912067D01*
X79949452Y-100760739D01*
X79937709Y-100740400D01*
X80967481Y-100740400D01*
X80956266Y-100669590D01*
X80889627Y-100464498D01*
X80791728Y-100272363D01*
X80664974Y-100097903D01*
X80664974Y-100097902D01*
X80512497Y-99945425D01*
X80338036Y-99818671D01*
X80145901Y-99720772D01*
X79940809Y-99654134D01*
X79727820Y-99620400D01*
X79645000Y-99620400D01*
X79645000Y-100447690D01*
X79624661Y-100435948D01*
X79473333Y-100395400D01*
X79316667Y-100395400D01*
X79165339Y-100435948D01*
X79145000Y-100447690D01*
X79145000Y-99620400D01*
X79062180Y-99620400D01*
X78849190Y-99654134D01*
X78644098Y-99720772D01*
X78451963Y-99818671D01*
X78277503Y-99945425D01*
X78277502Y-99945425D01*
X78125025Y-100097902D01*
X78125025Y-100097903D01*
X77998271Y-100272363D01*
X77900372Y-100464498D01*
X77833733Y-100669590D01*
X77822519Y-100740400D01*
X78852291Y-100740400D01*
X78840548Y-100760739D01*
X78800000Y-100912067D01*
X78800000Y-101068733D01*
X78840548Y-101220061D01*
X78852291Y-101240400D01*
X77822519Y-101240400D01*
X77833733Y-101311209D01*
X77900372Y-101516301D01*
X77998271Y-101708436D01*
X78125025Y-101882896D01*
X78125025Y-101882897D01*
X78261045Y-102018917D01*
X78294530Y-102080240D01*
X78289546Y-102149932D01*
X78247674Y-102205865D01*
X78233370Y-102214431D01*
X78233409Y-102214494D01*
X78227263Y-102218284D01*
X78227262Y-102218285D01*
X78132017Y-102277033D01*
X78076346Y-102311371D01*
X77950971Y-102436746D01*
X77857886Y-102587659D01*
X77857884Y-102587664D01*
X77802113Y-102755972D01*
X77791500Y-102859847D01*
X71012141Y-102859847D01*
X71006115Y-102841662D01*
X70913030Y-102690748D01*
X70787652Y-102565370D01*
X70787648Y-102565367D01*
X70633444Y-102470252D01*
X70586719Y-102418304D01*
X70575498Y-102349342D01*
X70603341Y-102285260D01*
X70610838Y-102277055D01*
X70745461Y-102142433D01*
X70872999Y-101966892D01*
X70971506Y-101773560D01*
X71038557Y-101567200D01*
X71060917Y-101426024D01*
X71072500Y-101352895D01*
X71072500Y-101135904D01*
X71038557Y-100921603D01*
X71038557Y-100921600D01*
X70971506Y-100715240D01*
X70872999Y-100521908D01*
X70745461Y-100346367D01*
X70592033Y-100192939D01*
X70416492Y-100065401D01*
X70223160Y-99966894D01*
X70016800Y-99899843D01*
X70016798Y-99899842D01*
X70016796Y-99899842D01*
X69802495Y-99865900D01*
X69802490Y-99865900D01*
X69135510Y-99865900D01*
X69135505Y-99865900D01*
X68921203Y-99899842D01*
X68714837Y-99966895D01*
X68521507Y-100065401D01*
X68421355Y-100138166D01*
X68345967Y-100192939D01*
X68345965Y-100192941D01*
X68345964Y-100192941D01*
X68192541Y-100346364D01*
X68192541Y-100346365D01*
X68192539Y-100346367D01*
X68137766Y-100421755D01*
X68065001Y-100521907D01*
X67966495Y-100715237D01*
X67899442Y-100921603D01*
X67865500Y-101135904D01*
X62172666Y-101135904D01*
X62165092Y-101130401D01*
X61971760Y-101031894D01*
X61765400Y-100964843D01*
X61765398Y-100964842D01*
X61765396Y-100964842D01*
X61551095Y-100930900D01*
X61551090Y-100930900D01*
X61334110Y-100930900D01*
X61334105Y-100930900D01*
X61119803Y-100964842D01*
X60913437Y-101031895D01*
X60720107Y-101130401D01*
X60544568Y-101257938D01*
X60409966Y-101392540D01*
X60348643Y-101426024D01*
X60278951Y-101421040D01*
X60223018Y-101379168D01*
X60216747Y-101369955D01*
X60121632Y-101215751D01*
X60121629Y-101215747D01*
X59996253Y-101090371D01*
X59996252Y-101090370D01*
X59845338Y-100997285D01*
X59747430Y-100964842D01*
X59677027Y-100941513D01*
X59573145Y-100930900D01*
X58232062Y-100930900D01*
X58232046Y-100930901D01*
X58128172Y-100941513D01*
X57959864Y-100997284D01*
X57959859Y-100997286D01*
X57808946Y-101090371D01*
X57683571Y-101215746D01*
X57590486Y-101366659D01*
X57590484Y-101366664D01*
X57534713Y-101534972D01*
X57524100Y-101638847D01*
X34671000Y-101638847D01*
X34671000Y-99161596D01*
X88416584Y-99161596D01*
X88416584Y-99161603D01*
X88436981Y-99342641D01*
X88436982Y-99342646D01*
X88436983Y-99342648D01*
X88497157Y-99514615D01*
X88594089Y-99668881D01*
X88722919Y-99797711D01*
X88877185Y-99894643D01*
X89049153Y-99954817D01*
X89049158Y-99954818D01*
X89230196Y-99975216D01*
X89230200Y-99975216D01*
X89230204Y-99975216D01*
X89411241Y-99954818D01*
X89411244Y-99954817D01*
X89411247Y-99954817D01*
X89583215Y-99894643D01*
X89737481Y-99797711D01*
X89866311Y-99668881D01*
X89963243Y-99514615D01*
X90023417Y-99342647D01*
X90032998Y-99257605D01*
X90060063Y-99193195D01*
X90068527Y-99183820D01*
X90647443Y-98604904D01*
X94887500Y-98604904D01*
X94887500Y-99271895D01*
X94921442Y-99486196D01*
X94921443Y-99486200D01*
X94988494Y-99692560D01*
X95087001Y-99885892D01*
X95214539Y-100061433D01*
X95367967Y-100214861D01*
X95543508Y-100342399D01*
X95736840Y-100440906D01*
X95943200Y-100507957D01*
X96023566Y-100520685D01*
X96157505Y-100541900D01*
X96157510Y-100541900D01*
X96374495Y-100541900D01*
X96500722Y-100521907D01*
X96588800Y-100507957D01*
X96795160Y-100440906D01*
X96988492Y-100342399D01*
X97164033Y-100214861D01*
X97298636Y-100080257D01*
X97359955Y-100046775D01*
X97429647Y-100051759D01*
X97485581Y-100093630D01*
X97491852Y-100102844D01*
X97586967Y-100257048D01*
X97586970Y-100257052D01*
X97712348Y-100382430D01*
X97863262Y-100475515D01*
X98031574Y-100531287D01*
X98135455Y-100541900D01*
X99476544Y-100541899D01*
X99580426Y-100531287D01*
X99748738Y-100475515D01*
X99899652Y-100382430D01*
X100025030Y-100257052D01*
X100118115Y-100106138D01*
X100173887Y-99937826D01*
X100184500Y-99833945D01*
X100184499Y-98042856D01*
X100173887Y-97938974D01*
X100118115Y-97770662D01*
X100025030Y-97619748D01*
X99899652Y-97494370D01*
X99748738Y-97401285D01*
X99650830Y-97368842D01*
X99580427Y-97345513D01*
X99476545Y-97334900D01*
X98135462Y-97334900D01*
X98135446Y-97334901D01*
X98031572Y-97345513D01*
X97863264Y-97401284D01*
X97863259Y-97401286D01*
X97712346Y-97494371D01*
X97586969Y-97619748D01*
X97491852Y-97773956D01*
X97439904Y-97820680D01*
X97370941Y-97831901D01*
X97306859Y-97804058D01*
X97298633Y-97796539D01*
X97164035Y-97661941D01*
X97164033Y-97661939D01*
X96988492Y-97534401D01*
X96795160Y-97435894D01*
X96588800Y-97368843D01*
X96588798Y-97368842D01*
X96588796Y-97368842D01*
X96374495Y-97334900D01*
X96374490Y-97334900D01*
X96157510Y-97334900D01*
X96157505Y-97334900D01*
X95943203Y-97368842D01*
X95736837Y-97435895D01*
X95543507Y-97534401D01*
X95443355Y-97607166D01*
X95367967Y-97661939D01*
X95367965Y-97661941D01*
X95367964Y-97661941D01*
X95214541Y-97815364D01*
X95214541Y-97815365D01*
X95214539Y-97815367D01*
X95159766Y-97890755D01*
X95087001Y-97990907D01*
X94988495Y-98184237D01*
X94921442Y-98390603D01*
X94887500Y-98604904D01*
X90647443Y-98604904D01*
X94543122Y-94709227D01*
X94623232Y-94570472D01*
X94664700Y-94415710D01*
X94664700Y-94255490D01*
X94664700Y-92838093D01*
X94684385Y-92771054D01*
X94691755Y-92760777D01*
X94692305Y-92760086D01*
X94692311Y-92760081D01*
X94789243Y-92605815D01*
X94849417Y-92433847D01*
X94854851Y-92385618D01*
X94869816Y-92252803D01*
X94869816Y-92252796D01*
X94849418Y-92071758D01*
X94849417Y-92071753D01*
X94805210Y-91945417D01*
X94789243Y-91899785D01*
X94692311Y-91745519D01*
X94563481Y-91616689D01*
X94527178Y-91593878D01*
X94409217Y-91519758D01*
X94409216Y-91519757D01*
X94409215Y-91519757D01*
X94324406Y-91490081D01*
X94237246Y-91459582D01*
X94237241Y-91459581D01*
X94056204Y-91439184D01*
X94056196Y-91439184D01*
X93875158Y-91459581D01*
X93875153Y-91459582D01*
X93703182Y-91519758D01*
X93548918Y-91616689D01*
X93420089Y-91745518D01*
X93323158Y-91899782D01*
X93262982Y-92071753D01*
X93262981Y-92071758D01*
X93242584Y-92252796D01*
X93242584Y-92252803D01*
X93262981Y-92433841D01*
X93262982Y-92433846D01*
X93323158Y-92605817D01*
X93420086Y-92760077D01*
X93420645Y-92760777D01*
X93420864Y-92761315D01*
X93423794Y-92765977D01*
X93422977Y-92766490D01*
X93447055Y-92825463D01*
X93447700Y-92838093D01*
X93447700Y-94032188D01*
X93428015Y-94099227D01*
X93411381Y-94119869D01*
X89207988Y-98323261D01*
X89146665Y-98356746D01*
X89134192Y-98358800D01*
X89049158Y-98368381D01*
X88877183Y-98428557D01*
X88722918Y-98525489D01*
X88594089Y-98654318D01*
X88497158Y-98808582D01*
X88436982Y-98980553D01*
X88436981Y-98980558D01*
X88416584Y-99161596D01*
X34671000Y-99161596D01*
X34671000Y-85016145D01*
X48691500Y-85016145D01*
X48691500Y-88313454D01*
X48698011Y-88374002D01*
X48698011Y-88374004D01*
X48749111Y-88511004D01*
X48836739Y-88628061D01*
X48953796Y-88715689D01*
X49090799Y-88766789D01*
X49118050Y-88769718D01*
X49151345Y-88773299D01*
X49151362Y-88773300D01*
X52448638Y-88773300D01*
X52448654Y-88773299D01*
X52475692Y-88770391D01*
X52509201Y-88766789D01*
X52646204Y-88715689D01*
X52763261Y-88628061D01*
X52850889Y-88511004D01*
X52901989Y-88374001D01*
X52905591Y-88340492D01*
X52908499Y-88313454D01*
X52908500Y-88313437D01*
X52908500Y-88234064D01*
X52928185Y-88167025D01*
X52980989Y-88121270D01*
X53050147Y-88111326D01*
X53113703Y-88140351D01*
X53123124Y-88149428D01*
X53173288Y-88203142D01*
X53396135Y-88384441D01*
X53396146Y-88384448D01*
X53641607Y-88533717D01*
X53905108Y-88648171D01*
X54181737Y-88725679D01*
X54181746Y-88725681D01*
X54359999Y-88750180D01*
X54360000Y-88750180D01*
X54360000Y-87427160D01*
X54376649Y-87434057D01*
X54531207Y-87464800D01*
X54688793Y-87464800D01*
X54843351Y-87434057D01*
X54860000Y-87427160D01*
X54860000Y-88750180D01*
X55038253Y-88725681D01*
X55038262Y-88725679D01*
X55314891Y-88648171D01*
X55578392Y-88533717D01*
X55823853Y-88384448D01*
X55823864Y-88384441D01*
X56046711Y-88203141D01*
X56242795Y-87993186D01*
X56242795Y-87993185D01*
X56408472Y-87758476D01*
X56540644Y-87503395D01*
X56636849Y-87232702D01*
X56636853Y-87232688D01*
X56695302Y-86951419D01*
X56697807Y-86914800D01*
X55372361Y-86914800D01*
X55379257Y-86898151D01*
X55410000Y-86743593D01*
X55410000Y-86586007D01*
X55379257Y-86431449D01*
X55372361Y-86414800D01*
X56697807Y-86414800D01*
X56697807Y-86414799D01*
X56695302Y-86378180D01*
X56636853Y-86096911D01*
X56636849Y-86096897D01*
X56540644Y-85826204D01*
X56408472Y-85571123D01*
X56242795Y-85336414D01*
X56242795Y-85336413D01*
X56046711Y-85126458D01*
X55823864Y-84945158D01*
X55823853Y-84945151D01*
X55578392Y-84795882D01*
X55314891Y-84681428D01*
X55038262Y-84603920D01*
X55038255Y-84603919D01*
X54860000Y-84579418D01*
X54860000Y-85902439D01*
X54843351Y-85895543D01*
X54688793Y-85864800D01*
X54531207Y-85864800D01*
X54376649Y-85895543D01*
X54360000Y-85902439D01*
X54360000Y-84579418D01*
X54181744Y-84603919D01*
X54181737Y-84603920D01*
X53905108Y-84681428D01*
X53641607Y-84795882D01*
X53396146Y-84945151D01*
X53396135Y-84945158D01*
X53173292Y-85126454D01*
X53123124Y-85180172D01*
X53062979Y-85215731D01*
X52993158Y-85213128D01*
X52935828Y-85173191D01*
X52909190Y-85108598D01*
X52908500Y-85095535D01*
X52908500Y-85016162D01*
X52908499Y-85016145D01*
X52904704Y-84980852D01*
X52901989Y-84955599D01*
X52901075Y-84953149D01*
X52855118Y-84829935D01*
X52850889Y-84818596D01*
X52763261Y-84701539D01*
X52646204Y-84613911D01*
X52631490Y-84608423D01*
X52509203Y-84562811D01*
X52448654Y-84556300D01*
X52448638Y-84556300D01*
X49151362Y-84556300D01*
X49151345Y-84556300D01*
X49090797Y-84562811D01*
X49090795Y-84562811D01*
X48953795Y-84613911D01*
X48836739Y-84701539D01*
X48749111Y-84818595D01*
X48698011Y-84955595D01*
X48698011Y-84955597D01*
X48691500Y-85016145D01*
X34671000Y-85016145D01*
X34671000Y-82212545D01*
X38719623Y-82212545D01*
X38719623Y-84309854D01*
X38726134Y-84370402D01*
X38726134Y-84370404D01*
X38758988Y-84458485D01*
X38777234Y-84507404D01*
X38864862Y-84624461D01*
X38981919Y-84712089D01*
X39118922Y-84763189D01*
X39146173Y-84766118D01*
X39179468Y-84769699D01*
X39179485Y-84769700D01*
X41276761Y-84769700D01*
X41276777Y-84769699D01*
X41303815Y-84766791D01*
X41337324Y-84763189D01*
X41474327Y-84712089D01*
X41591384Y-84624461D01*
X41679012Y-84507404D01*
X41730112Y-84370401D01*
X41733714Y-84336892D01*
X41736622Y-84309854D01*
X41736623Y-84309837D01*
X41736623Y-83261194D01*
X43722982Y-83261194D01*
X43722982Y-83261205D01*
X43743508Y-83508929D01*
X43743510Y-83508938D01*
X43804535Y-83749917D01*
X43904390Y-83977567D01*
X44004685Y-84131081D01*
X44745160Y-83390608D01*
X44762198Y-83454193D01*
X44828024Y-83568207D01*
X44921116Y-83661299D01*
X45035130Y-83727125D01*
X45098714Y-83744162D01*
X44358066Y-84484809D01*
X44404891Y-84521255D01*
X44404894Y-84521257D01*
X44623508Y-84639564D01*
X44623519Y-84639569D01*
X44858629Y-84720283D01*
X45103830Y-84761200D01*
X45352416Y-84761200D01*
X45597616Y-84720283D01*
X45832726Y-84639569D01*
X45832737Y-84639564D01*
X46051353Y-84521256D01*
X46051359Y-84521251D01*
X46098178Y-84484810D01*
X46098179Y-84484809D01*
X45357531Y-83744162D01*
X45421116Y-83727125D01*
X45535130Y-83661299D01*
X45628222Y-83568207D01*
X45694048Y-83454193D01*
X45711085Y-83390609D01*
X46451558Y-84131082D01*
X46551856Y-83977564D01*
X46651710Y-83749917D01*
X46712735Y-83508938D01*
X46712737Y-83508929D01*
X46733264Y-83261205D01*
X46733264Y-83261194D01*
X46712737Y-83013470D01*
X46712735Y-83013461D01*
X46651710Y-82772482D01*
X46551855Y-82544832D01*
X46451558Y-82391316D01*
X45711085Y-83131790D01*
X45694048Y-83068207D01*
X45628222Y-82954193D01*
X45535130Y-82861101D01*
X45421116Y-82795275D01*
X45357532Y-82778237D01*
X46098178Y-82037589D01*
X46098178Y-82037588D01*
X46051359Y-82001147D01*
X46051354Y-82001144D01*
X45832737Y-81882835D01*
X45832726Y-81882830D01*
X45597616Y-81802116D01*
X45352416Y-81761200D01*
X45103830Y-81761200D01*
X44858629Y-81802116D01*
X44623519Y-81882830D01*
X44623508Y-81882835D01*
X44404893Y-82001143D01*
X44358066Y-82037589D01*
X45098714Y-82778237D01*
X45035130Y-82795275D01*
X44921116Y-82861101D01*
X44828024Y-82954193D01*
X44762198Y-83068207D01*
X44745160Y-83131791D01*
X44004686Y-82391317D01*
X43904390Y-82544833D01*
X43904388Y-82544837D01*
X43804535Y-82772482D01*
X43743510Y-83013461D01*
X43743508Y-83013470D01*
X43722982Y-83261194D01*
X41736623Y-83261194D01*
X41736623Y-82212562D01*
X41736622Y-82212545D01*
X41730939Y-82159694D01*
X41730112Y-82151999D01*
X41724791Y-82137734D01*
X41707645Y-82091764D01*
X41679012Y-82014996D01*
X41591384Y-81897939D01*
X41474327Y-81810311D01*
X41452356Y-81802116D01*
X41337326Y-81759211D01*
X41276777Y-81752700D01*
X41276761Y-81752700D01*
X39179485Y-81752700D01*
X39179468Y-81752700D01*
X39118920Y-81759211D01*
X39118918Y-81759211D01*
X38981918Y-81810311D01*
X38864862Y-81897939D01*
X38777234Y-82014995D01*
X38726134Y-82151995D01*
X38726134Y-82151997D01*
X38719623Y-82212545D01*
X34671000Y-82212545D01*
X34671000Y-77977996D01*
X56641184Y-77977996D01*
X56641184Y-77978003D01*
X56661581Y-78159041D01*
X56661582Y-78159046D01*
X56702749Y-78276693D01*
X56721757Y-78331015D01*
X56818689Y-78485281D01*
X56947519Y-78614111D01*
X57101785Y-78711043D01*
X57101786Y-78711043D01*
X57107682Y-78714748D01*
X57107067Y-78715725D01*
X57131574Y-78733112D01*
X59653181Y-81254719D01*
X59686666Y-81316042D01*
X59689500Y-81342400D01*
X59689500Y-85435098D01*
X59682542Y-85476052D01*
X59658782Y-85543955D01*
X59638384Y-85724996D01*
X59638384Y-85725003D01*
X59658781Y-85906041D01*
X59658782Y-85906046D01*
X59718958Y-86078017D01*
X59765161Y-86151548D01*
X59784161Y-86218784D01*
X59763794Y-86285620D01*
X59747848Y-86305201D01*
X59152280Y-86900770D01*
X59152276Y-86900776D01*
X59072167Y-87039526D01*
X59072168Y-87039526D01*
X59072168Y-87039527D01*
X59030700Y-87194289D01*
X59030700Y-91007106D01*
X59011015Y-91074145D01*
X59003651Y-91084414D01*
X59003090Y-91085116D01*
X58906158Y-91239382D01*
X58845982Y-91411353D01*
X58845981Y-91411358D01*
X58825584Y-91592396D01*
X58825584Y-91592403D01*
X58845981Y-91773441D01*
X58845982Y-91773446D01*
X58850826Y-91787288D01*
X58906157Y-91945415D01*
X59003089Y-92099681D01*
X59131919Y-92228511D01*
X59286185Y-92325443D01*
X59458153Y-92385617D01*
X59458158Y-92385618D01*
X59639196Y-92406016D01*
X59639200Y-92406016D01*
X59639204Y-92406016D01*
X59820241Y-92385618D01*
X59820244Y-92385617D01*
X59820247Y-92385617D01*
X59992215Y-92325443D01*
X60146481Y-92228511D01*
X60275311Y-92099681D01*
X60372243Y-91945415D01*
X60432417Y-91773447D01*
X60438701Y-91717674D01*
X60452816Y-91592403D01*
X60452816Y-91592396D01*
X60432418Y-91411358D01*
X60432417Y-91411353D01*
X60424213Y-91387907D01*
X60372243Y-91239385D01*
X60275311Y-91085119D01*
X60275310Y-91085118D01*
X60275309Y-91085116D01*
X60274749Y-91084414D01*
X60274528Y-91083874D01*
X60271606Y-91079223D01*
X60272421Y-91078710D01*
X60248344Y-91019726D01*
X60247700Y-91007106D01*
X60247700Y-89019396D01*
X65828384Y-89019396D01*
X65828384Y-89019403D01*
X65848781Y-89200441D01*
X65848782Y-89200446D01*
X65889949Y-89318093D01*
X65908957Y-89372415D01*
X66005889Y-89526681D01*
X66134719Y-89655511D01*
X66288985Y-89752443D01*
X66452876Y-89809790D01*
X66499602Y-89839151D01*
X66657693Y-89997242D01*
X66691178Y-90058565D01*
X66686194Y-90128257D01*
X66644322Y-90184190D01*
X66610967Y-90201964D01*
X66474388Y-90249755D01*
X66474384Y-90249756D01*
X66320118Y-90346689D01*
X66191289Y-90475518D01*
X66094358Y-90629782D01*
X66034182Y-90801753D01*
X66034181Y-90801758D01*
X66013784Y-90982796D01*
X66013784Y-90982803D01*
X66034181Y-91163841D01*
X66034182Y-91163846D01*
X66094358Y-91335817D01*
X66172125Y-91459582D01*
X66191289Y-91490081D01*
X66320119Y-91618911D01*
X66474385Y-91715843D01*
X66639008Y-91773447D01*
X66646353Y-91776017D01*
X66646358Y-91776018D01*
X66827396Y-91796416D01*
X66827400Y-91796416D01*
X66827404Y-91796416D01*
X67008441Y-91776018D01*
X67008444Y-91776017D01*
X67008447Y-91776017D01*
X67180415Y-91715843D01*
X67180417Y-91715841D01*
X67180419Y-91715841D01*
X67180422Y-91715839D01*
X67305405Y-91637307D01*
X67371377Y-91618300D01*
X79712456Y-91618300D01*
X79779495Y-91637985D01*
X79825250Y-91690789D01*
X79835194Y-91759947D01*
X79806169Y-91823503D01*
X79800137Y-91829981D01*
X79730771Y-91899346D01*
X79637686Y-92050259D01*
X79637684Y-92050264D01*
X79581913Y-92218572D01*
X79571300Y-92322447D01*
X79571300Y-94113537D01*
X79571301Y-94113553D01*
X79581913Y-94217427D01*
X79629110Y-94359860D01*
X79637685Y-94385738D01*
X79730770Y-94536652D01*
X79856148Y-94662030D01*
X80007062Y-94755115D01*
X80175374Y-94810887D01*
X80279255Y-94821500D01*
X81620344Y-94821499D01*
X81724226Y-94810887D01*
X81892538Y-94755115D01*
X82043452Y-94662030D01*
X82168830Y-94536652D01*
X82261915Y-94385738D01*
X82261915Y-94385735D01*
X82263946Y-94382444D01*
X82315894Y-94335720D01*
X82384857Y-94324497D01*
X82448939Y-94352341D01*
X82457166Y-94359860D01*
X82591767Y-94494461D01*
X82767308Y-94621999D01*
X82960640Y-94720506D01*
X83167000Y-94787557D01*
X83247366Y-94800285D01*
X83381305Y-94821500D01*
X83381310Y-94821500D01*
X83598295Y-94821500D01*
X83717351Y-94802642D01*
X83812600Y-94787557D01*
X84018960Y-94720506D01*
X84212292Y-94621999D01*
X84387833Y-94494461D01*
X84541261Y-94341033D01*
X84659482Y-94178316D01*
X84714812Y-94135650D01*
X84784425Y-94129671D01*
X84846220Y-94162277D01*
X84860118Y-94178316D01*
X84978339Y-94341033D01*
X85131767Y-94494461D01*
X85307308Y-94621999D01*
X85500640Y-94720506D01*
X85707000Y-94787557D01*
X85787366Y-94800285D01*
X85921305Y-94821500D01*
X85921310Y-94821500D01*
X86138295Y-94821500D01*
X86257351Y-94802642D01*
X86352600Y-94787557D01*
X86558960Y-94720506D01*
X86752292Y-94621999D01*
X86927833Y-94494461D01*
X87081261Y-94341033D01*
X87208799Y-94165492D01*
X87307306Y-93972160D01*
X87374357Y-93765800D01*
X87389442Y-93670551D01*
X87408300Y-93551495D01*
X87408300Y-92884504D01*
X87374357Y-92670203D01*
X87374357Y-92670200D01*
X87307306Y-92463840D01*
X87208799Y-92270508D01*
X87081261Y-92094967D01*
X86927833Y-91941539D01*
X86752292Y-91814001D01*
X86558960Y-91715494D01*
X86352600Y-91648443D01*
X86352598Y-91648442D01*
X86352596Y-91648442D01*
X86138295Y-91614500D01*
X86138290Y-91614500D01*
X85921310Y-91614500D01*
X85921305Y-91614500D01*
X85707003Y-91648442D01*
X85500637Y-91715495D01*
X85307307Y-91814001D01*
X85207155Y-91886766D01*
X85131767Y-91941539D01*
X85131765Y-91941541D01*
X85131764Y-91941541D01*
X84978341Y-92094964D01*
X84978341Y-92094965D01*
X84978339Y-92094967D01*
X84889544Y-92217182D01*
X84860118Y-92257684D01*
X84804788Y-92300349D01*
X84735174Y-92306328D01*
X84673379Y-92273722D01*
X84659482Y-92257684D01*
X84631065Y-92218572D01*
X84541261Y-92094967D01*
X84387833Y-91941539D01*
X84251680Y-91842618D01*
X84209015Y-91787288D01*
X84203036Y-91717674D01*
X84235642Y-91655879D01*
X84296481Y-91621522D01*
X84324566Y-91618300D01*
X84796992Y-91618300D01*
X84796993Y-91618299D01*
X84919769Y-91593878D01*
X85035422Y-91545973D01*
X85139508Y-91476425D01*
X85228025Y-91387908D01*
X85297573Y-91283822D01*
X85345478Y-91168169D01*
X85369900Y-91045391D01*
X85369900Y-67777777D01*
X85388907Y-67711805D01*
X85467439Y-67586822D01*
X85467441Y-67586819D01*
X85467441Y-67586817D01*
X85467443Y-67586815D01*
X85527617Y-67414847D01*
X85548016Y-67233800D01*
X85527617Y-67052753D01*
X85467443Y-66880785D01*
X85370511Y-66726519D01*
X85241681Y-66597689D01*
X85087415Y-66500757D01*
X85033093Y-66481749D01*
X84915446Y-66440582D01*
X84915441Y-66440581D01*
X84734404Y-66420184D01*
X84734396Y-66420184D01*
X84553358Y-66440581D01*
X84553353Y-66440582D01*
X84381382Y-66500758D01*
X84227118Y-66597689D01*
X84098289Y-66726518D01*
X84001358Y-66880782D01*
X83941182Y-67052753D01*
X83941181Y-67052758D01*
X83920784Y-67233796D01*
X83920784Y-67233803D01*
X83941181Y-67414841D01*
X83941182Y-67414846D01*
X84001358Y-67586819D01*
X84001360Y-67586822D01*
X84079893Y-67711805D01*
X84098900Y-67777777D01*
X84098900Y-82014996D01*
X84079215Y-82082035D01*
X84026411Y-82127790D01*
X83957253Y-82137734D01*
X83936582Y-82132927D01*
X83812597Y-82092642D01*
X83598295Y-82058700D01*
X83598290Y-82058700D01*
X83381310Y-82058700D01*
X83381305Y-82058700D01*
X83167003Y-82092642D01*
X82960637Y-82159695D01*
X82767307Y-82258201D01*
X82591768Y-82385738D01*
X82457166Y-82520340D01*
X82395843Y-82553824D01*
X82326151Y-82548840D01*
X82270218Y-82506968D01*
X82263947Y-82497755D01*
X82168832Y-82343551D01*
X82168829Y-82343547D01*
X82043453Y-82218171D01*
X82043452Y-82218170D01*
X81905252Y-82132927D01*
X81892540Y-82125086D01*
X81892535Y-82125084D01*
X81724227Y-82069313D01*
X81620345Y-82058700D01*
X80279262Y-82058700D01*
X80279246Y-82058701D01*
X80175372Y-82069313D01*
X80007064Y-82125084D01*
X80007059Y-82125086D01*
X79856146Y-82218171D01*
X79730771Y-82343546D01*
X79637686Y-82494459D01*
X79637684Y-82494464D01*
X79581913Y-82662772D01*
X79571300Y-82766647D01*
X79571300Y-84557737D01*
X79571301Y-84557753D01*
X79581913Y-84661627D01*
X79637684Y-84829935D01*
X79637686Y-84829940D01*
X79662894Y-84870808D01*
X79730770Y-84980852D01*
X79856148Y-85106230D01*
X80007062Y-85199315D01*
X80175374Y-85255087D01*
X80279255Y-85265700D01*
X81620344Y-85265699D01*
X81724226Y-85255087D01*
X81892538Y-85199315D01*
X82043452Y-85106230D01*
X82168830Y-84980852D01*
X82261915Y-84829938D01*
X82261915Y-84829935D01*
X82263946Y-84826644D01*
X82315894Y-84779920D01*
X82384857Y-84768697D01*
X82448939Y-84796541D01*
X82457166Y-84804060D01*
X82591767Y-84938661D01*
X82767308Y-85066199D01*
X82960640Y-85164706D01*
X83167000Y-85231757D01*
X83247366Y-85244485D01*
X83381305Y-85265700D01*
X83381310Y-85265700D01*
X83598295Y-85265700D01*
X83717351Y-85246842D01*
X83812600Y-85231757D01*
X83936583Y-85191471D01*
X84006423Y-85189477D01*
X84066256Y-85225557D01*
X84097084Y-85288258D01*
X84098900Y-85309403D01*
X84098900Y-90223300D01*
X84079215Y-90290339D01*
X84026411Y-90336094D01*
X83974900Y-90347300D01*
X76399100Y-90347300D01*
X76332061Y-90327615D01*
X76286306Y-90274811D01*
X76275100Y-90223300D01*
X76275100Y-83921682D01*
X76294785Y-83854643D01*
X76311419Y-83834001D01*
X81014601Y-79130819D01*
X81075924Y-79097334D01*
X81102282Y-79094500D01*
X82208107Y-79094500D01*
X82275146Y-79114185D01*
X82285423Y-79121555D01*
X82286117Y-79122109D01*
X82286119Y-79122111D01*
X82440385Y-79219043D01*
X82612353Y-79279217D01*
X82612358Y-79279218D01*
X82793396Y-79299616D01*
X82793400Y-79299616D01*
X82793404Y-79299616D01*
X82974441Y-79279218D01*
X82974444Y-79279217D01*
X82974447Y-79279217D01*
X83146415Y-79219043D01*
X83300681Y-79122111D01*
X83429511Y-78993281D01*
X83526443Y-78839015D01*
X83586617Y-78667047D01*
X83586618Y-78667041D01*
X83607016Y-78486003D01*
X83607016Y-78485996D01*
X83586618Y-78304958D01*
X83586617Y-78304953D01*
X83535562Y-78159047D01*
X83526443Y-78132985D01*
X83429511Y-77978719D01*
X83300681Y-77849889D01*
X83146415Y-77752957D01*
X83092093Y-77733949D01*
X82974446Y-77692782D01*
X82974441Y-77692781D01*
X82793404Y-77672384D01*
X82793396Y-77672384D01*
X82612358Y-77692781D01*
X82612353Y-77692782D01*
X82440382Y-77752958D01*
X82286122Y-77849886D01*
X82285423Y-77850445D01*
X82284884Y-77850664D01*
X82280223Y-77853594D01*
X82279709Y-77852777D01*
X82220737Y-77876855D01*
X82208107Y-77877500D01*
X80718760Y-77877500D01*
X80641379Y-77898233D01*
X80641379Y-77898234D01*
X80563998Y-77918968D01*
X80563996Y-77918968D01*
X80563996Y-77918969D01*
X80425243Y-77999079D01*
X80425240Y-77999081D01*
X75179680Y-83244641D01*
X75179676Y-83244647D01*
X75099567Y-83383397D01*
X75099568Y-83383397D01*
X75099568Y-83383398D01*
X75058100Y-83538160D01*
X75058100Y-89691500D01*
X75038415Y-89758539D01*
X74985611Y-89804294D01*
X74934100Y-89815500D01*
X68248411Y-89815500D01*
X68181372Y-89795815D01*
X68160730Y-89779181D01*
X67491935Y-89110386D01*
X67458450Y-89049063D01*
X67455616Y-89022705D01*
X67455616Y-89019397D01*
X67435218Y-88838358D01*
X67435217Y-88838353D01*
X67412454Y-88773300D01*
X67375043Y-88666385D01*
X67278111Y-88512119D01*
X67149281Y-88383289D01*
X67038114Y-88313438D01*
X66995017Y-88286358D01*
X66995016Y-88286357D01*
X66995015Y-88286357D01*
X66940693Y-88267349D01*
X66823046Y-88226182D01*
X66823041Y-88226181D01*
X66642004Y-88205784D01*
X66641996Y-88205784D01*
X66460958Y-88226181D01*
X66460953Y-88226182D01*
X66288982Y-88286358D01*
X66134718Y-88383289D01*
X66005889Y-88512118D01*
X65908958Y-88666382D01*
X65848782Y-88838353D01*
X65848781Y-88838358D01*
X65828384Y-89019396D01*
X60247700Y-89019396D01*
X60247700Y-87577810D01*
X60267385Y-87510771D01*
X60284015Y-87490133D01*
X60708680Y-87065467D01*
X65840284Y-87065467D01*
X65999053Y-87121023D01*
X65999058Y-87121024D01*
X66166996Y-87139946D01*
X66167004Y-87139946D01*
X66334941Y-87121024D01*
X66334949Y-87121022D01*
X66494469Y-87065204D01*
X66501023Y-87061086D01*
X66568258Y-87042082D01*
X66632977Y-87061086D01*
X66639530Y-87065204D01*
X66799050Y-87121022D01*
X66799058Y-87121024D01*
X66966996Y-87139946D01*
X66967004Y-87139946D01*
X67134941Y-87121024D01*
X67134949Y-87121022D01*
X67294469Y-87065204D01*
X67301023Y-87061086D01*
X67368258Y-87042082D01*
X67432977Y-87061086D01*
X67439530Y-87065204D01*
X67599050Y-87121022D01*
X67599058Y-87121024D01*
X67766996Y-87139946D01*
X67767004Y-87139946D01*
X67934938Y-87121024D01*
X67934943Y-87121023D01*
X68093713Y-87065467D01*
X68093714Y-87065467D01*
X67590223Y-86561977D01*
X67383384Y-86355138D01*
X67615870Y-86355138D01*
X67615870Y-86415262D01*
X67638878Y-86470808D01*
X67681392Y-86513322D01*
X67736938Y-86536330D01*
X67797062Y-86536330D01*
X67852608Y-86513322D01*
X67895122Y-86470808D01*
X67918130Y-86415262D01*
X67918130Y-86355138D01*
X67895122Y-86299592D01*
X67852608Y-86257078D01*
X67797062Y-86234070D01*
X67736938Y-86234070D01*
X67681392Y-86257078D01*
X67638878Y-86299592D01*
X67615870Y-86355138D01*
X67383384Y-86355138D01*
X67367000Y-86338754D01*
X67231458Y-86474296D01*
X67170135Y-86507781D01*
X67100443Y-86502797D01*
X67077730Y-86488199D01*
X67095122Y-86470808D01*
X67118130Y-86415262D01*
X67118130Y-86355138D01*
X67095122Y-86299592D01*
X67052608Y-86257078D01*
X66997062Y-86234070D01*
X66936938Y-86234070D01*
X66881392Y-86257078D01*
X66838878Y-86299592D01*
X66815870Y-86355138D01*
X66815870Y-86415262D01*
X66838878Y-86470808D01*
X66854917Y-86486847D01*
X66816581Y-86507781D01*
X66746889Y-86502797D01*
X66702542Y-86474296D01*
X66567000Y-86338754D01*
X66343777Y-86561977D01*
X65840284Y-87065467D01*
X60708680Y-87065467D01*
X60839120Y-86935027D01*
X60894706Y-86902935D01*
X60935402Y-86892032D01*
X61074156Y-86811922D01*
X63100882Y-84785196D01*
X65412254Y-84785196D01*
X65412254Y-84785200D01*
X65431175Y-84953141D01*
X65431176Y-84953146D01*
X65486997Y-85112671D01*
X65491119Y-85119232D01*
X65510115Y-85186470D01*
X65491119Y-85251168D01*
X65486997Y-85257728D01*
X65431176Y-85417253D01*
X65431175Y-85417258D01*
X65412254Y-85585196D01*
X65412254Y-85585203D01*
X65431175Y-85753141D01*
X65431176Y-85753146D01*
X65486997Y-85912671D01*
X65491119Y-85919232D01*
X65510115Y-85986470D01*
X65491119Y-86051168D01*
X65486997Y-86057728D01*
X65431176Y-86217253D01*
X65431175Y-86217258D01*
X65412254Y-86385196D01*
X65412254Y-86385200D01*
X65431176Y-86553144D01*
X65486731Y-86711913D01*
X65843507Y-86355138D01*
X66015870Y-86355138D01*
X66015870Y-86415262D01*
X66038878Y-86470808D01*
X66081392Y-86513322D01*
X66136938Y-86536330D01*
X66197062Y-86536330D01*
X66252608Y-86513322D01*
X66295122Y-86470808D01*
X66318130Y-86415262D01*
X66318130Y-86355138D01*
X66295122Y-86299592D01*
X66252608Y-86257078D01*
X66197062Y-86234070D01*
X66136938Y-86234070D01*
X66081392Y-86257078D01*
X66038878Y-86299592D01*
X66015870Y-86355138D01*
X65843507Y-86355138D01*
X65990223Y-86208423D01*
X66213446Y-85985200D01*
X66920554Y-85985200D01*
X66967000Y-86031646D01*
X67013446Y-85985200D01*
X66967000Y-85938754D01*
X66920554Y-85985200D01*
X66213446Y-85985200D01*
X66077904Y-85849658D01*
X66044419Y-85788335D01*
X66049403Y-85718643D01*
X66064000Y-85695930D01*
X66081392Y-85713322D01*
X66136938Y-85736330D01*
X66197062Y-85736330D01*
X66252608Y-85713322D01*
X66295122Y-85670808D01*
X66318130Y-85615262D01*
X66318130Y-85585200D01*
X66520554Y-85585200D01*
X66567000Y-85631646D01*
X66613446Y-85585200D01*
X66583384Y-85555138D01*
X66815870Y-85555138D01*
X66815870Y-85615262D01*
X66838878Y-85670808D01*
X66881392Y-85713322D01*
X66936938Y-85736330D01*
X66997062Y-85736330D01*
X67052608Y-85713322D01*
X67095122Y-85670808D01*
X67118130Y-85615262D01*
X67118130Y-85585200D01*
X67320554Y-85585200D01*
X67367000Y-85631646D01*
X67413446Y-85585200D01*
X67383384Y-85555138D01*
X67615870Y-85555138D01*
X67615870Y-85615262D01*
X67638878Y-85670808D01*
X67681392Y-85713322D01*
X67736938Y-85736330D01*
X67797062Y-85736330D01*
X67852608Y-85713322D01*
X67868647Y-85697282D01*
X67889581Y-85735619D01*
X67884597Y-85805311D01*
X67856096Y-85849658D01*
X67720554Y-85985200D01*
X67943777Y-86208423D01*
X68447267Y-86711914D01*
X68447267Y-86711913D01*
X68502823Y-86553143D01*
X68502824Y-86553138D01*
X68521746Y-86385200D01*
X68521746Y-86385196D01*
X68502824Y-86217258D01*
X68502822Y-86217250D01*
X68447004Y-86057730D01*
X68442886Y-86051177D01*
X68423882Y-85983942D01*
X68442886Y-85919223D01*
X68447004Y-85912669D01*
X68502822Y-85753149D01*
X68502824Y-85753141D01*
X68521746Y-85585203D01*
X68521746Y-85585196D01*
X68502824Y-85417258D01*
X68502822Y-85417250D01*
X68447004Y-85257730D01*
X68442886Y-85251177D01*
X68423882Y-85183942D01*
X68442886Y-85119223D01*
X68447004Y-85112669D01*
X68502822Y-84953149D01*
X68502824Y-84953141D01*
X68521746Y-84785200D01*
X68521746Y-84785196D01*
X68502824Y-84617258D01*
X68502823Y-84617253D01*
X68447267Y-84458485D01*
X68447267Y-84458484D01*
X67943777Y-84961977D01*
X67720554Y-85185200D01*
X67856096Y-85320742D01*
X67889581Y-85382065D01*
X67884597Y-85451757D01*
X67869999Y-85474469D01*
X67852608Y-85457078D01*
X67797062Y-85434070D01*
X67736938Y-85434070D01*
X67681392Y-85457078D01*
X67638878Y-85499592D01*
X67615870Y-85555138D01*
X67383384Y-85555138D01*
X67367000Y-85538754D01*
X67320554Y-85585200D01*
X67118130Y-85585200D01*
X67118130Y-85555138D01*
X67095122Y-85499592D01*
X67052608Y-85457078D01*
X66997062Y-85434070D01*
X66936938Y-85434070D01*
X66881392Y-85457078D01*
X66838878Y-85499592D01*
X66815870Y-85555138D01*
X66583384Y-85555138D01*
X66567000Y-85538754D01*
X66520554Y-85585200D01*
X66318130Y-85585200D01*
X66318130Y-85555138D01*
X66295122Y-85499592D01*
X66252608Y-85457078D01*
X66197062Y-85434070D01*
X66136938Y-85434070D01*
X66081392Y-85457078D01*
X66065352Y-85473117D01*
X66044419Y-85434781D01*
X66049403Y-85365089D01*
X66077904Y-85320742D01*
X66213446Y-85185200D01*
X66920554Y-85185200D01*
X66967000Y-85231646D01*
X67013446Y-85185200D01*
X66967000Y-85138754D01*
X66920554Y-85185200D01*
X66213446Y-85185200D01*
X65783384Y-84755138D01*
X66015870Y-84755138D01*
X66015870Y-84815262D01*
X66038878Y-84870808D01*
X66081392Y-84913322D01*
X66136938Y-84936330D01*
X66197062Y-84936330D01*
X66252608Y-84913322D01*
X66295122Y-84870808D01*
X66318130Y-84815262D01*
X66318130Y-84755138D01*
X66295122Y-84699592D01*
X66252608Y-84657078D01*
X66197062Y-84634070D01*
X66136938Y-84634070D01*
X66081392Y-84657078D01*
X66038878Y-84699592D01*
X66015870Y-84755138D01*
X65783384Y-84755138D01*
X65486731Y-84458485D01*
X65431176Y-84617255D01*
X65412254Y-84785196D01*
X63100882Y-84785196D01*
X63781147Y-84104931D01*
X65840285Y-84104931D01*
X66567000Y-84831646D01*
X66702542Y-84696104D01*
X66763865Y-84662619D01*
X66833557Y-84667603D01*
X66856269Y-84682200D01*
X66838878Y-84699592D01*
X66815870Y-84755138D01*
X66815870Y-84815262D01*
X66838878Y-84870808D01*
X66881392Y-84913322D01*
X66936938Y-84936330D01*
X66997062Y-84936330D01*
X67052608Y-84913322D01*
X67095122Y-84870808D01*
X67118130Y-84815262D01*
X67118130Y-84755138D01*
X67095122Y-84699592D01*
X67079082Y-84683552D01*
X67117419Y-84662619D01*
X67187111Y-84667603D01*
X67231458Y-84696104D01*
X67367000Y-84831646D01*
X67443508Y-84755138D01*
X67615870Y-84755138D01*
X67615870Y-84815262D01*
X67638878Y-84870808D01*
X67681392Y-84913322D01*
X67736938Y-84936330D01*
X67797062Y-84936330D01*
X67852608Y-84913322D01*
X67895122Y-84870808D01*
X67918130Y-84815262D01*
X67918130Y-84755138D01*
X67895122Y-84699592D01*
X67852608Y-84657078D01*
X67797062Y-84634070D01*
X67736938Y-84634070D01*
X67681392Y-84657078D01*
X67638878Y-84699592D01*
X67615870Y-84755138D01*
X67443508Y-84755138D01*
X67590223Y-84608423D01*
X68093714Y-84104931D01*
X67934944Y-84049376D01*
X67767004Y-84030454D01*
X67766996Y-84030454D01*
X67599058Y-84049375D01*
X67599053Y-84049376D01*
X67439528Y-84105197D01*
X67432968Y-84109319D01*
X67365730Y-84128315D01*
X67301032Y-84109319D01*
X67294471Y-84105197D01*
X67134946Y-84049376D01*
X67134941Y-84049375D01*
X66967004Y-84030454D01*
X66966996Y-84030454D01*
X66799058Y-84049375D01*
X66799053Y-84049376D01*
X66639528Y-84105197D01*
X66632968Y-84109319D01*
X66565730Y-84128315D01*
X66501032Y-84109319D01*
X66494471Y-84105197D01*
X66334946Y-84049376D01*
X66334941Y-84049375D01*
X66167004Y-84030454D01*
X66166996Y-84030454D01*
X65999055Y-84049376D01*
X65840285Y-84104931D01*
X63781147Y-84104931D01*
X77271122Y-70614956D01*
X77351232Y-70476201D01*
X77392700Y-70321439D01*
X77392700Y-70161219D01*
X77392700Y-68962093D01*
X77412385Y-68895054D01*
X77419755Y-68884777D01*
X77420305Y-68884086D01*
X77420311Y-68884081D01*
X77517243Y-68729815D01*
X77577417Y-68557847D01*
X77597816Y-68376800D01*
X77577417Y-68195753D01*
X77517243Y-68023785D01*
X77420311Y-67869519D01*
X77291481Y-67740689D01*
X77137217Y-67643758D01*
X77137216Y-67643757D01*
X77137215Y-67643757D01*
X77082893Y-67624749D01*
X76965246Y-67583582D01*
X76965241Y-67583581D01*
X76784204Y-67563184D01*
X76784196Y-67563184D01*
X76603158Y-67583581D01*
X76603153Y-67583582D01*
X76431182Y-67643758D01*
X76276918Y-67740689D01*
X76148089Y-67869518D01*
X76051158Y-68023782D01*
X75990982Y-68195753D01*
X75990981Y-68195758D01*
X75970584Y-68376796D01*
X75970584Y-68376803D01*
X75990981Y-68557841D01*
X75990982Y-68557846D01*
X76051158Y-68729817D01*
X76148086Y-68884077D01*
X76148645Y-68884777D01*
X76148864Y-68885315D01*
X76151794Y-68889977D01*
X76150977Y-68890490D01*
X76175055Y-68949463D01*
X76175700Y-68962093D01*
X76175700Y-69937918D01*
X76156015Y-70004957D01*
X76139381Y-70025599D01*
X61426181Y-84738799D01*
X61364858Y-84772284D01*
X61295166Y-84767300D01*
X61239233Y-84725428D01*
X61214816Y-84659964D01*
X61214500Y-84651118D01*
X61214500Y-80900097D01*
X61185198Y-80752792D01*
X61185197Y-80752791D01*
X61185197Y-80752787D01*
X61127718Y-80614021D01*
X61044273Y-80489135D01*
X61044271Y-80489133D01*
X61044269Y-80489130D01*
X61044268Y-80489129D01*
X58209912Y-77654774D01*
X58192525Y-77630267D01*
X58191548Y-77630882D01*
X58090910Y-77470718D01*
X57962081Y-77341889D01*
X57807817Y-77244958D01*
X57807816Y-77244957D01*
X57807815Y-77244957D01*
X57753493Y-77225949D01*
X57635846Y-77184782D01*
X57635841Y-77184781D01*
X57454804Y-77164384D01*
X57454796Y-77164384D01*
X57273758Y-77184781D01*
X57273753Y-77184782D01*
X57101782Y-77244958D01*
X56947518Y-77341889D01*
X56818689Y-77470718D01*
X56721758Y-77624982D01*
X56661582Y-77796953D01*
X56661581Y-77796958D01*
X56641184Y-77977996D01*
X34671000Y-77977996D01*
X34671000Y-72923400D01*
X41158835Y-72923400D01*
X41177465Y-73160114D01*
X41232895Y-73390995D01*
X41232895Y-73390997D01*
X41323757Y-73610359D01*
X41323759Y-73610362D01*
X41447820Y-73812810D01*
X41447821Y-73812813D01*
X41447824Y-73812816D01*
X41602031Y-73993369D01*
X41741797Y-74112740D01*
X41782586Y-74147578D01*
X41782589Y-74147579D01*
X41985037Y-74271640D01*
X41985040Y-74271642D01*
X42204403Y-74362504D01*
X42204404Y-74362504D01*
X42204406Y-74362505D01*
X42435289Y-74417935D01*
X42672000Y-74436565D01*
X42908711Y-74417935D01*
X43139594Y-74362505D01*
X43139596Y-74362504D01*
X43139597Y-74362504D01*
X43358959Y-74271642D01*
X43358960Y-74271641D01*
X43358963Y-74271640D01*
X43561416Y-74147576D01*
X43741969Y-73993369D01*
X43896176Y-73812816D01*
X44020240Y-73610363D01*
X44111105Y-73390994D01*
X44166535Y-73160111D01*
X44185165Y-72923400D01*
X46238835Y-72923400D01*
X46257465Y-73160114D01*
X46312895Y-73390995D01*
X46312895Y-73390997D01*
X46403757Y-73610359D01*
X46403759Y-73610362D01*
X46527820Y-73812810D01*
X46527821Y-73812813D01*
X46527824Y-73812816D01*
X46682031Y-73993369D01*
X46821797Y-74112740D01*
X46862586Y-74147578D01*
X46862589Y-74147579D01*
X47065037Y-74271640D01*
X47065040Y-74271642D01*
X47284403Y-74362504D01*
X47284404Y-74362504D01*
X47284406Y-74362505D01*
X47515289Y-74417935D01*
X47752000Y-74436565D01*
X47988711Y-74417935D01*
X48219594Y-74362505D01*
X48219596Y-74362504D01*
X48219597Y-74362504D01*
X48438959Y-74271642D01*
X48438960Y-74271641D01*
X48438963Y-74271640D01*
X48641416Y-74147576D01*
X48821969Y-73993369D01*
X48976176Y-73812816D01*
X49100240Y-73610363D01*
X49191105Y-73390994D01*
X49246535Y-73160111D01*
X49265165Y-72923400D01*
X49246535Y-72686689D01*
X49191105Y-72455806D01*
X49191104Y-72455803D01*
X49191104Y-72455802D01*
X49100242Y-72236440D01*
X49100240Y-72236437D01*
X48976179Y-72033989D01*
X48976178Y-72033986D01*
X48840187Y-71874762D01*
X48840172Y-71874745D01*
X51323500Y-71874745D01*
X51323500Y-73972054D01*
X51330011Y-74032602D01*
X51330011Y-74032604D01*
X51372896Y-74147579D01*
X51381111Y-74169604D01*
X51468739Y-74286661D01*
X51585796Y-74374289D01*
X51722799Y-74425389D01*
X51750050Y-74428318D01*
X51783345Y-74431899D01*
X51783362Y-74431900D01*
X53880638Y-74431900D01*
X53880654Y-74431899D01*
X53907692Y-74428991D01*
X53941201Y-74425389D01*
X54078204Y-74374289D01*
X54195261Y-74286661D01*
X54282889Y-74169604D01*
X54333989Y-74032601D01*
X54338207Y-73993368D01*
X54340499Y-73972054D01*
X54340500Y-73972037D01*
X54340500Y-71874762D01*
X54340499Y-71874745D01*
X54337157Y-71843670D01*
X54333989Y-71814199D01*
X54282889Y-71677196D01*
X54195261Y-71560139D01*
X54078204Y-71472511D01*
X53941203Y-71421411D01*
X53880654Y-71414900D01*
X53880638Y-71414900D01*
X51783362Y-71414900D01*
X51783345Y-71414900D01*
X51722797Y-71421411D01*
X51722795Y-71421411D01*
X51585795Y-71472511D01*
X51468739Y-71560139D01*
X51381111Y-71677195D01*
X51330011Y-71814195D01*
X51330011Y-71814197D01*
X51323500Y-71874745D01*
X48840172Y-71874745D01*
X48821969Y-71853431D01*
X48702596Y-71751476D01*
X48641413Y-71699221D01*
X48641410Y-71699220D01*
X48438962Y-71575159D01*
X48438959Y-71575157D01*
X48219596Y-71484295D01*
X47988714Y-71428865D01*
X47752000Y-71410235D01*
X47515285Y-71428865D01*
X47284404Y-71484295D01*
X47284402Y-71484295D01*
X47065040Y-71575157D01*
X47065037Y-71575159D01*
X46862589Y-71699220D01*
X46862586Y-71699221D01*
X46682031Y-71853431D01*
X46527821Y-72033986D01*
X46527820Y-72033989D01*
X46403759Y-72236437D01*
X46403757Y-72236440D01*
X46312895Y-72455802D01*
X46312895Y-72455804D01*
X46257465Y-72686685D01*
X46238835Y-72923400D01*
X44185165Y-72923400D01*
X44166535Y-72686689D01*
X44111105Y-72455806D01*
X44111104Y-72455803D01*
X44111104Y-72455802D01*
X44020242Y-72236440D01*
X44020240Y-72236437D01*
X43896179Y-72033989D01*
X43896178Y-72033986D01*
X43760187Y-71874762D01*
X43741969Y-71853431D01*
X43622596Y-71751476D01*
X43561413Y-71699221D01*
X43561410Y-71699220D01*
X43358962Y-71575159D01*
X43358959Y-71575157D01*
X43139596Y-71484295D01*
X42908714Y-71428865D01*
X42672000Y-71410235D01*
X42435285Y-71428865D01*
X42204404Y-71484295D01*
X42204402Y-71484295D01*
X41985040Y-71575157D01*
X41985037Y-71575159D01*
X41782589Y-71699220D01*
X41782586Y-71699221D01*
X41602031Y-71853431D01*
X41447821Y-72033986D01*
X41447820Y-72033989D01*
X41323759Y-72236437D01*
X41323757Y-72236440D01*
X41232895Y-72455802D01*
X41232895Y-72455804D01*
X41177465Y-72686685D01*
X41158835Y-72923400D01*
X34671000Y-72923400D01*
X34671000Y-66192396D01*
X80567984Y-66192396D01*
X80567984Y-66192403D01*
X80588381Y-66373441D01*
X80588382Y-66373446D01*
X80604737Y-66420184D01*
X80648557Y-66545415D01*
X80745489Y-66699681D01*
X80874319Y-66828511D01*
X81028585Y-66925443D01*
X81200553Y-66985617D01*
X81200558Y-66985618D01*
X81381596Y-67006016D01*
X81381600Y-67006016D01*
X81381604Y-67006016D01*
X81562641Y-66985618D01*
X81562644Y-66985617D01*
X81562647Y-66985617D01*
X81734615Y-66925443D01*
X81888881Y-66828511D01*
X82017711Y-66699681D01*
X82114643Y-66545415D01*
X82114643Y-66545413D01*
X82118348Y-66539518D01*
X82119326Y-66540132D01*
X82136710Y-66515626D01*
X92938719Y-55713619D01*
X93000042Y-55680134D01*
X93026400Y-55677300D01*
X101157699Y-55677300D01*
X101198652Y-55684258D01*
X101231963Y-55695913D01*
X101266553Y-55708017D01*
X101266560Y-55708017D01*
X101266561Y-55708018D01*
X101447596Y-55728416D01*
X101447600Y-55728416D01*
X101447604Y-55728416D01*
X101628641Y-55708018D01*
X101628644Y-55708017D01*
X101628647Y-55708017D01*
X101800615Y-55647843D01*
X101954881Y-55550911D01*
X102083711Y-55422081D01*
X102180643Y-55267815D01*
X102240817Y-55095847D01*
X102240818Y-55095841D01*
X102261216Y-54914803D01*
X102261216Y-54914796D01*
X102240818Y-54733758D01*
X102240817Y-54733753D01*
X102180643Y-54561785D01*
X102083711Y-54407519D01*
X101954881Y-54278689D01*
X101916224Y-54254399D01*
X101800617Y-54181758D01*
X101800616Y-54181757D01*
X101800615Y-54181757D01*
X101736316Y-54159258D01*
X101628646Y-54121582D01*
X101628641Y-54121581D01*
X101447604Y-54101184D01*
X101447596Y-54101184D01*
X101266561Y-54121581D01*
X101266552Y-54121583D01*
X101198652Y-54145342D01*
X101157699Y-54152300D01*
X92584098Y-54152300D01*
X92436792Y-54181601D01*
X92436786Y-54181603D01*
X92298022Y-54239081D01*
X92173130Y-54322530D01*
X81058372Y-65437288D01*
X81033868Y-65454679D01*
X81034480Y-65455653D01*
X80874318Y-65556289D01*
X80745489Y-65685118D01*
X80648558Y-65839382D01*
X80588382Y-66011353D01*
X80588381Y-66011358D01*
X80567984Y-66192396D01*
X34671000Y-66192396D01*
X34671000Y-51987813D01*
X49023600Y-51987813D01*
X49023600Y-52632800D01*
X49850891Y-52632800D01*
X49839148Y-52653139D01*
X49798600Y-52804467D01*
X49798600Y-52961133D01*
X49839148Y-53112461D01*
X49850891Y-53132800D01*
X49023601Y-53132800D01*
X49023601Y-53777786D01*
X49034094Y-53880497D01*
X49089241Y-54046919D01*
X49089243Y-54046924D01*
X49181284Y-54196145D01*
X49305254Y-54320115D01*
X49454475Y-54412156D01*
X49454480Y-54412158D01*
X49620902Y-54467305D01*
X49620909Y-54467306D01*
X49723619Y-54477799D01*
X50143599Y-54477799D01*
X50143600Y-54477798D01*
X50143600Y-53425509D01*
X50163939Y-53437252D01*
X50315267Y-53477800D01*
X50471933Y-53477800D01*
X50623261Y-53437252D01*
X50643600Y-53425509D01*
X50643600Y-54477799D01*
X51063572Y-54477799D01*
X51063586Y-54477798D01*
X51166297Y-54467305D01*
X51332719Y-54412158D01*
X51332724Y-54412156D01*
X51481945Y-54320115D01*
X51605917Y-54196143D01*
X51701568Y-54041067D01*
X51753516Y-53994342D01*
X51822478Y-53983119D01*
X51886560Y-54010962D01*
X51894788Y-54018482D01*
X52035567Y-54159261D01*
X52211108Y-54286799D01*
X52404440Y-54385306D01*
X52610800Y-54452357D01*
X52691166Y-54465085D01*
X52825105Y-54486300D01*
X52825110Y-54486300D01*
X53042095Y-54486300D01*
X53162021Y-54467305D01*
X53256400Y-54452357D01*
X53462760Y-54385306D01*
X53656092Y-54286799D01*
X53831633Y-54159261D01*
X53985061Y-54005833D01*
X54112599Y-53830292D01*
X54211106Y-53636960D01*
X54278157Y-53430600D01*
X54307056Y-53248138D01*
X54312100Y-53216295D01*
X54312100Y-53005745D01*
X57435541Y-53005745D01*
X57435541Y-55503054D01*
X57442052Y-55563602D01*
X57442052Y-55563604D01*
X57473472Y-55647841D01*
X57493152Y-55700604D01*
X57580780Y-55817661D01*
X57697837Y-55905289D01*
X57812990Y-55948239D01*
X57829504Y-55954399D01*
X57834840Y-55956389D01*
X57862091Y-55959318D01*
X57895386Y-55962899D01*
X57895403Y-55962900D01*
X60392679Y-55962900D01*
X60392695Y-55962899D01*
X60419733Y-55959991D01*
X60453242Y-55956389D01*
X60458578Y-55954399D01*
X60467809Y-55950955D01*
X60590245Y-55905289D01*
X60707302Y-55817661D01*
X60794930Y-55700604D01*
X60846030Y-55563601D01*
X60849632Y-55530092D01*
X60852540Y-55503054D01*
X60852541Y-55503037D01*
X60852541Y-54254395D01*
X62439274Y-54254395D01*
X62439274Y-54254404D01*
X62458314Y-54508479D01*
X62515009Y-54756877D01*
X62515014Y-54756894D01*
X62608099Y-54994071D01*
X62608098Y-54994071D01*
X62735498Y-55214732D01*
X62777493Y-55267393D01*
X63579428Y-54465458D01*
X63584930Y-54485991D01*
X63663922Y-54622808D01*
X63775633Y-54734519D01*
X63912450Y-54813511D01*
X63932981Y-54819012D01*
X63130854Y-55621137D01*
X63291664Y-55730775D01*
X63291665Y-55730776D01*
X63521217Y-55841321D01*
X63521215Y-55841321D01*
X63764693Y-55916424D01*
X63764699Y-55916426D01*
X64016636Y-55954399D01*
X64016645Y-55954400D01*
X64271437Y-55954400D01*
X64271445Y-55954399D01*
X64523382Y-55916426D01*
X64523388Y-55916424D01*
X64766865Y-55841321D01*
X64996422Y-55730773D01*
X65157226Y-55621137D01*
X64355100Y-54819012D01*
X64375632Y-54813511D01*
X64512449Y-54734519D01*
X64624160Y-54622808D01*
X64703152Y-54485991D01*
X64708653Y-54465460D01*
X65510586Y-55267393D01*
X65552586Y-55214727D01*
X65679982Y-54994071D01*
X65773067Y-54756894D01*
X65773072Y-54756877D01*
X65829767Y-54508479D01*
X65848808Y-54254404D01*
X65848808Y-54254395D01*
X65829767Y-54000320D01*
X65773072Y-53751922D01*
X65773067Y-53751905D01*
X65679982Y-53514728D01*
X65679983Y-53514728D01*
X65552585Y-53294071D01*
X65510587Y-53241406D01*
X64708653Y-54043339D01*
X64703152Y-54022809D01*
X64624160Y-53885992D01*
X64512449Y-53774281D01*
X64375632Y-53695289D01*
X64355099Y-53689787D01*
X65157226Y-52887661D01*
X64996418Y-52778024D01*
X64996417Y-52778023D01*
X64766864Y-52667478D01*
X64766866Y-52667478D01*
X64523388Y-52592375D01*
X64523382Y-52592373D01*
X64271445Y-52554400D01*
X64016636Y-52554400D01*
X63764699Y-52592373D01*
X63764693Y-52592375D01*
X63521216Y-52667478D01*
X63291665Y-52778023D01*
X63291657Y-52778028D01*
X63130854Y-52887661D01*
X63932981Y-53689787D01*
X63912450Y-53695289D01*
X63775633Y-53774281D01*
X63663922Y-53885992D01*
X63584930Y-54022809D01*
X63579428Y-54043340D01*
X62777494Y-53241406D01*
X62735496Y-53294070D01*
X62608099Y-53514728D01*
X62515014Y-53751905D01*
X62515009Y-53751922D01*
X62458314Y-54000320D01*
X62439274Y-54254395D01*
X60852541Y-54254395D01*
X60852541Y-53005762D01*
X60852540Y-53005745D01*
X60847743Y-52961133D01*
X60846030Y-52945199D01*
X60794930Y-52808196D01*
X60707302Y-52691139D01*
X60590245Y-52603511D01*
X60560389Y-52592375D01*
X60453244Y-52552411D01*
X60392695Y-52545900D01*
X60392679Y-52545900D01*
X57895403Y-52545900D01*
X57895386Y-52545900D01*
X57834838Y-52552411D01*
X57834836Y-52552411D01*
X57697836Y-52603511D01*
X57580780Y-52691139D01*
X57493152Y-52808195D01*
X57442052Y-52945195D01*
X57442052Y-52945197D01*
X57435541Y-53005745D01*
X54312100Y-53005745D01*
X54312100Y-52549304D01*
X54280927Y-52352489D01*
X54278157Y-52335000D01*
X54211106Y-52128640D01*
X54112599Y-51935308D01*
X53985061Y-51759767D01*
X53831633Y-51606339D01*
X53656092Y-51478801D01*
X53462760Y-51380294D01*
X53256400Y-51313243D01*
X53256398Y-51313242D01*
X53256396Y-51313242D01*
X53042095Y-51279300D01*
X53042090Y-51279300D01*
X52825110Y-51279300D01*
X52825105Y-51279300D01*
X52610803Y-51313242D01*
X52404437Y-51380295D01*
X52211107Y-51478801D01*
X52035568Y-51606338D01*
X51894788Y-51747118D01*
X51833465Y-51780602D01*
X51763773Y-51775618D01*
X51707840Y-51733746D01*
X51701568Y-51724532D01*
X51605917Y-51569456D01*
X51481945Y-51445484D01*
X51332724Y-51353443D01*
X51332719Y-51353441D01*
X51166297Y-51298294D01*
X51166290Y-51298293D01*
X51063586Y-51287800D01*
X50643600Y-51287800D01*
X50643600Y-52340090D01*
X50623261Y-52328348D01*
X50471933Y-52287800D01*
X50315267Y-52287800D01*
X50163939Y-52328348D01*
X50143600Y-52340090D01*
X50143600Y-51287800D01*
X49723628Y-51287800D01*
X49723612Y-51287801D01*
X49620902Y-51298294D01*
X49454480Y-51353441D01*
X49454475Y-51353443D01*
X49305254Y-51445484D01*
X49181284Y-51569454D01*
X49089243Y-51718675D01*
X49089241Y-51718680D01*
X49034094Y-51885102D01*
X49034093Y-51885109D01*
X49023600Y-51987813D01*
X34671000Y-51987813D01*
X34671000Y-49294847D01*
X78377500Y-49294847D01*
X78377500Y-51085937D01*
X78377501Y-51085953D01*
X78388113Y-51189827D01*
X78443884Y-51358135D01*
X78443886Y-51358140D01*
X78458529Y-51381880D01*
X78536970Y-51509052D01*
X78662348Y-51634430D01*
X78813262Y-51727515D01*
X78981574Y-51783287D01*
X79085455Y-51793900D01*
X80426544Y-51793899D01*
X80530426Y-51783287D01*
X80698738Y-51727515D01*
X80849652Y-51634430D01*
X80975030Y-51509052D01*
X81068115Y-51358138D01*
X81068116Y-51358135D01*
X81071906Y-51351991D01*
X81073358Y-51352886D01*
X81113587Y-51307194D01*
X81180780Y-51288039D01*
X81247662Y-51308252D01*
X81267482Y-51324354D01*
X81403502Y-51460374D01*
X81577963Y-51587128D01*
X81770098Y-51685027D01*
X81975190Y-51751666D01*
X82046000Y-51762881D01*
X82046000Y-50733109D01*
X82066339Y-50744852D01*
X82217667Y-50785400D01*
X82374333Y-50785400D01*
X82525661Y-50744852D01*
X82546000Y-50733109D01*
X82546000Y-51762880D01*
X82616809Y-51751666D01*
X82821901Y-51685027D01*
X83014036Y-51587128D01*
X83188496Y-51460374D01*
X83188497Y-51460374D01*
X83340974Y-51307897D01*
X83340974Y-51307896D01*
X83467728Y-51133436D01*
X83565627Y-50941301D01*
X83632265Y-50736209D01*
X83666000Y-50523220D01*
X83666000Y-50440400D01*
X82838709Y-50440400D01*
X82850452Y-50420061D01*
X82891000Y-50268733D01*
X82891000Y-50112067D01*
X82850452Y-49960739D01*
X82838709Y-49940400D01*
X83666000Y-49940400D01*
X83666000Y-49857579D01*
X83632265Y-49644590D01*
X83565627Y-49439498D01*
X83467728Y-49247363D01*
X83340974Y-49072903D01*
X83340974Y-49072902D01*
X83188497Y-48920425D01*
X83179443Y-48913847D01*
X89045500Y-48913847D01*
X89045500Y-50704937D01*
X89045501Y-50704953D01*
X89053720Y-50785400D01*
X89056113Y-50808826D01*
X89111885Y-50977138D01*
X89204970Y-51128052D01*
X89330348Y-51253430D01*
X89481262Y-51346515D01*
X89649574Y-51402287D01*
X89753455Y-51412900D01*
X91094544Y-51412899D01*
X91198426Y-51402287D01*
X91366738Y-51346515D01*
X91517652Y-51253430D01*
X91643030Y-51128052D01*
X91736115Y-50977138D01*
X91736116Y-50977135D01*
X91739906Y-50970991D01*
X91741358Y-50971886D01*
X91781587Y-50926194D01*
X91848780Y-50907039D01*
X91915662Y-50927252D01*
X91935482Y-50943354D01*
X92071502Y-51079374D01*
X92245963Y-51206128D01*
X92438098Y-51304027D01*
X92643190Y-51370666D01*
X92714000Y-51381881D01*
X92714000Y-50352109D01*
X92734339Y-50363852D01*
X92885667Y-50404400D01*
X93042333Y-50404400D01*
X93193661Y-50363852D01*
X93214000Y-50352109D01*
X93214000Y-51381880D01*
X93284809Y-51370666D01*
X93489901Y-51304027D01*
X93682036Y-51206128D01*
X93856496Y-51079374D01*
X93856497Y-51079374D01*
X94008974Y-50926897D01*
X94008974Y-50926896D01*
X94135728Y-50752436D01*
X94233627Y-50560301D01*
X94300265Y-50355209D01*
X94334000Y-50142220D01*
X94334000Y-50059400D01*
X93506709Y-50059400D01*
X93518452Y-50039061D01*
X93559000Y-49887733D01*
X93559000Y-49852945D01*
X97903800Y-49852945D01*
X97903800Y-51950254D01*
X97910311Y-52010802D01*
X97910311Y-52010804D01*
X97954262Y-52128637D01*
X97961411Y-52147804D01*
X98049039Y-52264861D01*
X98166096Y-52352489D01*
X98303099Y-52403589D01*
X98330350Y-52406518D01*
X98363645Y-52410099D01*
X98363662Y-52410100D01*
X100365938Y-52410100D01*
X100365954Y-52410099D01*
X100392992Y-52407191D01*
X100426501Y-52403589D01*
X100563504Y-52352489D01*
X100680561Y-52264861D01*
X100768189Y-52147804D01*
X100775307Y-52128719D01*
X100817177Y-52072787D01*
X100882642Y-52048370D01*
X100950915Y-52063222D01*
X100964366Y-52071731D01*
X101139069Y-52198660D01*
X101235878Y-52247986D01*
X101343966Y-52303060D01*
X101343968Y-52303060D01*
X101343971Y-52303062D01*
X101442275Y-52335003D01*
X101562681Y-52374126D01*
X101789812Y-52410100D01*
X101789817Y-52410100D01*
X102019788Y-52410100D01*
X102246918Y-52374126D01*
X102313512Y-52352488D01*
X102465629Y-52303062D01*
X102670531Y-52198660D01*
X102856578Y-52063489D01*
X103019189Y-51900878D01*
X103074483Y-51824772D01*
X103129812Y-51782108D01*
X103199425Y-51776129D01*
X103261220Y-51808735D01*
X103275114Y-51824769D01*
X103330411Y-51900878D01*
X103493022Y-52063489D01*
X103679069Y-52198660D01*
X103775878Y-52247986D01*
X103883966Y-52303060D01*
X103883968Y-52303060D01*
X103883971Y-52303062D01*
X103982275Y-52335003D01*
X104102681Y-52374126D01*
X104329812Y-52410100D01*
X104329817Y-52410100D01*
X104559788Y-52410100D01*
X104786918Y-52374126D01*
X104853512Y-52352488D01*
X105005629Y-52303062D01*
X105210531Y-52198660D01*
X105396578Y-52063489D01*
X105559189Y-51900878D01*
X105694360Y-51714831D01*
X105798762Y-51509929D01*
X105869826Y-51291218D01*
X105905800Y-51064088D01*
X105905800Y-50739111D01*
X105869826Y-50511981D01*
X105798760Y-50293266D01*
X105714800Y-50128485D01*
X105694360Y-50088369D01*
X105559189Y-49902322D01*
X105396578Y-49739711D01*
X105210531Y-49604540D01*
X105161856Y-49579739D01*
X105005633Y-49500139D01*
X104786918Y-49429073D01*
X104559788Y-49393100D01*
X104559783Y-49393100D01*
X104329817Y-49393100D01*
X104329812Y-49393100D01*
X104102681Y-49429073D01*
X103883966Y-49500139D01*
X103679068Y-49604540D01*
X103493019Y-49739713D01*
X103330412Y-49902320D01*
X103275118Y-49978426D01*
X103219787Y-50021091D01*
X103150174Y-50027070D01*
X103088379Y-49994464D01*
X103074482Y-49978426D01*
X103046854Y-49940400D01*
X103019189Y-49902322D01*
X102856578Y-49739711D01*
X102670531Y-49604540D01*
X102621856Y-49579739D01*
X102465633Y-49500139D01*
X102246918Y-49429073D01*
X102019788Y-49393100D01*
X102019783Y-49393100D01*
X101789817Y-49393100D01*
X101789812Y-49393100D01*
X101562681Y-49429073D01*
X101343966Y-49500139D01*
X101139065Y-49604542D01*
X100964373Y-49731463D01*
X100898567Y-49754943D01*
X100830513Y-49739117D01*
X100781818Y-49689012D01*
X100775307Y-49674480D01*
X100768189Y-49655396D01*
X100680561Y-49538339D01*
X100563504Y-49450711D01*
X100545678Y-49444062D01*
X100426503Y-49399611D01*
X100365954Y-49393100D01*
X100365938Y-49393100D01*
X98363662Y-49393100D01*
X98363645Y-49393100D01*
X98303097Y-49399611D01*
X98303095Y-49399611D01*
X98166095Y-49450711D01*
X98049039Y-49538339D01*
X97961411Y-49655395D01*
X97910311Y-49792395D01*
X97910311Y-49792397D01*
X97903800Y-49852945D01*
X93559000Y-49852945D01*
X93559000Y-49731067D01*
X93518452Y-49579739D01*
X93506709Y-49559400D01*
X94334000Y-49559400D01*
X94334000Y-49476579D01*
X94305216Y-49294847D01*
X110279900Y-49294847D01*
X110279900Y-51085937D01*
X110279901Y-51085953D01*
X110290513Y-51189827D01*
X110346284Y-51358135D01*
X110346286Y-51358140D01*
X110360929Y-51381880D01*
X110439370Y-51509052D01*
X110564748Y-51634430D01*
X110715662Y-51727515D01*
X110883974Y-51783287D01*
X110987855Y-51793900D01*
X112328944Y-51793899D01*
X112432826Y-51783287D01*
X112601138Y-51727515D01*
X112752052Y-51634430D01*
X112877430Y-51509052D01*
X112970515Y-51358138D01*
X112970515Y-51358135D01*
X112972546Y-51354844D01*
X113024494Y-51308120D01*
X113093457Y-51296897D01*
X113157539Y-51324741D01*
X113165766Y-51332260D01*
X113300367Y-51466861D01*
X113475908Y-51594399D01*
X113669240Y-51692906D01*
X113875600Y-51759957D01*
X113955966Y-51772685D01*
X114089905Y-51793900D01*
X114089910Y-51793900D01*
X114306895Y-51793900D01*
X114425951Y-51775042D01*
X114521200Y-51759957D01*
X114727560Y-51692906D01*
X114920892Y-51594399D01*
X115096433Y-51466861D01*
X115249861Y-51313433D01*
X115377399Y-51137892D01*
X115475906Y-50944560D01*
X115542957Y-50738200D01*
X115558042Y-50642951D01*
X115576900Y-50523895D01*
X115576900Y-49856904D01*
X115548006Y-49674480D01*
X115542957Y-49642600D01*
X115475906Y-49436240D01*
X115377399Y-49242908D01*
X115249861Y-49067367D01*
X115096433Y-48913939D01*
X114920892Y-48786401D01*
X114727560Y-48687894D01*
X114521200Y-48620843D01*
X114521198Y-48620842D01*
X114521196Y-48620842D01*
X114306895Y-48586900D01*
X114306890Y-48586900D01*
X114089910Y-48586900D01*
X114089905Y-48586900D01*
X113875603Y-48620842D01*
X113669237Y-48687895D01*
X113475907Y-48786401D01*
X113300368Y-48913938D01*
X113165766Y-49048540D01*
X113104443Y-49082024D01*
X113034751Y-49077040D01*
X112978818Y-49035168D01*
X112972547Y-49025955D01*
X112877432Y-48871751D01*
X112877429Y-48871747D01*
X112752053Y-48746371D01*
X112752052Y-48746370D01*
X112601138Y-48653285D01*
X112584612Y-48647809D01*
X112432827Y-48597513D01*
X112328945Y-48586900D01*
X110987862Y-48586900D01*
X110987846Y-48586901D01*
X110883972Y-48597513D01*
X110715664Y-48653284D01*
X110715659Y-48653286D01*
X110564746Y-48746371D01*
X110439371Y-48871746D01*
X110346286Y-49022659D01*
X110346284Y-49022664D01*
X110290513Y-49190972D01*
X110279900Y-49294847D01*
X94305216Y-49294847D01*
X94300265Y-49263590D01*
X94233627Y-49058498D01*
X94135728Y-48866363D01*
X94008974Y-48691903D01*
X94008974Y-48691902D01*
X93856497Y-48539425D01*
X93682036Y-48412671D01*
X93489899Y-48314772D01*
X93284805Y-48248133D01*
X93214000Y-48236918D01*
X93214000Y-49266690D01*
X93193661Y-49254948D01*
X93042333Y-49214400D01*
X92885667Y-49214400D01*
X92734339Y-49254948D01*
X92714000Y-49266690D01*
X92714000Y-48236918D01*
X92713999Y-48236918D01*
X92643194Y-48248133D01*
X92438100Y-48314772D01*
X92245963Y-48412671D01*
X92071506Y-48539422D01*
X91935482Y-48675446D01*
X91874159Y-48708930D01*
X91804467Y-48703946D01*
X91748534Y-48662074D01*
X91739969Y-48647769D01*
X91739906Y-48647809D01*
X91736115Y-48641663D01*
X91736115Y-48641662D01*
X91643030Y-48490748D01*
X91517652Y-48365370D01*
X91366738Y-48272285D01*
X91293851Y-48248133D01*
X91198427Y-48216513D01*
X91094545Y-48205900D01*
X89753462Y-48205900D01*
X89753446Y-48205901D01*
X89649572Y-48216513D01*
X89481264Y-48272284D01*
X89481259Y-48272286D01*
X89330346Y-48365371D01*
X89204971Y-48490746D01*
X89111886Y-48641659D01*
X89111884Y-48641664D01*
X89056113Y-48809972D01*
X89045500Y-48913847D01*
X83179443Y-48913847D01*
X83014036Y-48793671D01*
X82821899Y-48695772D01*
X82616805Y-48629133D01*
X82546000Y-48617918D01*
X82546000Y-49647690D01*
X82525661Y-49635948D01*
X82374333Y-49595400D01*
X82217667Y-49595400D01*
X82066339Y-49635948D01*
X82046000Y-49647690D01*
X82046000Y-48617918D01*
X82045999Y-48617918D01*
X81975194Y-48629133D01*
X81770100Y-48695772D01*
X81577963Y-48793671D01*
X81403506Y-48920422D01*
X81267482Y-49056446D01*
X81206159Y-49089930D01*
X81136467Y-49084946D01*
X81080534Y-49043074D01*
X81071969Y-49028769D01*
X81071906Y-49028809D01*
X81068115Y-49022663D01*
X81068115Y-49022662D01*
X80975030Y-48871748D01*
X80849652Y-48746370D01*
X80698738Y-48653285D01*
X80682212Y-48647809D01*
X80530427Y-48597513D01*
X80426545Y-48586900D01*
X79085462Y-48586900D01*
X79085446Y-48586901D01*
X78981572Y-48597513D01*
X78813264Y-48653284D01*
X78813259Y-48653286D01*
X78662346Y-48746371D01*
X78536971Y-48871746D01*
X78443886Y-49022659D01*
X78443884Y-49022664D01*
X78388113Y-49190972D01*
X78377500Y-49294847D01*
X34671000Y-49294847D01*
X34671000Y-47084900D01*
X34690685Y-47017861D01*
X34743489Y-46972106D01*
X34788314Y-46962354D01*
X34788237Y-46961166D01*
X34792282Y-46960900D01*
X34792288Y-46960900D01*
X35032789Y-46929238D01*
X35267100Y-46866454D01*
X35491212Y-46773624D01*
X35701289Y-46652336D01*
X35893738Y-46504665D01*
X36065265Y-46333138D01*
X36212936Y-46140689D01*
X36334224Y-45930612D01*
X36427054Y-45706500D01*
X36489838Y-45472189D01*
X36521500Y-45231688D01*
X36521500Y-45231681D01*
X36521501Y-45231667D01*
X36521503Y-45231659D01*
X36522030Y-45227663D01*
X36522924Y-45227780D01*
X36545526Y-45166057D01*
X36601208Y-45123852D01*
X36645567Y-45115772D01*
X121850840Y-45347624D01*
G37*
%TD.AperFunction*%
%TD*%
M02*
