M48
; DRILL file {KiCad 8.0.8} date 2025-03-31T15:18:33-0500
; FORMAT={-:-/ absolute / inch / decimal}
; #@! TF.CreationDate,2025-03-31T15:18:33-05:00
; #@! TF.GenerationSoftware,Kicad,Pcbnew,8.0.8
; #@! TF.FileFunction,Plated,1,2,PTH
FMAT,2
INCH
; #@! TA.AperFunction,Plated,PTH,ViaDrill
T1C0.0118
; #@! TA.AperFunction,Plated,PTH,ComponentDrill
T2C0.0119
; #@! TA.AperFunction,Plated,PTH,ComponentDrill
T3C0.0394
; #@! TA.AperFunction,Plated,PTH,ComponentDrill
T4C0.0433
; #@! TA.AperFunction,Plated,PTH,ComponentDrill
T5C0.0469
; #@! TA.AperFunction,Plated,PTH,ComponentDrill
T6C0.0472
; #@! TA.AperFunction,Plated,PTH,ComponentDrill
T7C0.0630
%
G90
G05
T1
X2.262Y-3.07
X2.312Y-2.636
X2.348Y-3.606
X2.38Y-3.375
X2.474Y-3.426
X2.6237Y-3.5047
X2.631Y-3.582
X2.677Y-2.502
X2.751Y-3.246
X2.783Y-3.464
X3.023Y-2.692
X3.204Y-2.606
X3.2596Y-3.09
X3.336Y-2.647
X3.513Y-3.904
X3.55Y-2.196
X3.606Y-3.345
X3.703Y-3.632
X3.953Y-3.357
X3.994Y-2.162
T2
X2.605Y-3.338
X2.605Y-3.3695
X2.605Y-3.401
X2.6365Y-3.338
X2.6365Y-3.3695
X2.6365Y-3.401
X2.668Y-3.338
X2.668Y-3.3695
X2.668Y-3.401
X3.7809Y-3.0344
X3.7809Y-3.0895
X3.8085Y-3.0068
X3.8085Y-3.061
X3.8085Y-3.1171
X3.8361Y-3.0344
X3.8361Y-3.0895
X3.8636Y-3.0068
X3.8636Y-3.061
X3.8636Y-3.1171
X3.8912Y-3.0344
X3.8912Y-3.0895
T3
X1.5838Y-3.278
X1.7806Y-3.278
T4
X1.68Y-2.871
X1.88Y-2.871
X2.08Y-2.871
X3.912Y-2.004
X4.012Y-2.004
X4.112Y-2.004
T5
X1.984Y-2.082
X2.084Y-2.082
X2.319Y-4.0368
X2.419Y-4.0368
X2.735Y-3.986
X2.735Y-4.086
X3.1258Y-3.976
X3.1258Y-4.076
X3.14Y-1.976
X3.187Y-3.2938
X3.187Y-3.67
X3.24Y-1.976
X3.287Y-3.2938
X3.287Y-3.67
X3.387Y-3.67
X3.56Y-1.961
X3.66Y-1.961
X3.79Y-3.8952
X3.89Y-3.8952
X4.396Y-1.976
X4.496Y-1.976
T6
X2.3285Y-2.136
X2.5254Y-2.136
T7
X2.0Y-3.412
X2.15Y-3.412
M30
